<svg width="99" height="106" viewBox="0 0 99 106" fill="none" xmlns="http://www.w3.org/2000/svg">
<path d="M76.8536 33.1999C77.9697 32.9504 78.9542 32.7173 79.711 32.5226C83.7366 31.4943 84.9487 30.1615 85.0721 28.3818C85.2723 25.5409 84.2083 25.5189 82.3738 26.7886C81.6108 27.33 80.7754 27.7611 79.892 28.0692C80.199 27.7185 80.4547 27.3262 80.6516 26.9038C80.9258 26.1963 80.5529 25.7438 80.3088 25.6231C80.1169 25.5299 79.9222 26.0208 79.2586 26.5637C78.403 27.2575 77.712 27.3864 77.0045 28.3544C76.7338 28.7107 76.3448 28.9587 75.9076 29.0537C75.5072 29.1442 68.9341 30.9431 65.8546 31.4723C64.0474 29.1716 62.3692 26.7173 60.4579 24.274C57.5155 20.5062 56.1169 19.9796 54.4661 20.2785L53.0319 25.0061C53.0319 25.0061 62.7229 36.4193 62.8381 36.5619C63.1673 37.0066 63.6282 37.3363 64.1554 37.5042C64.6826 37.6721 65.2493 37.6695 65.775 37.497C69.9487 36.2712 74.3664 34.3489 76.8536 33.1999Z" fill="#FFA8A7"/>
<path d="M54.0822 19.327C57.521 19.4778 58.5411 21.4056 60.3071 23.5445C62.0731 25.6835 65.9177 31.1707 65.9177 31.1707L75.3043 29.2072C75.3043 29.2072 74.9176 31.9028 76.127 33.5262C76.127 33.5262 71.1471 36.0381 68.1306 37.1926C64.3189 38.657 64.0694 38.3224 63.3811 37.6917C62.6928 37.061 54.3318 27.5976 54.3318 27.5976L54.0822 19.327Z" fill="#37474F"/>
<path d="M15.2797 25.6862C16.1709 22.9824 17.1554 22.87 18.3702 24.7402C18.8714 25.5303 19.4806 26.2466 20.1801 26.8681C20.0251 26.4261 19.9328 25.9646 19.9058 25.497C19.9058 24.7374 20.4378 24.4577 20.7093 24.4412C20.9232 24.4412 20.915 24.954 21.3263 25.7082C21.8528 26.6762 22.4424 27.0601 22.7331 28.22C22.8428 28.6561 23.128 29.5226 23.4927 29.7804C25.3574 31.0911 28.7468 32.7063 32.117 34.0089C33.3126 31.4833 34.8894 28.3325 36.0905 26.125C38.3775 21.9294 39.8912 21.4632 41.5557 21.6606L43.2504 26.2977C43.2504 26.2977 34.2011 38.2346 34.1078 38.3827C33.414 39.359 31.9936 40.0281 30.8885 39.5756C27.7322 38.2813 25.3875 36.0107 22.7084 34.1844C21.1179 33.1039 19.6152 32.2648 18.6554 31.5464C15.3345 29.0729 14.7203 27.3809 15.2797 25.6862Z" fill="#FFA8A7"/>
<path d="M39.3811 77.868C39.4552 74.3032 40.5274 71.6569 40.6124 70.667C40.6124 70.667 40.3382 49.4613 40.3382 46.0198L58.4204 45.2822C58.4204 45.2822 58.1681 66.5426 58.1681 69.4905C58.1681 72.4384 57.7266 84.9677 57.2604 90.7346L57.2083 92.6322L53.1718 93.8881C53.1718 93.8881 53.2486 93.3397 53.1718 90.6413C53.095 87.943 51.2824 78.6249 51.1124 76.2584C50.8957 73.1953 51.3866 71.9585 51.3235 69.9128C51.2604 67.8671 50.0676 54.4796 50.0676 54.4796C50.0676 54.4796 47.8025 67.6423 47.2376 72.0984C46.5932 77.2154 44.52 90.6276 44.5146 93.7455C44.5146 94.294 44.5146 94.9521 44.5146 95.6514C44.5146 97.3406 44.4679 97.7848 44.7394 98.4375C45.2111 99.5783 41.1745 100.297 40.9826 99.485L40.5466 96.134V96.038V93.9128C40.552 90.7346 39.2714 83.0399 39.3811 77.868Z" fill="#FFA8A7"/>
<path d="M65.1142 97.9247C65.2241 98.2522 65.2044 98.6094 65.0593 98.9229C64.9194 99.2163 63.3948 100.077 61.3354 99.9375C59.8097 99.83 58.3404 99.3169 57.0794 98.4512C56.2951 97.9302 55.478 97.8342 54.4579 97.7739C53.4377 97.7135 52.0995 97.209 51.8774 96.7318C51.6553 96.2547 51.9103 95.4347 51.9103 95.4347L65.1142 97.9247Z" fill="#37474F"/>
<path d="M56.808 91.4997L56.9725 91.464C57.0619 91.4399 57.1554 91.4352 57.2467 91.4503C57.346 91.4818 57.4338 91.5419 57.499 91.6231C57.7018 91.8789 57.8782 92.1545 58.0255 92.4457C58.4561 93.1477 59.3637 93.7318 60.3509 94.2638C61.0255 94.6258 61.6837 94.9055 62.3774 95.2181C63.0712 95.5307 64.0228 95.7309 64.5712 96.1039C65.3802 96.6523 65.4844 98.0234 64.5712 98.5554C63.7787 99.0216 61.6891 99.5262 59.4981 98.9064C58.3052 98.5691 56.9807 97.294 55.4149 97.1706C54.4168 97.0938 52.5328 96.8141 51.8912 96.0572C51.6553 95.7199 51.9707 94.656 52.2312 93.7401C52.5054 92.7364 52.8537 91.1678 53.1855 91.2556C53.1992 91.453 53.1608 91.5024 53.2897 91.6368C53.4186 91.7711 53.5776 91.8424 53.712 91.9576C53.942 92.1858 54.1279 92.4545 54.2604 92.7501C54.3124 92.8819 54.4096 92.9908 54.5347 93.0572C54.7047 93.1203 54.8281 93.0134 54.9762 92.9476C55.1628 92.862 55.374 92.8464 55.5712 92.9037C55.5516 92.7057 55.5168 92.5095 55.467 92.3168C55.4441 92.2565 55.4384 92.191 55.4506 92.1276C55.4772 92.0668 55.5223 92.016 55.5795 91.9823C55.9506 91.737 56.3691 91.5726 56.808 91.4997Z" fill="#455A64"/>
<path d="M48.6663 103.757C48.7869 103.873 48.7513 104.657 48.6169 104.854C48.4825 105.052 47.6434 105.787 46.1489 105.896C44.7202 105.998 43.4423 105.806 42.6032 105.271C41.7641 104.736 41.3555 104.15 41.2787 103.335C41.2019 102.521 41.2787 101.734 40.9003 101.108C40.5411 100.53 39.9707 99.8772 39.8473 99.5618C39.5731 98.879 39.8473 97.9028 39.8473 97.9028L48.6663 103.757Z" fill="#37474F"/>
<path d="M44.7504 96.6441C44.7611 96.953 44.8165 97.2588 44.915 97.5518C45.1353 98.1822 45.4299 98.7843 45.7925 99.3452C45.9704 99.6388 46.1693 99.9192 46.3875 100.184C46.8208 100.7 47.3583 101.122 47.8162 101.616C48.3044 102.082 48.6164 102.703 48.6992 103.373C48.7596 104.495 47.542 104.876 46.6042 105.041C45.5901 105.219 44.5491 105.167 43.5576 104.89C43.0372 104.754 42.5672 104.47 42.2034 104.074C41.8397 103.678 41.5977 103.185 41.5064 102.655C41.4543 102.342 41.4735 102.024 41.4378 101.712C41.3125 100.996 41.013 100.321 40.5658 99.7483C40.3046 99.4171 40.0802 99.0585 39.8967 98.6788C39.6033 97.985 39.8364 97.2035 40.0256 96.5125C40.1874 95.9146 40.3683 95.2401 40.574 95.2949C40.574 95.6048 40.574 95.6377 40.7961 95.8433C41.0704 96.1176 41.0868 96.5097 41.3857 96.7428C41.289 96.4847 41.2192 96.2173 41.1773 95.9448C41.1574 95.8355 41.1799 95.7227 41.2404 95.6295C41.3379 95.5412 41.4556 95.4781 41.5832 95.4457C42.0279 95.2942 42.4875 95.1903 42.9543 95.1359C43.3946 95.0632 43.8439 95.0632 44.2842 95.1359C44.4148 95.1604 44.5329 95.2292 44.6188 95.3306C44.6963 95.4425 44.7374 95.5756 44.7367 95.7117C44.7559 95.8872 44.7422 96.3479 44.7504 96.6441Z" fill="#455A64"/>
<path d="M45.9432 99.5783C45.5237 99.2657 44.5886 99.2629 44.0758 99.3178C43.5562 99.363 43.0563 99.5384 42.6224 99.8278C42.5588 99.8739 42.4808 99.8958 42.4025 99.8898C42.3241 99.8838 42.2505 99.8501 42.1946 99.7949C42.1617 99.7634 42.1361 99.7251 42.1195 99.6827C42.103 99.6403 42.0959 99.5948 42.0988 99.5493C42.1016 99.5039 42.1144 99.4596 42.1362 99.4196C42.1579 99.3796 42.1882 99.3448 42.2248 99.3178C42.7046 98.9636 43.2753 98.7534 43.8701 98.7117C45.1316 98.6212 45.499 98.8379 45.499 98.8379C45.499 98.8379 46.0694 99.2081 45.9432 99.5783Z" fill="#F5F5F5"/>
<path d="M46.8921 100.727C46.3656 100.417 45.3372 100.453 44.8244 100.519C44.3128 100.574 43.8249 100.764 43.4094 101.067C43.3457 101.114 43.2674 101.135 43.1889 101.129C43.1104 101.122 43.0369 101.088 42.9817 101.032C42.949 101 42.9235 100.962 42.9072 100.92C42.8909 100.877 42.8841 100.832 42.8872 100.787C42.8904 100.742 42.9034 100.698 42.9254 100.658C42.9474 100.618 42.9778 100.584 43.0146 100.557C43.4998 100.187 44.0794 99.9595 44.6873 99.9019C45.946 99.8114 46.2751 100.069 46.2751 100.069C46.4206 100.126 46.5515 100.214 46.6583 100.328C46.765 100.442 46.8449 100.578 46.8921 100.727Z" fill="#F5F5F5"/>
<path d="M43.3601 97.5051C43.891 97.4128 44.4367 97.4581 44.9451 97.6368C45.1672 97.7629 45.3126 98.1139 45.17 98.2017C44.725 98.0225 44.2426 97.9565 43.7659 98.0097C43.2909 98.0544 42.8271 98.1806 42.3948 98.3827C42.2879 98.432 42.1617 98.4978 42.0493 98.5609C42.0138 98.5803 41.9748 98.5924 41.9345 98.5964C41.8942 98.6004 41.8536 98.5963 41.8149 98.5843C41.7763 98.5722 41.7405 98.5526 41.7096 98.5264C41.6787 98.5002 41.6534 98.4682 41.6352 98.432C41.6035 98.3691 41.5973 98.2965 41.6177 98.2291C41.6381 98.1617 41.6837 98.1048 41.7449 98.07C42.2365 97.768 42.7874 97.5754 43.3601 97.5051Z" fill="#F5F5F5"/>
<path d="M59.4186 93.7263C59.347 93.5895 59.2422 93.4728 59.1138 93.3871C58.9854 93.3013 58.8375 93.2492 58.6837 93.2355C58.2312 93.1505 57.4305 93.485 56.9314 93.8936C56.8843 93.9322 56.8474 93.9816 56.8239 94.0377C56.8004 94.0937 56.7909 94.1547 56.7963 94.2153C56.8017 94.2758 56.8218 94.3342 56.8549 94.3852C56.888 94.4362 56.9331 94.4783 56.9862 94.5079C57.0533 94.5446 57.1301 94.5599 57.2061 94.5515C57.2821 94.5432 57.3537 94.5117 57.4113 94.4613C57.9586 93.9633 58.6791 93.6995 59.4186 93.7263Z" fill="#F5F5F5"/>
<path d="M60.8226 94.5161C60.7246 94.3767 60.5944 94.263 60.4431 94.1847C60.2917 94.1064 60.1237 94.0658 59.9533 94.0664C59.9533 94.0664 58.7687 94.102 58.0338 94.7848C57.9888 94.822 57.9534 94.8696 57.9308 94.9234C57.9081 94.9772 57.8988 95.0357 57.9037 95.0939C57.9085 95.1521 57.9274 95.2082 57.9586 95.2576C57.9899 95.3069 58.0326 95.3479 58.0831 95.3772C58.1475 95.4134 58.2216 95.4283 58.295 95.42C58.3683 95.4116 58.4372 95.3803 58.4917 95.3305C58.7941 95.0285 59.1607 94.7984 59.5643 94.6574C59.9678 94.5164 60.3979 94.4681 60.8226 94.5161Z" fill="#F5F5F5"/>
<path d="M62.3747 95.2236C62.2623 95.0944 62.1231 94.9912 61.9668 94.9212C61.8106 94.8511 61.641 94.8158 61.4698 94.8178C60.797 94.8588 60.1547 95.1123 59.6352 95.5417C59.5902 95.5789 59.5549 95.6264 59.5322 95.6803C59.5095 95.7341 59.5002 95.7926 59.5051 95.8508C59.5099 95.909 59.5288 95.9651 59.5601 96.0144C59.5913 96.0638 59.634 96.1048 59.6846 96.134C59.749 96.1698 59.8231 96.1846 59.8963 96.1762C59.9696 96.1678 60.0384 96.1368 60.0932 96.0874C60.3794 95.7751 60.735 95.5342 61.1312 95.3842C61.5274 95.2342 61.9533 95.1792 62.3747 95.2236Z" fill="#F5F5F5"/>
<path d="M58.4314 45.2822C58.4314 45.2822 58.6727 60.263 58.7056 62.8955C58.7385 65.528 58.7056 70.5737 58.7056 73.1459C58.7056 73.1459 58.0393 74.2702 54.2385 74.2675C50.4378 74.2648 49.8893 73.2145 49.8893 73.2145L49.3272 61.1048L48.2632 73.6752C47.4942 74.1984 46.6262 74.5586 45.7127 74.7336C44.7991 74.9086 43.8594 74.8946 42.9515 74.6925C39.8226 74.018 39.3619 73.0856 39.3619 73.0856L39.9789 45.3315L58.4314 45.2822Z" fill="#37474F"/>
<path d="M49.3217 61.1048L49.8701 56.0207C49.8701 56.0207 52.478 55.3845 54.222 54.071C53.6603 54.7529 52.9916 55.3391 52.2421 55.8068C51.1836 56.4019 50.6736 56.646 50.6736 56.646L49.9112 61.5655L49.7769 71.1633L49.3217 61.1048Z" fill="#263238"/>
<path d="M39.7623 47.8791C42.244 49.6862 53.4953 51.6908 58.7165 47.8791C58.7165 47.8791 58.5959 33.2959 58.1845 25.5765C58.1653 25.2255 58.1434 24.8855 58.1078 24.5564C58.1078 24.4467 58.0803 24.337 58.0694 24.2274C58.009 23.7646 57.9174 23.3066 57.7952 22.8562C57.776 22.7822 57.7513 22.7082 57.7293 22.6341C57.6772 22.4668 57.6251 22.3051 57.5566 22.1433C57.5237 22.0583 57.488 21.9732 57.4496 21.891C57.4112 21.8087 57.3783 21.7347 57.3345 21.6606C57.3309 21.6458 57.3244 21.6318 57.3153 21.6195C57.2769 21.5455 57.233 21.4714 57.1919 21.4001C57.1507 21.3288 57.0986 21.2438 57.0438 21.167C56.9889 21.0902 56.9423 21.0217 56.8902 20.9559C56.8381 20.8901 56.7696 20.8078 56.7037 20.7365C56.6442 20.6674 56.5811 20.6015 56.5145 20.5391L56.3774 20.4102L56.2403 20.2977C56.1827 20.2456 56.1169 20.199 56.0538 20.1524C55.8448 20.0058 55.6248 19.8757 55.3957 19.763C55.3326 19.7328 55.2668 19.6999 55.201 19.6753C55.185 19.669 55.1694 19.6617 55.1544 19.6533L54.9186 19.5656C54.7866 19.5138 54.6521 19.469 54.5154 19.4312C54.3765 19.3928 54.2312 19.3572 54.0794 19.3243C53.9094 19.3243 53.7229 19.3243 53.531 19.3243H53.1197L52.6754 19.3407C50.7229 19.4257 47.9204 19.7411 45.6718 20.029L45.233 20.0893L44.8464 20.136C43.3025 20.3389 42.159 20.5062 41.9835 20.5336H41.956C41.4515 20.6625 40.9826 20.7831 40.6041 20.8955C39.5731 21.1999 40.3299 20.9394 40.1133 21.9376C39.4469 24.8663 40.223 35.5198 40.223 35.5198L39.7623 47.8791Z" fill="#455A64"/>
<path d="M44.2513 11.3142C44.2513 11.3142 45.0548 15.0848 45.3757 15.7018C45.591 16.0833 45.9443 16.3678 46.3629 16.497L46.3053 13.8453L44.2513 11.3142Z" fill="#263238"/>
<path d="M45.2467 5.91476C44.9659 5.88307 44.6815 5.91601 44.4153 6.01106C44.1492 6.10612 43.9083 6.26078 43.7111 6.46321C43.0529 7.13231 43.4286 9.23286 44.2513 11.3142L45.7623 11.4897L45.2467 5.91476Z" fill="#263238"/>
<path d="M46.2148 11.4897C45.9131 11.6707 45.4799 11.0893 45.1179 10.6972C44.7559 10.3051 43.5247 9.77308 42.9241 11.0537C42.3236 12.3343 43.4726 14.0866 44.4214 14.3882C46.0667 14.9093 46.3245 13.8398 46.3245 13.8398L46.4177 19.9275C48.1508 23.0674 54.0164 21.4604 51.8171 19.3791V17.8352C52.6488 17.8943 53.4836 17.8943 54.3153 17.8352C55.5329 17.646 56.0319 16.8041 56.4021 15.4851C56.9945 13.3681 57.2248 11.6597 56.7175 7.49703C56.1691 2.9367 50.8601 2.89009 47.9945 4.69173C45.1289 6.49337 46.2148 11.4897 46.2148 11.4897Z" fill="#FFA8A7"/>
<path d="M45.521 3.42208C46.5258 2.99291 47.5752 2.67653 48.6499 2.47875C50.9643 1.97693 53.3116 1.51349 55.4341 0.446764C55.6789 0.288082 55.9651 0.205098 56.2568 0.20819C56.8052 0.28223 57.0575 0.956818 57.0795 1.51623C57.0985 2.03768 57.0299 2.55863 56.8765 3.05736C57.0448 2.89611 57.2699 2.8077 57.503 2.8113C57.736 2.81489 57.9583 2.9102 58.1215 3.07656C58.2766 3.25147 58.3899 3.45944 58.4526 3.68467C58.5153 3.90989 58.5259 4.14645 58.4835 4.37638C58.3464 5.41294 57.5539 6.27674 56.6133 6.73743C55.6727 7.19813 54.6087 7.31056 53.5639 7.34072C52.104 7.38451 50.6436 7.27514 49.2065 7.0144C48.8617 6.92773 48.5045 6.90175 48.1508 6.93761C47.9741 6.95736 47.8066 7.02648 47.6674 7.13706C47.5282 7.24765 47.4229 7.39521 47.3637 7.56284C47.2102 8.13871 47.0484 12.0574 46.2449 12.0738C46.0941 12.0738 45.5237 11.0893 45.148 10.7383C44.6819 10.2941 44.2102 6.93761 44.1279 6.31787C44.1177 6.2696 44.0961 6.22447 44.0649 6.18624C43.5383 5.44859 44.1553 4.20636 44.8053 3.80051C45.0363 3.66059 45.2753 3.53424 45.521 3.42208Z" fill="#263238"/>
<path d="M44.3528 6.23835C44.2588 6.34872 44.144 6.4395 44.0149 6.50551C43.8858 6.57151 43.745 6.61145 43.6005 6.62303C43.456 6.63462 43.3106 6.61763 43.1727 6.57303C43.0347 6.52844 42.9069 6.45711 42.7965 6.36312C42.6862 6.26913 42.5954 6.15432 42.5294 6.02524C42.4634 5.89617 42.4234 5.75536 42.4119 5.61085C42.4003 5.46634 42.4173 5.32097 42.4619 5.18303C42.5065 5.04509 42.5778 4.91728 42.6718 4.8069L44.3528 6.23835Z" fill="#263238"/>
<path d="M51.8116 17.8407C51.8116 17.8407 49.0968 17.5665 48.1453 17.0729C47.5863 16.782 47.1284 16.3289 46.8317 15.7731C46.9753 16.3288 47.229 16.85 47.5776 17.306C48.2741 18.1945 51.8116 18.8498 51.8116 18.8498V17.8407Z" fill="#F28F8F"/>
<path d="M51.159 10.8096C51.1552 10.9172 51.1199 11.0213 51.0574 11.1089C50.9949 11.1966 50.908 11.2639 50.8075 11.3024C50.707 11.341 50.5974 11.3492 50.4923 11.3259C50.3872 11.3026 50.2913 11.2489 50.2165 11.1715C50.1417 11.0941 50.0913 10.9964 50.0717 10.8906C50.052 10.7847 50.0639 10.6755 50.1059 10.5764C50.148 10.4773 50.2182 10.3927 50.3079 10.3333C50.3977 10.2738 50.5029 10.2421 50.6105 10.242C50.6842 10.242 50.7571 10.2567 50.825 10.2855C50.8928 10.3143 50.9541 10.3564 51.0053 10.4094C51.0565 10.4623 51.0965 10.5251 51.1229 10.5939C51.1493 10.6626 51.1616 10.736 51.159 10.8096Z" fill="#263238"/>
<path d="M50.5831 8.75571L49.4177 9.39739C49.3346 9.23744 49.3167 9.0515 49.3679 8.87865C49.419 8.7058 49.5351 8.55951 49.6919 8.47052C49.7687 8.42872 49.8532 8.40291 49.9403 8.39468C50.0274 8.38644 50.1152 8.39593 50.1985 8.42259C50.2818 8.44924 50.3588 8.49251 50.4249 8.54976C50.491 8.60701 50.5448 8.67707 50.5831 8.75571Z" fill="#263238"/>
<path d="M51.5676 14.572L52.8098 15.0382C52.7827 15.1215 52.7391 15.1986 52.6815 15.2648C52.624 15.3309 52.5537 15.3848 52.4749 15.4232C52.396 15.4616 52.3103 15.4837 52.2227 15.4882C52.1352 15.4927 52.0476 15.4796 51.9652 15.4495C51.7982 15.3832 51.6634 15.2547 51.5893 15.091C51.5151 14.9273 51.5073 14.7413 51.5676 14.572Z" fill="#F28F8F"/>
<path d="M56.0155 9.20818L54.9542 8.38551C55.0038 8.31368 55.0675 8.25272 55.1414 8.20635C55.2154 8.15998 55.298 8.12918 55.3842 8.11584C55.4705 8.10249 55.5585 8.10687 55.643 8.12872C55.7275 8.15057 55.8067 8.18943 55.8756 8.24291C56.0189 8.35473 56.1134 8.51757 56.1395 8.69744C56.1656 8.87731 56.1211 9.06029 56.0155 9.20818Z" fill="#263238"/>
<path d="M55.6891 10.6561C55.6854 10.7637 55.65 10.8677 55.5875 10.9554C55.525 11.043 55.4381 11.1103 55.3376 11.1489C55.2371 11.1875 55.1275 11.1956 55.0224 11.1723C54.9173 11.1491 54.8214 11.0954 54.7466 11.018C54.6718 10.9406 54.6215 10.8428 54.6018 10.737C54.5822 10.6312 54.5941 10.5219 54.6361 10.4228C54.6781 10.3237 54.7484 10.2392 54.8381 10.1797C54.9278 10.1202 55.0331 10.0885 55.1407 10.0884C55.2144 10.0884 55.2873 10.1032 55.3551 10.1319C55.4229 10.1607 55.4843 10.2028 55.5355 10.2558C55.5866 10.3088 55.6266 10.3715 55.653 10.4403C55.6794 10.5091 55.6917 10.5825 55.6891 10.6561Z" fill="#263238"/>
<path d="M53.3637 10.2667L53.5447 13.5409L55.2531 12.9568L53.3637 10.2667Z" fill="#F28F8F"/>
<path d="M42.1617 20.5308C38.1444 20.5939 37.1023 22.9604 35.9177 25.4668C34.733 27.9732 31.7275 33.6387 31.7275 33.6387L24.1645 30.2191C23.7306 31.5688 22.8292 32.7192 21.6224 33.4632C21.6224 33.4632 25.1873 36.4604 28.2641 38.657C30.8665 40.5162 32.3774 41.4814 33.3784 40.8151C34.1188 40.3215 41.5008 30.6688 41.5008 30.6688C43.382 27.7347 43.7824 22.752 42.1617 20.5308Z" fill="#37474F"/>
<path d="M54.9542 12.1369L54.5237 11.9175L54.1014 11.3142C54.1696 11.2853 54.2436 11.273 54.3175 11.2782C54.3914 11.2835 54.463 11.3061 54.5264 11.3444C54.7184 11.4815 54.9542 12.1369 54.9542 12.1369Z" fill="#BA68C8"/>
<path opacity="0.65" d="M54.9542 12.1369L54.5237 11.9175L54.1014 11.3142C54.1696 11.2853 54.2436 11.273 54.3175 11.2782C54.3914 11.2835 54.463 11.3061 54.5264 11.3444C54.7184 11.4815 54.9542 12.1369 54.9542 12.1369Z" fill="black"/>
<path d="M58.9579 10.253C58.9311 10.7005 58.7588 11.127 58.4672 11.4676C58.1756 11.8082 57.7807 12.0442 57.3427 12.1396L56.6654 12.2548C56.3688 12.3094 56.0674 12.3333 55.7659 12.3261H55.6754C55.6261 12.3261 55.5767 12.3261 55.5301 12.3261C55.4461 12.318 55.3627 12.3042 55.2805 12.285C55.2375 12.2767 55.1953 12.2648 55.1544 12.2493C55.1164 12.2385 55.0797 12.2238 55.0447 12.2054C55.0287 12.1999 55.0138 12.1916 55.0008 12.1808C54.9823 12.1718 54.9648 12.1607 54.9487 12.1478C54.9212 12.1247 54.898 12.0968 54.8802 12.0656L54.6471 11.5884C54.5934 11.4933 54.5125 11.4164 54.4148 11.3675C54.317 11.3187 54.207 11.3001 54.0986 11.3142L53.616 11.3992C53.4965 11.4305 53.3854 11.4877 53.2906 11.5669C53.1958 11.6461 53.1196 11.7452 53.0676 11.8572C53.0676 11.8572 52.9661 12.1095 52.8372 12.4056C52.7083 12.7018 51.9076 13.0884 51.052 13.2283L50.3747 13.3489C50.2374 13.3692 50.0979 13.3692 49.9606 13.3489C49.8835 13.3437 49.8071 13.3299 49.733 13.3078L49.6288 13.2776L49.563 13.2502C49.5037 13.2274 49.4468 13.199 49.393 13.1652C49.2092 13.0912 46.2559 11.8901 45.85 10.9221C45.2028 9.36449 47.8601 7.76028 48.8171 7.4559C48.9267 7.41134 49.0407 7.37825 49.1571 7.35717L56.1334 6.16156C56.4807 6.09229 56.8413 6.1601 57.1398 6.35078C57.318 6.46321 57.9761 6.8526 58.2504 7.01714C58.2747 7.02819 58.2977 7.04199 58.3189 7.05827C58.3573 7.08021 58.3957 7.10763 58.4341 7.13231C58.4471 7.14098 58.459 7.1511 58.4697 7.16248C58.5081 7.19264 58.5438 7.22555 58.5794 7.25845C58.6224 7.30183 58.6619 7.3486 58.6973 7.39831C58.7246 7.4325 58.7485 7.46923 58.7686 7.508C58.8027 7.56204 58.8321 7.61892 58.8564 7.67802C58.8783 7.73012 58.8948 7.78222 58.9112 7.83432C58.9258 7.8836 58.9359 7.93407 58.9414 7.98515C58.9439 7.99689 58.9439 8.00905 58.9414 8.02079C58.9456 8.07831 58.9456 8.13604 58.9414 8.19355C58.9725 8.88642 58.978 9.57289 58.9579 10.253Z" fill="#BA68C8"/>
<g opacity="0.2">
<path opacity="0.2" d="M58.9579 10.253C58.9311 10.7005 58.7588 11.127 58.4672 11.4676C58.1756 11.8082 57.7807 12.0442 57.3427 12.1396L56.6654 12.2548C56.3688 12.3094 56.0674 12.3333 55.7659 12.3261H55.6754C55.6261 12.3261 55.5767 12.3261 55.5301 12.3261C55.4461 12.318 55.3627 12.3042 55.2805 12.285C55.2375 12.2767 55.1953 12.2648 55.1544 12.2493C55.1164 12.2385 55.0797 12.2238 55.0447 12.2054C55.0287 12.1999 55.0138 12.1916 55.0008 12.1808C54.9823 12.1718 54.9648 12.1607 54.9487 12.1478C54.9212 12.1247 54.898 12.0968 54.8802 12.0656L54.6471 11.5884C54.5934 11.4933 54.5125 11.4164 54.4148 11.3675C54.317 11.3187 54.207 11.3001 54.0986 11.3142L53.616 11.3992C53.4965 11.4305 53.3854 11.4877 53.2906 11.5669C53.1958 11.6461 53.1196 11.7452 53.0676 11.8572C53.0676 11.8572 52.9661 12.1095 52.8372 12.4056C52.7083 12.7018 51.9076 13.0884 51.052 13.2283L50.3747 13.3489C50.2374 13.3692 50.0979 13.3692 49.9606 13.3489C49.8835 13.3437 49.8071 13.3299 49.733 13.3078L49.6288 13.2776L49.563 13.2502C49.5037 13.2274 49.4468 13.199 49.393 13.1652C49.2092 13.0912 46.2559 11.8901 45.85 10.9221C45.2028 9.36449 47.8601 7.76028 48.8171 7.4559C48.9267 7.41134 49.0407 7.37825 49.1571 7.35717L56.1334 6.16156C56.4807 6.09229 56.8413 6.1601 57.1398 6.35078C57.318 6.46321 57.9761 6.8526 58.2504 7.01714C58.2747 7.02819 58.2977 7.04199 58.3189 7.05827C58.3573 7.08021 58.3957 7.10763 58.4341 7.13231C58.4471 7.14098 58.459 7.1511 58.4697 7.16248C58.5081 7.19264 58.5438 7.22555 58.5794 7.25845C58.6224 7.30183 58.6619 7.3486 58.6973 7.39831C58.7246 7.4325 58.7485 7.46923 58.7686 7.508C58.8027 7.56204 58.8321 7.61892 58.8564 7.67802C58.8783 7.73012 58.8948 7.78222 58.9112 7.83432C58.9258 7.8836 58.9359 7.93407 58.9414 7.98515C58.9439 7.99689 58.9439 8.00905 58.9414 8.02079C58.9456 8.07831 58.9456 8.13604 58.9414 8.19355C58.9725 8.88642 58.978 9.57289 58.9579 10.253Z" fill="black"/>
</g>
<path d="M58.2504 7.01714C57.9727 6.87412 57.6552 6.8278 57.3482 6.88551L50.3719 8.11677C49.9535 8.20758 49.5737 8.4264 49.2853 8.74286C48.9968 9.05932 48.814 9.45772 48.7623 9.88277L46.7604 8.72829C47.3647 8.19596 48.0594 7.77617 48.8116 7.4888C48.9213 7.44424 49.0352 7.41116 49.1517 7.39008L56.1334 6.16156C56.4807 6.09229 56.8413 6.1601 57.1398 6.35078C57.3125 6.46321 57.9761 6.8526 58.2504 7.01714Z" fill="#BA68C8"/>
<path opacity="0.35" d="M58.2504 7.01714C57.9727 6.87412 57.6552 6.8278 57.3482 6.88551L50.3719 8.11677C49.9535 8.20758 49.5737 8.4264 49.2853 8.74286C48.9968 9.05932 48.814 9.45772 48.7623 9.88277L46.7604 8.72829C47.3647 8.19596 48.0594 7.77617 48.8116 7.4888C48.9213 7.44424 49.0352 7.41116 49.1517 7.39008L56.1334 6.16156C56.4807 6.09229 56.8413 6.1601 57.1398 6.35078C57.3125 6.46321 57.9761 6.8526 58.2504 7.01714Z" fill="white"/>
<path d="M58.9579 8.19904C58.9743 8.88277 58.9743 9.56832 58.9579 10.2557C58.9313 10.7027 58.7589 11.1287 58.4672 11.4684C58.1755 11.8082 57.7805 12.043 57.3427 12.1369L56.6654 12.2575C55.8071 12.4084 55.02 12.3151 54.8802 12.0546L54.6471 11.5775C54.5934 11.4823 54.5125 11.4054 54.4148 11.3565C54.3171 11.3077 54.207 11.2891 54.0986 11.3032L53.6133 11.391C53.4933 11.4212 53.3817 11.478 53.2867 11.5573C53.1918 11.6366 53.1159 11.7363 53.0648 11.8489L52.8317 12.3974C52.7028 12.7045 51.9049 13.0775 51.0493 13.2201L50.372 13.3407C50.1765 13.3825 49.9741 13.38 49.7798 13.3333C49.5854 13.2866 49.404 13.197 49.2488 13.071C49.0936 12.945 48.9686 12.7858 48.883 12.6052C48.7974 12.4246 48.7533 12.2271 48.754 12.0272C48.7376 11.3444 48.7376 10.6561 48.754 9.97326C48.7811 9.52568 48.9539 9.09927 49.246 8.7591C49.5382 8.41894 49.9336 8.18372 50.372 8.08935L57.3482 6.86083C57.5452 6.81944 57.749 6.82312 57.9444 6.87161C58.1398 6.92009 58.3217 7.01213 58.4765 7.14083C58.6313 7.26952 58.755 7.43156 58.8384 7.6148C58.9217 7.79805 58.9626 7.99778 58.9579 8.19904Z" fill="#BA68C8"/>
<path opacity="0.5" d="M58.9579 10.253C58.9311 10.7005 58.7588 11.127 58.4672 11.4676C58.1756 11.8082 57.7808 12.0442 57.3427 12.1396L56.6654 12.2548C56.3688 12.3094 56.0674 12.3333 55.7659 12.3261H55.6754C55.6261 12.3261 55.5767 12.3261 55.5301 12.3261C55.4461 12.318 55.3627 12.3042 55.2805 12.285C55.2375 12.2767 55.1953 12.2648 55.1544 12.2493C55.1164 12.2385 55.0797 12.2238 55.0447 12.2054C55.0287 12.1999 55.0138 12.1916 55.0008 12.1808C54.9823 12.1718 54.9648 12.1607 54.9487 12.1478C54.9212 12.1247 54.898 12.0968 54.8802 12.0656L54.6471 11.5884C54.5934 11.4933 54.5125 11.4164 54.4148 11.3675C54.3171 11.3187 54.207 11.3001 54.0986 11.3142L53.616 11.3992C53.4965 11.4305 53.3854 11.4877 53.2906 11.5669C53.1958 11.6461 53.1196 11.7452 53.0676 11.8572C53.0676 11.8572 52.9661 12.1095 52.8372 12.4056C52.7083 12.7018 51.9076 13.0884 51.052 13.2283L50.3747 13.3489C50.2374 13.3692 50.0979 13.3692 49.9606 13.3489C49.8835 13.3437 49.8071 13.3299 49.733 13.3078L49.6288 13.2776L49.563 13.2502C49.5037 13.2274 49.4468 13.199 49.393 13.1652C49.1983 13.0453 49.0376 12.8774 48.9262 12.6777C48.8149 12.478 48.7565 12.2531 48.7568 12.0244C48.7403 11.3389 48.7403 10.6533 48.7568 9.96777C48.7839 9.5202 48.9567 9.09378 49.2488 8.75362C49.5409 8.41345 49.9364 8.17823 50.3747 8.08387L57.3509 6.85261C57.6579 6.7949 57.9754 6.84121 58.2531 6.98423C58.2775 6.99529 58.3005 7.00909 58.3217 7.02537C58.3601 7.0473 58.3985 7.07473 58.4368 7.09941C58.4498 7.10807 58.4618 7.1182 58.4725 7.12957C58.5109 7.15974 58.5465 7.19264 58.5822 7.22555C58.6252 7.26893 58.6646 7.31569 58.7001 7.3654C58.7273 7.39959 58.7512 7.43632 58.7714 7.47509C58.8055 7.52913 58.8348 7.58602 58.8592 7.64511C58.8811 7.69721 58.8975 7.74931 58.914 7.80142C58.9285 7.85069 58.9386 7.90117 58.9442 7.95224C58.9467 7.96399 58.9467 7.97614 58.9442 7.98789C58.9483 8.0454 58.9483 8.10314 58.9442 8.16065C58.9734 8.87545 58.978 9.57289 58.9579 10.253Z" fill="white"/>
<g opacity="0.7">
<path opacity="0.7" d="M58.9579 8.19903C58.9621 8.14152 58.9621 8.08378 58.9579 8.02627C58.9605 8.01452 58.9605 8.00237 58.9579 7.99062C58.9524 7.93955 58.9423 7.88907 58.9278 7.8398C58.9113 7.78769 58.8949 7.73559 58.8729 7.68349C58.8486 7.6244 58.8193 7.56752 58.7852 7.51347C58.765 7.4747 58.7411 7.43797 58.7139 7.40378C58.6784 7.35408 58.639 7.30731 58.596 7.26393C58.5603 7.23102 58.5247 7.19812 58.4863 7.16795C58.4766 7.15737 58.4655 7.14814 58.4534 7.14053L54.2605 11.3115C54.3429 11.3227 54.4215 11.3535 54.4897 11.4012C54.5579 11.4489 54.6138 11.5121 54.6526 11.5857L54.8857 12.0628C54.9035 12.0941 54.9267 12.1219 54.9543 12.1451C54.9704 12.158 54.9878 12.169 55.0064 12.178C55.0194 12.1888 55.0343 12.1972 55.0503 12.2027C55.0852 12.221 55.122 12.2357 55.1599 12.2466C55.2009 12.262 55.2431 12.274 55.2861 12.2822C55.3683 12.3015 55.4516 12.3152 55.5356 12.3233C55.5822 12.3233 55.6316 12.3233 55.681 12.3233H55.7715C55.9546 12.3273 56.1379 12.3191 56.3199 12.2987L58.9799 9.64144C58.9771 9.16155 58.9744 8.6844 58.9579 8.19903Z" fill="#BA68C8"/>
<path opacity="0.7" d="M55.6508 7.18715L49.5548 13.2804L49.6206 13.3078L49.7248 13.338C49.7989 13.3601 49.8753 13.3739 49.9524 13.3791C50.0897 13.3994 50.2292 13.3994 50.3665 13.3791L50.808 13.2996L57.1837 6.92664L55.6508 7.18715Z" fill="#BA68C8"/>
<path opacity="0.7" d="M51.3126 7.94949L48.7486 10.5162C48.7486 11.029 48.7486 11.5418 48.7486 12.0573C48.7517 12.2929 48.8139 12.5239 48.9296 12.7292L54.2221 7.43669L51.3126 7.94949Z" fill="#BA68C8"/>
</g>
<path d="M47.1389 10.6424C47.1433 10.6794 47.1392 10.717 47.127 10.7523C47.1148 10.7876 47.0947 10.8196 47.0683 10.846C47.0419 10.8724 47.0099 10.8925 46.9746 10.9047C46.9393 10.9169 46.9017 10.921 46.8646 10.9166C46.7852 10.8973 46.7147 10.8514 46.6648 10.7866C46.615 10.7217 46.5887 10.6419 46.5904 10.5601C46.586 10.523 46.5901 10.4854 46.6023 10.4502C46.6145 10.4149 46.6346 10.3828 46.661 10.3564C46.6874 10.33 46.7194 10.31 46.7547 10.2977C46.79 10.2855 46.8276 10.2815 46.8646 10.2859C46.9438 10.3057 47.0141 10.3516 47.0638 10.4164C47.1136 10.4811 47.1401 10.5607 47.1389 10.6424Z" fill="#263238"/>
<g opacity="0.5">
<path opacity="0.5" d="M57.6142 7.00891C57.8125 7.00874 58.008 7.05574 58.1845 7.14602C58.2048 7.15612 58.2241 7.16806 58.2421 7.18167C58.2781 7.20262 58.3129 7.2255 58.3463 7.25023H58.36H58.3738L58.4697 7.33524C58.509 7.37509 58.5447 7.41821 58.5767 7.46412C58.599 7.4912 58.6183 7.52063 58.6343 7.55187C58.6622 7.59859 58.6869 7.64715 58.7083 7.69721C58.7245 7.73654 58.7382 7.77684 58.7494 7.81787V7.83981C58.7624 7.87986 58.7707 7.92126 58.7741 7.96321V8.00434C58.778 8.05546 58.778 8.10679 58.7741 8.15791C58.7933 8.83798 58.7933 9.52902 58.7741 10.2063C58.7575 10.6226 58.6059 11.0222 58.3423 11.3447C58.0786 11.6672 57.7172 11.8952 57.3125 11.9943L56.6352 12.1122C56.3834 12.1558 56.1284 12.1787 55.8728 12.1808H55.7549H55.6699H55.5383C55.4589 12.1719 55.3802 12.1582 55.3025 12.1396C55.2635 12.1318 55.2251 12.1217 55.1873 12.1095C55.1608 12.1007 55.1351 12.0897 55.1105 12.0765H55.0913L55.0639 12.0601C55.0513 12.0488 55.0402 12.0359 55.031 12.0217L54.7979 11.5446C54.743 11.4279 54.6562 11.3291 54.5475 11.2597C54.4387 11.1903 54.3126 11.1531 54.1836 11.1524C54.148 11.1497 54.1123 11.1497 54.0767 11.1524L53.5913 11.2374C53.4469 11.273 53.3124 11.3408 53.1979 11.4358C53.0835 11.5308 52.992 11.6505 52.9304 11.7859L52.6974 12.3343C52.6014 12.5619 51.8911 12.9239 51.0218 13.0775L50.3473 13.1954C50.2675 13.209 50.1868 13.2163 50.1059 13.2173C50.0603 13.22 50.0145 13.22 49.9688 13.2173C49.9003 13.2112 49.8324 13.1993 49.7659 13.1817L49.6836 13.1542L49.648 13.1405H49.6151C49.5631 13.1214 49.5135 13.0966 49.467 13.0665C49.2929 12.9593 49.1493 12.8093 49.0499 12.6306C48.9505 12.452 48.8986 12.2508 48.8994 12.0464C48.8857 11.3691 48.8857 10.6753 48.8994 9.99794C48.9279 9.58508 49.0891 9.19248 49.3589 8.87868C49.6287 8.56488 49.9927 8.34669 50.3966 8.25663L57.3756 7.03908C57.4543 7.02498 57.5342 7.01764 57.6142 7.01714V7.00891ZM57.6142 6.8718C57.5223 6.87198 57.4306 6.87932 57.3399 6.89374L50.3637 8.125C49.9254 8.21937 49.5299 8.45459 49.2378 8.79475C48.9457 9.13492 48.7729 9.56134 48.7458 10.0089C48.7293 10.6972 48.7293 11.38 48.7458 12.0656C48.7455 12.2942 48.8039 12.5192 48.9153 12.7189C49.0266 12.9186 49.1873 13.0864 49.382 13.2063C49.4358 13.2401 49.4927 13.2686 49.552 13.2914L49.6178 13.3188L49.722 13.3489C49.7961 13.3711 49.8725 13.3849 49.9496 13.3901C49.999 13.393 50.0484 13.393 50.0977 13.3901C50.1896 13.3911 50.2814 13.3838 50.3719 13.3681L51.0493 13.2475C51.9048 13.0994 52.6946 12.7265 52.8345 12.4248C52.9743 12.1232 53.0648 11.8764 53.0648 11.8764C53.1169 11.7644 53.193 11.6653 53.2879 11.5861C53.3827 11.5069 53.4938 11.4497 53.6133 11.4184L54.0959 11.3334C54.1232 11.3307 54.1508 11.3307 54.1782 11.3334C54.2734 11.3345 54.3667 11.3603 54.4489 11.4084C54.5312 11.4565 54.5995 11.5251 54.6471 11.6076L54.8802 12.0848C54.898 12.116 54.9212 12.1439 54.9487 12.167C54.9648 12.1799 54.9823 12.191 55.0008 12.1999C55.0138 12.2108 55.0287 12.2191 55.0447 12.2246C55.0797 12.243 55.1164 12.2577 55.1544 12.2685C55.1953 12.284 55.2375 12.2959 55.2805 12.3042C55.3627 12.3234 55.4461 12.3371 55.5301 12.3453C55.5767 12.3453 55.626 12.3453 55.6754 12.3453H55.8783C56.1423 12.3437 56.4057 12.319 56.6654 12.2712L57.3427 12.1561C57.7833 12.0599 58.1801 11.8214 58.472 11.4776C58.7638 11.1337 58.9346 10.7034 58.9579 10.253C58.9743 9.56741 58.9743 8.88277 58.9579 8.19904C58.962 8.14153 58.962 8.08379 58.9579 8.02628C58.9604 8.01453 58.9604 8.00238 58.9579 7.99063C58.9523 7.93956 58.9422 7.88908 58.9277 7.83981C58.9112 7.7877 58.8948 7.7356 58.8728 7.6835C58.8485 7.62441 58.8192 7.56752 58.7851 7.51348C58.7649 7.47471 58.741 7.43798 58.7138 7.40379C58.6783 7.35409 58.6389 7.30732 58.5959 7.26394C58.5602 7.23103 58.5246 7.19813 58.4862 7.16796C58.4755 7.15659 58.4635 7.14647 58.4505 7.1378C58.4121 7.11312 58.3738 7.08569 58.3354 7.06376C58.3142 7.04748 58.2912 7.03368 58.2668 7.02262C58.0703 6.92083 57.852 6.86814 57.6306 6.86906L57.6142 6.8718Z" fill="black"/>
</g>
<path d="M48.7541 12.0574L48.7184 10.5793C48.7184 10.3325 48.6992 10.0912 48.7184 9.83615C48.7478 9.58398 48.8261 9.33995 48.9488 9.11768C49.19 8.66742 49.5852 8.31897 50.0621 8.13597C50.3015 8.0628 50.5464 8.0087 50.7943 7.97418L51.521 7.84255L54.4305 7.34621C55.4012 7.18533 56.3738 7.03268 57.3482 6.88825C56.383 7.08569 55.4168 7.27582 54.4497 7.45864L51.5539 7.98514L50.8272 8.10855C50.587 8.1396 50.3496 8.1891 50.117 8.25662C49.6669 8.42949 49.2909 8.75322 49.053 9.17253C48.9326 9.38029 48.8534 9.60934 48.8199 9.84712C48.7925 10.0829 48.8062 10.3352 48.798 10.5793L48.7541 12.0574Z" fill="white"/>
<g opacity="0.3">
<path opacity="0.3" d="M98.1992 0.205457V35.7063C97.5904 39.422 95.6791 43.0719 92.4405 46.4229C91.2723 47.6248 90.0125 48.7341 88.6727 49.741C87.3637 50.7081 86.0014 51.6007 84.5922 52.4147C79.223 55.5244 72.8637 57.7127 66.1069 58.9961C65.0319 59.2026 63.946 59.3855 62.8491 59.5445V23.8956C70.4451 22.667 77.6023 20.4047 83.5968 17.1058C91.0365 12.9925 95.5749 7.9166 97.2202 2.60765C97.5324 1.82304 97.7863 1.01646 97.9798 0.194488C97.9883 0.171538 98.0039 0.151903 98.0244 0.138434C98.0448 0.124965 98.069 0.118363 98.0935 0.119586C98.118 0.120808 98.1414 0.129792 98.1604 0.145233C98.1794 0.160675 98.193 0.18177 98.1992 0.205457Z" fill="#BA68C8"/>
</g>
<path d="M62.6928 59.7145V23.7667L62.8162 23.7475C70.5877 22.4915 77.7449 20.1497 83.5145 16.9742C90.6745 13.0309 95.361 8.05371 97.0611 2.58297V2.45957H97.1105C97.4027 1.70921 97.6428 0.939549 97.829 0.156097C97.8536 0.104456 97.8938 0.0618201 97.9439 0.0341616C97.994 0.00650315 98.0515 -0.00479202 98.1083 0.0018588C98.1651 0.00850962 98.2185 0.0327729 98.2608 0.0712498C98.3032 0.109727 98.3324 0.16049 98.3445 0.216426V35.7063C97.7165 39.5646 95.7613 43.1981 92.5365 46.5244C91.3629 47.7321 90.0967 48.8461 88.7495 49.8562C87.4362 50.8285 86.0683 51.7249 84.6526 52.5409C79.4039 55.5765 73.1681 57.8032 66.1233 59.1414C65.0511 59.3471 63.9515 59.5308 62.8601 59.6898L62.6928 59.7145ZM62.9862 24.008V59.3827C64.0173 59.2319 65.0539 59.0564 66.0685 58.8644C73.0804 57.529 79.286 55.3187 84.5072 52.2831C85.911 51.4724 87.2686 50.5843 88.5739 49.6231C89.9071 48.6242 91.1612 47.5241 92.3253 46.3325C95.509 43.0418 97.4368 39.4769 98.0538 35.6926V0.471453C97.8654 1.21235 97.63 1.94051 97.3491 2.65152C95.6242 8.19905 90.8911 13.2365 83.6571 17.2182C77.8793 20.3965 70.7495 22.7438 62.9862 24.008Z" fill="#BA68C8"/>
<path d="M71.0813 50.6926C71.0034 50.6926 70.9288 50.6617 70.8738 50.6067C70.8188 50.5516 70.7878 50.477 70.7878 50.3992V29.4321C70.7902 29.3693 70.8125 29.3089 70.8514 29.2596C70.8903 29.2103 70.9439 29.1747 71.0045 29.1579C72.7403 28.6917 74.3418 28.1954 75.8993 27.636C75.9444 27.6184 75.9931 27.6125 76.041 27.6187C76.0889 27.6249 76.1345 27.6431 76.1736 27.6716C76.2125 27.6986 76.2444 27.7347 76.2663 27.7767C76.2883 27.8188 76.2998 27.8655 76.2997 27.9129V48.88C76.2989 48.94 76.2798 48.9984 76.2451 49.0474C76.2103 49.0964 76.1614 49.1336 76.105 49.1542C74.5282 49.7191 72.9131 50.2209 71.169 50.6899C71.14 50.6943 71.1105 50.6952 71.0813 50.6926ZM71.3747 29.657V50.0153C72.8939 49.6012 74.3171 49.1569 75.7047 48.6633V28.3188C74.3143 28.8041 72.8994 29.2511 71.3747 29.657Z" fill="white"/>
<path d="M80.5145 47.3224C80.4579 47.3236 80.4024 47.3074 80.3555 47.2758C80.314 47.2494 80.28 47.2129 80.2565 47.1697C80.233 47.1265 80.2208 47.0781 80.2211 47.029V26.0619C80.2205 26.0044 80.2364 25.948 80.2671 25.8994C80.2977 25.8507 80.3417 25.812 80.3938 25.7877C81.7755 25.1685 83.1237 24.4774 84.4331 23.7173C84.732 23.5583 85.009 23.3882 85.275 23.221C85.3192 23.1926 85.3706 23.1775 85.4231 23.1775C85.4756 23.1775 85.527 23.1926 85.5712 23.221C85.6174 23.2457 85.656 23.2824 85.6831 23.3273C85.7101 23.3722 85.7245 23.4236 85.7247 23.476V44.4431C85.7249 44.4932 85.7121 44.5425 85.6876 44.5862C85.6631 44.63 85.6277 44.6666 85.5849 44.6926C85.3107 44.8654 85.0227 45.0464 84.7156 45.2081C83.3885 45.9761 82.0219 46.6736 80.6214 47.2977C80.5877 47.3126 80.5514 47.321 80.5145 47.3224ZM80.8079 26.2539V46.5765C81.9542 46.0473 83.1443 45.4303 84.4331 44.6899C84.6799 44.561 84.9103 44.4156 85.1379 44.2785V23.9861C85.0008 24.0683 84.8637 24.1478 84.7156 24.2246C83.3308 25.0336 82.0474 25.6862 80.8079 26.2539Z" fill="white"/>
<path d="M89.9286 41.5555C89.8859 41.5561 89.8436 41.5467 89.8052 41.5281C89.7532 41.504 89.7093 41.4652 89.6791 41.4164C89.6489 41.3677 89.6336 41.3112 89.6352 41.2539V20.295C89.6354 20.252 89.6451 20.2095 89.6636 20.1707C89.6821 20.1318 89.7089 20.0975 89.7421 20.0701C90.6049 19.3571 91.4288 18.5982 92.2101 17.7968C93.0865 16.9102 93.8882 15.9526 94.6068 14.934C94.6424 14.8825 94.6936 14.8438 94.7527 14.8234C94.8119 14.8031 94.876 14.8022 94.9358 14.8208C94.9955 14.8395 95.0477 14.8768 95.0847 14.9272C95.1217 14.9777 95.1417 15.0387 95.1416 15.1012V36.0683C95.1412 36.1288 95.1231 36.188 95.0895 36.2383C94.3548 37.2817 93.5367 38.2639 92.6434 39.1752C91.8438 39.9907 91.0017 40.7632 90.1206 41.4897C90.0662 41.5333 89.9983 41.5566 89.9286 41.5555ZM90.222 20.4403V40.6314C90.935 40.0198 91.6068 39.3946 92.2211 38.7639C93.0708 37.8976 93.8502 36.965 94.552 35.9751V16.0007C93.9579 16.7708 93.3169 17.5034 92.6324 18.1945C91.8679 18.9822 91.0624 19.7291 90.2193 20.4321L90.222 20.4403Z" fill="white"/>
<g opacity="0.3">
<path opacity="0.3" d="M66.392 54.3288L78.318 32.2977L87.8554 44.6899C87.8554 44.6899 83.8353 50.4431 66.392 54.3288Z" fill="#BA68C8"/>
</g>
<g opacity="0.3">
<path opacity="0.3" d="M44.2403 55.6533C33.351 55.0719 22.7605 52.486 14.4104 47.8983C5.0265 42.7292 0.252284 35.9833 0.0932347 29.2127V28.5381L0 5.71733C0 4.08845 2.86837 8.70636 8.87659 13.4422C9.01918 13.5574 9.15081 13.6643 9.30712 13.7767C9.64167 14.0345 9.98445 14.2868 10.3409 14.5391C11.6542 15.4693 13.0203 16.3227 14.4323 17.0948C22.7605 21.6716 33.3016 24.2548 44.1498 24.8444L44.2403 55.6533Z" fill="#BA68C8"/>
</g>
<path d="M0.312627 5.75024C0.919529 6.27023 1.49032 6.83094 2.02104 7.42848C4.09383 9.67166 6.33032 11.7578 8.71207 13.6698C8.81627 13.7548 8.92322 13.8371 9.03291 13.9193L9.14534 14.0098C9.46618 14.2566 9.80622 14.5089 10.1901 14.7804C11.5114 15.7142 12.8847 16.572 14.3035 17.3499C22.2559 21.7374 32.7312 24.4797 43.8619 25.1213L43.9497 55.3434C32.8711 54.71 22.4451 51.9787 14.5585 47.6378C5.58044 42.688 0.54846 36.1478 0.386668 29.2072V28.5327L0.301658 5.75024H0.312627ZM0.175516 5.39375C0.0630844 5.39375 0.00823975 5.5007 0.00823975 5.7283L0.0932481 28.5436V29.2182C0.252297 35.9888 5.02926 42.7347 14.4104 47.9037C22.7495 52.497 33.351 55.0829 44.2404 55.6643L44.1499 24.8444C33.3044 24.2548 22.7605 21.6716 14.4433 17.0948C13.0313 16.3227 11.6652 15.4693 10.3519 14.5391C9.99543 14.2868 9.65265 14.0345 9.3181 13.7767C9.17276 13.6643 9.04388 13.5574 8.88757 13.4422C3.71847 9.36998 0.869299 5.39375 0.175516 5.39375Z" fill="#BA68C8"/>
<path d="M33.7102 51.2767H33.6718C33.5813 51.2767 24.7596 49.9988 16.1764 45.6414C6.34278 40.6506 2.48173 32.9147 2.44334 32.8352C2.42291 32.7954 2.41255 32.7511 2.41317 32.7063V26.7831C2.41257 26.7228 2.43185 26.6641 2.46802 26.6158L8.91499 17.5007C8.94623 17.4584 8.98797 17.4251 9.03607 17.4039C9.08416 17.3827 9.13696 17.3745 9.18922 17.38C9.24106 17.3852 9.29056 17.4042 9.33253 17.4351C9.3745 17.466 9.4074 17.5076 9.42779 17.5555L17.4269 36.2027L16.7276 32.7639C16.7167 32.7078 16.7223 32.6497 16.7437 32.5966C16.7651 32.5436 16.8014 32.4979 16.8483 32.465L23.3089 27.9266C23.3415 27.9023 23.379 27.8855 23.4189 27.8774C23.4587 27.8693 23.4998 27.8702 23.5393 27.88C23.579 27.8885 23.6165 27.905 23.6495 27.9286C23.6825 27.9522 23.7103 27.9823 23.7312 28.0171L33.9762 45.2273C34.0032 45.273 34.0174 45.3251 34.0173 45.3782V50.9833C34.0181 51.022 34.011 51.0605 33.9965 51.0964C33.982 51.1324 33.9605 51.165 33.9331 51.1924C33.9057 51.2198 33.873 51.2414 33.8371 51.2559C33.8011 51.2703 33.7627 51.2774 33.7239 51.2767H33.7102ZM2.99727 32.6295C3.37021 33.3453 7.23949 40.4421 16.4342 45.1122C23.989 48.9513 31.7276 50.3608 33.4086 50.635V45.4577L23.3665 28.5875L17.3336 32.8352L18.5484 38.8681C18.5555 38.9354 18.539 39.003 18.5019 39.0596C18.4648 39.1161 18.4093 39.1581 18.3448 39.1785C18.2802 39.1988 18.2107 39.1962 18.1479 39.1711C18.085 39.146 18.0328 39.1 18 39.0409L9.09324 18.2822L3.00001 26.8818L2.99727 32.6295Z" fill="white"/>
<path d="M33.5978 33.9129C33.4136 33.9119 33.23 33.8935 33.0493 33.8581C31.2806 33.5125 29.8436 31.5765 29.8436 29.5445C29.8255 29.0536 29.9162 28.5647 30.1091 28.1129C30.3021 27.6611 30.5925 27.2576 30.9597 26.9312C31.2606 26.6806 31.6141 26.5012 31.9939 26.4062C32.3738 26.3113 32.7701 26.3033 33.1535 26.3828C34.9195 26.7283 36.3564 28.6643 36.3564 30.6963C36.375 31.1873 36.2845 31.6763 36.0915 32.1281C35.8985 32.58 35.6078 32.9835 35.2403 33.3096C34.7806 33.6973 34.1991 33.9109 33.5978 33.9129ZM32.6078 26.9312C32.1419 26.9272 31.6895 27.0874 31.3299 27.3837C31.0303 27.6556 30.7941 27.9902 30.6382 28.3636C30.4823 28.7371 30.4104 29.1402 30.4277 29.5445C30.4277 31.3105 31.6535 32.986 33.17 33.2822C33.4682 33.3467 33.7771 33.3432 34.0738 33.272C34.3705 33.2008 34.6474 33.0637 34.8839 32.8709C35.1835 32.5989 35.4197 32.2643 35.5756 31.8909C35.7315 31.5175 35.8034 31.1143 35.786 30.71C35.786 28.944 34.563 27.2685 33.0438 26.9723C32.9001 26.9446 32.7542 26.9299 32.6078 26.9285V26.9312Z" fill="white"/>
<g opacity="0.3">
<path opacity="0.3" d="M2.14441 12.6908C2.14441 12.6908 4.81808 17.3883 10.3464 19.4312V16.7767C5.04569 14.2703 2.14441 9.57839 2.14441 9.57839V12.6908Z" fill="#BA68C8"/>
</g>
<g opacity="0.3">
<path opacity="0.3" d="M2.14441 17.5007C2.14441 17.5007 4.81808 22.1981 10.3464 24.2411V21.5866C5.04569 19.0802 2.14441 14.3883 2.14441 14.3883V17.5007Z" fill="#BA68C8"/>
</g>
<g opacity="0.3">
<path opacity="0.3" d="M2.14441 22.3106C2.14441 22.3106 4.81808 27.008 10.3464 29.0509V26.3965C5.04569 23.8901 2.14441 19.1981 2.14441 19.1981V22.3106Z" fill="#BA68C8"/>
</g>
</svg>
