<svg width="100" height="100" viewBox="0 0 100 100" fill="none" xmlns="http://www.w3.org/2000/svg">
<path d="M71.9549 34.3317C72.8401 34.1338 73.6209 33.949 74.2212 33.7945C77.414 32.979 78.3754 31.9219 78.4732 30.5103C78.632 28.2571 77.7881 28.2397 76.3331 29.2467C75.728 29.6761 75.0654 30.018 74.3647 30.2624C74.6082 29.9843 74.811 29.6731 74.9672 29.3381C75.1847 28.777 74.8889 28.4181 74.6953 28.3223C74.5431 28.2484 74.3887 28.6378 73.8624 29.0683C73.1838 29.6186 72.6357 29.7209 72.0746 30.4886C71.8599 30.7712 71.5514 30.9679 71.2046 31.0432C70.887 31.115 65.6737 32.5418 63.2313 32.9615C61.7979 31.1368 60.4669 29.1902 58.951 27.2523C56.6173 24.264 55.508 23.8463 54.1987 24.0834L53.0612 27.833C53.0612 27.833 60.7474 36.8851 60.8388 36.9982C61.0999 37.3509 61.4654 37.6124 61.8836 37.7456C62.3017 37.8788 62.7512 37.8767 63.1681 37.7399C66.4784 36.7677 69.9822 35.243 71.9549 34.3317Z" fill="#FFA8A7"/>
<path d="M53.8942 23.3291C56.6216 23.4487 57.4307 24.9777 58.8314 26.6741C60.232 28.3706 63.2813 32.7227 63.2813 32.7227L70.7261 31.1654C70.7261 31.1654 70.4194 33.3033 71.3786 34.5909C71.3786 34.5909 67.4289 36.5832 65.0364 37.4988C62.0133 38.6603 61.8154 38.3949 61.2695 37.8947C60.7236 37.3945 54.0922 29.8888 54.0922 29.8888L53.8942 23.3291Z" fill="#37474F"/>
<path d="M23.1188 28.3727C23.8256 26.2282 24.6065 26.139 25.57 27.6224C25.9675 28.249 26.4507 28.8171 27.0055 29.3101C26.8825 28.9595 26.8093 28.5935 26.7879 28.2226C26.7879 27.6201 27.2098 27.3983 27.4252 27.3852C27.5948 27.3852 27.5883 27.7919 27.9145 28.3901C28.3321 29.1579 28.7998 29.4623 29.0303 30.3823C29.1173 30.7282 29.3435 31.4154 29.6328 31.6199C31.1117 32.6594 33.8 33.9405 36.473 34.9736C37.4212 32.9705 38.6718 30.4715 39.6245 28.7207C41.4384 25.393 42.6389 25.0233 43.9591 25.1798L45.3032 28.8577C45.3032 28.8577 38.1259 38.3252 38.0519 38.4426C37.5017 39.217 36.3751 39.7477 35.4986 39.3888C32.9953 38.3622 31.1356 36.5613 29.0107 35.1128C27.7493 34.2559 26.5574 33.5903 25.7962 33.0206C23.1623 31.0588 22.6751 29.7168 23.1188 28.3727Z" fill="#FFA8A7"/>
<path d="M42.2343 69.7593C42.2931 66.932 43.1435 64.8331 43.2109 64.048C43.2109 64.048 42.9934 47.2291 42.9934 44.4996L57.335 43.9146C57.335 43.9146 57.1349 60.7768 57.1349 63.1149C57.1349 65.453 56.7847 75.3903 56.4149 79.9642L56.3736 81.4693L53.1721 82.4654C53.1721 82.4654 53.2331 82.0304 53.1721 79.8902C53.1112 77.7501 51.6736 70.3597 51.5388 68.4827C51.3669 66.0533 51.7562 65.0723 51.7062 63.4498C51.6562 61.8273 50.7101 51.2093 50.7101 51.2093C50.7101 51.2093 48.9136 61.649 48.4655 65.1833C47.9545 69.2417 46.3101 79.8794 46.3059 82.3523C46.3059 82.7873 46.3059 83.3092 46.3059 83.8639C46.3059 85.2036 46.2688 85.5559 46.4842 86.0736C46.8583 86.9784 43.6567 87.5484 43.5045 86.9044L43.1587 84.2466V84.1705V82.4849C43.163 79.9642 42.1473 73.8613 42.2343 69.7593Z" fill="#FFA8A7"/>
<path d="M62.644 85.6668C62.7312 85.9265 62.7156 86.2098 62.6005 86.4585C62.4895 86.6912 61.2803 87.3738 59.647 87.2632C58.4369 87.1779 57.2715 86.771 56.2714 86.0844C55.6494 85.6712 55.0013 85.595 54.1922 85.5472C53.3831 85.4993 52.3217 85.0991 52.1455 84.7207C51.9694 84.3423 52.1716 83.6919 52.1716 83.6919L62.644 85.6668Z" fill="#37474F"/>
<path d="M56.0561 80.5709L56.1866 80.5426C56.2575 80.5235 56.3317 80.5198 56.4041 80.5317C56.4828 80.5567 56.5525 80.6044 56.6042 80.6688C56.765 80.8717 56.9049 81.0903 57.0218 81.3212C57.3633 81.878 58.0831 82.3413 58.8661 82.7632C59.4012 83.0503 59.9232 83.2722 60.4734 83.5201C61.0237 83.768 61.7784 83.9268 62.2134 84.2226C62.855 84.6576 62.9376 85.7451 62.2134 86.167C61.5848 86.5368 59.9275 86.937 58.1897 86.4454C57.2436 86.1779 56.1931 85.1666 54.9512 85.0687C54.1596 85.0078 52.6653 84.7859 52.1565 84.1856C51.9694 83.9181 52.2195 83.0743 52.4261 82.3478C52.6436 81.5518 52.9199 80.3077 53.183 80.3773C53.1939 80.5339 53.1634 80.5731 53.2657 80.6797C53.3679 80.7862 53.494 80.8427 53.6006 80.9341C53.783 81.1151 53.9305 81.3282 54.0355 81.5626C54.0768 81.6672 54.1539 81.7536 54.2531 81.8062C54.3879 81.8563 54.4858 81.7715 54.6033 81.7193C54.7513 81.6514 54.9188 81.639 55.0752 81.6845C55.0596 81.5274 55.032 81.3718 54.9925 81.219C54.9744 81.1712 54.9699 81.1192 54.9795 81.0689C55.0006 81.0207 55.0364 80.9804 55.0818 80.9537C55.3761 80.7591 55.708 80.6287 56.0561 80.5709Z" fill="#455A64"/>
<path d="M49.5987 90.293C49.6944 90.385 49.6661 91.0069 49.5595 91.1631C49.4529 91.3201 48.7874 91.9031 47.6021 91.9896C46.4689 92.0705 45.4554 91.9182 44.7899 91.4938C44.1244 91.0695 43.8003 90.6047 43.7394 89.9583C43.6785 89.3127 43.7394 88.6885 43.4393 88.192C43.1544 87.7336 42.702 87.2159 42.6041 86.9657C42.3866 86.4242 42.6041 85.6499 42.6041 85.6499L49.5987 90.293Z" fill="#37474F"/>
<path d="M46.4929 84.6515C46.5014 84.8965 46.5453 85.1391 46.6234 85.3715C46.7982 85.8715 47.0318 86.349 47.3194 86.7939C47.4605 87.0267 47.6183 87.2491 47.7913 87.4592C48.135 87.8684 48.5613 88.2031 48.9245 88.5949C49.3117 88.9645 49.5591 89.457 49.6248 89.9884C49.6727 90.8783 48.707 91.1805 47.9632 91.3114C47.1589 91.4526 46.3332 91.4113 45.5469 91.1916C45.1341 91.0838 44.7613 90.8585 44.4728 90.5444C44.1843 90.2303 43.9924 89.8393 43.92 89.419C43.8787 89.1707 43.8939 88.9185 43.8656 88.6711C43.7662 88.1032 43.5287 87.5678 43.174 87.1136C42.9668 86.8509 42.7888 86.5665 42.6433 86.2653C42.4106 85.7151 42.5955 85.0952 42.7455 84.5472C42.8738 84.073 43.0173 83.538 43.1805 83.5815C43.1805 83.8273 43.1805 83.8533 43.3566 84.0164C43.5742 84.234 43.5872 84.545 43.8243 84.7298C43.7476 84.5251 43.6922 84.313 43.659 84.0969C43.6432 84.0102 43.661 83.9208 43.709 83.8468C43.7863 83.7768 43.8797 83.7268 43.9809 83.7011C44.3336 83.5809 44.6981 83.4985 45.0684 83.4554C45.4176 83.3977 45.7739 83.3977 46.1231 83.4554C46.2267 83.4748 46.3204 83.5293 46.3885 83.6098C46.45 83.6985 46.4826 83.8041 46.482 83.912C46.4973 84.0512 46.4864 84.4166 46.4929 84.6515Z" fill="#455A64"/>
<path d="M47.439 86.9783C47.1062 86.7304 46.3646 86.7281 45.9579 86.7717C45.5458 86.8075 45.1493 86.9466 44.8051 87.1762C44.7547 87.2127 44.6928 87.2301 44.6307 87.2254C44.5685 87.2206 44.5102 87.1939 44.4658 87.1501C44.4397 87.1251 44.4194 87.0947 44.4063 87.0611C44.3932 87.0275 44.3875 86.9914 44.3898 86.9553C44.3921 86.9193 44.4022 86.8841 44.4195 86.8524C44.4367 86.8207 44.4608 86.7931 44.4898 86.7717C44.8703 86.4908 45.323 86.324 45.7947 86.291C46.7952 86.2192 47.0866 86.3911 47.0866 86.3911C47.0866 86.3911 47.539 86.6847 47.439 86.9783Z" fill="#F5F5F5"/>
<path d="M48.1915 87.8899C47.774 87.644 46.9583 87.6726 46.5516 87.7249C46.1458 87.7686 45.7589 87.9193 45.4293 88.1596C45.3788 88.1969 45.3167 88.2135 45.2544 88.2087C45.1922 88.2032 45.1339 88.1762 45.0901 88.1318C45.0642 88.1064 45.0439 88.0763 45.031 88.043C45.0181 88.0089 45.0127 87.9732 45.0151 87.9375C45.0177 87.9018 45.028 87.8669 45.0454 87.8352C45.0629 87.8035 45.087 87.7765 45.1162 87.7551C45.501 87.4616 45.9607 87.2812 46.4429 87.2355C47.4412 87.1637 47.7022 87.368 47.7022 87.368C47.8176 87.4132 47.9214 87.483 48.0061 87.5735C48.0907 87.6639 48.1541 87.7717 48.1915 87.8899Z" fill="#F5F5F5"/>
<path d="M45.3902 85.3343C45.8113 85.2611 46.2441 85.297 46.6473 85.4388C46.8235 85.5388 46.9388 85.8172 46.8257 85.8868C46.4728 85.7447 46.0901 85.6923 45.7121 85.7345C45.3353 85.77 44.9675 85.8701 44.6246 86.0304C44.5398 86.0695 44.4397 86.1217 44.3506 86.1717C44.3224 86.1871 44.2915 86.1967 44.2595 86.1999C44.2276 86.203 44.1954 86.1998 44.1647 86.1903C44.134 86.1807 44.1057 86.1651 44.0811 86.1443C44.0566 86.1236 44.0366 86.0982 44.0221 86.0695C43.997 86.0196 43.9921 85.962 44.0083 85.9085C44.0244 85.8551 44.0606 85.81 44.1091 85.7824C44.499 85.5428 44.936 85.3901 45.3902 85.3343Z" fill="#F5F5F5"/>
<path d="M58.1267 82.3373C58.0699 82.2288 57.9868 82.1363 57.8849 82.0683C57.7831 82.0002 57.6658 81.9589 57.5438 81.948C57.1849 81.8806 56.5499 82.1459 56.154 82.47C56.1166 82.5006 56.0874 82.5398 56.0687 82.5843C56.0501 82.6287 56.0426 82.6771 56.0469 82.7252C56.0511 82.7731 56.0671 82.8195 56.0933 82.8599C56.1196 82.9004 56.1554 82.9338 56.1975 82.9572C56.2507 82.9863 56.3116 82.9985 56.3719 82.9918C56.4322 82.9852 56.4889 82.9602 56.5346 82.9203C56.9687 82.5253 57.5402 82.3161 58.1267 82.3373Z" fill="#F5F5F5"/>
<path d="M59.2402 82.9636C59.1625 82.853 59.0592 82.7629 58.9392 82.7008C58.8192 82.6387 58.6859 82.6065 58.5508 82.6069C58.5508 82.6069 57.6112 82.6352 57.0284 83.1767C56.9927 83.2062 56.9646 83.244 56.9467 83.2867C56.9287 83.3293 56.9213 83.3757 56.9252 83.4219C56.929 83.468 56.944 83.5125 56.9687 83.5517C56.9935 83.5908 57.0274 83.6233 57.0675 83.6466C57.1185 83.6753 57.1773 83.6871 57.2355 83.6805C57.2937 83.6739 57.3483 83.649 57.3915 83.6095C57.6314 83.37 57.9221 83.1875 58.2422 83.0757C58.5623 82.9639 58.9034 82.9255 59.2402 82.9636Z" fill="#F5F5F5"/>
<path d="M60.4712 83.525C60.3821 83.4226 60.2717 83.3407 60.1477 83.2852C60.0238 83.2296 59.8893 83.2016 59.7535 83.2032C59.2199 83.2357 58.7105 83.4368 58.2985 83.7773C58.2628 83.8068 58.2348 83.8445 58.2168 83.8873C58.1988 83.9299 58.1914 83.9763 58.1953 84.0225C58.1991 84.0687 58.2141 84.1131 58.2389 84.1522C58.2637 84.1914 58.2975 84.2239 58.3377 84.2471C58.3887 84.2755 58.4475 84.2872 58.5056 84.2806C58.5637 84.2739 58.6183 84.2493 58.6617 84.2101C58.8887 83.9625 59.1708 83.7714 59.485 83.6524C59.7992 83.5334 60.137 83.4898 60.4712 83.525Z" fill="#F5F5F5"/>
<path d="M57.3437 43.9146C57.3437 43.9146 57.5351 55.7963 57.5612 57.8842C57.5873 59.9721 57.5612 63.974 57.5612 66.0141C57.5612 66.0141 57.0327 66.9058 54.0182 66.9037C51.0037 66.9015 50.5687 66.0685 50.5687 66.0685L50.1229 56.4639L49.279 66.4339C48.6691 66.8489 47.9807 67.1345 47.2561 67.2733C46.5315 67.4121 45.7862 67.401 45.0661 67.2407C42.5845 66.7058 42.2191 65.9663 42.2191 65.9663L42.7085 43.9537L57.3437 43.9146Z" fill="#37474F"/>
<path d="M50.1185 56.464L50.5535 52.4316C50.5535 52.4316 52.6219 51.927 54.0051 50.8853C53.5596 51.4261 53.0292 51.891 52.4348 52.262C51.5953 52.734 51.1908 52.9276 51.1908 52.9276L50.5861 56.8294L50.4796 64.4417L50.1185 56.464Z" fill="#263238"/>
<path d="M42.5367 45.9743C44.505 47.4076 53.4287 48.9975 57.5698 45.9743C57.5698 45.9743 57.4742 34.408 57.1479 28.2855C57.1327 28.0071 57.1153 27.7374 57.0871 27.4764C57.0871 27.3894 57.0652 27.3024 57.0566 27.2155C57.0087 26.8484 56.936 26.4851 56.8391 26.1279C56.8239 26.0692 56.8043 26.0105 56.7869 25.9518C56.7455 25.8191 56.7042 25.6908 56.6499 25.5625C56.6238 25.4951 56.5955 25.4276 56.565 25.3624C56.5346 25.2971 56.5085 25.2384 56.4737 25.1797C56.4709 25.1679 56.4657 25.1568 56.4585 25.1471C56.428 25.0884 56.3932 25.0296 56.3606 24.973C56.3279 24.9165 56.2866 24.8491 56.2432 24.7882C56.1996 24.7272 56.1627 24.6729 56.1213 24.6207C56.08 24.5685 56.0257 24.5033 55.9734 24.4467C55.9262 24.3919 55.8762 24.3396 55.8234 24.2902L55.7146 24.1879L55.6059 24.0987C55.5602 24.0574 55.508 24.0204 55.458 23.9834C55.2922 23.8672 55.1177 23.764 54.936 23.6746C54.886 23.6507 54.8338 23.6246 54.7816 23.605C54.7689 23.6001 54.7565 23.5943 54.7446 23.5876L54.5576 23.518C54.4529 23.477 54.3462 23.4414 54.2378 23.4114C54.1276 23.381 54.0124 23.3528 53.892 23.3267C53.7572 23.3267 53.6093 23.3267 53.4571 23.3267H53.1308L52.7785 23.3397C51.2299 23.4071 49.0071 23.6572 47.2237 23.8856L46.8757 23.9334L46.569 23.9704C45.3445 24.1314 44.4376 24.2641 44.2984 24.2858H44.2766C43.8764 24.388 43.5045 24.4837 43.2043 24.5728C42.3866 24.8143 42.9869 24.6076 42.8151 25.3993C42.2865 27.7222 42.9021 36.1718 42.9021 36.1718L42.5367 45.9743Z" fill="#455A64"/>
<path d="M46.097 16.9736C46.097 16.9736 46.7343 19.9642 46.9888 20.4536C47.1596 20.7561 47.4398 20.9818 47.7718 21.0843L47.7261 18.9811L46.097 16.9736Z" fill="#263238"/>
<path d="M46.8865 12.6909C46.6638 12.6658 46.4382 12.6919 46.2271 12.7673C46.0161 12.8427 45.825 12.9654 45.6686 13.1259C45.1466 13.6566 45.4445 15.3226 46.097 16.9734L47.2955 17.1126L46.8865 12.6909Z" fill="#263238"/>
<path d="M47.6544 17.1129C47.4151 17.2565 47.0715 16.7954 46.7844 16.4844C46.4973 16.1734 45.5208 15.7514 45.0444 16.7671C44.5681 17.7828 45.4795 19.1726 46.232 19.4118C47.5369 19.8251 47.7414 18.9769 47.7414 18.9769L47.8153 23.8052C49.1899 26.2955 53.8421 25.021 52.0977 23.3702V22.1457C52.7574 22.1926 53.4195 22.1926 54.0791 22.1457C55.0448 21.9957 55.4406 21.3279 55.7342 20.2818C56.2041 18.6027 56.3867 17.2478 55.9844 13.9462C55.5494 10.3293 51.3387 10.2923 49.0659 11.7212C46.7931 13.1502 47.6544 17.1129 47.6544 17.1129Z" fill="#FFA8A7"/>
<path d="M47.1041 10.7141C47.901 10.3738 48.7333 10.1228 49.5857 9.96595C51.4213 9.56795 53.2831 9.20038 54.9665 8.35433C55.1606 8.22847 55.3876 8.16265 55.619 8.16511C56.0539 8.22383 56.254 8.75886 56.2715 9.20255C56.2866 9.61613 56.2322 10.0293 56.1105 10.4249C56.244 10.297 56.4225 10.2269 56.6074 10.2297C56.7922 10.2326 56.9685 10.3082 57.0979 10.4401C57.2209 10.5788 57.3108 10.7438 57.3605 10.9224C57.4103 11.101 57.4187 11.2887 57.385 11.471C57.2763 12.2931 56.6478 12.9783 55.9017 13.3436C55.1557 13.709 54.3118 13.7982 53.4832 13.8221C52.3253 13.8569 51.167 13.7701 50.0272 13.5633C49.7537 13.4946 49.4704 13.474 49.1899 13.5024C49.0497 13.5181 48.9169 13.5729 48.8065 13.6606C48.6961 13.7483 48.6126 13.8653 48.5656 13.9983C48.4439 14.455 48.3155 17.5631 47.6782 17.5761C47.5586 17.5761 47.1062 16.7952 46.8083 16.5169C46.4386 16.1645 46.0645 13.5024 45.9992 13.0109C45.9911 12.9726 45.974 12.9368 45.9492 12.9065C45.5316 12.3214 46.0209 11.3362 46.5365 11.0143C46.7197 10.9033 46.9092 10.8031 47.1041 10.7141Z" fill="#263238"/>
<path d="M46.1775 12.9478C46.103 13.0354 46.0119 13.1074 45.9095 13.1597C45.8071 13.2121 45.6955 13.2437 45.5809 13.2529C45.4663 13.2621 45.3509 13.2486 45.2416 13.2133C45.1321 13.1779 45.0308 13.1213 44.9432 13.0468C44.8557 12.9722 44.7837 12.8812 44.7313 12.7788C44.679 12.6764 44.6473 12.5648 44.6382 12.4501C44.629 12.3355 44.6424 12.2202 44.6778 12.1108C44.7132 12.0014 44.7697 11.9 44.8443 11.8125L46.1775 12.9478Z" fill="#263238"/>
<path d="M52.0933 22.1496C52.0933 22.1496 49.9401 21.9322 49.1855 21.5407C48.7421 21.31 48.3789 20.9506 48.1436 20.5098C48.2575 20.9505 48.4587 21.3639 48.7352 21.7256C49.2876 22.4303 52.0933 22.95 52.0933 22.95V22.1496Z" fill="#F28F8F"/>
<path d="M51.5757 16.5737C51.5727 16.6591 51.5447 16.7416 51.4952 16.8111C51.4456 16.8807 51.3767 16.934 51.2969 16.9646C51.2172 16.9952 51.1303 17.0017 51.047 16.9832C50.9636 16.9647 50.8875 16.9221 50.8282 16.8608C50.7689 16.7994 50.7289 16.7219 50.7134 16.638C50.6977 16.554 50.7072 16.4674 50.7405 16.3888C50.7739 16.3102 50.8296 16.2431 50.9007 16.1959C50.9719 16.1488 51.0554 16.1236 51.1407 16.1235C51.1992 16.1235 51.257 16.1352 51.3108 16.158C51.3646 16.1809 51.4132 16.2143 51.4538 16.2563C51.4944 16.2983 51.5262 16.3481 51.5471 16.4026C51.568 16.4571 51.5778 16.5153 51.5757 16.5737Z" fill="#263238"/>
<path d="M51.119 14.9444L50.1947 15.4533C50.1288 15.3265 50.1146 15.179 50.1552 15.0419C50.1957 14.9048 50.2878 14.7888 50.4121 14.7182C50.4731 14.685 50.5401 14.6646 50.6092 14.658C50.6782 14.6515 50.7479 14.659 50.8139 14.6802C50.88 14.7013 50.9411 14.7356 50.9935 14.781C51.0459 14.8265 51.0886 14.882 51.119 14.9444Z" fill="#263238"/>
<path d="M51.8998 19.5571L52.8851 19.9269C52.8636 19.993 52.829 20.0541 52.7833 20.1066C52.7377 20.159 52.6819 20.2018 52.6194 20.2322C52.5569 20.2627 52.4889 20.2802 52.4194 20.2838C52.35 20.2874 52.2805 20.277 52.2152 20.2531C52.0827 20.2005 51.9758 20.0986 51.917 19.9688C51.8582 19.8389 51.852 19.6914 51.8998 19.5571Z" fill="#F28F8F"/>
<path d="M55.4276 15.3035L54.5858 14.651C54.6252 14.5941 54.6757 14.5457 54.7343 14.5089C54.793 14.4722 54.8585 14.4477 54.9269 14.4371C54.9953 14.4266 55.0651 14.43 55.1321 14.4474C55.1991 14.4647 55.262 14.4955 55.3166 14.5379C55.4303 14.6266 55.5052 14.7558 55.5259 14.8984C55.5466 15.0411 55.5113 15.1862 55.4276 15.3035Z" fill="#263238"/>
<path d="M55.1687 16.4517C55.1658 16.5371 55.1377 16.6196 55.0881 16.6891C55.0385 16.7586 54.9696 16.812 54.8899 16.8426C54.8102 16.8732 54.7233 16.8796 54.6399 16.8611C54.5566 16.8427 54.4805 16.8001 54.4212 16.7388C54.3619 16.6774 54.322 16.5998 54.3063 16.5159C54.2908 16.432 54.3002 16.3453 54.3335 16.2667C54.3668 16.1881 54.4226 16.1211 54.4937 16.0739C54.5649 16.0267 54.6484 16.0015 54.7337 16.0015C54.7922 16.0015 54.85 16.0132 54.9038 16.036C54.9576 16.0588 55.0063 16.0922 55.0469 16.1342C55.0874 16.1763 55.1191 16.226 55.1401 16.2806C55.161 16.3351 55.1708 16.3934 55.1687 16.4517Z" fill="#263238"/>
<path d="M53.3244 16.1426L53.4679 18.7394L54.8229 18.2762L53.3244 16.1426Z" fill="#F28F8F"/>
<path d="M44.4397 24.2837C41.2535 24.3337 40.427 26.2107 39.4874 28.1986C38.5478 30.1865 36.164 34.68 36.164 34.68L30.1656 31.9678C29.8215 33.0383 29.1065 33.9507 28.1494 34.5408C28.1494 34.5408 30.9768 36.9179 33.4171 38.6601C35.4812 40.1347 36.6795 40.9002 37.4734 40.3718C38.0607 39.9803 43.9155 32.3244 43.9155 32.3244C45.4076 29.9973 45.7251 26.0454 44.4397 24.2837Z" fill="#37474F"/>
<path d="M54.5858 17.6258L54.2444 17.4518L53.9095 16.9733C53.9635 16.9504 54.0222 16.9406 54.0809 16.9448C54.1395 16.949 54.1963 16.9669 54.2465 16.9973C54.3988 17.106 54.5858 17.6258 54.5858 17.6258Z" fill="#BA68C8"/>
<path opacity="0.65" d="M54.5858 17.6258L54.2444 17.4518L53.9095 16.9733C53.9635 16.9504 54.0222 16.9406 54.0809 16.9448C54.1395 16.949 54.1963 16.9669 54.2465 16.9973C54.3988 17.106 54.5858 17.6258 54.5858 17.6258Z" fill="black"/>
<path d="M57.7613 16.1323C57.74 16.4872 57.6034 16.8255 57.3721 17.0956C57.1408 17.3657 56.8276 17.5529 56.4802 17.6286L55.943 17.72C55.7078 17.7633 55.4687 17.7822 55.2296 17.7765H55.1578C55.1187 17.7765 55.0796 17.7765 55.0426 17.7765C54.976 17.7701 54.9098 17.7591 54.8446 17.7439C54.8105 17.7373 54.7771 17.7279 54.7446 17.7156C54.7145 17.707 54.6854 17.6954 54.6576 17.6808C54.6449 17.6764 54.6331 17.6698 54.6228 17.6613C54.6081 17.6541 54.5942 17.6453 54.5815 17.6351C54.5597 17.6168 54.5413 17.5946 54.5271 17.5699L54.3423 17.1914C54.2997 17.116 54.2355 17.055 54.158 17.0162C54.0805 16.9775 53.9932 16.9627 53.9072 16.9739L53.5245 17.0413C53.4297 17.0662 53.3416 17.1115 53.2664 17.1744C53.1912 17.2372 53.1308 17.3158 53.0895 17.4046C53.0895 17.4046 53.009 17.6047 52.9068 17.8396C52.8045 18.0745 52.1695 18.3811 51.4909 18.4921L50.9537 18.5877C50.8448 18.6038 50.7342 18.6038 50.6253 18.5877C50.5641 18.5836 50.5035 18.5726 50.4447 18.5551L50.3621 18.5312L50.3099 18.5094C50.2629 18.4913 50.2178 18.4688 50.1751 18.442C50.0293 18.3833 47.6869 17.4307 47.365 16.6629C46.8517 15.4276 48.9593 14.1552 49.7183 13.9138C49.8052 13.8785 49.8957 13.8522 49.988 13.8355L55.5211 12.8872C55.7965 12.8323 56.0826 12.8861 56.3193 13.0373C56.4606 13.1265 56.9826 13.4353 57.2002 13.5658C57.2194 13.5746 57.2377 13.5855 57.2545 13.5984C57.2849 13.6158 57.3154 13.6376 57.3458 13.6571C57.3562 13.664 57.3656 13.6721 57.3741 13.6811C57.4045 13.705 57.4329 13.7311 57.4611 13.7572C57.4952 13.7916 57.5265 13.8287 57.5546 13.8681C57.5763 13.8952 57.5952 13.9244 57.6112 13.9551C57.6382 13.998 57.6615 14.0431 57.6808 14.09C57.6982 14.1313 57.7112 14.1726 57.7243 14.2139C57.7358 14.253 57.7438 14.293 57.7482 14.3336C57.7502 14.3429 57.7502 14.3525 57.7482 14.3618C57.7515 14.4075 57.7515 14.4532 57.7482 14.4989C57.7729 15.0484 57.7772 15.5928 57.7613 16.1323Z" fill="#BA68C8"/>
<g opacity="0.2">
<path opacity="0.2" d="M57.7613 16.1318C57.74 16.4867 57.6033 16.825 57.3721 17.0951C57.1408 17.3653 56.8276 17.5524 56.4802 17.6281L55.943 17.7195C55.7078 17.7628 55.4687 17.7817 55.2296 17.776H55.1578C55.1187 17.776 55.0795 17.776 55.0426 17.776C54.9759 17.7696 54.9098 17.7586 54.8446 17.7434C54.8105 17.7368 54.777 17.7274 54.7446 17.7151C54.7145 17.7065 54.6853 17.6949 54.6576 17.6803C54.6449 17.6759 54.6331 17.6693 54.6228 17.6608C54.6081 17.6536 54.5942 17.6448 54.5814 17.6346C54.5596 17.6163 54.5412 17.5941 54.5271 17.5694L54.3422 17.1909C54.2996 17.1155 54.2355 17.0545 54.158 17.0157C54.0804 16.977 53.9932 16.9623 53.9072 16.9734L53.5244 17.0409C53.4297 17.0657 53.3415 17.1111 53.2664 17.1739C53.1912 17.2367 53.1307 17.3153 53.0895 17.4041C53.0895 17.4041 53.009 17.6042 52.9067 17.8391C52.8045 18.074 52.1695 18.3806 51.4909 18.4916L50.9537 18.5872C50.8448 18.6033 50.7341 18.6033 50.6252 18.5872C50.5641 18.5831 50.5035 18.5722 50.4447 18.5546L50.3621 18.5307L50.3099 18.5089C50.2628 18.4909 50.2177 18.4683 50.1751 18.4415C50.0293 18.3828 47.6869 17.4302 47.365 16.6625C46.8517 15.4271 48.9593 14.1547 49.7183 13.9133C49.8052 13.878 49.8956 13.8517 49.988 13.835L55.5211 12.8867C55.7965 12.8318 56.0825 12.8856 56.3193 13.0368C56.4606 13.126 56.9826 13.4348 57.2001 13.5653C57.2194 13.5741 57.2376 13.585 57.2545 13.5979C57.2849 13.6153 57.3154 13.6371 57.3458 13.6567C57.3561 13.6635 57.3656 13.6716 57.3741 13.6806C57.4045 13.7045 57.4328 13.7306 57.4611 13.7567C57.4952 13.7911 57.5265 13.8282 57.5546 13.8676C57.5762 13.8948 57.5952 13.9239 57.6111 13.9546C57.6382 13.9975 57.6615 14.0426 57.6808 14.0895C57.6981 14.1308 57.7112 14.1721 57.7242 14.2134C57.7358 14.2525 57.7438 14.2926 57.7482 14.3331C57.7502 14.3424 57.7502 14.352 57.7482 14.3613C57.7515 14.407 57.7515 14.4527 57.7482 14.4984C57.7728 15.0479 57.7772 15.5924 57.7613 16.1318Z" fill="black"/>
</g>
<path d="M57.2002 13.5658C56.9799 13.4524 56.7281 13.4156 56.4846 13.4614L50.9515 14.438C50.6196 14.51 50.3184 14.6835 50.0897 14.9345C49.8609 15.1855 49.7159 15.5015 49.6749 15.8386L48.0871 14.923C48.5664 14.5008 49.1174 14.1678 49.714 13.9399C49.801 13.9046 49.8913 13.8783 49.9837 13.8616L55.5211 12.8872C55.7966 12.8323 56.0826 12.8861 56.3193 13.0373C56.4563 13.1265 56.9826 13.4353 57.2002 13.5658Z" fill="#BA68C8"/>
<path opacity="0.35" d="M57.2002 13.5658C56.9799 13.4524 56.7281 13.4156 56.4846 13.4614L50.9515 14.438C50.6196 14.51 50.3184 14.6835 50.0897 14.9345C49.8609 15.1855 49.7159 15.5015 49.6749 15.8386L48.0871 14.923C48.5664 14.5008 49.1174 14.1678 49.714 13.9399C49.801 13.9046 49.8913 13.8783 49.9837 13.8616L55.5211 12.8872C55.7966 12.8323 56.0826 12.8861 56.3193 13.0373C56.4563 13.1265 56.9826 13.4353 57.2002 13.5658Z" fill="white"/>
<path d="M57.7613 14.503C57.7743 15.0452 57.7743 15.589 57.7613 16.1341C57.7402 16.4887 57.6035 16.8266 57.3721 17.096C57.1407 17.3655 56.8275 17.5517 56.4802 17.6262L55.943 17.7218C55.2623 17.8415 54.638 17.7675 54.5271 17.5609L54.3423 17.1825C54.2997 17.107 54.2355 17.046 54.158 17.0072C54.0805 16.9685 53.9932 16.9538 53.9072 16.965L53.5223 17.0346C53.4271 17.0585 53.3386 17.1036 53.2633 17.1665C53.188 17.2294 53.1278 17.3085 53.0873 17.3978L52.9024 17.8328C52.8002 18.0764 52.1673 18.3722 51.4887 18.4853L50.9515 18.581C50.7965 18.6141 50.636 18.6121 50.4819 18.5751C50.3277 18.538 50.1838 18.467 50.0607 18.367C49.9376 18.2671 49.8385 18.1408 49.7706 17.9976C49.7027 17.8544 49.6677 17.6977 49.6683 17.5392C49.6553 16.9976 49.6553 16.4517 49.6683 15.9101C49.6898 15.5551 49.8268 15.217 50.0585 14.9472C50.2902 14.6774 50.6038 14.4908 50.9515 14.416L56.4846 13.4416C56.6408 13.4087 56.8025 13.4117 56.9574 13.4501C57.1124 13.4886 57.2567 13.5616 57.3795 13.6637C57.5022 13.7657 57.6004 13.8942 57.6665 14.0396C57.7326 14.1849 57.765 14.3433 57.7613 14.503Z" fill="#BA68C8"/>
<path opacity="0.5" d="M57.7613 16.1321C57.74 16.4871 57.6034 16.8253 57.3721 17.0955C57.1408 17.3656 56.8277 17.5528 56.4802 17.6285L55.943 17.7198C55.7078 17.7631 55.4687 17.7821 55.2296 17.7764H55.1578C55.1187 17.7764 55.0796 17.7764 55.0426 17.7764C54.976 17.77 54.9098 17.759 54.8446 17.7438C54.8105 17.7372 54.7771 17.7278 54.7446 17.7155C54.7145 17.7069 54.6854 17.6952 54.6576 17.6806C54.6449 17.6763 54.6331 17.6697 54.6228 17.6611C54.6081 17.654 54.5942 17.6452 54.5815 17.635C54.5597 17.6166 54.5413 17.5945 54.5271 17.5698L54.3423 17.1913C54.2997 17.1159 54.2355 17.0549 54.158 17.0161C54.0805 16.9774 53.9932 16.9626 53.9072 16.9738L53.5245 17.0412C53.4297 17.066 53.3416 17.1114 53.2664 17.1742C53.1912 17.237 53.1308 17.3156 53.0895 17.4045C53.0895 17.4045 53.009 17.6046 52.9068 17.8394C52.8045 18.0744 52.1695 18.381 51.4909 18.4919L50.9537 18.5876C50.8448 18.6037 50.7342 18.6037 50.6253 18.5876C50.5641 18.5835 50.5035 18.5725 50.4447 18.555L50.3621 18.531L50.3099 18.5093C50.2629 18.4912 50.2177 18.4687 50.1751 18.4419C50.0207 18.3468 49.8932 18.2136 49.8048 18.0552C49.7166 17.8969 49.6703 17.7185 49.6705 17.5371C49.6574 16.9934 49.6574 16.4496 49.6705 15.9059C49.692 15.5509 49.829 15.2127 50.0607 14.9429C50.2924 14.6731 50.6061 14.4866 50.9537 14.4117L56.4867 13.4352C56.7302 13.3894 56.982 13.4261 57.2023 13.5396C57.2216 13.5484 57.2399 13.5593 57.2567 13.5722C57.2872 13.5896 57.3176 13.6114 57.348 13.6309C57.3583 13.6378 57.3678 13.6458 57.3763 13.6549C57.4068 13.6788 57.435 13.7049 57.4633 13.731C57.4974 13.7654 57.5287 13.8025 57.5568 13.8419C57.5784 13.869 57.5973 13.8981 57.6134 13.9289C57.6404 13.9718 57.6637 14.0169 57.683 14.0637C57.7004 14.1051 57.7134 14.1464 57.7265 14.1877C57.738 14.2268 57.746 14.2668 57.7504 14.3073C57.7524 14.3167 57.7524 14.3263 57.7504 14.3356C57.7537 14.3812 57.7537 14.427 57.7504 14.4726C57.7736 15.0396 57.7772 15.5927 57.7613 16.1321Z" fill="white"/>
<g opacity="0.7">
<path opacity="0.7" d="M57.7613 14.5031C57.7646 14.4575 57.7646 14.4117 57.7613 14.3661C57.7634 14.3568 57.7634 14.3471 57.7613 14.3378C57.7569 14.2973 57.7489 14.2573 57.7374 14.2182C57.7243 14.1769 57.7113 14.1355 57.6939 14.0942C57.6746 14.0473 57.6514 14.0022 57.6243 13.9594C57.6083 13.9286 57.5893 13.8995 57.5678 13.8724C57.5396 13.8329 57.5084 13.7959 57.4743 13.7614C57.4459 13.7353 57.4177 13.7093 57.3873 13.6853C57.3796 13.6769 57.3708 13.6696 57.3612 13.6636L54.0356 16.9717C54.101 16.9806 54.1633 17.005 54.2174 17.0428C54.2715 17.0807 54.3159 17.1308 54.3466 17.1892L54.5315 17.5676C54.5456 17.5924 54.564 17.6144 54.5859 17.6328C54.5987 17.6431 54.6125 17.6518 54.6272 17.6589C54.6376 17.6675 54.6494 17.6742 54.6621 17.6785C54.6897 17.693 54.7189 17.7047 54.749 17.7134C54.7815 17.7256 54.815 17.7351 54.8491 17.7416C54.9143 17.7569 54.9803 17.7678 55.047 17.7742C55.0839 17.7742 55.1231 17.7742 55.1623 17.7742H55.2341C55.3793 17.7774 55.5247 17.7709 55.669 17.7547L57.7787 15.6471C57.7765 15.2665 57.7744 14.8881 57.7613 14.5031Z" fill="#BA68C8"/>
<path opacity="0.7" d="M55.1384 13.7008L50.3034 18.5335L50.3556 18.5552L50.4383 18.5792C50.497 18.5967 50.5576 18.6077 50.6188 18.6118C50.7277 18.6279 50.8383 18.6279 50.9472 18.6118L51.2974 18.5487L56.3541 13.4941L55.1384 13.7008Z" fill="#BA68C8"/>
<path opacity="0.7" d="M51.6976 14.3056L49.664 16.3414C49.664 16.7481 49.664 17.1548 49.664 17.5637C49.6665 17.7505 49.7158 17.9337 49.8076 18.0966L54.0052 13.8989L51.6976 14.3056Z" fill="#BA68C8"/>
</g>
<path d="M48.3873 16.4409C48.3908 16.4702 48.3875 16.5 48.3779 16.528C48.3682 16.556 48.3522 16.5814 48.3313 16.6023C48.3104 16.6233 48.285 16.6392 48.257 16.6489C48.229 16.6586 48.1992 16.6618 48.1697 16.6583C48.1068 16.643 48.0508 16.6066 48.0113 16.5552C47.9718 16.5038 47.9509 16.4405 47.9523 16.3756C47.9488 16.3462 47.952 16.3163 47.9617 16.2884C47.9714 16.2604 47.9873 16.235 48.0083 16.214C48.0292 16.1931 48.0546 16.1772 48.0826 16.1675C48.1106 16.1578 48.1404 16.1546 48.1697 16.1581C48.2326 16.1738 48.2883 16.2102 48.3277 16.2616C48.3672 16.3129 48.3882 16.3761 48.3873 16.4409Z" fill="#263238"/>
<g opacity="0.5">
<path opacity="0.5" d="M56.6956 13.5592C56.8528 13.559 57.0079 13.5963 57.1479 13.6679C57.164 13.6759 57.1793 13.6854 57.1936 13.6962C57.2221 13.7128 57.2497 13.731 57.2762 13.7506H57.2871H57.298L57.3741 13.818C57.4053 13.8496 57.4336 13.8838 57.4589 13.9202C57.4766 13.9417 57.4919 13.965 57.5046 13.9898C57.5268 14.0269 57.5463 14.0654 57.5633 14.1051C57.5762 14.1363 57.587 14.1682 57.5959 14.2008V14.2182C57.6062 14.2499 57.6128 14.2828 57.6155 14.3161V14.3487C57.6186 14.3892 57.6186 14.4299 57.6155 14.4705C57.6307 15.0099 57.6307 15.5579 57.6155 16.0951C57.6023 16.4253 57.4821 16.7422 57.273 16.998C57.0639 17.2538 56.7772 17.4346 56.4563 17.5132L55.9191 17.6067C55.7194 17.6413 55.5171 17.6595 55.3144 17.6612H55.2209H55.1535H55.0491C54.9861 17.6541 54.9237 17.6432 54.8621 17.6285C54.8311 17.6223 54.8007 17.6143 54.7707 17.6046C54.7497 17.5976 54.7293 17.5889 54.7098 17.5784H54.6946L54.6728 17.5654C54.6628 17.5565 54.654 17.5462 54.6467 17.535L54.4619 17.1566C54.4183 17.064 54.3495 16.9856 54.2633 16.9306C54.177 16.8756 54.077 16.8461 53.9746 16.8455C53.9464 16.8434 53.9181 16.8434 53.8899 16.8455L53.5049 16.9129C53.3903 16.9411 53.2837 16.9949 53.1929 17.0703C53.1021 17.1456 53.0296 17.2406 52.9807 17.3479L52.7959 17.7829C52.7198 17.9634 52.1564 18.2505 51.4669 18.3724L50.932 18.4659C50.8687 18.4766 50.8047 18.4824 50.7405 18.4832C50.7043 18.4854 50.668 18.4854 50.6318 18.4832C50.5774 18.4784 50.5236 18.469 50.4708 18.455L50.4056 18.4332L50.3773 18.4223H50.3512C50.31 18.4072 50.2706 18.3875 50.2338 18.3636C50.0957 18.2786 49.9818 18.1596 49.903 18.0179C49.8241 17.8762 49.783 17.7167 49.7836 17.5546C49.7727 17.0174 49.7727 16.4671 49.7836 15.9299C49.8062 15.6024 49.934 15.291 50.148 15.0421C50.362 14.7933 50.6507 14.6202 50.9711 14.5488L56.5063 13.5831C56.5687 13.5719 56.6321 13.5661 56.6956 13.5657V13.5592ZM56.6956 13.4504C56.6227 13.4506 56.5499 13.4564 56.478 13.4678L50.945 14.4444C50.5973 14.5192 50.2837 14.7058 50.052 14.9756C49.8203 15.2454 49.6833 15.5836 49.6618 15.9386C49.6487 16.4845 49.6487 17.026 49.6618 17.5698C49.6615 17.7511 49.7078 17.9295 49.7962 18.0879C49.8845 18.2463 50.0119 18.3794 50.1664 18.4745C50.209 18.5013 50.2541 18.5239 50.3012 18.542L50.3534 18.5637L50.436 18.5876C50.4948 18.6052 50.5554 18.6162 50.6165 18.6203C50.6557 18.6226 50.6949 18.6226 50.734 18.6203C50.8069 18.6211 50.8797 18.6153 50.9515 18.6028L51.4887 18.5072C52.1673 18.3897 52.7937 18.094 52.9046 17.8547C53.0155 17.6155 53.0873 17.4197 53.0873 17.4197C53.1286 17.3309 53.189 17.2523 53.2642 17.1895C53.3394 17.1267 53.4275 17.0813 53.5223 17.0565L53.9051 16.9891C53.9267 16.9869 53.9486 16.9869 53.9704 16.9891C54.0459 16.9899 54.1199 17.0104 54.1851 17.0485C54.2503 17.0867 54.3045 17.1411 54.3423 17.2065L54.5271 17.585C54.5413 17.6098 54.5597 17.6319 54.5815 17.6502C54.5942 17.6604 54.6081 17.6692 54.6228 17.6763C54.6331 17.6849 54.6449 17.6915 54.6576 17.6959C54.6854 17.7105 54.7145 17.7221 54.7446 17.7307C54.7771 17.743 54.8105 17.7524 54.8446 17.759C54.9098 17.7743 54.976 17.7851 55.0426 17.7916C55.0796 17.7916 55.1187 17.7916 55.1578 17.7916H55.3188C55.5281 17.7904 55.7371 17.7708 55.943 17.7329L56.4802 17.6416C56.8297 17.5653 57.1444 17.3761 57.3759 17.1034C57.6073 16.8307 57.7428 16.4894 57.7613 16.1322C57.7743 15.5884 57.7743 15.0454 57.7613 14.5031C57.7645 14.4575 57.7645 14.4117 57.7613 14.3661C57.7633 14.3568 57.7633 14.3471 57.7613 14.3378C57.7568 14.2973 57.7488 14.2573 57.7373 14.2182C57.7242 14.1769 57.7112 14.1355 57.6938 14.0942C57.6745 14.0473 57.6513 14.0022 57.6242 13.9594C57.6082 13.9286 57.5893 13.8995 57.5677 13.8724C57.5395 13.8329 57.5083 13.7958 57.4742 13.7614C57.4459 13.7353 57.4176 13.7092 57.3872 13.6853C57.3787 13.6763 57.3692 13.6683 57.3589 13.6614C57.3284 13.6418 57.298 13.6201 57.2676 13.6027C57.2507 13.5898 57.2325 13.5788 57.2132 13.57C57.0573 13.4893 56.8842 13.4475 56.7086 13.4483L56.6956 13.4504Z" fill="black"/>
</g>
<path d="M49.6684 17.5632L49.64 16.3909C49.64 16.1951 49.6248 16.0037 49.64 15.8014C49.6634 15.6014 49.7255 15.4079 49.8228 15.2316C50.0141 14.8745 50.3275 14.5981 50.7058 14.453C50.8956 14.395 51.0899 14.352 51.2865 14.3247L51.8629 14.2203L54.1705 13.8266C54.9404 13.699 55.7118 13.5779 56.4846 13.4634C55.7191 13.62 54.9527 13.7708 54.1857 13.9158L51.889 14.3334L51.3126 14.4312C51.1221 14.4559 50.9338 14.4951 50.7493 14.5487C50.3923 14.6858 50.0941 14.9425 49.9054 15.2751C49.8099 15.4399 49.7471 15.6216 49.7205 15.8101C49.6988 15.9972 49.7097 16.1973 49.7032 16.3909L49.6684 17.5632Z" fill="white"/>
<g opacity="0.3">
<path opacity="0.3" d="M88.8848 8.16344V36.3202C88.4019 39.2673 86.886 42.1621 84.3174 44.8199C83.3908 45.7731 82.3916 46.653 81.329 47.4516C80.2908 48.2186 79.2103 48.9266 78.0926 49.5722C73.8342 52.0386 68.7904 53.7742 63.4314 54.7921C62.5788 54.9559 61.7175 55.1009 60.8475 55.227V26.9528C66.8722 25.9784 72.5487 24.1841 77.3032 21.5676C83.2038 18.3052 86.8034 14.2794 88.1083 10.0687C88.3559 9.44639 88.5573 8.80667 88.7108 8.15474C88.7175 8.13653 88.7299 8.12096 88.7461 8.11028C88.7623 8.0996 88.7815 8.09436 88.8009 8.09533C88.8204 8.0963 88.8389 8.10342 88.854 8.11567C88.8691 8.12792 88.8799 8.14465 88.8848 8.16344Z" fill="#BA68C8"/>
</g>
<path d="M60.7236 55.3614V26.8501L60.8214 26.8349C66.9853 25.8387 72.6619 23.9813 77.2379 21.4627C82.9167 18.3352 86.6337 14.3876 87.9821 10.0486V9.95076H88.0213C88.253 9.35563 88.4435 8.74518 88.5912 8.12381C88.6107 8.08285 88.6425 8.04903 88.6823 8.02709C88.722 8.00516 88.7676 7.9962 88.8127 8.00147C88.8577 8.00675 88.9001 8.02599 88.9336 8.05651C88.9673 8.08703 88.9904 8.12729 89 8.17165V36.3197C88.5019 39.3799 86.9512 42.2617 84.3935 44.8999C83.4627 45.8578 82.4584 46.7413 81.3899 47.5425C80.3483 48.3136 79.2634 49.0246 78.1406 49.6718C73.9777 52.0794 69.0318 53.8455 63.4444 54.9068C62.594 55.07 61.7219 55.2157 60.8563 55.3418L60.7236 55.3614ZM60.9563 27.0415V55.0982C61.7741 54.9786 62.5962 54.8394 63.4009 54.6871C68.9623 53.628 73.8841 51.8749 78.0252 49.4673C79.1386 48.8243 80.2154 48.1199 81.2507 47.3576C82.3081 46.5653 83.3027 45.6928 84.226 44.7477C86.7511 42.1378 88.2801 39.3103 88.7695 36.3089V8.37392C88.62 8.96155 88.4333 9.53908 88.2105 10.103C86.8425 14.5029 83.0885 18.4983 77.351 21.6563C72.7684 24.1771 67.1136 26.0388 60.9563 27.0415Z" fill="#BA68C8"/>
<path d="M67.3767 48.2058C67.3149 48.2058 67.2558 48.1813 67.2122 48.1377C67.1685 48.094 67.144 48.0348 67.144 47.9731V31.3435C67.1459 31.2937 67.1635 31.2458 67.1944 31.2067C67.2252 31.1676 67.2678 31.1393 67.3158 31.126C68.6925 30.7562 69.9627 30.3626 71.198 29.9189C71.2338 29.905 71.2724 29.9003 71.3104 29.9052C71.3484 29.9101 71.3846 29.9246 71.4156 29.9472C71.4464 29.9686 71.4717 29.9972 71.4891 30.0305C71.5066 30.0639 71.5157 30.101 71.5156 30.1386V46.7682C71.515 46.8158 71.4998 46.8621 71.4723 46.901C71.4447 46.9398 71.4059 46.9693 71.3612 46.9857C70.1106 47.4337 68.8296 47.8317 67.4463 48.2037C67.4233 48.2072 67.3999 48.2079 67.3767 48.2058ZM67.6094 31.5219V47.6686C68.8144 47.3402 69.9431 46.9878 71.0437 46.5963V30.4605C69.9409 30.8454 68.8187 31.1999 67.6094 31.5219Z" fill="white"/>
<path d="M74.8585 45.5329C74.8136 45.5338 74.7695 45.521 74.7323 45.4959C74.6994 45.475 74.6725 45.446 74.6538 45.4118C74.6352 45.3775 74.6255 45.3391 74.6257 45.3002V28.6705C74.6253 28.6249 74.6379 28.5802 74.6622 28.5416C74.6865 28.503 74.7214 28.4723 74.7627 28.453C75.8586 27.9619 76.9279 27.4138 77.9664 26.8109C78.2035 26.6848 78.4232 26.5499 78.6341 26.4173C78.6692 26.3948 78.71 26.3828 78.7516 26.3828C78.7933 26.3828 78.834 26.3948 78.8691 26.4173C78.9057 26.4369 78.9363 26.466 78.9578 26.5016C78.9792 26.5372 78.9907 26.578 78.9908 26.6196V43.2492C78.991 43.2889 78.9808 43.328 78.9614 43.3627C78.942 43.3974 78.9139 43.4265 78.8799 43.4471C78.6625 43.5841 78.434 43.7277 78.1905 43.8559C77.1379 44.4651 76.054 45.0183 74.9432 45.5133C74.9165 45.5251 74.8877 45.5318 74.8585 45.5329ZM75.0912 28.8228V44.9413C76.0003 44.5215 76.9442 44.0322 77.9664 43.4449C78.1622 43.3427 78.3449 43.2274 78.5254 43.1187V27.0241C78.4167 27.0893 78.3079 27.1524 78.1905 27.2133C77.0921 27.8549 76.0742 28.3725 75.0912 28.8228Z" fill="white"/>
<path d="M82.3251 40.9588C82.2912 40.9593 82.2577 40.9518 82.2272 40.9371C82.186 40.918 82.1511 40.8872 82.1272 40.8485C82.1032 40.8099 82.0911 40.765 82.0924 40.7196V24.0965C82.0925 24.0624 82.1002 24.0286 82.1149 23.9979C82.1296 23.967 82.1508 23.9398 82.1772 23.9181C82.8615 23.3526 83.5149 22.7507 84.1346 22.1151C84.8297 21.4119 85.4656 20.6524 86.0355 19.8445C86.0637 19.8036 86.1043 19.7729 86.1512 19.7568C86.1982 19.7407 86.249 19.74 86.2964 19.7547C86.3438 19.7695 86.3852 19.7991 86.4145 19.8391C86.4439 19.8791 86.4597 19.9275 86.4597 19.9771V36.6067C86.4594 36.6547 86.445 36.7017 86.4183 36.7416C85.8356 37.5691 85.1868 38.3481 84.4783 39.0709C83.8441 39.7177 83.1762 40.3304 82.4774 40.9066C82.4342 40.9412 82.3804 40.9597 82.3251 40.9588ZM82.5578 24.2117V40.2259C83.1233 39.7408 83.6561 39.2449 84.1433 38.7447C84.8173 38.0576 85.4354 37.3179 85.992 36.5328V20.6905C85.5208 21.3013 85.0124 21.8824 84.4695 22.4305C83.8632 23.0552 83.2243 23.6476 82.5556 24.2052L82.5578 24.2117Z" fill="white"/>
<g opacity="0.3">
<path opacity="0.3" d="M63.6575 51.0902L73.1164 33.6167L80.6808 43.4453C80.6808 43.4453 77.4923 48.0084 63.6575 51.0902Z" fill="#BA68C8"/>
</g>
<g opacity="0.3">
<path opacity="0.3" d="M46.0883 52.1404C37.4517 51.6792 29.052 49.6283 22.4293 45.9896C14.9867 41.8899 11.2001 36.5395 11.0739 31.1695V30.6345L11 12.5346C11 11.2427 13.275 14.9053 18.0403 18.6615C18.1534 18.7528 18.2578 18.8376 18.3818 18.9268C18.6471 19.1312 18.919 19.3313 19.2017 19.5314C20.2433 20.2692 21.3268 20.9461 22.4467 21.5585C29.052 25.1884 37.4125 27.2373 46.0165 27.7049L46.0883 52.1404Z" fill="#BA68C8"/>
</g>
<path d="M11.2479 12.5606C11.7293 12.973 12.182 13.4177 12.6029 13.8916C14.2469 15.6708 16.0208 17.3254 17.9098 18.8418C17.9924 18.9092 18.0773 18.9745 18.1643 19.0397L18.2534 19.1115C18.5079 19.3072 18.7776 19.5073 19.0821 19.7227C20.13 20.4633 21.2192 21.1436 22.3445 21.7606C28.6518 25.2405 36.9601 27.4155 45.7882 27.9243L45.8578 51.8944C37.0711 51.392 28.8019 49.2258 22.5468 45.7829C15.426 41.857 11.435 36.6698 11.3067 31.165V30.63L11.2392 12.5606H11.2479ZM11.1392 12.2778C11.05 12.2778 11.0065 12.3627 11.0065 12.5432L11.074 30.6387V31.1737C11.2001 36.5437 14.9889 41.8941 22.4293 45.9938C29.0433 49.6368 37.4517 51.6878 46.0884 52.1489L46.0166 27.7047C37.4147 27.2371 29.052 25.1883 22.4554 21.5583C21.3355 20.9459 20.252 20.2691 19.2104 19.5313C18.9277 19.3312 18.6558 19.1311 18.3905 18.9266C18.2752 18.8375 18.173 18.7527 18.049 18.6613C13.9492 15.4315 11.6895 12.2778 11.1392 12.2778Z" fill="#BA68C8"/>
<path d="M37.7366 48.669H37.7061C37.6343 48.669 30.6376 47.6555 23.83 44.1995C16.0307 40.2411 12.9683 34.1056 12.9379 34.0425C12.9217 34.0109 12.9135 33.9758 12.914 33.9403V29.2424C12.9135 29.1946 12.9288 29.148 12.9575 29.1097L18.0708 21.8803C18.0955 21.8467 18.1286 21.8203 18.1668 21.8035C18.2049 21.7867 18.2468 21.7802 18.2883 21.7845C18.3294 21.7886 18.3686 21.8037 18.4019 21.8282C18.4352 21.8527 18.4613 21.8857 18.4775 21.9237L24.8218 36.7134L24.2672 33.986C24.2585 33.9415 24.263 33.8954 24.2799 33.8533C24.2969 33.8112 24.3257 33.775 24.3629 33.7489L29.487 30.1493C29.5129 30.1301 29.5426 30.1167 29.5742 30.1103C29.6058 30.1039 29.6384 30.1046 29.6697 30.1124C29.7012 30.1191 29.731 30.1322 29.7571 30.1509C29.7833 30.1697 29.8054 30.1935 29.8219 30.2211L37.9476 43.8711C37.969 43.9073 37.9802 43.9486 37.9802 43.9907V48.4363C37.9808 48.467 37.9752 48.4975 37.9637 48.526C37.9522 48.5546 37.9351 48.5804 37.9134 48.6022C37.8916 48.6239 37.8657 48.641 37.8372 48.6525C37.8087 48.6639 37.7782 48.6696 37.7474 48.669H37.7366ZM13.3772 33.8794C13.673 34.4471 16.7419 40.0758 24.0345 43.7798C30.0264 46.8247 36.1641 47.9426 37.4974 48.1601V44.0538L29.5327 30.6735L24.7478 34.0425L25.7113 38.8274C25.7169 38.8808 25.7038 38.9344 25.6744 38.9793C25.645 39.0241 25.601 39.0574 25.5498 39.0736C25.4986 39.0897 25.4435 39.0876 25.3936 39.0677C25.3438 39.0478 25.3024 39.0113 25.2763 38.9644L18.2121 22.5001L13.3794 29.3207L13.3772 33.8794Z" fill="white"/>
<path d="M37.6474 34.8972C37.5013 34.8964 37.3557 34.8818 37.2124 34.8537C35.8096 34.5796 34.6699 33.0441 34.6699 31.4325C34.6555 31.0431 34.7274 30.6554 34.8804 30.297C35.0335 29.9387 35.2638 29.6187 35.5551 29.3598C35.7937 29.161 36.0741 29.0188 36.3753 28.9434C36.6766 28.8681 36.991 28.8618 37.295 28.9248C38.6957 29.1989 39.8354 30.7344 39.8354 32.346C39.8501 32.7354 39.7783 33.1233 39.6253 33.4816C39.4722 33.84 39.2416 34.1601 38.9501 34.4187C38.5855 34.7262 38.1243 34.8956 37.6474 34.8972ZM36.8622 29.3598C36.4927 29.3566 36.1339 29.4837 35.8487 29.7187C35.6111 29.9343 35.4237 30.1997 35.3001 30.4959C35.1764 30.7921 35.1194 31.1118 35.1331 31.4325C35.1331 32.8332 36.1053 34.162 37.3081 34.397C37.5446 34.4481 37.7896 34.4454 38.025 34.3889C38.2603 34.3324 38.4799 34.2237 38.6675 34.0708C38.9051 33.855 39.0924 33.5896 39.2161 33.2935C39.3397 32.9973 39.3968 32.6775 39.383 32.3569C39.383 30.9562 38.413 29.6273 37.208 29.3924C37.0941 29.3704 36.9783 29.3588 36.8622 29.3577V29.3598Z" fill="white"/>
<g opacity="0.3">
<path opacity="0.3" d="M12.7008 18.0657C12.7008 18.0657 14.8214 21.7914 19.2061 23.4117V21.3064C15.0019 19.3185 12.7008 15.5972 12.7008 15.5972V18.0657Z" fill="#BA68C8"/>
</g>
<g opacity="0.3">
<path opacity="0.3" d="M12.7008 21.8802C12.7008 21.8802 14.8214 25.6058 19.2061 27.2262V25.1208C15.0019 23.1329 12.7008 19.4116 12.7008 19.4116V21.8802Z" fill="#BA68C8"/>
</g>
<g opacity="0.3">
<path opacity="0.3" d="M12.7008 25.6957C12.7008 25.6957 14.8213 29.4213 19.206 31.0416V28.9363C15.0019 26.9484 12.7008 23.2271 12.7008 23.2271V25.6957Z" fill="#BA68C8"/>
</g>
</svg>
