<svg width="109" height="37" viewBox="0 0 109 37" fill="none" xmlns="http://www.w3.org/2000/svg">
<path d="M11.2562 24.3517C10.165 24.3145 9.09194 24.0625 8.0983 23.6101C7.10466 23.1577 6.20995 22.5139 5.46537 21.7154C4.39356 20.7157 3.56244 19.486 3.03454 18.1187C2.50663 16.7514 2.29569 15.2822 2.4176 13.8217L3.54528 14.0198C3.44606 15.3065 3.63998 16.5991 4.11246 17.8C4.58494 19.001 5.32368 20.0792 6.27305 20.9535C7.00807 21.7669 7.92661 22.3931 8.95235 22.7801C9.97808 23.167 11.0814 23.3036 12.1705 23.1783C14.4563 22.7821 16.5288 20.6487 18.7232 18.4086C21.3595 15.7113 24.0873 12.9073 27.7903 12.313C34.9221 11.033 44.3245 20.6182 44.7207 21.0297L43.8978 21.8221C43.8064 21.7306 34.5259 12.2368 27.9885 13.4407C24.6511 14.035 22.0605 16.6866 19.5461 19.2619C17.0317 21.8373 14.9745 23.8336 12.3686 24.367C11.998 24.3921 11.6259 24.387 11.2562 24.3517Z" fill="#263238"/>
<path d="M3.49956 14.7208L3.0119 13.6845C4.04557 13.1404 4.93391 12.3566 5.60253 11.3987C6.56697 9.45996 7.29843 7.41387 7.78168 5.30313L8.89411 5.57743C8.37333 7.79786 7.58533 9.94698 6.54733 11.9778C5.78065 13.1359 4.7318 14.0799 3.49956 14.7208Z" fill="#8946A6"/>
<path d="M2.1738 14.2179C1.38572 13.1265 0.721288 11.951 0.192737 10.7129C-0.401579 9.18905 0.558467 4.28213 0.665139 3.73353L1.79282 3.96211C1.28209 6.03911 1.10209 8.18366 1.25945 10.3167C1.76232 11.4585 2.38016 12.546 3.10337 13.5626L2.1738 14.2179Z" fill="#8946A6"/>
<path d="M3.49956 14.4007L2.52427 13.7912C3.48562 12.3462 4.31199 10.8159 4.99296 9.21952L6.51685 3.33731L7.6293 3.61161C7.6293 3.61161 6.47115 8.18328 6.10542 9.50906C5.39438 11.2188 4.5218 12.8568 3.49956 14.4007Z" fill="#8946A6"/>
<path d="M2.189 14.0655C2.00994 11.9562 2.00994 9.83544 2.189 7.72611C2.49378 6.59843 2.92046 3.15444 2.92046 3.06301L4.06338 3.20016C4.06338 3.33731 3.62145 6.81177 3.30143 8.01565C3.12991 9.99808 3.12991 11.9916 3.30143 13.974L2.189 14.0655Z" fill="#8946A6"/>
<path d="M70.2154 26.8966L108.175 3.36779L61.8797 0L26.6474 28.4662L70.2154 26.8966Z" fill="#8946A6"/>
<path opacity="0.1" d="M70.2154 26.8966L108.175 3.36779L61.8797 0L26.6474 28.4662L70.2154 26.8966Z" fill="black"/>
<path d="M92.5861 24.0012L90.1631 11.1396C90.1631 11.1396 75.7471 9.25 65.9637 12.2825C56.1804 15.3151 45.7265 23.8641 45.7265 23.8641L50.7401 37C50.7401 37 64.0894 29.853 72.0745 27.5671C78.82 25.9006 85.674 24.7091 92.5861 24.0012Z" fill="#8946A6"/>
</svg>
