<svg width="140" height="100" viewBox="0 0 140 100" fill="none" xmlns="http://www.w3.org/2000/svg">
<path d="M17.8403 55.1962C16.7927 55.1608 15.7625 54.9206 14.8086 54.4896C13.8546 54.0585 12.9957 53.445 12.2808 52.6841C11.2518 51.7316 10.4539 50.5598 9.94712 49.2569C9.4403 47.9541 9.23779 46.5541 9.35483 45.1624L10.4375 45.3512C10.3422 46.5773 10.5284 47.8089 10.982 48.9532C11.4356 50.0977 12.1448 51.125 13.0562 51.9581C13.7619 52.7332 14.6437 53.3299 15.6285 53.6987C16.6132 54.0673 17.6725 54.1975 18.7181 54.0781C20.9125 53.7006 22.9022 51.6677 25.009 49.5332C27.5399 46.963 30.1587 44.2911 33.7138 43.7248C40.5606 42.5051 49.5874 51.6386 49.9677 52.0308L49.1777 52.7858C49.09 52.6986 40.1803 43.6522 33.9041 44.7994C30.7 45.3657 28.2129 47.8923 25.799 50.3463C23.385 52.8003 21.41 54.7025 18.9082 55.2108C18.5525 55.2347 18.1952 55.2298 17.8403 55.1962Z" fill="#263238"/>
<path d="M10.869 45.9357L10.4839 45.0412C11.3002 44.5715 12.0017 43.895 12.5297 43.0681C13.2913 41.3947 13.8689 39.6286 14.2506 37.8066L15.129 38.0434C14.7178 39.96 14.0955 41.8151 13.2758 43.568C12.6703 44.5676 11.8421 45.3825 10.869 45.9357Z" fill="#8946A6"/>
<path d="M9.44032 45.9355C8.55562 44.8475 7.80972 43.6757 7.21636 42.4415C6.54917 40.9224 7.62693 36.0308 7.74668 35.4839L9.01263 35.7118C8.43928 37.7823 8.23721 39.9201 8.41386 42.0465C8.97839 43.1847 9.67199 44.2688 10.4839 45.2822L9.44032 45.9355Z" fill="#8946A6"/>
<path d="M10.21 45.9355L9.32259 45.3597C10.1973 43.9946 10.9493 42.5489 11.5689 41.0408L12.9555 35.4839L13.9677 35.743C13.9677 35.743 12.9139 40.0619 12.5811 41.3144C11.9342 42.9296 11.1402 44.477 10.21 45.9355Z" fill="#8946A6"/>
<path d="M9.40023 45.9355C9.29671 43.9318 9.29671 41.9172 9.40023 39.9135C9.57643 38.8423 9.82311 35.5707 9.82311 35.4839L10.4839 35.6142C10.4839 35.7445 10.2284 39.045 10.0434 40.1886C9.9442 42.0717 9.9442 43.9654 10.0434 45.8486L9.40023 45.9355Z" fill="#8946A6"/>
<path d="M74.7484 58.3342L111.516 35.2974L66.6744 32L32.5484 59.871L74.7484 58.3342Z" fill="#8946A6"/>
<path opacity="0.1" d="M74.7484 58.3342L111.516 35.2974L66.6744 32L32.5484 59.871L74.7484 58.3342Z" fill="black"/>
<path d="M96.4193 55.4406L94.0775 43.0136C94.0775 43.0136 80.1443 41.1879 70.6885 44.1179C61.2328 47.048 51.129 55.3081 51.129 55.3081L55.9747 68C55.9747 68 68.877 61.0946 76.5947 58.886C83.1143 57.2758 89.7387 56.1245 96.4193 55.4406Z" fill="#8946A6"/>
</svg>
