<svg width="75" height="62" viewBox="0 0 75 62" fill="none" xmlns="http://www.w3.org/2000/svg">
<path d="M37.35 61.5259L29.57 56.7959C24.0077 53.3605 18.7931 49.3918 14 44.9459C6.1 37.5459 0 29.5959 0 18.5059C0.0121163 13.9286 1.70618 9.51549 4.75999 6.10587L4.81999 6.03587C6.39379 4.18108 8.34731 2.68565 10.5486 1.65056C12.7499 0.615473 15.1477 0.0648433 17.58 0.0358672C25.14 -0.364133 32.64 2.53587 37.31 11.0359C41.98 2.57587 49.48 -0.324133 57.05 0.0358672C59.4806 0.0662682 61.8765 0.617582 64.0759 1.65262C66.2754 2.68766 68.2273 4.18235 69.8 6.03587L69.86 6.10587C72.9166 9.51451 74.6142 13.9275 74.63 18.5059C74.63 29.5959 68.56 37.5059 60.63 44.9459C55.8334 49.392 50.6155 53.3607 45.05 56.7959L37.35 61.5259Z" fill="#8946A6"/>
<path d="M3.37999 31.9159H20.81L26.51 14.4659C26.5896 14.2231 26.7434 14.0114 26.9497 13.8607C27.156 13.7099 27.4045 13.6278 27.66 13.6259C27.913 13.6264 28.1597 13.7056 28.3657 13.8525C28.5718 13.9994 28.727 14.2068 28.81 14.4459L37.81 40.0459L45.7 20.8359C45.7895 20.6159 45.9412 20.4268 46.1366 20.2918C46.332 20.1568 46.5626 20.0817 46.8 20.0759C47.0374 20.0813 47.2689 20.1511 47.4697 20.2779C47.6705 20.4048 47.8331 20.5838 47.94 20.7959L52.63 31.1959H71.72C71.31 32.0259 70.86 32.8359 70.37 33.6359H51.82C51.585 33.6366 51.355 33.5689 51.1579 33.441C50.9608 33.3132 50.8051 33.1307 50.71 32.9159L46.85 24.3759L38.85 43.9359C38.7592 44.159 38.6044 44.3502 38.4051 44.4854C38.2057 44.6207 37.9709 44.6939 37.73 44.6959C37.4825 44.6878 37.2431 44.6053 37.0433 44.459C36.8434 44.3126 36.6924 44.1094 36.61 43.8759L27.76 18.6459L22.9 33.5059C22.8231 33.7503 22.67 33.9637 22.4631 34.1149C22.2561 34.2661 22.0063 34.347 21.75 34.3459H4.75999C4.28999 33.5559 3.81999 32.7459 3.37999 31.9159Z" fill="white"/>
</svg>
