<svg width="100" height="100" viewBox="0 0 100 100" fill="none" xmlns="http://www.w3.org/2000/svg">
<path d="M50.03 76.1879L43.3582 72.0989C38.5881 69.1291 34.1163 65.6982 30.0059 61.8548C23.2311 55.4577 18 48.5851 18 38.998C18.0104 35.041 19.4632 31.2259 22.082 28.2784L22.1335 28.2179C23.4831 26.6145 25.1584 25.3217 27.0461 24.4269C28.9339 23.5321 30.9901 23.0561 33.076 23.031C39.5592 22.6852 45.9909 25.1922 49.9957 32.5403C54.0005 25.2268 60.4323 22.7198 66.924 23.031C69.0084 23.0573 71.0631 23.5339 72.9492 24.4287C74.8354 25.3234 76.5093 26.6156 77.858 28.2179L77.9094 28.2784C80.5307 31.2251 81.9865 35.04 82 38.998C82 48.5851 76.7946 55.4231 69.9941 61.8548C65.8807 65.6984 61.406 69.1293 56.6333 72.0989L50.03 76.1879Z" fill="#8946A6"/>
<path d="M20.8986 50.5911H35.8459L40.734 35.5059C40.8023 35.2961 40.9342 35.113 41.1111 34.9828C41.288 34.8524 41.5011 34.7814 41.7202 34.7798C41.9372 34.7802 42.1488 34.8487 42.3254 34.9757C42.5022 35.1027 42.6353 35.282 42.7064 35.4887L50.4245 57.6193L57.1907 41.0127C57.2674 40.8225 57.3975 40.659 57.5651 40.5423C57.7327 40.4256 57.9304 40.3607 58.134 40.3557C58.3376 40.3603 58.5361 40.4207 58.7083 40.5303C58.8805 40.64 59.02 40.7948 59.1116 40.9781L63.1336 49.9687H79.5045C79.1529 50.6862 78.767 51.3864 78.3468 52.078H62.439C62.2375 52.0786 62.0402 52.0201 61.8712 51.9095C61.7022 51.7991 61.5686 51.6413 61.4871 51.4556L58.1769 44.0729L51.3164 60.9822C51.2385 61.175 51.1058 61.3403 50.9349 61.4572C50.7639 61.5742 50.5625 61.6374 50.3559 61.6392C50.1437 61.6322 49.9384 61.5609 49.767 61.4344C49.5956 61.3078 49.4661 61.1322 49.3954 60.9303L41.806 39.1195L37.6382 51.9656C37.5723 52.1769 37.441 52.3614 37.2636 52.4921C37.086 52.6228 36.8718 52.6928 36.652 52.6918H22.082C21.679 52.0089 21.2759 51.3086 20.8986 50.5911Z" fill="white"/>
</svg>
