<svg width="100" height="100" viewBox="0 0 100 100" fill="none" xmlns="http://www.w3.org/2000/svg">
<path d="M75.4102 20.9351C75.4191 20.9266 75.4261 20.9163 75.4311 20.905C75.4359 20.8938 75.4384 20.8816 75.4386 20.8692V13.0583L75.2493 13V20.8317L73.1083 22.9602C73.0909 22.9785 73.0814 23.0027 73.0818 23.028V24.9234C72.9675 24.9466 72.866 25.0112 72.797 25.1047C72.7278 25.1982 72.696 25.3138 72.7079 25.4292C72.7196 25.5447 72.774 25.6516 72.8607 25.7293C72.9472 25.8071 73.0597 25.8502 73.1764 25.8502C73.2931 25.8502 73.4056 25.8071 73.4922 25.7293C73.5787 25.6516 73.6332 25.5447 73.645 25.4292C73.6567 25.3138 73.625 25.1982 73.5559 25.1047C73.4869 25.0112 73.3853 24.9466 73.2709 24.9234V23.0655L75.4102 20.9351Z" fill="#BA68C8"/>
<path d="M79.5845 14.8784V31.4349C79.4745 31.4524 79.3744 31.508 79.302 31.592C79.2297 31.6761 79.1897 31.783 79.1892 31.8937C79.1892 31.9819 79.2142 32.0684 79.2613 32.1431C79.3083 32.2179 79.3757 32.2779 79.4555 32.3165C79.5353 32.355 79.6244 32.3705 79.7126 32.361C79.8009 32.3516 79.8846 32.3177 79.9543 32.2631C80.0241 32.2086 80.077 32.1357 80.107 32.0527C80.1371 31.9697 80.143 31.8799 80.1241 31.7937C80.1053 31.7076 80.0624 31.6284 80.0005 31.5653C79.9385 31.5022 79.8599 31.4576 79.7736 31.4368V14.9912L79.5845 14.8784Z" fill="#BA68C8"/>
<path d="M74.4588 32.2795V28.2687L77.3451 25.3973C77.3542 25.389 77.3615 25.3787 77.3663 25.3674C77.3712 25.3561 77.3737 25.3438 77.3735 25.3315V13.7523L77.1843 13.6733V25.2921L74.2981 28.1633C74.2891 28.1719 74.2821 28.1821 74.2772 28.1933C74.2723 28.2047 74.2698 28.2169 74.2697 28.2291V32.2907C74.1575 32.3208 74.0606 32.3911 73.9977 32.4881C73.9346 32.5852 73.9101 32.702 73.9288 32.816C73.9475 32.93 74.008 33.033 74.0988 33.1051C74.1896 33.1772 74.3039 33.2133 74.4199 33.2064C74.5358 33.1996 74.6451 33.1501 74.7265 33.0677C74.8078 32.9853 74.8555 32.8758 74.8605 32.7605C74.8653 32.645 74.8269 32.532 74.7527 32.4431C74.6785 32.3542 74.5738 32.2959 74.4588 32.2795Z" fill="#BA68C8"/>
<g opacity="0.3">
<path opacity="0.3" d="M75.4102 20.9351C75.4191 20.9266 75.4261 20.9163 75.4311 20.905C75.4359 20.8938 75.4384 20.8816 75.4386 20.8692V13.0583L75.2493 13V20.8317L73.1083 22.9602C73.0909 22.9785 73.0814 23.0027 73.0818 23.028V24.9234C72.9675 24.9466 72.866 25.0112 72.797 25.1047C72.7278 25.1982 72.696 25.3138 72.7079 25.4292C72.7196 25.5447 72.774 25.6516 72.8607 25.7293C72.9472 25.8071 73.0597 25.8502 73.1764 25.8502C73.2931 25.8502 73.4056 25.8071 73.4922 25.7293C73.5787 25.6516 73.6332 25.5447 73.645 25.4292C73.6567 25.3138 73.625 25.1982 73.5559 25.1047C73.4869 25.0112 73.3853 24.9466 73.2709 24.9234V23.0655L75.4102 20.9351Z" fill="black"/>
<path opacity="0.3" d="M79.5845 14.8784V31.4349C79.4747 31.4524 79.3745 31.508 79.3021 31.592C79.2297 31.6761 79.1897 31.783 79.1892 31.8937C79.1894 31.9819 79.2143 32.0684 79.2613 32.1431C79.3085 32.2179 79.3758 32.2779 79.4556 32.3165C79.5354 32.355 79.6244 32.3705 79.7127 32.361C79.8009 32.3516 79.8847 32.3177 79.9545 32.2631C80.0242 32.2086 80.0771 32.1357 80.1071 32.0527C80.1371 31.9697 80.143 31.8799 80.1242 31.7937C80.1054 31.7076 80.0624 31.6284 80.0005 31.5653C79.9385 31.5022 79.8599 31.4576 79.7738 31.4368V14.9912L79.5845 14.8784Z" fill="black"/>
<path opacity="0.3" d="M74.4588 32.2795V28.2687L77.3451 25.3973C77.3542 25.389 77.3614 25.3787 77.3662 25.3674C77.3712 25.3561 77.3736 25.3438 77.3735 25.3315V13.7523L77.1843 13.6733V25.2921L74.298 28.1633C74.2891 28.1719 74.2821 28.1821 74.2771 28.1933C74.2722 28.2047 74.2698 28.2169 74.2696 28.2291V32.2907C74.1574 32.3208 74.0605 32.3911 73.9976 32.4881C73.9346 32.5852 73.9101 32.702 73.9288 32.816C73.9474 32.93 74.008 33.033 74.0988 33.1051C74.1895 33.1772 74.3039 33.2133 74.4199 33.2064C74.5358 33.1996 74.6451 33.1501 74.7264 33.0677C74.8078 32.9853 74.8555 32.8758 74.8604 32.7605C74.8652 32.645 74.8269 32.532 74.7527 32.4431C74.6785 32.3542 74.5738 32.2959 74.4588 32.2795Z" fill="black"/>
</g>
<path d="M49.0003 60.8883L51.8867 58.017C51.9042 57.9996 51.9144 57.976 51.915 57.9513V53.8897C52.029 53.8607 52.1281 53.7906 52.193 53.693C52.258 53.5955 52.2842 53.4775 52.2666 53.3618C52.249 53.2461 52.1888 53.141 52.0977 53.067C52.0065 52.993 51.8911 52.9552 51.7735 52.961C51.656 52.9669 51.5448 53.0159 51.4616 53.0987C51.3784 53.1814 51.329 53.2918 51.3231 53.4087C51.3172 53.5255 51.355 53.6403 51.4295 53.731C51.5039 53.8216 51.6095 53.8815 51.7259 53.8991V57.9117L48.8377 60.7831C48.8286 60.7914 48.8214 60.8016 48.8165 60.813C48.8116 60.8243 48.8092 60.8365 48.8093 60.8489V70.5326L48.9984 70.5214L49.0003 60.8883Z" fill="#BA68C8"/>
<path d="M50.9353 65.3491L53.0763 63.2206C53.0933 63.2021 53.1027 63.1779 53.1028 63.1528V61.2574C53.2171 61.2342 53.3187 61.1695 53.3878 61.0761C53.4569 60.9827 53.4886 60.867 53.4769 60.7516C53.465 60.6361 53.4106 60.5292 53.3241 60.4515C53.2375 60.3737 53.1249 60.3306 53.0082 60.3306C52.8916 60.3306 52.779 60.3737 52.6925 60.4515C52.6059 60.5292 52.5515 60.6361 52.5397 60.7516C52.5279 60.867 52.5596 60.9827 52.6288 61.0761C52.6979 61.1695 52.7994 61.2342 52.9137 61.2574V63.1153L50.7746 65.2419C50.7654 65.2503 50.7582 65.2606 50.7533 65.2719C50.7484 65.2832 50.7459 65.2955 50.7462 65.3078V70.3884L50.9353 70.3697V65.3491Z" fill="#BA68C8"/>
<path d="M46.411 70.59H46.6001V54.7461C46.7101 54.7288 46.8103 54.673 46.8827 54.589C46.9551 54.5049 46.9951 54.398 46.9954 54.2873C46.9958 54.199 46.9712 54.1124 46.9243 54.0374C46.8774 53.9624 46.8103 53.9021 46.7305 53.8633C46.6507 53.8244 46.5616 53.8088 46.4733 53.818C46.3849 53.8272 46.301 53.861 46.2311 53.9154C46.1611 53.9699 46.108 54.0428 46.0779 54.1258C46.0477 54.2089 46.0417 54.2987 46.0604 54.385C46.0792 54.4712 46.1221 54.5505 46.1842 54.6138C46.2461 54.677 46.3248 54.7215 46.411 54.7423V70.59Z" fill="#BA68C8"/>
<g opacity="0.3">
<path opacity="0.3" d="M49.0004 60.8888L51.8868 58.0175C51.9044 58.0001 51.9146 57.9764 51.9151 57.9517V53.8902C52.0291 53.8612 52.1282 53.7911 52.1932 53.6935C52.2581 53.5959 52.2843 53.4778 52.2667 53.3622C52.2491 53.2466 52.1889 53.1415 52.0978 53.0675C52.0067 52.9935 51.8911 52.9557 51.7737 52.9615C51.6561 52.9674 51.5449 53.0164 51.4617 53.0991C51.3785 53.1818 51.3291 53.2923 51.3231 53.4092C51.3172 53.5259 51.3552 53.6408 51.4295 53.7314C51.504 53.8221 51.6096 53.8819 51.7259 53.8995V57.9122L48.8378 60.7836C48.8287 60.7919 48.8215 60.8021 48.8167 60.8135C48.8117 60.8248 48.8093 60.837 48.8094 60.8493V70.5331L48.9986 70.5219L49.0004 60.8888Z" fill="black"/>
<path opacity="0.3" d="M50.9353 65.3496L53.0765 63.221C53.0933 63.2025 53.1028 63.1784 53.1029 63.1533V61.2579C53.2172 61.2347 53.3188 61.17 53.3878 61.0766C53.4569 60.983 53.4886 60.8674 53.4769 60.752C53.4652 60.6366 53.4106 60.5297 53.3241 60.4519C53.2375 60.3742 53.1251 60.3311 53.0084 60.3311C52.8917 60.3311 52.7792 60.3742 52.6926 60.4519C52.6061 60.5297 52.5515 60.6366 52.5398 60.752C52.528 60.8674 52.5598 60.983 52.6289 61.0766C52.6979 61.17 52.7995 61.2347 52.9137 61.2579V63.1158L50.7746 65.2424C50.7656 65.2508 50.7583 65.2611 50.7534 65.2724C50.7485 65.2837 50.7461 65.2959 50.7462 65.3083V70.3889L50.9353 70.3702V65.3496Z" fill="black"/>
<path opacity="0.3" d="M46.4111 70.59H46.6002V54.7461C46.7101 54.7287 46.8103 54.673 46.8827 54.589C46.9551 54.5049 46.9951 54.398 46.9955 54.2873C46.9958 54.199 46.9712 54.1124 46.9243 54.0374C46.8775 53.9624 46.8103 53.9021 46.7305 53.8632C46.6507 53.8245 46.5616 53.8088 46.4733 53.818C46.3849 53.8272 46.301 53.861 46.2311 53.9154C46.1612 53.9699 46.1081 54.0428 46.0779 54.1258C46.0477 54.2089 46.0417 54.2987 46.0605 54.3849C46.0792 54.4712 46.1222 54.5505 46.1842 54.6138C46.2461 54.6769 46.3248 54.7215 46.4111 54.7423V70.59Z" fill="black"/>
</g>
<path d="M58.1812 18.9644C57.6346 18.8185 57.0568 18.8372 56.5208 19.0178C55.9849 19.1984 55.5148 19.533 55.17 19.9792C54.8252 20.4254 54.6214 20.9632 54.5841 21.5246C54.5467 22.086 54.6777 22.6458 54.9604 23.1332C55.2431 23.6207 55.6648 24.0139 56.1722 24.263C56.6797 24.5121 57.25 24.6061 57.8112 24.5331C58.3723 24.46 58.8991 24.2232 59.3249 23.8524C59.7506 23.4818 60.0563 22.9939 60.2031 22.4506C60.3991 21.7218 60.2963 20.9454 59.9173 20.2918C59.5382 19.6383 58.9139 19.1609 58.1812 18.9644ZM60.1029 22.4223C59.9053 23.1156 59.441 23.7034 58.8108 24.059C58.1804 24.4145 57.4347 24.5092 56.7348 24.3224C56.0348 24.1355 55.437 23.6823 55.0707 23.0608C54.7042 22.4392 54.5986 21.6993 54.7767 21.0008C54.8665 20.6487 55.0257 20.3178 55.2453 20.0275C55.4648 19.7371 55.7402 19.493 56.0554 19.3093C56.3707 19.1256 56.7195 19.0061 57.0816 18.9575C57.4437 18.9091 57.812 18.9325 58.1648 19.0268C58.5177 19.121 58.8482 19.284 59.1372 19.5062C59.4263 19.7285 59.668 20.0056 59.8483 20.3216C60.0285 20.6375 60.144 20.9859 60.1877 21.3466C60.2314 21.7073 60.2026 22.0729 60.1029 22.4223Z" fill="#BA68C8"/>
<path d="M60.9428 18.88L61.3627 18.0038C61.3682 17.9936 61.37 17.9817 61.3675 17.9703C61.3652 17.959 61.3587 17.9488 61.3494 17.9418L60.4869 17.2235C60.4781 17.2162 60.4671 17.2123 60.4557 17.2123C60.4443 17.2123 60.4333 17.2162 60.4246 17.2235L59.6302 17.7876C59.323 17.6178 58.9967 17.4852 58.6579 17.3927L58.5009 16.4224C58.4992 16.4109 58.4936 16.4004 58.485 16.3925C58.4764 16.3846 58.4654 16.3799 58.4536 16.3791L57.3339 16.2776C57.3224 16.2765 57.3106 16.2791 57.3007 16.2853C57.2909 16.2914 57.2831 16.3006 57.2791 16.3115L56.9519 17.2385C56.6062 17.2762 56.2661 17.3532 55.9381 17.4679L55.2325 16.759C55.2236 16.7521 55.2126 16.7484 55.2014 16.7484C55.1901 16.7484 55.1791 16.7521 55.1702 16.759L54.1961 17.3231C54.1855 17.3287 54.1773 17.3378 54.1728 17.3488C54.1683 17.3598 54.1679 17.3719 54.1715 17.3832L54.4438 18.3441C53.9877 18.7413 53.6171 19.2262 53.3544 19.7694L52.3349 19.7544C52.3237 19.7544 52.3129 19.7581 52.3039 19.765C52.2951 19.7717 52.2886 19.7812 52.2857 19.792L51.9925 20.8732C51.9901 20.8843 51.9911 20.8958 51.9956 20.9063C51.9999 20.9167 52.0075 20.9255 52.0171 20.9315L52.9137 21.4298C52.8909 21.7639 52.9062 22.0995 52.9591 22.4301L52.108 23.0056C52.0988 23.0122 52.0921 23.0218 52.089 23.0327C52.086 23.0435 52.0867 23.0552 52.0909 23.0657L52.4692 24.1167C52.4727 24.1281 52.4802 24.1377 52.4902 24.144C52.5004 24.1502 52.5124 24.1525 52.5241 24.1506L53.5511 24.0472C53.7234 24.3337 53.9277 24.5998 54.1602 24.8407L53.7914 25.7978C53.7873 25.8088 53.7871 25.8208 53.7905 25.8319C53.7939 25.8432 53.8009 25.8529 53.8102 25.8599L54.7314 26.5011C54.7407 26.5078 54.752 26.5115 54.7635 26.5115C54.7751 26.5115 54.7863 26.5078 54.7957 26.5011L55.5731 25.8336C55.794 25.9317 56.0224 26.0128 56.2558 26.0761C56.3428 26.0987 56.4317 26.1194 56.5358 26.14L56.7874 27.1272C56.7902 27.1382 56.7964 27.148 56.8054 27.1551C56.8142 27.1622 56.8251 27.1662 56.8365 27.1667H57.9619C57.9735 27.1675 57.985 27.1641 57.9944 27.1572C58.0037 27.1503 58.0103 27.1403 58.013 27.1291L58.2626 26.1551C58.5981 26.0909 58.9254 25.99 59.2385 25.8543L59.9952 26.5067C60.0041 26.5136 60.0151 26.5174 60.0264 26.5174C60.0376 26.5174 60.0486 26.5136 60.0575 26.5067L60.9806 25.8618C60.9901 25.8553 60.9969 25.8457 61 25.8347C61.0032 25.8237 61.0023 25.812 60.9976 25.8016L60.6495 24.8765C60.8944 24.6298 61.109 24.3553 61.2889 24.0585L62.28 24.1506C62.2915 24.1519 62.3033 24.1491 62.3132 24.143C62.3231 24.1369 62.3307 24.1276 62.3348 24.1167L62.7131 23.0657C62.7145 23.0565 62.713 23.0471 62.7089 23.0388C62.7048 23.0304 62.6985 23.0234 62.6904 23.0187L61.8847 22.4659C61.9423 22.1218 61.9594 21.7721 61.9357 21.4241L62.802 20.9353C62.812 20.93 62.8198 20.9216 62.8243 20.9114C62.8288 20.901 62.8296 20.8896 62.8266 20.8788L62.5353 19.8071C62.5327 19.7956 62.5261 19.7854 62.5169 19.7782C62.5076 19.7711 62.4961 19.7673 62.4842 19.7675H61.5139C61.3584 19.4509 61.1668 19.1531 60.9428 18.88ZM62.715 20.8563L61.8714 21.3301C61.8628 21.3355 61.8559 21.343 61.8512 21.3519C61.8466 21.3608 61.8444 21.3708 61.8449 21.3809C61.8728 21.7427 61.8549 22.1066 61.792 22.464C61.79 22.4736 61.7909 22.4835 61.7945 22.4926C61.7982 22.5016 61.8046 22.5093 61.8128 22.5148L62.6148 23.0619L62.2572 24.0397L61.2832 23.942C61.2731 23.941 61.2628 23.943 61.2537 23.9476C61.2447 23.9523 61.2372 23.9594 61.2322 23.9682C61.0464 24.2757 60.8242 24.5598 60.5702 24.8144C60.5627 24.8212 60.5572 24.8298 60.5545 24.8395C60.5519 24.8492 60.5521 24.8594 60.555 24.869L60.903 25.7884L60.05 26.3883L59.2934 25.7395C59.2854 25.7342 59.2758 25.7313 59.266 25.7313C59.2562 25.7313 59.2467 25.7342 59.2385 25.7395C58.9131 25.8829 58.5714 25.9871 58.2211 26.0498C58.2112 26.0516 58.2022 26.056 58.1948 26.0627C58.1874 26.0693 58.1821 26.0779 58.1794 26.0874L57.9373 27.0596H56.8913L56.6435 26.0799C56.6406 26.0706 56.6355 26.0621 56.6286 26.0553C56.6216 26.0484 56.6131 26.0433 56.6039 26.0404C56.5012 26.0234 56.3996 26.0008 56.2993 25.9727C56.0601 25.9085 55.8268 25.8249 55.6014 25.7226C55.5933 25.7172 55.5837 25.7143 55.574 25.7143C55.5642 25.7143 55.5546 25.7172 55.5466 25.7226L54.7711 26.3845L53.9143 25.7884L54.2812 24.837C54.284 24.8276 54.2845 24.8178 54.2824 24.8083C54.2805 24.7987 54.2762 24.7898 54.2698 24.7824C54.026 24.5325 53.8127 24.2547 53.6343 23.9551C53.6292 23.947 53.6218 23.9403 53.6132 23.936C53.6045 23.9317 53.5948 23.9299 53.5852 23.9306L52.5619 24.0341L52.2064 23.0581L53.0555 22.494C53.0636 22.4883 53.0699 22.4807 53.0739 22.4718C53.0779 22.4628 53.0794 22.453 53.0782 22.4432C53.02 22.0992 53.0041 21.7495 53.0309 21.4016C53.0318 21.3917 53.0297 21.3819 53.025 21.3733C53.0203 21.3645 53.0132 21.3574 53.0044 21.3527L52.1136 20.8582L52.386 19.8541L53.3978 19.8672C53.4077 19.8677 53.4175 19.8653 53.4259 19.8603C53.4343 19.8553 53.441 19.8478 53.4452 19.839C53.7072 19.2873 54.0821 18.7961 54.546 18.3968C54.5532 18.3899 54.5586 18.3812 54.5612 18.3717C54.5639 18.362 54.5639 18.3519 54.5612 18.3422L54.2906 17.387L55.1967 16.868L55.8889 17.5713C55.8956 17.5788 55.9045 17.5841 55.9141 17.5868C55.9238 17.5894 55.9341 17.5892 55.9438 17.5863C56.2824 17.4643 56.635 17.3847 56.9935 17.3495C57.0033 17.3488 57.0127 17.3451 57.0205 17.3391C57.0282 17.3331 57.034 17.3249 57.0369 17.3156L57.3642 16.3941L58.4045 16.4864L58.5653 17.4416C58.5674 17.4511 58.572 17.46 58.5787 17.4672C58.5853 17.4745 58.5937 17.4799 58.6031 17.4829C58.9569 17.5737 59.298 17.7076 59.6188 17.8816C59.6271 17.8871 59.6371 17.8901 59.6471 17.8901C59.6572 17.8901 59.6671 17.8871 59.6755 17.8816L60.4623 17.3175L61.2624 17.985L60.8407 18.8669C60.8356 18.8751 60.8329 18.8845 60.8329 18.8941C60.8329 18.9038 60.8356 18.9132 60.8407 18.9214C61.073 19.2034 61.2705 19.5121 61.4289 19.8408C61.4325 19.8497 61.4389 19.8574 61.447 19.8627C61.455 19.8681 61.4645 19.871 61.4742 19.871H62.4408L62.715 20.8563Z" fill="#BA68C8"/>
<path d="M67.7764 26.6552L68.2058 26.0121C68.2135 26.0025 68.2176 25.9905 68.2176 25.9783C68.2176 25.966 68.2135 25.9541 68.2058 25.9444L67.313 25.1923C67.3032 25.1842 67.2908 25.1797 67.278 25.1797C67.2653 25.1797 67.2529 25.1842 67.2431 25.1923L66.6756 25.7244C66.4255 25.5872 66.1602 25.4793 65.885 25.4029L65.8642 24.6244C65.8642 24.6115 65.8594 24.5992 65.8506 24.5898C65.8419 24.5803 65.8298 24.5745 65.817 24.5737L64.6518 24.4721C64.6388 24.4704 64.6257 24.4738 64.6152 24.4815C64.6046 24.4892 64.5974 24.5007 64.5951 24.5134L64.4362 25.2825C64.1556 25.3141 63.8797 25.3772 63.6135 25.4705L63.1387 24.8331C63.1314 24.823 63.1208 24.8158 63.1087 24.8126C63.0966 24.8095 63.0837 24.8108 63.0725 24.8162L62.0587 25.3972C62.0479 25.4039 62.0399 25.4143 62.0364 25.4265C62.0329 25.4386 62.0342 25.4517 62.0397 25.4631L62.3594 26.1983C61.9862 26.5262 61.6822 26.9243 61.4648 27.3697L60.6571 27.2513C60.6445 27.2498 60.6318 27.2527 60.621 27.2596C60.6103 27.2665 60.6024 27.2768 60.5986 27.2888L60.2959 28.4171C60.2926 28.4293 60.2938 28.4423 60.2994 28.4537C60.305 28.4651 60.3145 28.4741 60.3262 28.4791L61.0827 28.7819C61.0653 29.0526 61.0774 29.3242 61.1187 29.5923L60.3754 29.9609C60.3636 29.9662 60.3544 29.9758 60.3495 29.9876C60.3445 29.9995 60.3443 30.0128 60.3489 30.0248L60.7498 31.1211C60.7538 31.1332 60.7623 31.1433 60.7736 31.1492C60.7849 31.1552 60.7981 31.1565 60.8104 31.1529L61.6161 30.965C61.7561 31.1975 61.9216 31.4138 62.1097 31.6099L61.7163 32.3319C61.7106 32.3433 61.7089 32.3561 61.7117 32.3685C61.7144 32.3809 61.7214 32.3919 61.7315 32.3997L62.6904 33.069C62.7009 33.0762 62.7137 33.0792 62.7263 33.0775C62.7389 33.0757 62.7503 33.0694 62.7585 33.0597L63.3051 32.4467C63.4886 32.5276 63.6784 32.5936 63.8725 32.6441C63.9406 32.6629 64.0126 32.6798 64.0957 32.6968L64.1903 33.5053C64.1913 33.5181 64.1971 33.5301 64.2066 33.5388C64.216 33.5476 64.2285 33.5523 64.2413 33.5523H65.4122C65.4251 33.552 65.4377 33.5471 65.4474 33.5385C65.457 33.5299 65.4634 33.5181 65.4651 33.5053L65.5578 32.7061C65.8314 32.6546 66.0984 32.5732 66.3541 32.4636L66.8874 33.0616C66.8959 33.0714 66.9078 33.0778 66.9206 33.0796C66.9336 33.0812 66.9467 33.0782 66.9574 33.0709L67.9164 32.4035C67.9266 32.3963 67.9339 32.3857 67.937 32.3736C67.9401 32.3616 67.9389 32.3488 67.9334 32.3376L67.5551 31.6419C67.7535 31.4418 67.9279 31.2197 68.0752 30.98L68.8432 31.1681C68.8554 31.1712 68.8684 31.1695 68.8796 31.1636C68.8909 31.1577 68.8994 31.1479 68.9037 31.1361L69.299 30.0418C69.3051 30.0349 69.309 30.0264 69.3104 30.0174C69.3119 30.0084 69.3108 29.9992 69.3073 29.9908C69.3037 29.9823 69.2979 29.9751 69.2904 29.9699C69.2829 29.9645 69.2741 29.9614 69.2649 29.9609L68.5652 29.6111C68.6111 29.3309 68.6251 29.0464 68.6068 28.7631L69.3312 28.4791C69.3432 28.4745 69.3529 28.4655 69.3585 28.454C69.3642 28.4425 69.3652 28.4293 69.3614 28.4171L69.0608 27.2888C69.0568 27.2768 69.0489 27.2665 69.0382 27.2596C69.0275 27.2527 69.0147 27.2498 69.0021 27.2513L68.2342 27.364C68.1087 27.1115 67.9552 26.8737 67.7764 26.6552ZM69.2575 28.4077L68.5406 28.6879C68.5303 28.6921 68.5217 28.6996 68.5159 28.709C68.5102 28.7184 68.5075 28.7294 68.5084 28.7404C68.5309 29.0408 68.5162 29.3425 68.465 29.6393C68.4624 29.6503 68.4636 29.6618 68.4684 29.672C68.4732 29.6822 68.4813 29.6905 68.4914 29.6958L69.1837 30.0399L68.8054 31.0458L68.0487 30.8577C68.0382 30.8548 68.027 30.8557 68.017 30.8602C68.007 30.8647 67.9988 30.8725 67.994 30.8822C67.8398 31.1378 67.6542 31.3734 67.4417 31.5836C67.4352 31.5923 67.4317 31.6028 67.4317 31.6137C67.4317 31.6245 67.4352 31.635 67.4417 31.6437L67.82 32.3376L66.9253 32.9695L66.3976 32.3771C66.3906 32.3683 66.381 32.3618 66.3701 32.3587C66.3592 32.3557 66.3476 32.3563 66.3371 32.3601C66.0674 32.4801 65.7842 32.5673 65.4935 32.6197C65.4824 32.6216 65.4721 32.627 65.4642 32.6351C65.4564 32.6432 65.4514 32.6537 65.4499 32.6648L65.3573 33.4565H64.2811L64.1884 32.6554C64.1868 32.6446 64.182 32.6345 64.1746 32.6265C64.1671 32.6185 64.1575 32.6128 64.1468 32.6102C64.0613 32.5966 63.9766 32.5777 63.8933 32.5538C63.6951 32.501 63.5014 32.4318 63.3146 32.347C63.3047 32.3421 63.2934 32.3405 63.2824 32.3426C63.2715 32.3446 63.2615 32.3501 63.254 32.3583L62.7131 32.9638L61.8318 32.3489L62.2233 31.6344C62.2297 31.6256 62.2332 31.615 62.2332 31.6043C62.2332 31.5935 62.2297 31.5829 62.2233 31.5742C62.0211 31.3666 61.8439 31.1363 61.6955 30.8878C61.6904 30.878 61.6819 30.8701 61.6715 30.8656C61.6612 30.8612 61.6497 30.8604 61.6387 30.8634L60.8425 31.0515L60.4737 30.0454L61.2057 29.6806C61.2155 29.6756 61.2235 29.6678 61.2287 29.658C61.2337 29.6482 61.2356 29.6371 61.2341 29.6261C61.1849 29.3405 61.1716 29.05 61.1943 28.7612C61.1953 28.7501 61.1925 28.7391 61.1862 28.7299C61.1801 28.7207 61.1709 28.7138 61.1603 28.7104L60.4037 28.4096L60.6817 27.381L61.4837 27.4976C61.4948 27.4987 61.5061 27.4965 61.5159 27.4911C61.5256 27.4857 61.5336 27.4775 61.5386 27.4675C61.7548 27.0092 62.066 26.6016 62.4521 26.2716C62.4616 26.2624 62.4673 26.2498 62.4681 26.2366C62.4688 26.2234 62.4644 26.2104 62.4558 26.2002L62.14 25.4743L63.0687 24.9365L63.5397 25.5665C63.5467 25.5746 63.5561 25.5804 63.5666 25.5832C63.5771 25.5859 63.5882 25.5853 63.5983 25.5815C63.8807 25.4833 64.1742 25.4202 64.4721 25.3935C64.4832 25.3924 64.4936 25.3879 64.5018 25.3804C64.51 25.3729 64.5155 25.363 64.5175 25.3521L64.6745 24.6L65.7488 24.6921L65.7697 25.4631C65.7697 25.4742 65.7734 25.4851 65.7802 25.4939C65.787 25.5027 65.7966 25.5091 65.8075 25.512C66.1 25.5912 66.3814 25.7062 66.6454 25.8542C66.6542 25.8606 66.6647 25.8641 66.6756 25.8641C66.6865 25.8641 66.6971 25.8606 66.7059 25.8542L67.2733 25.3276L68.0998 26.0158L67.6743 26.6552C67.668 26.6643 67.6645 26.6752 67.6645 26.6863C67.6645 26.6973 67.668 26.7082 67.6743 26.7173C67.8681 26.9469 68.0327 27.1996 68.1642 27.4694C68.1691 27.4794 68.1771 27.4876 68.1869 27.493C68.1966 27.4984 68.2079 27.5006 68.2191 27.4995L68.9756 27.3867L69.2575 28.4077Z" fill="#BA68C8"/>
<path d="M65.4671 26.7205C65.0108 26.5986 64.5285 26.614 64.081 26.7647C63.6335 26.9154 63.2411 27.1946 62.9532 27.5669C62.6654 27.9393 62.4951 28.3882 62.4638 28.8569C62.4325 29.3255 62.5417 29.7929 62.7776 30.1997C63.0135 30.6067 63.3654 30.9349 63.7889 31.143C64.2124 31.3512 64.6884 31.4297 65.1569 31.3689C65.6253 31.308 66.0651 31.1105 66.4206 30.8012C66.7762 30.4918 67.0314 30.0847 67.1541 29.6312C67.3179 29.0229 67.2321 28.3748 66.9159 27.8291C66.5996 27.2835 66.0785 26.8847 65.4671 26.7205ZM67.0539 29.6067C66.9902 29.9096 66.8649 30.1963 66.6857 30.4493C66.5066 30.7023 66.2774 30.9163 66.0121 31.0782C65.7469 31.24 65.4513 31.3464 65.1433 31.3907C64.8353 31.4349 64.5215 31.4163 64.2209 31.3358C63.9204 31.2554 63.6397 31.1147 63.3957 30.9226C63.1518 30.7305 62.9499 30.4908 62.8023 30.2184C62.6548 29.946 62.5647 29.6465 62.5377 29.3383C62.5106 29.0301 62.5472 28.7197 62.6451 28.4259C62.8028 27.8449 63.1859 27.3498 63.7103 27.0491C64.2347 26.7485 64.8575 26.6668 65.4425 26.8219C66.0273 26.9791 66.5256 27.3608 66.8278 27.8829C67.1299 28.405 67.2112 29.0251 67.0539 29.6067Z" fill="#BA68C8"/>
<path d="M57.3283 29.3797L57.1505 28.7178C57.1498 28.7144 57.1485 28.711 57.1465 28.708C57.1445 28.7051 57.1419 28.7026 57.1389 28.7007C57.1359 28.6987 57.1325 28.6975 57.1289 28.6968C57.1255 28.6963 57.1218 28.6964 57.1183 28.6971L56.6663 28.763C56.5919 28.6127 56.5005 28.4715 56.394 28.3418L56.6473 27.9657C56.6519 27.9598 56.6545 27.9525 56.6545 27.945C56.6545 27.9375 56.6519 27.9303 56.6473 27.9244L56.1216 27.4862C56.1162 27.4811 56.1091 27.4782 56.1017 27.4782C56.0942 27.4782 56.0872 27.4811 56.0818 27.4862L55.749 27.7984C55.6016 27.7183 55.4455 27.6553 55.2836 27.6103L55.2685 27.1403C55.2685 27.1331 55.2658 27.1262 55.2609 27.121C55.256 27.1157 55.2492 27.1125 55.242 27.1121L54.5555 27.0518C54.548 27.0513 54.5406 27.0534 54.5347 27.058C54.5288 27.0625 54.5246 27.069 54.5233 27.0763L54.4288 27.5276C54.2643 27.5465 54.1025 27.5837 53.9464 27.6385L53.6665 27.2625C53.6625 27.256 53.6562 27.2512 53.6489 27.2491C53.6415 27.247 53.6336 27.2477 53.6267 27.2512L53.0309 27.5934C53.0264 27.5986 53.0238 27.6053 53.0238 27.6122C53.0238 27.6192 53.0264 27.6258 53.0309 27.6311L53.2202 28.0635C53.0004 28.2557 52.8216 28.4897 52.6943 28.7517L52.2195 28.684C52.2124 28.6831 52.2051 28.6847 52.199 28.6885C52.1927 28.6923 52.188 28.6979 52.1856 28.7047L52.0059 29.3666C52.004 29.3738 52.0049 29.3815 52.0084 29.388C52.0119 29.3947 52.0177 29.3997 52.0247 29.4023L52.473 29.5809C52.4635 29.7405 52.4711 29.9006 52.4957 30.0586L52.0607 30.2729C52.0539 30.2762 52.0487 30.2819 52.0459 30.2888C52.043 30.2958 52.043 30.3035 52.0455 30.3105L52.2801 30.9554C52.2827 30.9624 52.2878 30.9683 52.2944 30.9718C52.301 30.9752 52.3087 30.9761 52.316 30.9743L52.7908 30.8633C52.873 30.9989 52.9701 31.125 53.0801 31.2394L52.8494 31.6644C52.8457 31.671 52.8446 31.6786 52.8464 31.686C52.8482 31.6932 52.8527 31.6996 52.8588 31.7039L53.4264 32.0968C53.4316 32.1021 53.4388 32.105 53.4461 32.105C53.4536 32.105 53.4607 32.1021 53.466 32.0968L53.7876 31.7359C53.8941 31.7831 54.0042 31.822 54.1167 31.8524C54.1564 31.8618 54.198 31.8731 54.249 31.8825L54.3039 32.3582C54.3044 32.3658 54.3078 32.3731 54.3134 32.3783C54.319 32.3835 54.3265 32.3864 54.3342 32.3864H55.0227C55.03 32.3865 55.0372 32.3838 55.0428 32.3789C55.0484 32.3742 55.0519 32.3674 55.0529 32.3601L55.1078 31.89C55.2683 31.859 55.425 31.8104 55.575 31.7452L55.8889 32.0987C55.8948 32.1033 55.9022 32.1057 55.9097 32.1057C55.9173 32.1057 55.9246 32.1033 55.9305 32.0987L56.4979 31.7057C56.5039 31.7013 56.5083 31.6951 56.5103 31.6879C56.5124 31.6807 56.512 31.6732 56.5093 31.6663L56.2634 31.277C56.3789 31.1588 56.481 31.0282 56.568 30.8878L57.02 30.995C57.0272 30.9964 57.0348 30.9953 57.0413 30.9919C57.0479 30.9885 57.053 30.9829 57.0559 30.9762L57.2885 30.3331C57.2911 30.3259 57.2908 30.3179 57.2875 30.3109C57.2844 30.3039 57.2787 30.2984 57.2715 30.2954L56.8592 30.0906C56.8873 29.926 56.8956 29.7587 56.8838 29.5922L57.3112 29.4249C57.3163 29.4246 57.3214 29.4228 57.3255 29.4198C57.3297 29.4168 57.3328 29.4126 57.3346 29.4078C57.3364 29.403 57.3368 29.3978 57.3357 29.3929C57.3346 29.3879 57.332 29.3833 57.3283 29.3797ZM56.844 29.5358C56.8378 29.5382 56.8325 29.5428 56.8291 29.5486C56.8256 29.5543 56.8243 29.5611 56.8252 29.5678C56.8381 29.7443 56.8293 29.9218 56.7987 30.0961C56.7973 30.1027 56.7982 30.1093 56.8013 30.1152C56.8045 30.121 56.8095 30.1257 56.8157 30.1281L57.2224 30.3312L57.0049 30.9235L56.5566 30.8163C56.5501 30.8153 56.5434 30.8161 56.5374 30.8188C56.5312 30.8214 56.5261 30.8259 56.5225 30.8313C56.4322 30.9819 56.3236 31.1209 56.1991 31.2451C56.1955 31.2503 56.1936 31.2565 56.1936 31.2629C56.1936 31.2693 56.1955 31.2755 56.1991 31.2808L56.4186 31.687L55.9002 32.048L55.5882 31.7001C55.5847 31.6946 55.5792 31.6906 55.573 31.689C55.5667 31.6872 55.56 31.6879 55.5542 31.6907C55.3947 31.7603 55.2279 31.8114 55.0567 31.843C55.0503 31.8442 55.0444 31.8474 55.04 31.8521C55.0356 31.8568 55.0328 31.8628 55.0322 31.8693L54.9773 32.3337H54.3455L54.2907 31.8618C54.2897 31.8555 54.2868 31.8496 54.2825 31.8448C54.2781 31.8402 54.2724 31.837 54.2661 31.8355C54.2156 31.8282 54.1657 31.8175 54.1167 31.8035C54.0001 31.7715 53.8864 31.7306 53.7762 31.6813C53.771 31.6775 53.7647 31.6754 53.7583 31.6754C53.7518 31.6754 53.7454 31.6775 53.7403 31.6813L53.4226 32.0366L52.9043 31.6756L53.135 31.2544C53.1386 31.2492 53.1405 31.243 53.1405 31.2366C53.1405 31.2302 53.1386 31.224 53.135 31.2188C53.016 31.0971 52.9124 30.9613 52.8268 30.8144C52.8233 30.8089 52.818 30.8045 52.8119 30.8022C52.8057 30.7998 52.799 30.7995 52.7927 30.8013L52.3236 30.9122L52.0966 30.3369L52.526 30.1224C52.5317 30.1194 52.5364 30.1148 52.5395 30.1091C52.5425 30.1034 52.5438 30.0969 52.543 30.0906C52.5149 29.9228 52.5067 29.7525 52.5184 29.5828C52.5196 29.5763 52.5183 29.5697 52.5148 29.5641C52.5114 29.5586 52.5059 29.5545 52.4995 29.5527L52.055 29.376L52.2176 28.7705L52.6905 28.8382C52.6968 28.8395 52.7033 28.8385 52.7088 28.8354C52.7144 28.8322 52.7187 28.8273 52.7208 28.8213C52.8492 28.552 53.0328 28.3125 53.2598 28.118C53.2647 28.1136 53.2682 28.1079 53.2699 28.1016C53.2716 28.0952 53.2713 28.0885 53.2693 28.0823L53.0801 27.6555L53.6267 27.3395L53.9029 27.7156C53.9075 27.7203 53.9133 27.7236 53.9196 27.7253C53.9259 27.7269 53.9326 27.7268 53.9389 27.7251C54.1043 27.6654 54.2764 27.6263 54.4514 27.6085C54.458 27.6081 54.4643 27.6054 54.4691 27.6009C54.4739 27.5965 54.477 27.5905 54.4779 27.5839L54.5706 27.1365L55.2024 27.1928L55.2156 27.6461C55.2153 27.6524 55.2172 27.6586 55.221 27.6637C55.2248 27.6688 55.2302 27.6726 55.2363 27.6743C55.4091 27.7196 55.5751 27.7872 55.73 27.8755C55.7354 27.879 55.7416 27.8809 55.748 27.8809C55.7544 27.8809 55.7606 27.879 55.766 27.8755L56.0951 27.5671L56.5793 27.9714L56.3296 28.3474C56.3262 28.3528 56.3245 28.3589 56.3245 28.3653C56.3245 28.3716 56.3262 28.3778 56.3296 28.3831C56.4447 28.5203 56.5419 28.6713 56.619 28.8326C56.622 28.8383 56.6267 28.8429 56.6325 28.8459C56.6382 28.849 56.6447 28.8502 56.6511 28.8495L57.0975 28.7837L57.262 29.391L56.844 29.5358Z" fill="#BA68C8"/>
<path d="M55.0359 28.3793C54.7674 28.3077 54.4836 28.3168 54.2204 28.4055C53.9571 28.4942 53.7262 28.6585 53.5569 28.8778C53.3877 29.0969 53.2876 29.3611 53.2692 29.6367C53.2509 29.9125 53.3154 30.1875 53.4542 30.4268C53.5931 30.6662 53.8003 30.8593 54.0496 30.9815C54.2989 31.1038 54.579 31.1498 54.8546 31.1138C55.1302 31.0778 55.3889 30.9614 55.5979 30.7793C55.8069 30.5971 55.9569 30.3574 56.0289 30.0905C56.1249 29.7326 56.0742 29.3516 55.8882 29.0309C55.702 28.7101 55.3955 28.4759 55.0359 28.3793ZM55.9703 30.0716C55.8614 30.3943 55.633 30.6635 55.3315 30.8245C55.03 30.9855 54.6781 31.026 54.3475 30.9382C54.0169 30.8502 53.7325 30.6402 53.5522 30.351C53.3718 30.0617 53.3092 29.7151 53.3771 29.3815C53.4706 29.0403 53.6962 28.7499 54.0046 28.5737C54.313 28.3974 54.6791 28.3499 55.0227 28.4414C55.3661 28.5334 55.6587 28.7572 55.8364 29.0635C56.014 29.37 56.0622 29.7339 55.9703 30.0754V30.0716Z" fill="#BA68C8"/>
<path d="M37.7144 31.0699C37.7123 31.0565 37.7057 31.0442 37.6957 31.035C37.6858 31.0258 37.673 31.0202 37.6595 31.0191L36.5247 30.9325C36.3766 30.56 36.1861 30.2054 35.9573 29.8758L36.5417 28.8811C36.5483 28.8695 36.5508 28.8561 36.5491 28.8429C36.5474 28.8297 36.5414 28.8174 36.5322 28.8078L35.6148 27.892C35.6045 27.8833 35.5915 27.8785 35.5779 27.8785C35.5644 27.8785 35.5513 27.8833 35.5411 27.892L34.5425 28.4825C33.9593 28.0945 33.3029 27.8283 32.6132 27.7003L32.3257 26.5721C32.3223 26.5591 32.3148 26.5476 32.3042 26.5395C32.2936 26.5313 32.2805 26.5269 32.2671 26.5269H30.9657C30.9523 26.5269 30.9394 26.5313 30.9287 26.5395C30.9181 26.5476 30.9105 26.5591 30.9072 26.5721L30.6158 27.7041C30.2339 27.7796 29.8616 27.8969 29.5056 28.0537L28.5996 27.2772C28.5888 27.269 28.5755 27.2645 28.5618 27.2645C28.5481 27.2645 28.5348 27.269 28.524 27.2772L27.4591 28.0293C27.4479 28.0366 27.4395 28.0475 27.4354 28.0602C27.4313 28.0728 27.4316 28.0865 27.4364 28.0989L27.862 29.2082C27.5926 29.4869 27.3548 29.794 27.1526 30.124L25.9667 30.0018C25.9532 30.0004 25.9396 30.0037 25.9279 30.0108C25.9163 30.0179 25.9074 30.0287 25.9025 30.0413L25.458 31.256C25.4532 31.2684 25.4528 31.2821 25.457 31.2947C25.4611 31.3074 25.4695 31.3183 25.4807 31.3255L26.4642 31.9893C26.4188 32.2641 26.3961 32.5421 26.3961 32.8205C26.3961 32.9238 26.3961 33.0292 26.4075 33.1514L25.3842 33.7211C25.3724 33.7275 25.3631 33.7377 25.358 33.75C25.3528 33.7624 25.352 33.776 25.3558 33.7888L25.6888 35.0373C25.6918 35.0508 25.6996 35.0627 25.7107 35.071C25.7217 35.0792 25.7354 35.0833 25.7492 35.0826L26.9182 35.0674C27.0904 35.4212 27.3016 35.7549 27.5479 36.0622L27.0373 37.1057C27.0315 37.1178 27.03 37.1315 27.033 37.1445C27.0362 37.1575 27.0437 37.1691 27.0543 37.1772L28.053 38.0103C28.0636 38.0183 28.0766 38.0227 28.0899 38.0227C28.1032 38.0227 28.1161 38.0183 28.1268 38.0103L29.063 37.3465C29.4138 37.5434 29.7864 37.6993 30.1732 37.8109L30.3624 38.9391C30.3651 38.9522 30.3718 38.9641 30.3817 38.9732C30.3915 38.9824 30.4039 38.9881 30.4173 38.9899L31.7129 39.0989C31.7236 39.0972 31.7337 39.0926 31.7419 39.0857C31.7503 39.0787 31.7566 39.0697 31.7601 39.0595L32.1385 37.9989C32.543 37.9599 32.9417 37.8742 33.3263 37.7432L34.1188 38.5424C34.128 38.5515 34.14 38.5575 34.1529 38.5595C34.1657 38.5615 34.179 38.5595 34.1906 38.5537L35.3255 37.9049C35.3366 37.8979 35.3454 37.8876 35.3504 37.8755C35.3554 37.8634 35.3566 37.85 35.3539 37.8373L35.055 36.7597C35.3625 36.4941 35.6385 36.1944 35.8778 35.8666L36.9899 36.0698C37.0029 36.0721 37.0163 36.0701 37.0281 36.0639C37.0397 36.0578 37.049 36.0479 37.0542 36.0359L37.6046 34.8626C37.6098 34.8503 37.611 34.8369 37.6079 34.824C37.6049 34.8111 37.5977 34.7997 37.5876 34.791L36.7195 34.0784C36.8176 33.6865 36.869 33.2845 36.8727 32.8806L37.9054 32.4124C37.9175 32.4069 37.9274 32.3977 37.9339 32.3863C37.9403 32.3748 37.9429 32.3615 37.9413 32.3485L37.7144 31.0699ZM31.641 35.987C30.7953 35.987 29.9841 35.653 29.3861 35.0584C28.7881 34.4639 28.4521 33.6575 28.4521 32.8167C28.4521 31.9758 28.7881 31.1695 29.3861 30.575C29.9841 29.9804 30.7953 29.6465 31.641 29.6465C32.4735 29.6666 33.2652 30.0096 33.8469 30.6021C34.4286 31.1945 34.7541 31.9897 34.7541 32.8176C34.7541 33.6456 34.4286 34.4407 33.8469 35.0332C33.2652 35.6258 32.4735 35.9686 31.641 35.9889V35.987Z" fill="#BA68C8" stroke="#263238" stroke-width="0.5" stroke-linecap="round" stroke-linejoin="round"/>
<path d="M30.6972 41.6444C30.694 41.63 30.6859 41.6171 30.674 41.6082C30.6623 41.5992 30.6476 41.5948 30.6329 41.5955L29.7211 41.6501C29.602 41.3472 29.4484 41.0589 29.2635 40.7908L29.8309 40.0725C29.8402 40.0614 29.8452 40.0474 29.8452 40.0329C29.8452 40.0186 29.8402 40.0046 29.8309 39.9935L28.8739 39.042C28.863 39.032 28.8488 39.0266 28.8341 39.0266C28.8194 39.0266 28.8052 39.032 28.7944 39.042L28.0643 39.6174C27.5847 39.2999 27.0457 39.0818 26.4792 38.9762L26.3677 38.0361C26.3663 38.0215 26.3595 38.0082 26.3486 37.9984C26.3378 37.9886 26.3237 37.9833 26.309 37.9834H24.9548C24.9399 37.9833 24.9256 37.9885 24.9145 37.9983C24.9033 38.008 24.8961 38.0214 24.8943 38.0361L24.7846 38.9762C24.4743 39.037 24.1718 39.1316 23.8823 39.2583L23.2507 38.5494C23.241 38.5375 23.2271 38.5299 23.2119 38.5282C23.1967 38.5264 23.1815 38.5306 23.1693 38.5399L22.0591 39.3128C22.0471 39.3211 22.0385 39.3336 22.035 39.3478C22.0316 39.3619 22.0333 39.3769 22.0402 39.3898L22.4959 40.2266C22.2798 40.456 22.0895 40.7082 21.9285 40.9788L20.998 40.7588C20.9837 40.7551 20.9686 40.757 20.9556 40.764C20.9427 40.7709 20.9328 40.7824 20.928 40.7963L20.4666 42.0562C20.4607 42.0702 20.4607 42.0859 20.4663 42.0999C20.472 42.114 20.4829 42.1252 20.4967 42.1314L21.3498 42.5545C21.3136 42.7796 21.2953 43.0072 21.2949 43.2352C21.2949 43.3161 21.2949 43.4006 21.2949 43.4984L20.4117 43.8444C20.3979 43.8499 20.3866 43.8602 20.3801 43.8734C20.3735 43.8865 20.3719 43.9016 20.3757 43.9158L20.7256 45.2171C20.7289 45.2316 20.7375 45.2442 20.7498 45.2527C20.7621 45.261 20.777 45.2645 20.7918 45.2622L21.7186 45.1249C21.8588 45.4131 22.0307 45.6849 22.2312 45.9353L21.7167 46.7082C21.7088 46.7209 21.7057 46.7359 21.7077 46.7506C21.7098 46.7654 21.7169 46.779 21.7281 46.7891L22.7665 47.654C22.7777 47.6632 22.7917 47.6682 22.8062 47.6682C22.8207 47.6682 22.8347 47.6632 22.8459 47.654L23.5135 47.0241C23.7983 47.1831 24.1004 47.3093 24.4139 47.4002L24.4385 48.3103C24.4389 48.3247 24.4447 48.3386 24.4549 48.3491C24.4651 48.3594 24.4787 48.3657 24.4933 48.3666L25.8419 48.4776C25.8567 48.4783 25.8714 48.4734 25.8829 48.4641C25.8944 48.4547 25.902 48.4415 25.9043 48.4268L26.0934 47.5431C26.4219 47.5111 26.7456 47.4417 27.0581 47.3362L27.5971 48.0564C27.6058 48.0681 27.6187 48.0761 27.633 48.0788C27.6473 48.0816 27.6621 48.0789 27.6747 48.0715L28.8474 47.3983C28.8599 47.3909 28.8693 47.3791 28.8739 47.3653C28.8783 47.3514 28.8777 47.3364 28.872 47.3231L28.5182 46.507C28.7672 46.2905 28.9912 46.0471 29.1859 45.7812L30.039 46.0632C30.0531 46.0678 30.0684 46.0671 30.0819 46.0612C30.0955 46.0553 30.1065 46.0447 30.1127 46.0312L30.6802 44.8166C30.6859 44.8031 30.6865 44.7882 30.6821 44.7744C30.6775 44.7606 30.6681 44.7488 30.6556 44.7414L29.8896 44.2713C29.968 43.9523 30.0099 43.6256 30.0144 43.2973L30.8826 43.0396C30.8971 43.0361 30.9097 43.0271 30.9179 43.0144C30.9259 43.0018 30.9288 42.9866 30.926 42.972L30.6972 41.6444ZM28.2969 43.2333C28.2969 43.7539 28.1416 44.2629 27.8507 44.6958C27.5598 45.1288 27.1461 45.4661 26.6623 45.6654C26.1785 45.8647 25.6461 45.9168 25.1324 45.8152C24.6187 45.7137 24.1469 45.4629 23.7766 45.0948C23.4062 44.7266 23.1541 44.2575 23.0518 43.7468C22.9497 43.2362 23.0021 42.707 23.2026 42.2259C23.403 41.7449 23.7424 41.3338 24.1778 41.0444C24.6133 40.7552 25.1252 40.6008 25.649 40.6008C26.3513 40.6008 27.0248 40.8781 27.5214 41.3719C28.018 41.8655 28.2969 42.5351 28.2969 43.2333Z" fill="#BA68C8" stroke="#263238" stroke-width="0.5" stroke-linecap="round" stroke-linejoin="round"/>
<path d="M47.3378 86.9276C67.4067 86.9276 83.6757 83.5971 83.6757 79.4889C83.6757 75.3807 67.4067 72.0503 47.3378 72.0503C27.269 72.0503 11 75.3807 11 79.4889C11 83.5971 27.269 86.9276 47.3378 86.9276Z" fill="#BA68C8"/>
<path opacity="0.5" d="M47.3378 86.9276C67.4067 86.9276 83.6757 83.5971 83.6757 79.4889C83.6757 75.3807 67.4067 72.0503 47.3378 72.0503C27.269 72.0503 11 75.3807 11 79.4889C11 83.5971 27.269 86.9276 47.3378 86.9276Z" fill="white"/>
<path d="M49.4581 79.598H21.2534L26.1237 65.8564H44.546L49.4581 79.598Z" fill="#263238"/>
<path d="M49.5395 79.5981H21.1739V80.7527H49.5395V79.5981Z" fill="#263238"/>
<path d="M49.4581 79.598H21.2534L26.1237 65.8564H44.546L49.4581 79.598Z" fill="white" stroke="#263238" stroke-width="0.5" stroke-linecap="round" stroke-linejoin="round"/>
<path d="M49.4581 79.598H21.2534L26.1237 65.8564H44.546L49.4581 79.598Z" stroke="#263238" stroke-width="0.5" stroke-linecap="round" stroke-linejoin="round"/>
<path d="M27.27 76.2041H48.2457" stroke="#263238" stroke-width="0.5" stroke-linecap="round" stroke-linejoin="round"/>
<path d="M22.4563 76.2041H26.3488" stroke="#263238" stroke-width="0.5" stroke-linecap="round" stroke-linejoin="round"/>
<path d="M42.8514 72.8125H47.0333" stroke="#263238" stroke-width="0.5" stroke-linecap="round" stroke-linejoin="round"/>
<path d="M23.6592 72.8125H40.2469" stroke="#263238" stroke-width="0.5" stroke-linecap="round" stroke-linejoin="round"/>
<path d="M24.8622 69.4185H45.819" stroke="#263238" stroke-width="0.5" stroke-linecap="round" stroke-linejoin="round"/>
<path d="M37.1356 58.4025C37.152 58.3796 37.1633 58.3534 37.1684 58.3257C37.1594 58.3521 37.1484 58.3778 37.1356 58.4025Z" fill="#BA68C8"/>
<path d="M37.1412 57.8071C37.0941 57.5848 37.0308 57.3662 36.9521 57.1528C37.0182 57.3766 37.092 57.6023 37.1412 57.8071Z" fill="#BA68C8"/>
<path d="M32.0817 59.7242C32.0019 59.83 31.9161 59.9311 31.8245 60.027L31.8793 59.9819C31.977 59.9037 32.0531 59.8021 32.1004 59.6867C32.1477 59.5712 32.1647 59.4457 32.1497 59.3219C32.129 59.147 32.1025 58.9233 32.0742 58.6675C32.1251 59.0178 32.1276 59.3734 32.0817 59.7242Z" fill="#BA68C8"/>
<path d="M37.6443 52.5529C37.653 52.4925 37.6736 52.4344 37.7049 52.3818C37.6694 52.4324 37.6485 52.4915 37.6443 52.5529Z" fill="#BA68C8"/>
<path d="M36.4111 58.918C36.5321 58.8371 36.7062 58.7393 36.8556 58.6396C36.6863 58.6939 36.5334 58.7895 36.4111 58.918Z" fill="#BA68C8"/>
<path d="M36.7327 60.9858C36.6873 60.8335 36.6362 60.6719 36.5851 60.5083C36.6324 60.6775 36.6835 60.8392 36.7327 60.9858Z" fill="#BA68C8"/>
<path d="M31.7716 55.2216C31.7716 55.2366 31.7716 55.2534 31.7716 55.2722C31.7343 54.7831 31.7414 54.2917 31.7923 53.8037C31.8441 53.5669 31.9606 53.3489 32.129 53.1738C31.5616 53.6533 31.7564 54.8078 31.7716 55.2216Z" fill="#BA68C8"/>
<path d="M37.7956 55.228C37.6973 55.4537 37.3531 55.5854 37.0921 55.7921C37.3965 55.5909 37.6973 55.5327 37.7956 55.228Z" fill="#BA68C8"/>
<path d="M37.824 54.8887C37.8289 54.9626 37.8289 55.0367 37.824 55.1106C37.8326 55.0369 37.8326 54.9624 37.824 54.8887Z" fill="#BA68C8"/>
<path d="M34.6199 51.6412C34.7807 51.5735 34.879 51.5378 34.8847 51.5359L34.7372 51.5171L34.6199 51.6412Z" fill="#BA68C8"/>
<path d="M38.031 52.2729H37.9904L38.0716 52.2864L38.031 52.2729Z" fill="#BA68C8"/>
<path d="M37.0977 62.0278L39.2312 62.6558H39.2482C38.5258 62.4472 37.2131 62.0616 37.0977 62.0278Z" fill="#BA68C8"/>
<path d="M44.8657 71.2422C44.3153 71.3213 43.7774 71.4712 43.2656 71.6879C43.1408 71.7386 43.0197 71.797 42.8987 71.8571C42.2802 72.1693 41.7166 72.5773 41.0905 72.8782C38.2155 74.2658 34.7316 73.1338 31.6334 73.901C30.7086 74.1305 29.8252 74.5253 28.8852 74.6532C27.3097 74.8751 25.753 74.3486 24.2664 73.7544C24.3156 71.827 24.4366 69.5067 24.7109 68.668C25.1024 67.7767 25.8836 67.3932 26.6344 67.0641C26.9862 66.9306 27.4118 66.893 27.6728 66.688C29.0857 66.2792 30.3773 65.5352 31.4367 64.52L37.1583 65.8042L39.2823 64.7475C40.0918 64.9148 40.9014 64.9356 41.639 65.133C43.2353 65.62 43.6514 66.6561 44.0619 67.5228C44.1338 67.7109 44.2 67.8989 44.251 68.087C44.4648 68.8523 44.6936 70.1629 44.8657 71.2422Z" fill="#BA68C8"/>
<path d="M37.1261 64.0683C37.124 63.9928 37.1297 63.9171 37.1432 63.8427C37.1594 63.6911 37.2153 63.5466 37.3051 63.4231C37.3951 63.2998 37.5159 63.2019 37.6557 63.1395C38.0434 62.9581 38.4546 62.8316 38.8776 62.7633L39.2275 62.6656L37.094 62.0375H37.0845C36.9448 61.6949 36.8274 61.3438 36.7327 60.9864C36.6835 60.8322 36.6324 60.6705 36.5852 60.5088C36.3715 59.83 36.1502 59.1154 36.3015 58.9858C36.3362 58.9574 36.3728 58.9317 36.4112 58.9087C36.5334 58.7802 36.6863 58.6844 36.8556 58.6303C36.9626 58.5688 37.0574 58.4884 37.1356 58.3934C37.1481 58.3691 37.1588 58.344 37.1678 58.3182C37.1727 58.2273 37.1727 58.1363 37.1678 58.0456C37.1602 57.9629 37.1481 57.8807 37.1318 57.7992C37.0826 57.5961 37.0089 57.3686 36.9427 57.1448C36.6193 56.2686 36.6873 56.0598 37.0845 55.7928C37.3455 55.5842 37.6898 55.4525 37.7882 55.2287C37.8016 55.1904 37.8104 55.1506 37.8147 55.1103C37.8195 55.0364 37.8195 54.9623 37.8147 54.8884C37.7655 54.345 37.5271 53.087 37.6255 52.553C37.6297 52.4916 37.6506 52.4325 37.686 52.3819C37.7187 52.3391 37.7628 52.3065 37.8133 52.2876C37.8638 52.2686 37.9187 52.2641 37.9716 52.2747H38.0114C36.9911 51.9221 35.9371 51.6752 34.8659 51.5376C34.8659 51.5376 34.7619 51.5753 34.6011 51.6429C33.7148 52.0568 32.8796 52.571 32.112 53.1755C31.9436 53.3506 31.8271 53.5686 31.7754 53.8053C31.7244 54.2933 31.7174 54.7847 31.7545 55.2738C31.7829 55.8079 31.9929 58.117 32.0552 58.6698C32.0836 58.9255 32.1101 59.1493 32.1309 59.3242C32.1459 59.448 32.1288 59.5735 32.0815 59.689C32.0342 59.8044 31.9581 59.906 31.8604 59.9842L31.8056 60.0293L31.6315 60.2173C31.686 60.4011 31.7189 60.5903 31.7299 60.7815C31.7583 60.9695 31.7848 61.1989 31.8036 61.4772C31.9314 62.3639 31.9314 63.2642 31.8036 64.151C31.8036 64.151 31.6505 64.2995 31.4254 64.5178L37.147 65.8001C37.147 65.8001 39.131 65.1137 39.1102 65.1082L39.2785 64.7433C38.539 64.5952 37.8173 64.3689 37.1261 64.0683ZM34.6824 59.595L33.8521 59.5573L33.8823 58.9011C33.5031 58.7882 33.1705 58.5568 32.934 58.241C32.6975 57.9253 32.5698 57.5422 32.5698 57.1486C32.5702 57.0528 32.5785 56.9573 32.5944 56.8628L32.0514 56.6503L32.3163 55.9809L32.8477 56.1877C32.9931 55.9529 33.1903 55.7539 33.4242 55.6057C33.658 55.4576 33.9228 55.3641 34.1983 55.3322L34.221 54.8414L35.0512 54.8809L35.0247 55.4262C35.4103 55.5603 35.7398 55.8183 35.9613 56.1594C36.1828 56.5005 36.2836 56.9053 36.2479 57.3097C36.2121 57.7141 36.0417 58.0952 35.7637 58.3926C35.4857 58.69 35.1158 58.8868 34.7127 58.9519L34.6824 59.595Z" fill="#BA68C8"/>
<path d="M31.5861 60.1104C31.6623 60.3287 31.7155 60.5542 31.745 60.7834C31.734 60.5923 31.701 60.4031 31.6467 60.2193C31.6285 60.182 31.6082 60.1456 31.5861 60.1104Z" fill="#BA68C8"/>
<path d="M31.815 61.4814C31.87 62.3719 31.87 63.2648 31.815 64.1553C31.9426 63.2685 31.9426 62.3682 31.815 61.4814Z" fill="#BA68C8"/>
<path d="M31.4367 51.6712H31.4216C31.5099 51.6386 31.6003 51.6116 31.6921 51.5903C31.6049 51.6104 31.5195 51.6374 31.4367 51.6712Z" fill="white"/>
<path d="M31.6959 51.5941C31.762 51.5791 31.8339 51.5678 31.9019 51.5547C31.8282 51.5659 31.7601 51.5847 31.6959 51.5941Z" fill="white"/>
<path d="M29.2672 54.146C29.3126 54.0332 29.3599 53.9186 29.4129 53.8057C29.356 53.9154 29.3074 54.0292 29.2672 54.146Z" fill="white"/>
<path d="M29.4602 59.0347C30.0276 59.3619 30.8296 59.5085 31.1624 59.6628C30.7217 59.4183 30.1033 59.3168 29.6986 59.1457C29.6169 59.1134 29.5373 59.0764 29.4602 59.0347Z" fill="white"/>
<path d="M29.1047 58.7748C28.9704 58.6478 28.8608 58.4974 28.7812 58.3311C28.856 58.5003 28.9662 58.6515 29.1047 58.7748Z" fill="white"/>
<path d="M30.8201 55.4771C30.8201 55.4771 32.144 51.7503 33.9371 51.4475C33.2588 51.4315 32.5803 51.4674 31.9076 51.5548C31.8396 51.5679 31.7677 51.5792 31.7014 51.5942C31.6097 51.6154 31.5194 51.6424 31.4309 51.6751C30.7312 51.9628 29.827 52.9913 29.4205 53.8036C29.3675 53.9165 29.3202 54.0312 29.2747 54.1439C29.1443 54.5295 28.9854 55.024 28.8548 55.5241C28.8057 55.7498 28.7698 55.9491 28.7471 56.1089C28.6979 56.4399 28.6373 56.7971 28.6147 57.1487C28.643 57.6376 28.6487 58.01 28.7887 58.3296C28.8682 58.4959 28.9779 58.6464 29.1121 58.7734C29.1462 58.8054 29.1821 58.8355 29.22 58.8655L29.252 58.8899C29.2931 58.9226 29.3361 58.9527 29.3807 58.9803L29.4355 59.014L29.4677 59.0328C29.5424 59.0744 29.6194 59.1114 29.6984 59.1438C30.1032 59.3149 30.7217 59.4165 31.1624 59.6609C31.1995 59.6774 31.2344 59.6981 31.2664 59.7229C31.352 59.778 31.4297 59.8445 31.4972 59.9204L30.8201 55.4771Z" fill="white"/>
<path d="M29.2133 58.8678C29.1752 58.8375 29.1389 58.8072 29.1046 58.7749C29.1389 58.8072 29.1675 58.8375 29.2133 58.8678Z" fill="white"/>
<path d="M29.2692 58.9182C29.3013 58.9426 29.3372 58.9671 29.3732 58.9896C29.3285 58.9622 29.2856 58.9321 29.2446 58.8994L29.2692 58.9182Z" fill="white"/>
<path d="M31.4935 59.9255C31.426 59.8496 31.3483 59.7831 31.2627 59.728C31.3869 59.8385 31.4957 59.965 31.5861 60.1041C31.5671 60.0506 31.5431 59.9989 31.5142 59.9499C31.5078 59.9415 31.5008 59.9332 31.4935 59.9255Z" fill="white"/>
<path d="M31.514 59.9559L31.4935 59.9263C31.5009 59.9358 31.5078 59.9457 31.514 59.9559Z" fill="white"/>
<path d="M31.5143 59.9561C31.5431 60.0051 31.5671 60.0567 31.5861 60.1103C31.608 60.143 31.6282 60.1769 31.6467 60.2118C31.618 60.1195 31.5732 60.0329 31.5143 59.9561Z" fill="white"/>
<path d="M31.7733 55.2725C31.8263 56.3669 31.9625 57.7376 32.0741 58.6684C32.0041 58.1156 31.8017 55.8066 31.7733 55.2725Z" fill="white"/>
<path d="M32.1308 53.1736C32.8984 52.5692 33.7337 52.055 34.62 51.6411C34.0564 51.8724 32.7607 52.4591 32.1308 53.1736Z" fill="white"/>
<path d="M33.9371 51.4473C32.1535 51.75 30.8201 55.4768 30.8201 55.4768L31.4934 59.9257L31.5142 59.9558C31.5731 60.0327 31.6179 60.1193 31.6467 60.2116L31.8207 60.0235L31.6315 60.174L31.8207 60.0235C31.9122 59.9276 31.998 59.8265 32.0778 59.7209C32.1261 59.3709 32.1261 59.016 32.0778 58.6659C31.972 57.7351 31.8301 56.3644 31.7771 55.2701C31.7771 55.2512 31.7771 55.2343 31.7771 55.2193C31.762 54.8055 31.5672 53.651 32.1346 53.1734C32.7588 52.4589 34.0601 51.8723 34.6237 51.6409L34.741 51.5168C34.463 51.4848 34.2038 51.4623 33.9371 51.4473Z" fill="white"/>
<path d="M41.5142 57.5412C41.5918 57.6065 41.6462 57.6949 41.6693 57.7932C41.7506 57.3908 41.3194 57.3758 40.7766 56.853C41.0074 57.0979 41.2538 57.3278 41.5142 57.5412Z" fill="white"/>
<path d="M40.5155 56.5315C40.3606 56.2785 40.2535 55.9993 40.1996 55.708C40.2204 55.834 40.2375 55.9449 40.2564 56.0314C40.3094 56.2132 40.3973 56.3831 40.5155 56.5315Z" fill="white"/>
<path d="M41.4328 59.7248L41.4574 59.8697L41.6711 61.1652C41.6182 60.6707 41.2531 58.6343 41.2531 58.6343L41.4328 59.7248Z" fill="white"/>
<path d="M38.8795 52.6655L38.781 52.6016C38.834 52.6355 38.8851 52.673 38.9343 52.7107L38.8795 52.6655Z" fill="white"/>
<path d="M38.7244 52.5682C38.5363 52.4532 38.3342 52.3629 38.1229 52.2993C38.3461 52.3859 38.4766 52.4423 38.4766 52.4423C38.5615 52.4793 38.6443 52.5214 38.7244 52.5682Z" fill="white"/>
<path d="M39.986 54.5313C39.9219 54.1901 39.8004 53.862 39.6265 53.561C39.7843 53.8728 39.9056 54.2015 39.9879 54.5407L39.986 54.5313Z" fill="white"/>
<path d="M40.1051 62.6784C40.4834 62.4679 41.1189 62.0298 41.1189 62.0298L40.1202 62.6578L40.1051 62.6784Z" fill="white"/>
<path d="M37.7049 52.3814C37.7429 52.3454 37.7877 52.3174 37.8367 52.2989C37.8858 52.2806 37.9381 52.2721 37.9904 52.2741C37.9376 52.2636 37.8827 52.268 37.8322 52.2869C37.7816 52.3059 37.7375 52.3386 37.7049 52.3814Z" fill="white"/>
<path d="M37.6443 52.5532C37.5366 53.0872 37.7749 54.3452 37.8335 54.8886C37.7975 54.2625 37.5669 53.0421 37.6443 52.5532Z" fill="white"/>
<path d="M37.8224 55.1099C37.8182 55.1505 37.8092 55.1906 37.7957 55.2293C37.8106 55.1911 37.8196 55.1507 37.8224 55.1099Z" fill="white"/>
<path d="M36.7933 56.2462C36.8321 56.0638 36.9389 55.9026 37.0921 55.7949C36.6949 56.0619 36.6267 56.2707 36.9502 57.1469C36.8355 56.8608 36.782 56.554 36.7933 56.2462Z" fill="white"/>
<path d="M38.4766 52.4423C38.4766 52.4423 38.346 52.3859 38.1229 52.2993L38.0699 52.2881C38.2136 52.337 38.3517 52.3915 38.4766 52.4423Z" fill="white"/>
<path d="M37.1412 57.8066C37.1576 57.8881 37.1695 57.9703 37.1771 58.053C37.1771 58.0304 37.1771 58.0079 37.1771 57.9853C37.1677 57.929 37.1544 57.8687 37.1412 57.8066Z" fill="white"/>
<path d="M41.6712 61.1741L41.4612 59.8692L40.8825 60.0121V59.8578L41.4366 59.7262L41.2569 58.6356C41.4459 58.383 41.5869 58.0981 41.6731 57.7951C41.65 57.6968 41.5955 57.6083 41.518 57.5431C41.2579 57.3271 41.0121 57.0948 40.7822 56.8473C40.6842 56.7535 40.5973 56.6487 40.5231 56.5352C40.4049 56.3868 40.3169 56.2169 40.264 56.0351C40.245 55.9486 40.228 55.847 40.2072 55.7117C40.1373 55.3939 40.0786 55.0159 39.9916 54.544C39.9094 54.2047 39.7881 53.876 39.6303 53.5643C39.4477 53.2454 39.2139 52.9583 38.9381 52.7144C38.8889 52.6768 38.8378 52.6392 38.7848 52.6053L38.7282 52.5714C38.6482 52.5247 38.5653 52.4826 38.4804 52.4454C38.3556 52.3947 38.2174 52.3421 38.0737 52.2913L37.9942 52.2781C37.9418 52.2761 37.8896 52.2846 37.8406 52.3029C37.7915 52.3213 37.7466 52.3493 37.7087 52.3853C37.6774 52.4379 37.6568 52.496 37.6481 52.5564C37.5705 53.0453 37.8013 54.2656 37.8373 54.8918C37.8459 54.9655 37.8459 55.0401 37.8373 55.1137C37.8356 55.1515 37.8286 55.1888 37.8164 55.2246C37.7181 55.5217 37.4174 55.5876 37.1129 55.7887C36.9596 55.8964 36.8529 56.0576 36.814 56.24C36.8014 56.5496 36.8543 56.8583 36.9691 57.1463C37.0479 57.3597 37.1111 57.5783 37.1583 57.8008C37.1716 57.8628 37.1847 57.923 37.1923 57.9888C37.1923 57.8779 37.1923 57.8008 37.1923 57.8008C37.1923 57.8008 38.8284 58.0922 39.4942 58.4401C39.587 58.4856 39.6693 58.5496 39.7363 58.6281C39.9953 58.9835 40.1146 61.6197 40.1373 62.432C40.1373 62.5824 40.1373 62.6709 40.1373 62.6709L41.1359 62.0428H41.1454C41.2021 61.9732 41.7223 61.6254 41.6712 61.1741ZM39.6682 56.9697L39.2161 56.8737L38.5843 56.7383H39.8346L39.6682 56.9697Z" fill="white"/>
<path d="M32.825 56.9515L32.5942 56.8632C32.5785 56.9576 32.5702 57.0531 32.5696 57.1489C32.5698 57.5426 32.6975 57.9257 32.934 58.2413C33.1705 58.5571 33.503 58.7886 33.8823 58.9014V58.8374L34.7127 58.877V58.9522C35.1161 58.888 35.4865 58.6918 35.7651 58.3948C36.0439 58.0978 36.215 57.7169 36.2515 57.3123C36.288 56.9077 36.1876 56.5026 35.9665 56.1611C35.7454 55.8195 35.4159 55.5611 35.0304 55.4265V55.5995L34.2001 55.562L34.2114 55.3325C33.9359 55.3644 33.6713 55.4579 33.4374 55.6061C33.2034 55.7543 33.0064 55.9533 32.861 56.1881L33.1031 56.2821L32.825 56.9515ZM34.4119 55.8947C34.6619 55.8947 34.9063 55.9685 35.114 56.1066C35.3219 56.2446 35.4838 56.4409 35.5794 56.6706C35.675 56.9002 35.6999 57.1528 35.6509 57.3966C35.6021 57.6402 35.4815 57.864 35.3047 58.0397C35.1278 58.2152 34.9025 58.3348 34.6572 58.383C34.412 58.4312 34.1579 58.4061 33.9271 58.3108C33.6963 58.2153 33.4991 58.0541 33.3605 57.8472C33.2219 57.6405 33.1481 57.3975 33.1485 57.1489C33.1485 56.984 33.1812 56.8208 33.2447 56.6685C33.3082 56.5163 33.4013 56.3779 33.5186 56.2614C33.636 56.1449 33.7753 56.0526 33.9286 55.9897C34.0818 55.9267 34.2461 55.8945 34.4119 55.8947Z" fill="#263238"/>
<path d="M39.6682 56.9608L39.8346 56.7295H39.5319L39.5565 56.846L39.5319 56.7295H39.1934L39.2161 56.8649L39.6682 56.9608Z" fill="#263238"/>
<path d="M39.2161 56.8649L39.1934 56.7295H38.5824L39.2161 56.8649Z" fill="#263238"/>
<path d="M40.7878 62.2432C40.6986 62.2999 40.601 62.3425 40.4985 62.3692C40.5531 62.371 40.6076 62.3607 40.6576 62.3389C40.7077 62.3171 40.7522 62.2844 40.7878 62.2432Z" fill="#263238"/>
<path d="M37.1676 58.3254C37.1685 58.3136 37.1685 58.3018 37.1676 58.29C37.1714 58.3012 37.1714 58.3143 37.1676 58.3254Z" fill="#263238"/>
<path d="M37.1356 58.4009C37.0574 58.496 36.9626 58.5763 36.8556 58.6379C36.9733 58.5929 37.0721 58.5092 37.1356 58.4009Z" fill="#263238"/>
<path d="M39.5699 62.5603C38.9646 61.9454 37.5441 60.2889 37.5441 60.2889L37.1659 58.3257C37.1609 58.3528 37.1498 58.3785 37.1337 58.4009C37.0702 58.5092 36.9715 58.5929 36.8537 58.6379C36.7043 58.7376 36.5303 58.8353 36.4093 58.9161C36.3536 58.9891 36.3161 59.0742 36.2996 59.1643C36.338 59.6249 36.4333 60.079 36.5833 60.5163C36.6343 60.68 36.6854 60.8416 36.7308 60.994C36.92 61.5581 37.0864 62.0244 37.0864 62.0244H37.0959C37.2113 62.0583 38.5239 62.4437 39.2465 62.6468L39.5699 62.5603Z" fill="#263238"/>
<path d="M36.7326 60.9863C36.8293 61.3369 36.9481 61.6811 37.0883 62.0168C37.0883 62.0168 36.9218 61.5618 36.7326 60.9863Z" fill="#263238"/>
<path d="M37.1809 58.2389C37.1855 58.1762 37.1855 58.1134 37.1809 58.0508C37.1859 58.1417 37.1859 58.2327 37.1809 58.3234C37.1809 58.3122 37.1809 58.299 37.1809 58.2878C37.1819 58.2714 37.1819 58.2551 37.1809 58.2389Z" fill="#263238"/>
<path d="M36.4111 58.9185C36.3728 58.9416 36.3361 58.9673 36.3015 58.9956C36.1502 59.1253 36.3715 59.8399 36.5851 60.5186C36.4352 60.0813 36.3398 59.6272 36.3015 59.1667C36.3179 59.0766 36.3555 58.9915 36.4111 58.9185Z" fill="#263238"/>
<path d="M39.7117 58.6114C39.6448 58.5329 39.5624 58.4689 39.4695 58.4233L40.1126 62.4078C40.0824 61.603 39.9708 58.9668 39.7117 58.6114Z" fill="#263238"/>
<path d="M37.1809 58.2392C37.193 58.155 37.193 58.0696 37.1809 57.9854C37.1809 58.0079 37.1809 58.0305 37.1809 58.053C37.1854 58.115 37.1854 58.1772 37.1809 58.2392Z" fill="#263238"/>
<path d="M39.5451 62.8177L39.9783 62.6991C40.1125 62.8571 40.1485 62.6502 40.1485 62.6502L39.4695 58.4308C38.8132 58.0829 37.1676 57.7896 37.1676 57.7896C37.1676 57.7896 37.1676 57.8723 37.1676 57.9775C37.1798 58.0618 37.1798 58.1472 37.1676 58.2314C37.1676 58.2528 37.1676 58.2696 37.1676 58.2822C37.1685 58.2941 37.1685 58.3061 37.1676 58.318L37.5459 60.2811C37.5459 60.2811 38.9399 62.2028 39.5451 62.8177Z" fill="#263238"/>
<path d="M37.1809 58.2393C37.182 58.2563 37.182 58.2733 37.1809 58.2904C37.1797 58.2765 37.1797 58.2595 37.1809 58.2393Z" fill="#263238"/>
<path d="M40.8787 59.8563V60.0124L41.4574 59.8695L41.4328 59.7246L40.8787 59.8563Z" fill="#263238"/>
<path d="M41.4329 59.7246L41.4575 59.8695L41.4329 59.7246Z" fill="#263238"/>
<path d="M34.4119 58.4048C34.6618 58.4048 34.906 58.3311 35.1139 58.1931C35.3217 58.0551 35.4836 57.8589 35.5792 57.6293C35.6749 57.3999 35.6999 57.1473 35.6512 56.9037C35.6023 56.66 35.4821 56.4361 35.3054 56.2605C35.1287 56.0848 34.9035 55.9652 34.6584 55.9167C34.4133 55.8682 34.1592 55.8931 33.9285 55.9882C33.6976 56.0832 33.5002 56.2442 33.3614 56.4508C33.2226 56.6575 33.1485 56.9002 33.1485 57.1487C33.1485 57.3137 33.1811 57.477 33.2446 57.6293C33.3082 57.7818 33.4012 57.9202 33.5185 58.0369C33.6359 58.1535 33.7751 58.246 33.9285 58.3092C34.0817 58.3723 34.246 58.4048 34.4119 58.4048ZM34.4119 56.3195C34.5768 56.3198 34.7379 56.3688 34.8749 56.4601C35.0118 56.5515 35.1184 56.6811 35.1812 56.8327C35.244 56.9842 35.2603 57.1509 35.2279 57.3117C35.1955 57.4723 35.1159 57.6199 34.9991 57.7357C34.8825 57.8515 34.7338 57.9303 34.5721 57.9621C34.4103 57.994 34.2427 57.9774 34.0904 57.9146C33.9381 57.8518 33.808 57.7455 33.7163 57.6092C33.6248 57.4729 33.576 57.3127 33.576 57.1487C33.5764 56.9286 33.6647 56.7177 33.8215 56.5622C33.9782 56.4068 34.1905 56.3195 34.4119 56.3195Z" fill="white" stroke="#263238" stroke-width="0.5" stroke-miterlimit="10"/>
<path d="M34.4119 57.9778C34.5768 57.9774 34.738 57.9286 34.8749 57.8371C35.0118 57.7458 35.1184 57.6162 35.1812 57.4647C35.244 57.3131 35.2603 57.1464 35.2279 56.9857C35.1955 56.8249 35.1159 56.6774 34.9991 56.5616C34.8825 56.4458 34.7338 56.367 34.5721 56.3352C34.4104 56.3033 34.2427 56.3198 34.0904 56.3827C33.9381 56.4455 33.808 56.5518 33.7163 56.6881C33.6248 56.8245 33.576 56.9847 33.576 57.1486C33.576 57.2577 33.5975 57.3657 33.6396 57.4663C33.6817 57.5671 33.7433 57.6586 33.8209 57.7356C33.8985 57.8127 33.9907 57.8737 34.0922 57.9152C34.1936 57.9568 34.3022 57.9781 34.4119 57.9778Z" fill="white" stroke="#263238" stroke-width="0.5" stroke-miterlimit="10"/>
<path d="M35.0304 55.4261L35.0569 54.8808L34.2265 54.8413L34.2038 55.3321C34.2748 55.3239 34.3462 55.3194 34.4176 55.319C34.6265 55.3195 34.8338 55.3557 35.0304 55.4261Z" fill="#263238"/>
<path d="M35.0171 55.599V55.426C34.8205 55.3556 34.6133 55.3194 34.4043 55.3188C34.3329 55.3193 34.2616 55.3237 34.1906 55.332L34.1792 55.5614L35.0171 55.599Z" fill="#263238"/>
<path d="M33.8823 58.9009L33.8521 59.5571L34.6824 59.5948L34.7126 58.9517C34.6134 58.9695 34.5128 58.979 34.4119 58.9799C34.2324 58.9798 34.0539 58.9531 33.8823 58.9009Z" fill="#263238"/>
<path d="M33.8956 58.8369V58.9009C34.0671 58.9531 34.2456 58.9798 34.4251 58.9799C34.526 58.979 34.6266 58.9696 34.7258 58.9517V58.8765L33.8956 58.8369Z" fill="#263238"/>
<path d="M32.8477 56.1882L32.3163 55.9814L32.0514 56.6508L32.5943 56.8633C32.6326 56.6238 32.7188 56.3942 32.8477 56.1882Z" fill="#263238"/>
<path d="M32.825 56.9514L33.0897 56.282L32.8477 56.188C32.7188 56.394 32.6326 56.6235 32.5942 56.8631L32.825 56.9514Z" fill="#263238"/>
<path d="M31.6467 60.2121L32.0817 59.725C32.0817 59.725 31.4746 54.2721 31.8245 53.5613C32.1743 52.8505 34.4195 51.869 34.6824 51.5757" stroke="#263238" stroke-width="0.5" stroke-linecap="round" stroke-linejoin="round"/>
<path d="M24.4612 70.9526L24.2721 73.7562C24.2721 73.7562 26.4775 74.8017 28.2611 74.6964C29.4592 74.6027 30.6366 74.332 31.7544 73.8935C31.7544 73.8935 31.7035 72.8969 31.3762 72.5377C31.049 72.1786 30.6329 71.7123 29.7118 71.7988C28.7906 71.8853 26.9749 72.0225 25.9649 71.6107C24.9548 71.199 24.4612 70.9526 24.4612 70.9526Z" fill="white"/>
<path d="M37.0883 62.0247C37.0883 62.0247 36.1067 59.3772 36.3015 58.9935C36.4963 58.6099 36.9918 58.8995 37.1752 58.2903C37.3588 57.6811 36.6627 56.8405 36.797 56.2463C36.9313 55.6521 37.703 55.6089 37.7994 55.3531C37.8959 55.0975 37.6254 53.6758 37.6103 52.8974C37.5951 52.119 37.9885 52.275 37.9885 52.275" stroke="#263238" stroke-width="0.5" stroke-linecap="round" stroke-linejoin="round"/>
<path d="M34.8072 60.2699L36.6059 61.8025C36.9465 62.092 39.3901 62.8498 39.7911 62.7614C40.192 62.6731 41.4707 61.9002 41.6409 61.5091C41.8111 61.118 41.2626 58.6341 41.2626 58.6341C41.463 58.4509 41.6105 58.2179 41.6901 57.959C41.8244 57.5228 41.5237 57.5415 41.0792 57.1429C40.5271 56.6356 40.1834 55.9429 40.1146 55.1986C39.9972 54.2585 39.6682 53.1848 38.486 52.4421C37.3039 51.6993 34.2739 51.4718 32.7796 51.4812C31.2854 51.4906 30.4267 52.0886 29.7533 53.1735C29.0801 54.2585 28.3027 57.299 28.7887 58.3313C29.2749 59.3636 30.8012 59.3204 31.2703 59.7284C31.5588 60.0072 31.7311 60.3838 31.7526 60.7833C31.7526 60.7833 32.025 63.1205 31.832 63.9798C31.078 65.0447 30.017 65.8571 28.7887 66.3097C26.8028 67.0017 25.4675 67.3871 24.9794 68.1468C24.4915 68.9064 24.2721 73.7558 24.2721 73.7558C24.2721 73.7558 26.8879 75.0176 28.8909 74.6546C30.8939 74.2917 31.8756 73.613 33.9447 73.6148C36.0139 73.6167 38.6733 74.0435 40.4398 73.1485C42.2064 72.2534 43.7895 71.2399 44.8733 71.2418C44.8733 71.2418 44.5461 66.3942 42.3181 65.4015C40.09 64.4086 39.4014 65.3149 37.2812 64.1378" stroke="#263238" stroke-width="0.5" stroke-linecap="round" stroke-linejoin="round"/>
<path d="M39.6265 56.797L39.5697 56.2969" stroke="#263238" stroke-width="0.5" stroke-linecap="round" stroke-linejoin="round"/>
<path d="M39.1064 62.6792C39.1064 62.6792 37.5214 63.0196 37.3474 63.3693C37.2158 63.7078 37.1288 64.0617 37.0883 64.4223" stroke="#263238" stroke-width="0.5" stroke-linecap="round" stroke-linejoin="round"/>
<path d="M24.4612 70.9526C24.4612 70.9526 26.8821 72.3141 29.3088 71.8722C31.2986 71.5111 31.7563 73.1433 31.8888 73.8427" stroke="#263238" stroke-width="0.5" stroke-linecap="round" stroke-linejoin="round"/>
<path d="M24.8925 71.9373C24.9363 71.9373 24.9719 71.902 24.9719 71.8583C24.9719 71.8147 24.9363 71.7793 24.8925 71.7793C24.8486 71.7793 24.813 71.8147 24.813 71.8583C24.813 71.902 24.8486 71.9373 24.8925 71.9373Z" fill="#263238"/>
<path d="M30.1846 72.3964C30.1846 72.412 30.1799 72.4273 30.1712 72.4403C30.1625 72.4533 30.1501 72.4634 30.1355 72.4694C30.121 72.4754 30.105 72.4769 30.0896 72.4738C30.0743 72.4708 30.0601 72.4633 30.0489 72.4523C30.0379 72.4412 30.0303 72.4272 30.0272 72.4118C30.0241 72.3965 30.0258 72.3806 30.0317 72.3662C30.0377 72.3517 30.0479 72.3394 30.061 72.3307C30.0741 72.322 30.0894 72.3174 30.1051 72.3174C30.1263 72.3174 30.1464 72.3257 30.1614 72.3406C30.1762 72.3554 30.1846 72.3755 30.1846 72.3964Z" fill="#263238"/>
<path d="M31.4935 57.4646C31.4935 57.4856 31.4851 57.5057 31.4702 57.5205C31.4553 57.5353 31.4352 57.5436 31.414 57.5436C31.4036 57.5436 31.3932 57.5416 31.3836 57.5376C31.374 57.5336 31.3653 57.5279 31.3579 57.5205C31.3505 57.5132 31.3446 57.5045 31.3406 57.4949C31.3367 57.4853 31.3346 57.4751 31.3346 57.4646C31.3346 57.4543 31.3367 57.4441 31.3406 57.4344C31.3446 57.4249 31.3505 57.4162 31.3579 57.4089C31.3653 57.4015 31.374 57.3956 31.3836 57.3917C31.3932 57.3877 31.4036 57.3857 31.414 57.3857C31.4352 57.3857 31.4553 57.394 31.4702 57.4089C31.4851 57.4236 31.4935 57.4437 31.4935 57.4646Z" fill="#263238"/>
<path d="M31.3516 55.6859C31.3516 55.7068 31.3433 55.7269 31.3284 55.7417C31.3134 55.7566 31.2932 55.7648 31.2722 55.7648C31.2511 55.7648 31.2309 55.7566 31.216 55.7417C31.2011 55.7269 31.1927 55.7068 31.1927 55.6859C31.1927 55.6649 31.2011 55.6448 31.216 55.63C31.2309 55.6153 31.2511 55.6069 31.2722 55.6069C31.2932 55.6069 31.3134 55.6153 31.3284 55.63C31.3433 55.6448 31.3516 55.6649 31.3516 55.6859Z" fill="#263238"/>
<path d="M31.4935 58.5096C31.5373 58.5096 31.573 58.4742 31.573 58.4306C31.573 58.3869 31.5373 58.3516 31.4935 58.3516C31.4496 58.3516 31.414 58.3869 31.414 58.4306C31.414 58.4742 31.4496 58.5096 31.4935 58.5096Z" fill="#263238"/>
<path d="M31.414 56.5692C31.414 56.5848 31.4094 56.6001 31.4006 56.6131C31.3919 56.626 31.3795 56.6362 31.3649 56.6421C31.3505 56.6481 31.3346 56.6497 31.3191 56.6467C31.3037 56.6436 31.2895 56.6361 31.2784 56.625C31.2673 56.614 31.2598 56.5999 31.2567 56.5846C31.2536 56.5692 31.2552 56.5535 31.2612 56.539C31.2673 56.5246 31.2774 56.5122 31.2905 56.5036C31.3035 56.4949 31.3189 56.4902 31.3346 56.4902C31.3557 56.4902 31.3759 56.4986 31.3908 56.5133C31.4056 56.5281 31.414 56.5482 31.414 56.5692Z" fill="#263238"/>
<path d="M31.2552 54.9148C31.299 54.9148 31.3345 54.8795 31.3345 54.8358C31.3345 54.7923 31.299 54.7568 31.2552 54.7568C31.2113 54.7568 31.1757 54.7923 31.1757 54.8358C31.1757 54.8795 31.2113 54.9148 31.2552 54.9148Z" fill="#263238"/>
<path d="M31.1303 73.3968C31.1303 73.4177 31.1219 73.4378 31.1071 73.4526C31.0921 73.4675 31.0719 73.4757 31.0509 73.4757C31.0316 73.4728 31.0141 73.4631 31.0015 73.4485C30.9888 73.4338 30.9819 73.4151 30.9819 73.3958C30.9819 73.3765 30.9888 73.3578 31.0015 73.3431C31.0141 73.3285 31.0316 73.3188 31.0509 73.3159C31.0615 73.3159 31.072 73.318 31.0817 73.3221C31.0914 73.3261 31.1003 73.3321 31.1077 73.3397C31.1151 73.3473 31.1209 73.3561 31.1248 73.3659C31.1286 73.3758 31.1305 73.3863 31.1303 73.3968Z" fill="#263238"/>
<path d="M30.7823 72.8328C30.7819 72.8483 30.777 72.8634 30.768 72.8762C30.7591 72.8888 30.7465 72.8987 30.7319 72.9044C30.7174 72.9101 30.7015 72.9114 30.6862 72.9082C30.6709 72.9048 30.6569 72.8972 30.646 72.8861C30.6351 72.875 30.6278 72.861 30.6249 72.8456C30.622 72.8304 30.6236 72.8146 30.6297 72.8003C30.6357 72.786 30.6459 72.7737 30.659 72.7651C30.6719 72.7565 30.6872 72.752 30.7029 72.752C30.7135 72.752 30.7239 72.7541 30.7337 72.7581C30.7434 72.7622 30.7523 72.7682 30.7596 72.7757C30.7671 72.7833 30.7729 72.7922 30.7767 72.8019C30.7807 72.8118 30.7826 72.8223 30.7823 72.8328Z" fill="#263238"/>
<path d="M75.293 53.29C80.1012 53.29 83.9991 49.415 83.9991 44.6347C83.9991 39.8546 80.1012 35.9795 75.293 35.9795C70.4846 35.9795 66.5868 39.8546 66.5868 44.6347C66.5868 49.415 70.4846 53.29 75.293 53.29Z" fill="#263238"/>
<path d="M87.1861 50.6821L84.1352 58.9934L70.6608 55.8438L68.9226 55.0408L68.9359 55.0108L74.107 43.3921L76.4996 44.7253L87.1861 50.6821Z" fill="white"/>
<path d="M76.4997 44.7253L71.3834 55.415C70.1823 55.4677 69.4182 55.2872 68.9359 55.0108L74.107 43.3921L76.4997 44.7253Z" fill="#BA68C8"/>
<path d="M87.1861 50.6821L84.1352 58.9934L70.6608 55.8419L68.9226 55.0389L74.107 43.3921L87.1861 50.6821Z" stroke="#263238" stroke-width="0.5" stroke-linecap="round" stroke-linejoin="round"/>
<path d="M72.3008 48.9336C72.3008 48.9336 74.9487 53.7829 79.0796 54.5897C83.2104 55.3963 86.0645 51.4701 86.0645 51.4701L74.9676 46.2559L72.3008 48.9336Z" fill="#BA68C8"/>
<path d="M35.1912 50.8606L37.9904 47.6265L36.5057 47.0078L36.2106 47.6358L35.1912 50.8606Z" fill="white"/>
<path d="M44.7883 53.1023L42.9441 56.0902L45.8097 54.05L46.2559 53.5705L44.8847 52.6528L44.7883 53.1023Z" fill="white"/>
<path d="M69.6432 53.6208L69.9213 52.8066L69.5033 54.5667L71.3947 55.4147C71.3947 55.4147 74.7822 54.6382 78.0713 55.881C81.3606 57.124 75.6334 59.8956 75.6334 59.8956L71.3947 61.3002L66.6964 61.1479L67.453 57.6166C67.453 57.6166 68.045 54.4049 69.6432 53.6208Z" fill="#263238"/>
<path d="M83.5868 76.2455C82.7602 78.2142 81.7842 80.074 79.7188 80.9822C77.8274 81.8133 73.8801 82.4281 70.727 81.8207C70.1683 81.7187 69.6206 81.5645 69.091 81.36C66.9423 80.5158 63.152 77.8438 60.695 75.595C59.4089 74.4178 58.4896 73.3573 58.3591 72.733C58.0981 71.4826 60.0367 67.075 62.1419 63.2655C62.975 61.7264 63.9009 60.2387 64.9147 58.8109C67.5779 55.1781 69.5165 53.7339 69.5165 53.7339C69.5165 53.7339 66.8175 57.5322 68.4952 58.6661C70.1729 59.8 73.6683 55.9434 77.2449 55.8456C78.845 55.8042 80.7648 56.4849 82.3971 57.2484C83.6416 57.8351 84.8426 58.5094 85.9907 59.266C86.7908 64.9164 85.7903 70.9975 83.5868 76.2455Z" fill="white"/>
<path d="M75.6957 60.6104C75.4763 60.9865 75.2702 61.3624 75.0754 61.7517C72.0656 67.6466 70.2392 74.0678 69.6981 80.6568" stroke="#263238" stroke-width="0.5" stroke-linecap="round" stroke-linejoin="round"/>
<path d="M79.456 57.0039C78.3854 57.38 77.5229 58.1133 76.808 58.9934" stroke="#263238" stroke-width="0.5" stroke-linecap="round" stroke-linejoin="round"/>
<path d="M83.5868 76.2457C82.7602 78.2144 81.7842 80.074 79.7188 80.9823C77.8274 81.8134 73.88 82.4283 70.727 81.8209C70.241 76.7966 74.6347 62.9384 77.1332 59.9299C79.6981 56.8423 82.3819 57.2447 82.3819 57.2447C83.6265 57.8316 84.8274 58.5058 85.9756 59.2624C86.7908 64.9166 85.7902 70.9977 83.5868 76.2457Z" fill="#BA68C8"/>
<path d="M53.4206 35.2146C51.586 33.9416 49.4657 33.8137 48.6921 34.9288L44.4875 41.5325L49.4278 45.1052C49.4278 45.1052 55.2024 39.7087 55.3253 39.5319C56.1083 38.4225 55.2553 36.4876 53.4206 35.2146Z" fill="#263238"/>
<path d="M49.4355 44.9639C48.8528 45.795 47.2735 45.6991 45.906 44.7515C44.5386 43.8037 43.9049 42.3708 44.4875 41.5322C45.07 40.6937 46.6493 40.797 48.0169 41.7447C49.3844 42.6924 50.018 44.1347 49.4355 44.9639Z" fill="white" stroke="#263238" stroke-width="0.5" stroke-linecap="round" stroke-linejoin="round"/>
<path d="M45.5844 47.6268L46.1008 46.8784L43.0367 44.8081L42.4864 45.4944" fill="white"/>
<path d="M45.5844 47.6268L46.1008 46.8784L43.0367 44.8081L42.4864 45.4944" stroke="#263238" stroke-width="0.5" stroke-linecap="round" stroke-linejoin="round"/>
<path d="M44.8468 53.0083L42.8306 56.171L45.9515 53.9504" stroke="#263238" stroke-width="0.5" stroke-linecap="round" stroke-linejoin="round"/>
<path d="M37.6746 47.9824L35.1023 50.9647L36.3582 47.3281" stroke="#263238" stroke-width="0.5" stroke-linecap="round" stroke-linejoin="round"/>
<path d="M47.3246 42.371C46.3392 41.6884 45.1495 41.664 44.7296 42.262L44.1811 42.7207L44.6974 43.1607C44.9101 43.7242 45.2977 44.2055 45.804 44.5352C46.1756 44.7998 46.601 44.9802 47.0503 45.0637L47.6065 45.5939C47.6065 45.5939 48.2968 44.759 48.346 44.6895C48.7564 44.0971 48.2987 43.0592 47.3246 42.371Z" fill="#263238"/>
<path d="M47.7994 45.2701C47.3795 45.8681 46.2427 45.8004 45.2592 45.1179C44.2756 44.4352 43.816 43.3974 44.2359 42.7994C44.6558 42.2014 45.7945 42.2709 46.778 42.9536C47.7615 43.6361 48.2192 44.6722 47.7994 45.2701Z" fill="white" stroke="#263238" stroke-width="0.5" stroke-linecap="round" stroke-linejoin="round"/>
<path d="M46.5964 44.1873L45.1438 46.2556L44.0222 45.4791L45.4332 43.4747C45.6557 43.4329 45.886 43.468 46.0857 43.5742C46.2107 43.6331 46.3213 43.7184 46.4096 43.8244C46.4978 43.9303 46.5616 44.0542 46.5964 44.1873Z" fill="#263238"/>
<path d="M45.4332 48.9202L46.1311 47.9989L41.9245 45.103L41.2891 46.0658L36.7629 46.6035L36.3468 47.2711L37.6708 47.98C39.0686 47.9424 40.4417 48.4388 41.6428 49.1289C42.7889 49.7908 43.8065 50.6162 44.408 51.814C44.4979 51.9911 44.5774 52.1732 44.6463 52.3593C44.6955 52.4853 44.7408 52.8595 44.8355 52.9423L45.957 53.9502L46.4488 53.3372L45.4332 48.9202Z" fill="white" stroke="#263238" stroke-width="0.5" stroke-linecap="round" stroke-linejoin="round"/>
<path d="M42.1931 46.2197L41.0016 47.8838L43.7025 49.8018L44.8847 48.132L42.1931 46.2197Z" fill="#BA68C8" stroke="#263238" stroke-width="0.5" stroke-linecap="round" stroke-linejoin="round"/>
<path d="M77.0878 42.5062C76.5841 43.6674 75.9731 44.7797 75.2626 45.8288C72.9286 49.3111 70.101 51.515 68.9453 50.7496L61.3892 45.7554L68.6975 34.8268L69.178 34.1104L77.2089 38.0459C77.2715 38.0697 77.3317 38.0993 77.3886 38.1344C78.1735 38.6496 77.9958 40.3739 77.0878 42.5062Z" fill="white"/>
<path d="M77.0879 42.5062L76.2897 42.0981L72.1645 39.6404L71.86 37.5439L69.3577 36.1186L68.6975 34.8268L69.178 34.1104L77.2089 38.0459C77.2715 38.0697 77.3316 38.0993 77.3886 38.1344C78.1735 38.6496 77.9957 40.3739 77.0879 42.5062Z" fill="#BA68C8"/>
<path d="M65.7129 48.6103C67.8086 47.1361 72.8549 42.9053 73.2786 36.1191" stroke="#263238" stroke-width="0.5" stroke-linecap="round" stroke-linejoin="round"/>
<path d="M77.3981 38.1344C77.3385 38.0979 77.275 38.0683 77.2089 38.0459L69.178 34.1104L61.3892 45.7554L68.9453 50.7571C70.101 51.5224 72.9286 49.3187 75.2627 45.8344C77.5967 42.3501 78.5518 38.8997 77.3981 38.1344Z" stroke="#263238" stroke-width="0.5" stroke-linecap="round" stroke-linejoin="round"/>
<path d="M67.2166 41.2075C65.0641 44.4209 62.4559 46.4536 61.3892 45.756C60.3224 45.0584 61.2 41.8731 63.3562 38.6595C65.5124 35.446 68.1301 33.3456 69.2026 34.0489C70.275 34.7522 69.3709 37.9939 67.2166 41.2075Z" fill="#263238"/>
<path d="M68.0659 37.8043C67.69 38.7491 67.2112 39.6502 66.6378 40.4913C64.9942 42.9357 63.0006 44.4984 62.1873 43.9587C62.0814 43.891 56.9159 40.3578 56.9159 40.3578L62.229 32.2817L62.2743 32.3024L68.0129 35.0101C68.0574 35.0258 68.0999 35.0467 68.1396 35.0721C68.6427 35.4143 68.5784 36.4673 68.0659 37.8043Z" fill="white"/>
<path d="M68.0659 37.8038L65.7129 36.5515L64.8524 35.0735L62.5562 33.9095L62.2668 32.3057L68.0053 35.0134C68.0499 35.029 68.0924 35.0498 68.132 35.0754C68.6428 35.4138 68.5784 36.4668 68.0659 37.8038Z" fill="#BA68C8"/>
<path d="M59.7531 42.236C60.9333 41.4838 64.9299 38.7591 64.9715 33.6465" stroke="#263238" stroke-width="0.5" stroke-linecap="round" stroke-linejoin="round"/>
<path d="M63.7799 43.6365L62.0626 42.4763C62.0626 42.4763 62.8569 41.7599 63.5756 41.0679L65.2968 42.1961L63.7799 43.6365Z" fill="#BA68C8"/>
<path d="M68.0659 37.8043C67.69 38.7491 67.2112 39.6502 66.6378 40.4913C64.9942 42.9357 63.0006 44.4984 62.1873 43.9587C62.0814 43.891 56.9159 40.3578 56.9159 40.3578L62.229 32.2817L62.2743 32.3024L68.0129 35.0101C68.0574 35.0258 68.0999 35.0467 68.1396 35.0721C68.6427 35.4143 68.5784 36.4673 68.0659 37.8043Z" stroke="#263238" stroke-width="0.5" stroke-linecap="round" stroke-linejoin="round"/>
<path d="M60.9685 37.2392C62.4849 34.9755 63.1052 32.7371 62.3539 32.2397C61.6026 31.7424 59.7645 33.1745 58.2481 35.4383C56.7317 37.7021 56.1114 39.9405 56.8627 40.4378C57.6139 40.9351 59.4521 39.503 60.9685 37.2392Z" fill="#263238"/>
<path d="M60.0332 36.8297C61.2385 35.0213 61.7293 33.235 61.1293 32.8397C60.5293 32.4445 59.0658 33.59 57.8604 35.3984C56.655 37.2067 56.1643 38.9931 56.7642 39.3885C57.3643 39.7837 58.8278 38.6381 60.0332 36.8297Z" fill="white" stroke="#263238" stroke-width="0.5" stroke-linecap="round" stroke-linejoin="round"/>
<path d="M80.1274 52.427C84.24 52.427 87.5739 49.1125 87.5739 45.024C87.5739 40.9355 84.24 37.6211 80.1274 37.6211C76.0147 37.6211 72.6809 40.9355 72.6809 45.024C72.6809 49.1125 76.0147 52.427 80.1274 52.427Z" fill="#263238"/>
<path d="M81.5535 53.2409C85.666 53.2409 89 49.9266 89 45.838C89 41.7495 85.666 38.4351 81.5535 38.4351C77.4409 38.4351 74.107 41.7495 74.107 45.838C74.107 49.9266 77.4409 53.2409 81.5535 53.2409Z" fill="white" stroke="#263238" stroke-width="0.5" stroke-linecap="round" stroke-linejoin="round"/>
<path d="M86.1601 46.2176C86.6869 43.9778 85.2875 41.7375 83.0345 41.2139C80.7815 40.6901 78.528 42.0813 78.0013 44.3211C77.4744 46.5611 78.8738 48.8014 81.1268 49.325C83.3799 49.8488 85.6334 48.4575 86.1601 46.2176Z" fill="#BA68C8"/>
<path d="M81.5536 49.8474C83.7806 49.8474 85.586 48.0526 85.586 45.8385C85.586 43.6244 83.7806 41.8296 81.5536 41.8296C79.3265 41.8296 77.5211 43.6244 77.5211 45.8385C77.5211 48.0526 79.3265 49.8474 81.5536 49.8474Z" fill="white" stroke="#263238" stroke-width="0.5" stroke-linecap="round" stroke-linejoin="round"/>
<path d="M83.3882 45.8387C83.3886 46.1995 83.2813 46.5523 83.0799 46.8525C82.8785 47.1527 82.5922 47.3869 82.2569 47.5252C81.9217 47.6635 81.5528 47.6998 81.1968 47.6297C80.8407 47.5595 80.5136 47.386 80.2569 47.131C80 46.876 79.8251 46.551 79.7543 46.1971C79.6833 45.8432 79.7195 45.4765 79.8583 45.143C79.9971 44.8097 80.2323 44.5247 80.534 44.3241C80.8358 44.1237 81.1905 44.0166 81.5535 44.0166C82.0397 44.0166 82.5061 44.2086 82.8501 44.5503C83.1942 44.8918 83.3877 45.3553 83.3882 45.8387Z" fill="#263238"/>
<path d="M61.2076 67.8972L62.1154 70.0126C62.1154 70.0126 61.0373 73.1584 60.695 75.6028C59.4089 74.4257 58.4896 73.3652 58.3591 72.741C58.0981 71.4906 60.0367 67.083 62.1419 63.2734L63.0253 63.8601C63.0253 63.8601 61.741 66.3497 61.2076 67.8972Z" fill="#BA68C8"/>
<path d="M82.3157 45.8388C82.3156 46.2299 82.1893 46.6106 81.9554 46.925C81.7216 47.2394 81.3924 47.471 81.0163 47.5856C80.64 47.4718 80.3105 47.2409 80.0762 46.9266C79.8421 46.6124 79.7157 46.2318 79.7157 45.8407C79.7157 45.4497 79.8421 45.069 80.0762 44.7548C80.3105 44.4406 80.64 44.2096 81.0163 44.0957C81.3922 44.2094 81.7215 44.4402 81.9554 44.754C82.1894 45.0679 82.3157 45.4482 82.3157 45.8388Z" fill="white" stroke="#263238" stroke-width="0.5" stroke-linecap="round" stroke-linejoin="round"/>
<path d="M85.989 59.2639C85.989 59.2639 80.8121 55.7513 77.2354 55.8416C73.6588 55.9318 70.1634 59.7903 68.4858 58.6621C66.8081 57.5339 69.5072 53.73 69.5072 53.73C69.5072 53.73 67.5684 55.1816 64.9054 58.8069C62.2422 62.4322 57.9771 70.9145 58.3591 72.7309C58.7412 74.5473 65.817 80.0643 69.091 81.3579C72.365 82.6517 77.4832 81.9635 79.7189 80.9819C81.7842 80.0718 82.7584 78.214 83.5869 76.2453C85.7904 70.9973 86.7909 64.9143 85.989 59.2639Z" stroke="#263238" stroke-width="0.5" stroke-linecap="round" stroke-linejoin="round"/>
<path d="M59.6187 36.1193C59.3034 36.6027 58.8389 36.9715 58.2948 37.1704L53.727 34.5002C53.4364 34.3398 53.2094 34.0857 53.0836 33.7797C52.9577 33.4738 52.9405 33.1344 53.0347 32.8174C53.328 31.9204 54.5706 31.347 55.3442 31.7925L59.8836 34.7429L59.929 34.771C60.014 35.087 60.0367 35.4423 59.6187 36.1193Z" fill="#263238"/>
<path d="M56.1405 33.4733C56.1746 34.404 56.5453 35.7128 55.8056 36.1772C55.4368 36.4085 54.2377 36.1772 53.6892 36.0908C52.3009 35.8689 51.1055 35.049 51.0563 33.6463C51.0445 33.3138 51.0987 32.9823 51.2159 32.6706C51.3332 32.3591 51.5111 32.0735 51.7395 31.8303C51.9678 31.5872 52.2423 31.3912 52.547 31.2536C52.8518 31.1162 53.1807 31.0398 53.5152 31.0289C54.5612 30.9931 56.7817 30.9029 57.2035 31.781C57.3491 32.0931 56.1272 33.116 56.1405 33.4733Z" fill="#263238"/>
<path d="M58.0008 33.9117C58.1462 32.5224 57.1311 31.2789 55.7338 31.1344C54.3363 30.9898 53.0856 31.9989 52.9402 33.3882C52.7948 34.7774 53.8098 36.0208 55.2073 36.1654C56.6046 36.3099 57.8554 35.301 58.0008 33.9117Z" fill="white" stroke="#263238" stroke-width="0.5" stroke-linecap="round" stroke-linejoin="round"/>
<path d="M55.7376 35.4142C55.7409 35.4551 55.732 35.496 55.7118 35.5317C55.6915 35.5675 55.6609 35.5962 55.624 35.6146C55.5872 35.6328 55.5456 35.6397 55.5047 35.6342C55.4639 35.6288 55.4256 35.6112 55.3948 35.584C55.3641 35.5567 55.3423 35.5208 55.3322 35.4811C55.3222 35.4413 55.3243 35.3996 55.3384 35.361C55.3525 35.3225 55.3779 35.289 55.4113 35.265C55.4447 35.241 55.4846 35.2275 55.5258 35.2262C55.5787 35.2241 55.6304 35.2426 55.67 35.2777C55.7094 35.3128 55.7337 35.3617 55.7376 35.4142Z" fill="#263238"/>
<path d="M55.6147 31.9874C55.6173 32.0402 55.599 32.0921 55.5636 32.1318C55.5283 32.1716 55.4788 32.1959 55.4256 32.1998C55.3972 32.2034 55.3683 32.201 55.341 32.1929C55.3135 32.1848 55.2881 32.171 55.2663 32.1526C55.2445 32.1342 55.2267 32.1115 55.2143 32.0859C55.2018 32.0604 55.1948 32.0324 55.1938 32.004C55.1926 31.9756 55.1976 31.9472 55.2082 31.9208C55.2187 31.8944 55.2347 31.8704 55.2551 31.8505C55.2755 31.8305 55.2998 31.8149 55.3265 31.8048C55.3532 31.7947 55.3819 31.7903 55.4104 31.7918C55.4633 31.7917 55.5142 31.812 55.5523 31.8486C55.5903 31.885 55.6128 31.9348 55.6147 31.9874Z" fill="#263238"/>
<path d="M57.4928 33.4642C57.4962 33.5049 57.4872 33.5458 57.467 33.5814C57.4469 33.6171 57.4165 33.6459 57.3796 33.6642C57.3429 33.6826 57.3014 33.6894 57.2606 33.6841C57.2198 33.6789 57.1816 33.6616 57.1507 33.6344C57.1199 33.6073 57.098 33.5717 57.0877 33.532C57.0774 33.4924 57.0793 33.4507 57.0932 33.4121C57.1069 33.3737 57.1321 33.3401 57.1652 33.3159C57.1983 33.2916 57.238 33.2778 57.2792 33.2761C57.3323 33.2736 57.3845 33.2918 57.4246 33.3269C57.4645 33.362 57.4889 33.4113 57.4928 33.4642Z" fill="#263238"/>
<path d="M54.0088 33.5857C54.0122 33.6265 54.0032 33.6674 53.9829 33.7032C53.9627 33.7388 53.9322 33.7677 53.8953 33.7859C53.8584 33.8043 53.8168 33.8111 53.7759 33.8056C53.7351 33.8002 53.6968 33.7827 53.6661 33.7554C53.6353 33.7281 53.6135 33.6923 53.6035 33.6525C53.5934 33.6127 53.5955 33.571 53.6096 33.5324C53.6237 33.494 53.6491 33.4605 53.6825 33.4364C53.7159 33.4124 53.7558 33.399 53.797 33.3976C53.8499 33.3955 53.9016 33.414 53.9411 33.4491C53.9807 33.4842 54.0049 33.5332 54.0088 33.5857Z" fill="#263238"/>
<path d="M56.2445 33.6222C56.2481 33.7743 56.2064 33.9241 56.1246 34.0526C56.0428 34.1812 55.9247 34.2828 55.7849 34.3447C55.645 34.4066 55.49 34.4261 55.3392 34.4006C55.1883 34.3751 55.0483 34.3057 54.937 34.2013C54.8258 34.097 54.748 33.9622 54.7136 33.8139C54.6792 33.6656 54.6897 33.5106 54.7437 33.3683C54.7978 33.226 54.8929 33.1028 55.0173 33.0141C55.1417 32.9254 55.2896 32.8753 55.4425 32.8701C55.545 32.8665 55.6472 32.8833 55.7431 32.9193C55.8391 32.9553 55.9268 33.0099 56.0013 33.0798C56.076 33.1498 56.1359 33.2336 56.1776 33.3268C56.2193 33.4199 56.2421 33.5203 56.2445 33.6222Z" fill="#263238"/>
</svg>
