<svg width="80" height="76" viewBox="0 0 80 76" fill="none" xmlns="http://www.w3.org/2000/svg">
<path d="M67.1002 16.0774C67.1082 16.0697 67.1145 16.0605 67.1189 16.0503C67.1232 16.0402 67.1255 16.0292 67.1256 16.0181V8.98811L66.9563 8.93564V15.9843L65.0406 17.9C65.025 17.9165 65.0165 17.9383 65.0169 17.961V19.6669C64.9146 19.6878 64.8238 19.746 64.762 19.8301C64.7001 19.9143 64.6717 20.0183 64.6823 20.1222C64.6928 20.2261 64.7415 20.3223 64.819 20.3923C64.8964 20.4623 64.9971 20.5011 65.1015 20.5011C65.2059 20.5011 65.3066 20.4623 65.3841 20.3923C65.4615 20.3223 65.5102 20.2261 65.5208 20.1222C65.5313 20.0183 65.5029 19.9143 65.4411 19.8301C65.3793 19.746 65.2884 19.6878 65.1861 19.6669V17.9948L67.1002 16.0774Z" fill="#BA68C8"/>
<path d="M70.8352 10.6263V25.5275C70.7368 25.5432 70.6472 25.5933 70.5824 25.6689C70.5177 25.7446 70.4819 25.8408 70.4815 25.9404C70.4815 26.0198 70.5039 26.0976 70.546 26.1649C70.5881 26.2322 70.6484 26.2862 70.7198 26.3209C70.7912 26.3556 70.8709 26.3695 70.9498 26.361C71.0288 26.3525 71.1037 26.322 71.1661 26.2729C71.2285 26.2238 71.2759 26.1582 71.3027 26.0835C71.3296 26.0088 71.3349 25.928 71.318 25.8504C71.3012 25.7729 71.2628 25.7016 71.2074 25.6448C71.1519 25.588 71.0816 25.5479 71.0044 25.5292V10.7278L70.8352 10.6263Z" fill="#BA68C8"/>
<path d="M66.2489 26.2874V22.6776L68.8315 20.0933C68.8396 20.0858 68.8461 20.0766 68.8504 20.0664C68.8548 20.0562 68.857 20.0452 68.8569 20.0341V9.61258L68.6876 9.54151V19.9986L66.1051 22.5828C66.0971 22.5905 66.0908 22.5997 66.0864 22.6098C66.082 22.62 66.0798 22.631 66.0797 22.642V26.2975C65.9793 26.3246 65.8926 26.3879 65.8363 26.4752C65.7799 26.5626 65.758 26.6677 65.7747 26.7703C65.7914 26.8729 65.8456 26.9656 65.9268 27.0305C66.008 27.0954 66.1103 27.1279 66.2141 27.1217C66.3178 27.1155 66.4156 27.071 66.4884 26.9968C66.5612 26.9227 66.6039 26.8241 66.6083 26.7203C66.6126 26.6164 66.5783 26.5147 66.5119 26.4347C66.4455 26.3547 66.3518 26.3022 66.2489 26.2874Z" fill="#BA68C8"/>
<g opacity="0.3">
<path opacity="0.3" d="M67.1002 16.0774C67.1082 16.0697 67.1145 16.0605 67.1189 16.0503C67.1232 16.0402 67.1255 16.0292 67.1256 16.0181V8.98811L66.9563 8.93564V15.9843L65.0406 17.9C65.025 17.9165 65.0165 17.9383 65.0169 17.961V19.6669C64.9146 19.6878 64.8238 19.746 64.762 19.8301C64.7001 19.9143 64.6717 20.0183 64.6823 20.1222C64.6928 20.2261 64.7415 20.3223 64.819 20.3923C64.8964 20.4623 64.9971 20.5011 65.1015 20.5011C65.2059 20.5011 65.3066 20.4623 65.3841 20.3923C65.4615 20.3223 65.5102 20.2261 65.5208 20.1222C65.5313 20.0183 65.5029 19.9143 65.4411 19.8301C65.3793 19.746 65.2884 19.6878 65.1861 19.6669V17.9948L67.1002 16.0774Z" fill="black"/>
<path opacity="0.3" d="M70.8352 10.6263V25.5275C70.7369 25.5432 70.6473 25.5933 70.5825 25.6689C70.5177 25.7446 70.4819 25.8408 70.4815 25.9404C70.4816 26.0198 70.5039 26.0976 70.546 26.1649C70.5882 26.2322 70.6484 26.2862 70.7198 26.3209C70.7912 26.3556 70.8709 26.3695 70.9499 26.361C71.0288 26.3525 71.1038 26.322 71.1662 26.2729C71.2286 26.2238 71.2759 26.1582 71.3028 26.0835C71.3296 26.0088 71.3349 25.928 71.3181 25.8504C71.3012 25.7729 71.2628 25.7016 71.2074 25.6448C71.1519 25.588 71.0816 25.5479 71.0045 25.5292V10.7278L70.8352 10.6263Z" fill="black"/>
<path opacity="0.3" d="M66.2489 26.2874V22.6776L68.8315 20.0933C68.8396 20.0858 68.8461 20.0766 68.8504 20.0664C68.8548 20.0562 68.857 20.0452 68.8569 20.0341V9.61259L68.6876 9.54151V19.9986L66.1051 22.5828C66.0971 22.5905 66.0908 22.5997 66.0864 22.6098C66.082 22.62 66.0798 22.631 66.0797 22.642V26.2975C65.9793 26.3246 65.8926 26.3879 65.8363 26.4752C65.7799 26.5626 65.758 26.6677 65.7747 26.7703C65.7914 26.8729 65.8456 26.9656 65.9268 27.0305C66.008 27.0954 66.1103 27.1279 66.2141 27.1217C66.3178 27.1155 66.4156 27.071 66.4884 26.9968C66.5612 26.9227 66.6039 26.8241 66.6083 26.7203C66.6126 26.6164 66.5783 26.5147 66.5119 26.4347C66.4455 26.3547 66.3518 26.3022 66.2489 26.2874Z" fill="black"/>
</g>
<path d="M43.4698 52.0365L46.0524 49.4523C46.0681 49.4366 46.0772 49.4154 46.0777 49.3931V45.7376C46.1797 45.7115 46.2684 45.6484 46.3265 45.5606C46.3846 45.4728 46.4081 45.3666 46.3923 45.2625C46.3766 45.1584 46.3227 45.0638 46.2412 44.9972C46.1596 44.9306 46.0563 44.8966 45.9511 44.9018C45.846 44.9071 45.7465 44.9512 45.672 45.0257C45.5976 45.1001 45.5534 45.1995 45.5481 45.3047C45.5428 45.4098 45.5767 45.5132 45.6433 45.5948C45.7099 45.6763 45.8044 45.7302 45.9085 45.7461V49.3575L43.3243 51.9418C43.3161 51.9493 43.3097 51.9585 43.3053 51.9687C43.3009 51.9789 43.2988 51.9899 43.2989 52.001V60.7166L43.4681 60.7065L43.4698 52.0365Z" fill="#BA68C8"/>
<path d="M45.2011 56.0508L47.1168 54.1351C47.132 54.1184 47.1404 54.0967 47.1405 54.0741V52.3682C47.2428 52.3473 47.3337 52.2891 47.3955 52.205C47.4573 52.1209 47.4857 52.0168 47.4752 51.9129C47.4646 51.809 47.4159 51.7128 47.3385 51.6428C47.261 51.5728 47.1603 51.534 47.0559 51.534C46.9515 51.534 46.8508 51.5728 46.7734 51.6428C46.6959 51.7128 46.6472 51.809 46.6367 51.9129C46.6261 52.0168 46.6545 52.1209 46.7164 52.205C46.7782 52.2891 46.869 52.3473 46.9713 52.3682V54.0403L45.0573 55.9543C45.0491 55.9619 45.0427 55.9711 45.0383 55.9813C45.0339 55.9915 45.0317 56.0025 45.0319 56.0136V60.5863L45.2011 60.5694V56.0508Z" fill="#BA68C8"/>
<path d="M41.153 60.7674H41.3222V46.5076C41.4206 46.492 41.5102 46.4418 41.575 46.3662C41.6398 46.2905 41.6756 46.1943 41.6759 46.0947C41.6762 46.0152 41.6542 45.9373 41.6122 45.8698C41.5703 45.8023 41.5102 45.748 41.4388 45.7131C41.3674 45.6781 41.2877 45.664 41.2087 45.6723C41.1296 45.6806 41.0545 45.711 40.992 45.76C40.9294 45.809 40.8819 45.8746 40.8549 45.9493C40.8279 46.0241 40.8225 46.1049 40.8393 46.1826C40.8561 46.2602 40.8945 46.3316 40.95 46.3885C41.0054 46.4454 41.0758 46.4855 41.153 46.5042V60.7674Z" fill="#BA68C8"/>
<g opacity="0.3">
<path opacity="0.3" d="M43.4698 52.0365L46.0524 49.4523C46.0682 49.4366 46.0773 49.4153 46.0778 49.3931V45.7376C46.1798 45.7115 46.2684 45.6484 46.3266 45.5606C46.3847 45.4728 46.4081 45.3665 46.3924 45.2624C46.3766 45.1584 46.3227 45.0638 46.2412 44.9972C46.1597 44.9306 46.0563 44.8966 45.9512 44.9018C45.846 44.9071 45.7465 44.9512 45.6721 45.0256C45.5976 45.1001 45.5534 45.1995 45.5481 45.3047C45.5428 45.4098 45.5768 45.5132 45.6433 45.5947C45.7099 45.6763 45.8044 45.7302 45.9085 45.746V49.3575L43.3243 51.9418C43.3162 51.9493 43.3097 51.9585 43.3054 51.9687C43.301 51.9789 43.2988 51.9899 43.2989 52.001V60.7166L43.4682 60.7065L43.4698 52.0365Z" fill="black"/>
<path opacity="0.3" d="M45.2011 56.0508L47.1169 54.135C47.132 54.1184 47.1405 54.0967 47.1406 54.0741V52.3682C47.2428 52.3473 47.3337 52.2891 47.3955 52.205C47.4573 52.1208 47.4857 52.0167 47.4752 51.9129C47.4647 51.809 47.4159 51.7128 47.3385 51.6428C47.261 51.5728 47.1604 51.534 47.056 51.534C46.9516 51.534 46.8509 51.5728 46.7734 51.6428C46.696 51.7128 46.6472 51.809 46.6367 51.9129C46.6262 52.0167 46.6546 52.1208 46.7164 52.205C46.7782 52.2891 46.8691 52.3473 46.9713 52.3682V54.0403L45.0573 55.9543C45.0492 55.9619 45.0427 55.9711 45.0383 55.9813C45.0339 55.9915 45.0318 56.0025 45.0319 56.0136V60.5863L45.2011 60.5694V56.0508Z" fill="black"/>
<path opacity="0.3" d="M41.153 60.7674H41.3222V46.5076C41.4206 46.4919 41.5102 46.4418 41.575 46.3662C41.6398 46.2905 41.6756 46.1943 41.6759 46.0947C41.6762 46.0152 41.6542 45.9373 41.6122 45.8698C41.5703 45.8023 41.5102 45.748 41.4388 45.713C41.3674 45.6781 41.2877 45.664 41.2087 45.6723C41.1296 45.6806 41.0545 45.711 40.992 45.76C40.9294 45.809 40.8819 45.8746 40.8549 45.9493C40.8279 46.0241 40.8225 46.1049 40.8393 46.1825C40.8561 46.2602 40.8945 46.3316 40.95 46.3885C41.0054 46.4453 41.0758 46.4855 41.153 46.5042V60.7674Z" fill="black"/>
</g>
<path d="M51.6845 14.3038C51.1954 14.1725 50.6784 14.1893 50.1988 14.3518C49.7193 14.5144 49.2987 14.8155 48.9902 15.2171C48.6817 15.6187 48.4993 16.1027 48.4659 16.608C48.4325 17.1133 48.5497 17.6171 48.8026 18.0558C49.0556 18.4945 49.4329 18.8484 49.8869 19.0726C50.341 19.2968 50.8513 19.3814 51.3534 19.3157C51.8555 19.2499 52.3268 19.0368 52.7078 18.7031C53.0887 18.3695 53.3622 17.9304 53.4936 17.4414C53.669 16.7855 53.577 16.0867 53.2379 15.4985C52.8987 14.9103 52.3401 14.4806 51.6845 14.3038ZM53.4039 17.416C53.2271 18.0399 52.8117 18.569 52.2478 18.889C51.6838 19.209 51.0165 19.2942 50.3903 19.1261C49.764 18.9579 49.2291 18.55 48.9013 17.9906C48.5734 17.4312 48.4789 16.7652 48.6383 16.1366C48.7186 15.8197 48.8611 15.5219 49.0576 15.2606C49.254 14.9992 49.5004 14.7795 49.7824 14.6142C50.0645 14.4489 50.3766 14.3413 50.7006 14.2976C51.0246 14.254 51.3541 14.2751 51.6698 14.3599C51.9856 14.4447 52.2813 14.5914 52.5399 14.7914C52.7985 14.9915 53.0148 15.2409 53.1761 15.5253C53.3374 15.8096 53.4407 16.1232 53.4798 16.4478C53.5189 16.7724 53.4931 17.1015 53.4039 17.416Z" fill="#BA68C8"/>
<path d="M54.1554 14.2276L54.5311 13.439C54.536 13.4298 54.5376 13.4191 54.5354 13.4089C54.5333 13.3987 54.5275 13.3895 54.5192 13.3832L53.7475 12.7367C53.7396 12.7302 53.7298 12.7267 53.7196 12.7267C53.7094 12.7267 53.6995 12.7302 53.6917 12.7367L52.9809 13.2444C52.7061 13.0916 52.4141 12.9723 52.111 12.889L51.9705 12.0157C51.969 12.0054 51.964 11.9959 51.9563 11.9888C51.9486 11.9817 51.9387 11.9775 51.9282 11.9768L50.9263 11.8854C50.916 11.8844 50.9055 11.8868 50.8966 11.8923C50.8878 11.8978 50.8809 11.9061 50.8773 11.9159L50.5845 12.7502C50.2752 12.7842 49.9709 12.8535 49.6774 12.9567L49.0461 12.3187C49.0381 12.3125 49.0283 12.3091 49.0182 12.3091C49.0081 12.3091 48.9983 12.3125 48.9903 12.3187L48.1187 12.8264C48.1093 12.8314 48.1019 12.8396 48.0979 12.8495C48.0939 12.8594 48.0935 12.8703 48.0967 12.8805L48.3404 13.7453C47.9323 14.1028 47.6007 14.5392 47.3656 15.0281L46.4534 15.0146C46.4434 15.0146 46.4337 15.0179 46.4257 15.0241C46.4178 15.0302 46.412 15.0387 46.4094 15.0484L46.1471 16.0215C46.1449 16.0315 46.1458 16.0419 46.1498 16.0513C46.1537 16.0607 46.1605 16.0686 46.1691 16.074L46.9713 16.5225C46.9509 16.8232 46.9646 17.1252 47.0119 17.4228L46.2504 17.9407C46.2422 17.9467 46.2362 17.9553 46.2334 17.9651C46.2307 17.9749 46.2313 17.9854 46.2351 17.9948L46.5736 18.9408C46.5767 18.951 46.5834 18.9597 46.5924 18.9653C46.6015 18.9709 46.6122 18.973 46.6227 18.9713L47.5416 18.8782C47.6958 19.1361 47.8786 19.3756 48.0866 19.5924L47.7566 20.4538C47.753 20.4637 47.7528 20.4745 47.7558 20.4845C47.7589 20.4946 47.7651 20.5034 47.7735 20.5097L48.5977 21.0868C48.606 21.0928 48.6161 21.0961 48.6264 21.0961C48.6368 21.0961 48.6468 21.0928 48.6552 21.0868L49.3508 20.486C49.5485 20.5743 49.7528 20.6473 49.9617 20.7043C50.0395 20.7246 50.1191 20.7432 50.2122 20.7618L50.4373 21.6503C50.4398 21.6602 50.4454 21.669 50.4534 21.6754C50.4613 21.6818 50.4711 21.6854 50.4813 21.6858H51.4882C51.4986 21.6865 51.5089 21.6835 51.5173 21.6773C51.5256 21.6711 51.5315 21.6621 51.5339 21.652L51.7573 20.7754C52.0575 20.7176 52.3503 20.6268 52.6305 20.5046L53.3075 21.0918C53.3155 21.098 53.3253 21.1014 53.3354 21.1014C53.3455 21.1014 53.3553 21.098 53.3633 21.0918L54.1892 20.5114C54.1977 20.5055 54.2038 20.4969 54.2066 20.487C54.2094 20.4771 54.2086 20.4666 54.2044 20.4572L53.893 19.6246C54.1121 19.4026 54.3041 19.1555 54.4651 18.8884L55.3519 18.9713C55.3622 18.9724 55.3727 18.9699 55.3816 18.9644C55.3904 18.9589 55.3972 18.9506 55.4009 18.9408L55.7394 17.9948C55.7406 17.9866 55.7393 17.9781 55.7356 17.9706C55.732 17.9631 55.7263 17.9568 55.7191 17.9525L54.9982 17.455C55.0497 17.1453 55.065 16.8306 55.0438 16.5174L55.8189 16.0774C55.8279 16.0727 55.8349 16.0651 55.8389 16.0559C55.8429 16.0466 55.8436 16.0363 55.8409 16.0266L55.5803 15.062C55.578 15.0517 55.5721 15.0425 55.5638 15.036C55.5555 15.0296 55.5452 15.0262 55.5346 15.0264H54.6664C54.5273 14.7414 54.3558 14.4734 54.1554 14.2276ZM55.7411 16.0063L54.9863 16.4328C54.9786 16.4376 54.9724 16.4444 54.9682 16.4524C54.9641 16.4604 54.9621 16.4694 54.9626 16.4785C54.9875 16.8041 54.9715 17.1316 54.9152 17.4533C54.9134 17.4619 54.9142 17.4708 54.9175 17.479C54.9208 17.4871 54.9265 17.4941 54.9338 17.499L55.6514 17.9914L55.3315 18.8715L54.46 18.7835C54.4509 18.7826 54.4417 18.7844 54.4336 18.7886C54.4255 18.7928 54.4188 18.7992 54.4143 18.8071C54.2481 19.0839 54.0493 19.3396 53.822 19.5687C53.8153 19.5748 53.8104 19.5826 53.808 19.5913C53.8056 19.6 53.8058 19.6092 53.8084 19.6178L54.1198 20.4453L53.3566 20.9852L52.6796 20.4013C52.6724 20.3965 52.6638 20.3939 52.6551 20.3939C52.6463 20.3939 52.6378 20.3965 52.6305 20.4013C52.3393 20.5304 52.0336 20.6242 51.7201 20.6806C51.7113 20.6822 51.7032 20.6862 51.6966 20.6922C51.69 20.6981 51.6852 20.7059 51.6828 20.7144L51.4662 21.5894H50.5303L50.3086 20.7077C50.306 20.6993 50.3014 20.6917 50.2952 20.6855C50.289 20.6793 50.2814 20.6747 50.2731 20.6721C50.1812 20.6568 50.0903 20.6365 50.0006 20.6112C49.7866 20.5534 49.5778 20.4782 49.3761 20.3861C49.3689 20.3812 49.3603 20.3786 49.3516 20.3786C49.3429 20.3786 49.3343 20.3812 49.3271 20.3861L48.6332 20.9818L47.8666 20.4453L48.1949 19.589C48.1974 19.5806 48.1978 19.5718 48.196 19.5632C48.1943 19.5546 48.1904 19.5466 48.1847 19.5399C47.9665 19.315 47.7757 19.065 47.6161 18.7953C47.6115 18.788 47.6049 18.782 47.5972 18.7781C47.5894 18.7743 47.5807 18.7726 47.5721 18.7733L46.6565 18.8664L46.3384 17.988L47.0982 17.4803C47.1054 17.4752 47.1111 17.4683 47.1146 17.4603C47.1182 17.4522 47.1196 17.4434 47.1185 17.4346C47.0664 17.125 47.0522 16.8102 47.0762 16.4971C47.077 16.4882 47.0751 16.4794 47.0709 16.4716C47.0667 16.4637 47.0603 16.4573 47.0525 16.4531L46.2554 16.008L46.4991 15.1043L47.4045 15.1161C47.4133 15.1166 47.4221 15.1144 47.4296 15.1099C47.4371 15.1054 47.4431 15.0987 47.4469 15.0907C47.6813 14.5942 48.0167 14.1521 48.4318 13.7927C48.4383 13.7865 48.4431 13.7787 48.4454 13.7701C48.4478 13.7614 48.4478 13.7523 48.4454 13.7436L48.2033 12.8839L49.014 12.4168L49.6334 13.0498C49.6394 13.0565 49.6473 13.0613 49.6559 13.0637C49.6646 13.0661 49.6738 13.0659 49.6825 13.0633C49.9855 12.9535 50.301 12.8818 50.6217 12.8501C50.6305 12.8495 50.6389 12.8462 50.6459 12.8408C50.6528 12.8354 50.658 12.828 50.6606 12.8196L50.9534 11.9903L51.8842 12.0733L52.0281 12.933C52.03 12.9416 52.0341 12.9496 52.0401 12.9561C52.046 12.9626 52.0535 12.9675 52.0619 12.9702C52.3785 13.0519 52.6837 13.1724 52.9707 13.329C52.9782 13.334 52.9871 13.3367 52.9961 13.3367C53.0051 13.3367 53.014 13.334 53.0215 13.329L53.7255 12.8213L54.4414 13.4221L54.064 14.2158C54.0595 14.2232 54.0571 14.2317 54.0571 14.2403C54.0571 14.249 54.0595 14.2575 54.064 14.2649C54.2719 14.5187 54.4486 14.7965 54.5903 15.0924C54.5936 15.1004 54.5993 15.1073 54.6065 15.1121C54.6137 15.1169 54.6222 15.1195 54.6309 15.1195H55.4957L55.7411 16.0063Z" fill="#BA68C8"/>
<path d="M60.2698 21.2255L60.654 20.6467C60.6609 20.6381 60.6646 20.6273 60.6646 20.6163C60.6646 20.6052 60.6609 20.5945 60.654 20.5858L59.8552 19.9089C59.8464 19.9016 59.8353 19.8976 59.8239 19.8976C59.8125 19.8976 59.8014 19.9016 59.7926 19.9089L59.2849 20.3878C59.0611 20.2643 58.8237 20.1672 58.5775 20.0984L58.5589 19.3978C58.5589 19.3862 58.5546 19.3751 58.5467 19.3666C58.5389 19.3581 58.5281 19.3529 58.5166 19.3521L57.4741 19.2607C57.4624 19.2592 57.4507 19.2622 57.4413 19.2692C57.4318 19.2761 57.4254 19.2864 57.4233 19.2979L57.2811 19.9901C57.0301 20.0185 56.7832 20.0753 56.545 20.1593L56.1202 19.5856C56.1137 19.5765 56.1042 19.57 56.0934 19.5672C56.0825 19.5644 56.071 19.5655 56.061 19.5704L55.1539 20.0933C55.1442 20.0993 55.137 20.1087 55.1339 20.1197C55.1308 20.1306 55.1319 20.1424 55.1369 20.1526L55.4229 20.8143C55.089 21.1094 54.817 21.4677 54.6225 21.8686L53.8998 21.762C53.8885 21.7607 53.8771 21.7633 53.8675 21.7695C53.8579 21.7757 53.8508 21.785 53.8474 21.7958L53.5766 22.8113C53.5736 22.8223 53.5747 22.834 53.5797 22.8442C53.5847 22.8545 53.5932 22.8626 53.6037 22.8671L54.2806 23.1396C54.265 23.3832 54.2758 23.6277 54.3128 23.869L53.6477 24.2007C53.6372 24.2055 53.6289 24.2141 53.6245 24.2248C53.6201 24.2355 53.6199 24.2474 53.624 24.2582L53.9827 25.2449C53.9863 25.2558 53.9939 25.2649 54.004 25.2702C54.0141 25.2756 54.0259 25.2768 54.0369 25.2736L54.7578 25.1044C54.8831 25.3137 55.0312 25.5084 55.1995 25.6849L54.8475 26.3347C54.8424 26.3449 54.8409 26.3565 54.8434 26.3676C54.8458 26.3788 54.8521 26.3887 54.8611 26.3957L55.7191 26.9981C55.7285 27.0046 55.7399 27.0073 55.7512 27.0057C55.7625 27.0041 55.7727 26.9984 55.78 26.9897L56.2691 26.438C56.4333 26.5108 56.6031 26.5702 56.7768 26.6157C56.8377 26.6326 56.9021 26.6478 56.9765 26.6631L57.0611 27.3908C57.062 27.4023 57.0672 27.4131 57.0757 27.4209C57.0841 27.4288 57.0953 27.4331 57.1068 27.4331H58.1544C58.166 27.4328 58.1772 27.4284 58.1859 27.4206C58.1945 27.4129 58.2002 27.4023 58.2018 27.3908L58.2847 26.6715C58.5295 26.6251 58.7684 26.5519 58.9972 26.4532L59.4744 26.9914C59.482 27.0002 59.4926 27.006 59.5041 27.0076C59.5157 27.0091 59.5274 27.0064 59.537 26.9998L60.3951 26.3991C60.4042 26.3926 60.4107 26.3831 60.4135 26.3722C60.4163 26.3614 60.4152 26.3499 60.4103 26.3398L60.0718 25.7137C60.2493 25.5336 60.4054 25.3337 60.5372 25.1179L61.2243 25.2872C61.2353 25.29 61.2469 25.2885 61.2569 25.2832C61.267 25.2779 61.2746 25.2691 61.2785 25.2584L61.6322 24.2735C61.6376 24.2673 61.6411 24.2597 61.6424 24.2516C61.6437 24.2435 61.6427 24.2352 61.6396 24.2276C61.6364 24.22 61.6312 24.2135 61.6245 24.2088C61.6178 24.204 61.6099 24.2012 61.6017 24.2007L60.9756 23.8859C61.0167 23.6337 61.0292 23.3777 61.0128 23.1227L61.661 22.8671C61.6717 22.8629 61.6804 22.8548 61.6854 22.8445C61.6905 22.8341 61.6914 22.8223 61.688 22.8113L61.419 21.7958C61.4155 21.785 61.4084 21.7757 61.3988 21.7695C61.3892 21.7633 61.3778 21.7607 61.3665 21.762L60.6794 21.8635C60.5671 21.6362 60.4298 21.4222 60.2698 21.2255ZM61.595 22.8028L60.9536 23.055C60.9444 23.0588 60.9367 23.0655 60.9315 23.074C60.9264 23.0825 60.924 23.0924 60.9248 23.1023C60.9449 23.3726 60.9318 23.6442 60.8859 23.9113C60.8836 23.9212 60.8847 23.9315 60.889 23.9407C60.8933 23.9499 60.9005 23.9574 60.9096 23.9621L61.529 24.2718L61.1905 25.1772L60.5135 25.0079C60.5041 25.0053 60.494 25.0061 60.4851 25.0101C60.4761 25.0142 60.4688 25.0212 60.4645 25.0299C60.3265 25.26 60.1605 25.472 59.9703 25.6612C59.9645 25.669 59.9614 25.6785 59.9614 25.6883C59.9614 25.698 59.9645 25.7075 59.9703 25.7153L60.3088 26.3398L59.5083 26.9085L59.0361 26.3754C59.0299 26.3674 59.0213 26.3616 59.0115 26.3588C59.0018 26.3561 58.9914 26.3566 58.982 26.3601C58.7407 26.4681 58.4873 26.5465 58.2272 26.5937C58.2172 26.5954 58.208 26.6003 58.201 26.6076C58.194 26.6149 58.1895 26.6243 58.1882 26.6343L58.1053 27.3468H57.1424L57.0594 26.6258C57.058 26.6161 57.0537 26.607 57.0471 26.5998C57.0404 26.5926 57.0318 26.5875 57.0222 26.5852C56.9457 26.5729 56.8699 26.5559 56.7954 26.5344C56.618 26.4869 56.4447 26.4246 56.2776 26.3483C56.2687 26.3439 56.2586 26.3424 56.2488 26.3443C56.239 26.3461 56.2301 26.3511 56.2234 26.3584L55.7394 26.9034L54.9508 26.35L55.3011 25.7069C55.3069 25.699 55.31 25.6895 55.31 25.6798C55.31 25.6701 55.3069 25.6606 55.3011 25.6527C55.1202 25.4659 54.9617 25.2586 54.8289 25.035C54.8243 25.0261 54.8167 25.019 54.8074 25.015C54.7982 25.011 54.7879 25.0103 54.7781 25.013L54.0657 25.1823L53.7357 24.2768L54.3906 23.9485C54.3994 23.944 54.4066 23.9369 54.4112 23.9281C54.4157 23.9193 54.4174 23.9093 54.416 23.8994C54.372 23.6424 54.3601 23.3809 54.3804 23.121C54.3813 23.111 54.3788 23.1011 54.3732 23.0928C54.3677 23.0845 54.3595 23.0783 54.35 23.0753L53.673 22.8045L53.9218 21.8788L54.6394 21.9837C54.6493 21.9847 54.6594 21.9827 54.6682 21.9779C54.6769 21.973 54.684 21.9656 54.6885 21.9566C54.8819 21.5441 55.1604 21.1773 55.5059 20.8803C55.5144 20.872 55.5195 20.8607 55.5202 20.8488C55.5208 20.8369 55.5169 20.8252 55.5092 20.816L55.2266 20.1627L56.0576 19.6787L56.479 20.2457C56.4853 20.253 56.4937 20.2582 56.5031 20.2607C56.5125 20.2631 56.5224 20.2626 56.5314 20.2592C56.7841 20.1708 57.0467 20.114 57.3133 20.09C57.3232 20.089 57.3325 20.0849 57.3398 20.0782C57.3472 20.0714 57.3521 20.0625 57.3539 20.0527L57.4944 19.3758L58.4556 19.4587L58.4743 20.1526C58.4743 20.1626 58.4776 20.1724 58.4837 20.1803C58.4898 20.1883 58.4984 20.194 58.5081 20.1966C58.7698 20.2679 59.0216 20.3714 59.2578 20.5046C59.2657 20.5104 59.2751 20.5135 59.2849 20.5135C59.2946 20.5135 59.3041 20.5104 59.312 20.5046L59.8197 20.0307L60.5592 20.6501L60.1785 21.2255C60.1728 21.2337 60.1697 21.2435 60.1697 21.2535C60.1697 21.2634 60.1728 21.2732 60.1785 21.2814C60.3519 21.4881 60.4991 21.7155 60.6168 21.9583C60.6212 21.9673 60.6283 21.9747 60.6371 21.9796C60.6458 21.9844 60.6559 21.9864 60.6659 21.9854L61.3428 21.8839L61.595 22.8028Z" fill="#BA68C8"/>
<path d="M58.2035 21.2848C57.7952 21.1751 57.3637 21.189 56.9633 21.3246C56.5629 21.4602 56.2118 21.7115 55.9542 22.0466C55.6967 22.3818 55.5443 22.7858 55.5163 23.2076C55.4883 23.6294 55.586 24.05 55.7971 24.4162C56.0081 24.7825 56.323 25.0779 56.7019 25.2652C57.0809 25.4525 57.5068 25.5232 57.926 25.4685C58.3451 25.4137 58.7386 25.2359 59.0567 24.9575C59.3748 24.6791 59.6032 24.3127 59.713 23.9045C59.8595 23.357 59.7828 22.7737 59.4998 22.2826C59.2168 21.7915 58.7506 21.4326 58.2035 21.2848ZM59.6233 23.8825C59.5663 24.1551 59.4542 24.4131 59.2939 24.6408C59.1336 24.8685 58.9285 25.0611 58.6912 25.2068C58.4539 25.3525 58.1894 25.4482 57.9138 25.4881C57.6382 25.5279 57.3574 25.5111 57.0885 25.4387C56.8196 25.3663 56.5684 25.2397 56.3501 25.0668C56.1319 24.8939 55.9512 24.6782 55.8192 24.433C55.6872 24.1878 55.6066 23.9183 55.5824 23.6409C55.5582 23.3635 55.5909 23.0841 55.6785 22.8197C55.8196 22.2968 56.1624 21.8512 56.6316 21.5806C57.1008 21.31 57.6581 21.2365 58.1815 21.3761C58.7048 21.5176 59.1506 21.8611 59.421 22.331C59.6913 22.8009 59.7641 23.359 59.6233 23.8825Z" fill="#BA68C8"/>
<path d="M50.9213 23.6777L50.7622 23.082C50.7616 23.0789 50.7604 23.0759 50.7586 23.0732C50.7568 23.0706 50.7545 23.0683 50.7518 23.0666C50.7491 23.0648 50.7461 23.0637 50.7429 23.0631C50.7398 23.0626 50.7365 23.0627 50.7334 23.0634L50.329 23.1227C50.2624 22.9874 50.1806 22.8603 50.0853 22.7436L50.312 22.4051C50.3161 22.3998 50.3184 22.3932 50.3184 22.3865C50.3184 22.3797 50.3161 22.3732 50.312 22.3679L49.8416 21.9735C49.8368 21.9689 49.8304 21.9663 49.8238 21.9663C49.8171 21.9663 49.8108 21.9689 49.806 21.9735L49.5082 22.2545C49.3763 22.1824 49.2366 22.1257 49.0918 22.0852L49.0783 21.6622C49.0783 21.6557 49.0759 21.6495 49.0715 21.6448C49.0671 21.6401 49.061 21.6372 49.0546 21.6368L48.4403 21.5826C48.4336 21.5821 48.427 21.584 48.4217 21.5881C48.4164 21.5922 48.4127 21.598 48.4115 21.6046L48.3269 22.0108C48.1798 22.0278 48.035 22.0613 47.8953 22.1106L47.6449 21.7722C47.6413 21.7663 47.6357 21.762 47.6291 21.7601C47.6225 21.7582 47.6154 21.7589 47.6093 21.762L47.0762 22.07C47.0721 22.0747 47.0698 22.0807 47.0698 22.0869C47.0698 22.0932 47.0721 22.0992 47.0762 22.1039L47.2455 22.4931C47.0489 22.6661 46.8889 22.8767 46.775 23.1125L46.3502 23.0516C46.3438 23.0508 46.3373 23.0522 46.3318 23.0556C46.3262 23.059 46.322 23.0641 46.3198 23.0702L46.159 23.6659C46.1573 23.6724 46.1581 23.6793 46.1613 23.6852C46.1644 23.6912 46.1696 23.6957 46.1759 23.6981L46.577 23.8588C46.5685 24.0024 46.5753 24.1465 46.5973 24.2887L46.2081 24.4816C46.202 24.4846 46.1973 24.4897 46.1948 24.4959C46.1922 24.5022 46.1922 24.5092 46.1945 24.5155L46.4044 25.0959C46.4067 25.1022 46.4113 25.1075 46.4172 25.1106C46.4231 25.1137 46.43 25.1145 46.4365 25.1129L46.8613 25.013C46.9349 25.135 47.0218 25.2485 47.1202 25.3515L46.9138 25.734C46.9105 25.7399 46.9095 25.7468 46.9111 25.7534C46.9127 25.7599 46.9167 25.7657 46.9222 25.7695L47.43 26.1232C47.4347 26.1279 47.4411 26.1305 47.4477 26.1305C47.4544 26.1305 47.4607 26.1279 47.4655 26.1232L47.7532 25.7983C47.8485 25.8408 47.947 25.8758 48.0477 25.9032C48.0832 25.9117 48.1204 25.9218 48.1661 25.9303L48.2152 26.3584C48.2156 26.3653 48.2187 26.3718 48.2237 26.3765C48.2287 26.3812 48.2354 26.3838 48.2423 26.3838H48.8583C48.8649 26.3839 48.8713 26.3815 48.8763 26.3771C48.8813 26.3728 48.8845 26.3667 48.8854 26.3601L48.9345 25.937C49.0781 25.9091 49.2183 25.8654 49.3525 25.8067L49.6334 26.1249C49.6387 26.129 49.6453 26.1312 49.652 26.1312C49.6588 26.1312 49.6653 26.129 49.6706 26.1249L50.1783 25.7712C50.1837 25.7672 50.1876 25.7616 50.1894 25.7551C50.1913 25.7487 50.1909 25.7419 50.1885 25.7357L49.9685 25.3853C50.0718 25.2789 50.1632 25.1614 50.241 25.035L50.6454 25.1315C50.6519 25.1328 50.6587 25.1318 50.6645 25.1287C50.6704 25.1257 50.675 25.1206 50.6776 25.1146L50.8857 24.5358C50.888 24.5293 50.8877 24.5221 50.8848 24.5158C50.882 24.5095 50.8769 24.5046 50.8705 24.5019L50.5016 24.3175C50.5267 24.1694 50.5341 24.0188 50.5236 23.869L50.906 23.7184C50.9106 23.7181 50.9151 23.7165 50.9188 23.7138C50.9225 23.7111 50.9253 23.7073 50.9269 23.703C50.9285 23.6987 50.9289 23.694 50.9279 23.6896C50.9269 23.6851 50.9246 23.681 50.9213 23.6777ZM50.488 23.8182C50.4824 23.8204 50.4777 23.8245 50.4746 23.8297C50.4715 23.8349 50.4703 23.841 50.4711 23.847C50.4827 24.0059 50.4748 24.1656 50.4474 24.3225C50.4462 24.3284 50.447 24.3344 50.4498 24.3397C50.4526 24.3449 50.4571 24.3491 50.4626 24.3513L50.8265 24.5341L50.6319 25.0672L50.2308 24.9707C50.225 24.9698 50.219 24.9705 50.2136 24.9729C50.2081 24.9753 50.2035 24.9793 50.2003 24.9842C50.1195 25.1197 50.0223 25.2448 49.9109 25.3566C49.9077 25.3613 49.906 25.3669 49.906 25.3726C49.906 25.3784 49.9077 25.384 49.9109 25.3887L50.1073 25.7543L49.6435 26.0792L49.3643 25.7661C49.3612 25.7612 49.3563 25.7576 49.3507 25.7561C49.3451 25.7545 49.3391 25.7551 49.3339 25.7577C49.1912 25.8203 49.0419 25.8663 48.8888 25.8947C48.883 25.8958 48.8778 25.8987 48.8738 25.9029C48.8699 25.9072 48.8674 25.9126 48.8668 25.9184L48.8177 26.3364H48.2524L48.2034 25.9117C48.2025 25.906 48.1999 25.9007 48.196 25.8964C48.1921 25.8922 48.187 25.8893 48.1814 25.888C48.1362 25.8814 48.0915 25.8718 48.0477 25.8592C47.9434 25.8304 47.8416 25.7936 47.743 25.7492C47.7384 25.7458 47.7327 25.7439 47.727 25.7439C47.7212 25.7439 47.7155 25.7458 47.7109 25.7492L47.4266 26.069L46.9629 25.7441L47.1693 25.365C47.1725 25.3603 47.1742 25.3547 47.1742 25.349C47.1742 25.3432 47.1725 25.3376 47.1693 25.3329C47.0628 25.2234 46.9701 25.1012 46.8935 24.969C46.8904 24.964 46.8857 24.9601 46.8802 24.958C46.8747 24.9558 46.8687 24.9556 46.863 24.9572L46.4433 25.057L46.2402 24.5392L46.6244 24.3462C46.6295 24.3435 46.6337 24.3393 46.6365 24.3342C46.6392 24.3291 46.6403 24.3232 46.6396 24.3175C46.6145 24.1665 46.6071 24.0132 46.6176 23.8605C46.6187 23.8547 46.6175 23.8487 46.6144 23.8437C46.6113 23.8387 46.6064 23.835 46.6007 23.8334L46.203 23.6744L46.3485 23.1294L46.7716 23.1904C46.7772 23.1915 46.783 23.1906 46.788 23.1878C46.793 23.185 46.7968 23.1805 46.7987 23.1751C46.9136 22.9328 47.0779 22.7172 47.281 22.5422C47.2854 22.5382 47.2885 22.5331 47.29 22.5274C47.2915 22.5216 47.2913 22.5156 47.2895 22.51L47.1202 22.1259L47.6093 21.8415L47.8564 22.18C47.8605 22.1842 47.8657 22.1872 47.8713 22.1887C47.877 22.1902 47.883 22.1901 47.8886 22.1885C48.0366 22.1348 48.1906 22.0996 48.3472 22.0836C48.3531 22.0832 48.3587 22.0808 48.363 22.0768C48.3673 22.0728 48.3701 22.0674 48.3709 22.0615L48.4538 21.6588L49.0191 21.7095L49.0309 22.1174C49.0307 22.1231 49.0324 22.1287 49.0358 22.1333C49.0392 22.1379 49.044 22.1413 49.0495 22.1428C49.2041 22.1836 49.3526 22.2444 49.4912 22.3239C49.496 22.3271 49.5016 22.3288 49.5073 22.3288C49.513 22.3288 49.5186 22.3271 49.5234 22.3239L49.8179 22.0463L50.2511 22.4102L50.0277 22.7486C50.0247 22.7535 50.0231 22.759 50.0231 22.7647C50.0231 22.7704 50.0247 22.776 50.0277 22.7808C50.1307 22.9042 50.2177 23.0401 50.2866 23.1853C50.2893 23.1904 50.2935 23.1946 50.2987 23.1973C50.3038 23.2001 50.3096 23.2012 50.3154 23.2005L50.7148 23.1413L50.862 23.6879L50.488 23.8182Z" fill="#BA68C8"/>
<path d="M48.8701 22.7774C48.6299 22.7129 48.376 22.7211 48.1405 22.801C47.9049 22.8808 47.6983 23.0287 47.5468 23.226C47.3954 23.4232 47.3058 23.661 47.2894 23.9091C47.273 24.1573 47.3307 24.4048 47.4549 24.6202C47.5792 24.8356 47.7646 25.0094 47.9876 25.1194C48.2107 25.2295 48.4613 25.2709 48.7079 25.2385C48.9545 25.2061 49.186 25.1013 49.373 24.9374C49.56 24.7734 49.6942 24.5577 49.7586 24.3175C49.8445 23.9954 49.7992 23.6525 49.6327 23.3638C49.4661 23.0751 49.1919 22.8643 48.8701 22.7774ZM49.7062 24.3005C49.6088 24.5909 49.4044 24.8332 49.1346 24.9781C48.8649 25.123 48.55 25.1595 48.2542 25.0804C47.9584 25.0012 47.7039 24.8122 47.5426 24.5519C47.3812 24.2916 47.3252 23.9796 47.3859 23.6794C47.4696 23.3723 47.6714 23.1109 47.9474 22.9523C48.2233 22.7937 48.5509 22.7509 48.8583 22.8333C49.1656 22.9161 49.4274 23.1175 49.5864 23.3932C49.7453 23.669 49.7884 23.9965 49.7062 24.3039V24.3005Z" fill="#BA68C8"/>
<path d="M33.3716 25.1992C33.3697 25.1872 33.3638 25.1761 33.3549 25.1678C33.346 25.1595 33.3346 25.1545 33.3225 25.1535L32.3071 25.0756C32.1746 24.7403 32.0042 24.4212 31.7994 24.1245L32.3223 23.2293C32.3282 23.2188 32.3305 23.2068 32.329 23.1949C32.3274 23.183 32.3221 23.1719 32.3138 23.1633L31.493 22.3391C31.4838 22.3312 31.4721 22.3269 31.46 22.3269C31.4479 22.3269 31.4362 22.3312 31.427 22.3391L30.5335 22.8705C30.0117 22.5213 29.4244 22.2817 28.8073 22.1665L28.55 21.1511C28.547 21.1394 28.5403 21.1291 28.5308 21.1218C28.5213 21.1144 28.5096 21.1104 28.4976 21.1104H27.3332C27.3212 21.1104 27.3096 21.1144 27.3001 21.1218C27.2906 21.1291 27.2838 21.1394 27.2808 21.1511L27.0201 22.1699C26.6784 22.2379 26.3453 22.3435 26.0267 22.4846L25.2161 21.7857C25.2064 21.7783 25.1945 21.7743 25.1823 21.7743C25.17 21.7743 25.1581 21.7783 25.1484 21.7857L24.1956 22.4626C24.1856 22.4692 24.1781 22.479 24.1744 22.4904C24.1707 22.5018 24.171 22.5141 24.1753 22.5253L24.5561 23.5237C24.3151 23.7745 24.1023 24.0509 23.9214 24.3479L22.8603 24.2379C22.8482 24.2367 22.836 24.2396 22.8256 24.246C22.8152 24.2524 22.8072 24.2621 22.8028 24.2735L22.4051 25.3667C22.4008 25.3779 22.4005 25.3902 22.4042 25.4016C22.4079 25.413 22.4154 25.4228 22.4254 25.4293L23.3054 26.0267C23.2648 26.274 23.2445 26.5242 23.2445 26.7748C23.2445 26.8678 23.2445 26.9626 23.2547 27.0726L22.3391 27.5854C22.3285 27.5911 22.3202 27.6003 22.3156 27.6114C22.311 27.6225 22.3103 27.6348 22.3137 27.6463L22.6116 28.77C22.6143 28.7821 22.6213 28.7928 22.6312 28.8003C22.6411 28.8077 22.6533 28.8114 22.6657 28.8107L23.7116 28.7971C23.8657 29.1155 24.0547 29.4158 24.2751 29.6924L23.8182 30.6316C23.813 30.6425 23.8117 30.6548 23.8144 30.6665C23.8172 30.6782 23.8239 30.6886 23.8334 30.6959L24.727 31.4457C24.7365 31.4529 24.7481 31.4569 24.76 31.4569C24.7719 31.4569 24.7835 31.4529 24.793 31.4457L25.6307 30.8483C25.9446 31.0255 26.278 31.1658 26.6241 31.2663L26.7934 32.2817C26.7958 32.2935 26.8018 32.3042 26.8106 32.3124C26.8194 32.3206 26.8305 32.3258 26.8425 32.3274L28.0017 32.4255C28.0113 32.424 28.0203 32.4198 28.0277 32.4136C28.0352 32.4073 28.0408 32.3992 28.044 32.39L28.3825 31.4355C28.7445 31.4004 29.1012 31.3232 29.4453 31.2053L30.1544 31.9246C30.1627 31.9328 30.1734 31.9382 30.1849 31.94C30.1964 31.9418 30.2083 31.94 30.2187 31.9348L31.2341 31.3509C31.2441 31.3446 31.2519 31.3353 31.2564 31.3244C31.2609 31.3135 31.262 31.3015 31.2595 31.29L30.9921 30.3202C31.2672 30.0811 31.5142 29.8114 31.7283 29.5164L32.7234 29.6992C32.735 29.7013 32.747 29.6995 32.7575 29.6939C32.7679 29.6884 32.7762 29.6795 32.7809 29.6687L33.2734 28.6127C33.278 28.6017 33.2791 28.5896 33.2763 28.578C33.2736 28.5664 33.2672 28.5561 33.2582 28.5483L32.4814 27.9069C32.5692 27.5542 32.6152 27.1924 32.6185 26.8289L33.5425 26.4075C33.5533 26.4026 33.5622 26.3943 33.568 26.384C33.5737 26.3737 33.5761 26.3617 33.5746 26.35L33.3716 25.1992ZM27.9374 29.6247C27.1807 29.6247 26.4549 29.3241 25.9198 28.789C25.3847 28.2539 25.0841 27.5281 25.0841 26.7714C25.0841 26.0146 25.3847 25.2889 25.9198 24.7538C26.4549 24.2187 27.1807 23.9181 27.9374 23.9181C28.6823 23.9362 29.3907 24.2449 29.9111 24.7782C30.4316 25.3114 30.7229 26.0271 30.7229 26.7722C30.7229 27.5174 30.4316 28.233 29.9111 28.7663C29.3907 29.2996 28.6823 29.6082 27.9374 29.6264V29.6247Z" fill="#BA68C8" stroke="#263238" stroke-width="0.5" stroke-linecap="round" stroke-linejoin="round"/>
<path d="M27.0929 34.717C27.0901 34.704 27.0828 34.6924 27.0722 34.6844C27.0617 34.6763 27.0486 34.6723 27.0354 34.673L26.2196 34.7221C26.113 34.4495 25.9756 34.19 25.8101 33.9487L26.3178 33.3022C26.3261 33.2922 26.3306 33.2796 26.3306 33.2666C26.3306 33.2537 26.3261 33.2411 26.3178 33.2311L25.4615 32.3748C25.4518 32.3658 25.4391 32.3609 25.4259 32.3609C25.4128 32.3609 25.4001 32.3658 25.3904 32.3748L24.7371 32.8926C24.308 32.6069 23.8257 32.4106 23.3189 32.3155L23.2191 31.4694C23.2178 31.4563 23.2118 31.4443 23.202 31.4355C23.1923 31.4267 23.1797 31.4219 23.1666 31.422H21.9549C21.9416 31.4219 21.9288 31.4266 21.9188 31.4354C21.9088 31.4441 21.9024 31.4562 21.9008 31.4694L21.8026 32.3155C21.525 32.3703 21.2543 32.4554 20.9953 32.5694L20.4301 31.9314C20.4215 31.9207 20.409 31.9139 20.3954 31.9123C20.3818 31.9107 20.3682 31.9145 20.3573 31.9229L19.3639 32.6185C19.3532 32.626 19.3455 32.6372 19.3424 32.65C19.3393 32.6627 19.3409 32.6762 19.347 32.6878L19.7548 33.4409C19.5614 33.6474 19.3911 33.8744 19.2471 34.1179L18.4145 33.9199C18.4017 33.9166 18.3882 33.9183 18.3766 33.9246C18.365 33.9308 18.3562 33.9412 18.3519 33.9537L17.939 35.0876C17.9338 35.1002 17.9338 35.1143 17.9388 35.1269C17.9439 35.1396 17.9536 35.1497 17.966 35.1553L18.7293 35.5361C18.6969 35.7387 18.6805 35.9435 18.6802 36.1487C18.6802 36.2215 18.6802 36.2976 18.6802 36.3856L17.8899 36.697C17.8776 36.702 17.8675 36.7112 17.8616 36.7231C17.8557 36.7349 17.8543 36.7485 17.8577 36.7613L18.1708 37.9325C18.1737 37.9455 18.1814 37.9569 18.1924 37.9645C18.2034 37.972 18.2168 37.9751 18.23 37.9731L19.0593 37.8495C19.1847 38.1089 19.3385 38.3535 19.5179 38.5789L19.0576 39.2745C19.0505 39.2859 19.0477 39.2994 19.0495 39.3127C19.0514 39.326 19.0578 39.3382 19.0678 39.3473L19.9969 40.1257C20.0069 40.134 20.0194 40.1385 20.0324 40.1385C20.0454 40.1385 20.0579 40.134 20.0679 40.1257L20.6653 39.5588C20.9201 39.7019 21.1904 39.8155 21.4709 39.8973L21.4929 40.7164C21.4933 40.7294 21.4985 40.7419 21.5076 40.7513C21.5167 40.7606 21.5289 40.7663 21.542 40.7671L22.7486 40.867C22.7619 40.8676 22.775 40.8632 22.7853 40.8548C22.7956 40.8464 22.8024 40.8345 22.8045 40.8213L22.9737 40.0259C23.2676 39.9971 23.5572 39.9347 23.8368 39.8397L24.3191 40.4879C24.3269 40.4984 24.3384 40.5056 24.3512 40.5081C24.364 40.5106 24.3773 40.5082 24.3885 40.5015L25.4378 39.8956C25.449 39.8889 25.4574 39.8783 25.4615 39.8659C25.4655 39.8534 25.4649 39.8399 25.4598 39.8279L25.1433 39.0934C25.3661 38.8986 25.5665 38.6795 25.7407 38.4402L26.504 38.694C26.5166 38.6981 26.5303 38.6975 26.5424 38.6922C26.5546 38.6869 26.5644 38.6773 26.57 38.6652L27.0777 37.572C27.0828 37.5599 27.0834 37.5465 27.0794 37.534C27.0753 37.5216 27.0669 37.511 27.0557 37.5043L26.3703 37.0812C26.4405 36.7941 26.478 36.5001 26.482 36.2046L27.2588 35.9727C27.2718 35.9695 27.2831 35.9614 27.2904 35.95C27.2976 35.9387 27.3002 35.925 27.2977 35.9118L27.0929 34.717ZM24.9453 36.147C24.9453 36.6156 24.8063 37.0737 24.546 37.4633C24.2857 37.853 23.9156 38.1566 23.4827 38.336C23.0498 38.5153 22.5734 38.5622 22.1138 38.4708C21.6542 38.3794 21.232 38.1537 20.9007 37.8224C20.5693 37.491 20.3437 37.0688 20.2522 36.6092C20.1608 36.1496 20.2077 35.6733 20.3871 35.2403C20.5664 34.8074 20.8701 34.4374 21.2597 34.177C21.6493 33.9167 22.1074 33.7777 22.576 33.7777C23.2044 33.7777 23.807 34.0273 24.2514 34.4717C24.6957 34.916 24.9453 35.5186 24.9453 36.147Z" fill="#BA68C8" stroke="#263238" stroke-width="0.5" stroke-linecap="round" stroke-linejoin="round"/>
<path d="M41.9822 75.4723C59.939 75.4723 74.4958 72.4748 74.4958 68.7773C74.4958 65.0798 59.939 62.0824 41.9822 62.0824C24.0255 62.0824 9.46872 65.0798 9.46872 68.7773C9.46872 72.4748 24.0255 75.4723 41.9822 75.4723Z" fill="#BA68C8"/>
<path opacity="0.5" d="M41.9822 75.4723C59.939 75.4723 74.4958 72.4748 74.4958 68.7773C74.4958 65.0798 59.939 62.0824 41.9822 62.0824C24.0255 62.0824 9.46872 65.0798 9.46872 68.7773C9.46872 72.4748 24.0255 75.4723 41.9822 75.4723Z" fill="white"/>
<path d="M43.8794 68.8755H18.643L23.0008 56.5078H39.4843L43.8794 68.8755Z" fill="#263238"/>
<path d="M43.9522 68.8755H18.5719V69.9146H43.9522V68.8755Z" fill="#263238"/>
<path d="M43.8794 68.8755H18.643L23.0008 56.5078H39.4843L43.8794 68.8755Z" fill="white" stroke="#263238" stroke-width="0.5" stroke-linecap="round" stroke-linejoin="round"/>
<path d="M43.8794 68.8755H18.643L23.0008 56.5078H39.4843L43.8794 68.8755Z" stroke="#263238" stroke-width="0.5" stroke-linecap="round" stroke-linejoin="round"/>
<path d="M24.0264 65.8208H42.7946" stroke="#263238" stroke-width="0.5" stroke-linecap="round" stroke-linejoin="round"/>
<path d="M19.7193 65.8208H23.2022" stroke="#263238" stroke-width="0.5" stroke-linecap="round" stroke-linejoin="round"/>
<path d="M37.968 62.7678H41.7098" stroke="#263238" stroke-width="0.5" stroke-linecap="round" stroke-linejoin="round"/>
<path d="M20.7957 62.7678H35.6376" stroke="#263238" stroke-width="0.5" stroke-linecap="round" stroke-linejoin="round"/>
<path d="M21.872 59.7131H40.6233" stroke="#263238" stroke-width="0.5" stroke-linecap="round" stroke-linejoin="round"/>
<path d="M32.8537 49.7984C32.8683 49.7779 32.8783 49.7545 32.8828 49.7298C32.8748 49.7534 32.8651 49.7763 32.8537 49.7984Z" fill="#BA68C8"/>
<path d="M32.8587 49.2627C32.8166 49.0626 32.76 48.8658 32.6895 48.6738C32.7487 48.8752 32.8147 49.0783 32.8587 49.2627Z" fill="#BA68C8"/>
<path d="M28.3317 50.9889C28.2603 51.0841 28.1835 51.1751 28.1016 51.2614L28.1506 51.2208C28.238 51.1504 28.3061 51.059 28.3484 50.9551C28.3908 50.8512 28.406 50.7382 28.3926 50.6268C28.374 50.4694 28.3503 50.268 28.325 50.0378C28.3705 50.3531 28.3728 50.6731 28.3317 50.9889Z" fill="#BA68C8"/>
<path d="M33.3089 44.5343C33.3167 44.4799 33.3351 44.4276 33.3631 44.3803C33.3314 44.4258 33.3127 44.479 33.3089 44.5343Z" fill="#BA68C8"/>
<path d="M32.2055 50.2629C32.3138 50.1901 32.4695 50.1021 32.6032 50.0124C32.4517 50.0612 32.3149 50.1473 32.2055 50.2629Z" fill="#BA68C8"/>
<path d="M32.4932 52.1245C32.4526 51.9874 32.4069 51.8419 32.3612 51.6947C32.4035 51.847 32.4492 51.9925 32.4932 52.1245Z" fill="#BA68C8"/>
<path d="M28.0542 46.9358C28.0542 46.9493 28.0542 46.9645 28.0542 46.9814C28.0209 46.5412 28.0272 46.0989 28.0728 45.6597C28.1191 45.4466 28.2233 45.2504 28.374 45.0928C27.8663 45.5243 28.0406 46.5634 28.0542 46.9358Z" fill="#BA68C8"/>
<path d="M33.4443 46.9425C33.3563 47.1456 33.0483 47.2641 32.8148 47.4502C33.0872 47.2691 33.3563 47.2167 33.4443 46.9425Z" fill="#BA68C8"/>
<path d="M33.4697 46.6362C33.4741 46.7027 33.4741 46.7694 33.4697 46.8359C33.4774 46.7696 33.4774 46.7026 33.4697 46.6362Z" fill="#BA68C8"/>
<path d="M30.6028 43.7135C30.7467 43.6526 30.8347 43.6204 30.8398 43.6187L30.7078 43.6018L30.6028 43.7135Z" fill="#BA68C8"/>
<path d="M33.6546 44.2821H33.6186L33.6906 44.2941L33.6546 44.2821Z" fill="#BA68C8"/>
<path d="M32.8198 53.0621L34.7288 53.6273H34.744C34.0976 53.4395 32.9231 53.0925 32.8198 53.0621Z" fill="#BA68C8"/>
<path d="M39.7703 61.3546C39.2778 61.4258 38.7965 61.5607 38.3386 61.7557C38.2269 61.8014 38.1186 61.8539 38.0103 61.908C37.4569 62.189 36.9526 62.5562 36.3924 62.827C33.82 64.0759 30.7027 63.0571 27.9306 63.7476C27.1031 63.9541 26.3127 64.3095 25.4716 64.4246C24.0619 64.6243 22.6691 64.1504 21.3389 63.6156C21.3829 61.8809 21.4912 59.7926 21.7366 59.0378C22.0869 58.2356 22.7859 57.8904 23.4577 57.5942C23.7725 57.4741 24.1533 57.4402 24.3868 57.2557C25.651 56.8878 26.8067 56.2182 27.7546 55.3045L32.874 56.4603L34.7745 55.5092C35.4988 55.6598 36.2232 55.6785 36.8832 55.8562C38.3115 56.2945 38.6838 57.227 39.0511 58.0071C39.1154 58.1764 39.1746 58.3456 39.2203 58.5149C39.4116 59.2036 39.6163 60.3832 39.7703 61.3546Z" fill="#BA68C8"/>
<path d="M32.8452 54.8983C32.8433 54.8303 32.8484 54.7622 32.8605 54.6952C32.875 54.5588 32.925 54.4287 33.0054 54.3176C33.0859 54.2066 33.194 54.1185 33.3191 54.0623C33.666 53.8991 34.0339 53.7852 34.4124 53.7238L34.7254 53.6358L32.8165 53.0705H32.808C32.683 52.7622 32.5779 52.4462 32.4932 52.1245C32.4492 51.9857 32.4035 51.8402 32.3612 51.6947C32.17 51.0837 31.972 50.4406 32.1074 50.3239C32.1384 50.2984 32.1712 50.2752 32.2055 50.2545C32.3149 50.1389 32.4517 50.0527 32.6032 50.004C32.6989 49.9486 32.7837 49.8763 32.8537 49.7908C32.8649 49.7689 32.8745 49.7463 32.8825 49.7231C32.8869 49.6413 32.8869 49.5594 32.8825 49.4777C32.8757 49.4033 32.8649 49.3293 32.8503 49.256C32.8063 49.0732 32.7403 48.8684 32.6811 48.667C32.3917 47.8784 32.4526 47.6905 32.808 47.4502C33.0415 47.2624 33.3496 47.1439 33.4376 46.9425C33.4496 46.908 33.4575 46.8722 33.4613 46.8359C33.4656 46.7694 33.4656 46.7027 33.4613 46.6362C33.4173 46.1471 33.204 45.0149 33.292 44.5343C33.2958 44.479 33.3145 44.4258 33.3462 44.3803C33.3754 44.3418 33.4149 44.3124 33.4601 44.2954C33.5053 44.2783 33.5544 44.2743 33.6017 44.2838H33.6373C32.7244 43.9665 31.7813 43.7442 30.8229 43.6204C30.8229 43.6204 30.7298 43.6543 30.5859 43.7152C29.7929 44.0877 29.0456 44.5505 28.3588 45.0945C28.2081 45.2521 28.1039 45.4483 28.0576 45.6614C28.012 46.1006 28.0057 46.5429 28.0389 46.9831C28.0643 47.4638 28.2522 49.542 28.308 50.0395C28.3334 50.2697 28.3571 50.4711 28.3757 50.6285C28.3891 50.7399 28.3738 50.8529 28.3315 50.9568C28.2892 51.0607 28.2211 51.1521 28.1337 51.2225L28.0846 51.2631L27.9289 51.4323C27.9776 51.5977 28.0071 51.768 28.0169 51.9401C28.0423 52.1093 28.066 52.3158 28.0829 52.5662C28.1972 53.3643 28.1972 54.1746 28.0829 54.9727C28.0829 54.9727 27.9459 55.1064 27.7445 55.3028L32.8639 56.4569C32.8639 56.4569 34.6391 55.8392 34.6205 55.8342L34.7711 55.5058C34.1094 55.3725 33.4637 55.1688 32.8452 54.8983ZM30.6587 50.8722L29.9158 50.8383L29.9428 50.2477C29.6035 50.1461 29.3059 49.9378 29.0943 49.6536C28.8827 49.3695 28.7684 49.0247 28.7684 48.6704C28.7688 48.5842 28.7762 48.4982 28.7904 48.4132L28.3046 48.2219L28.5416 47.6195L29.0171 47.8056C29.1472 47.5943 29.3236 47.4152 29.5329 47.2818C29.7421 47.1485 29.979 47.0643 30.2255 47.0356L30.2458 46.5939L30.9887 46.6294L30.965 47.1202C31.31 47.2409 31.6048 47.4731 31.803 47.7801C32.0012 48.0871 32.0914 48.4514 32.0594 48.8154C32.0274 49.1794 31.8749 49.5224 31.6262 49.79C31.3774 50.0577 31.0465 50.2348 30.6858 50.2934L30.6587 50.8722Z" fill="#BA68C8"/>
<path d="M27.8883 51.3359C27.9565 51.5324 28.0041 51.7354 28.0305 51.9417C28.0206 51.7697 27.9911 51.5994 27.9425 51.434C27.9262 51.4004 27.9081 51.3676 27.8883 51.3359Z" fill="#BA68C8"/>
<path d="M28.0931 52.5696C28.1423 53.371 28.1423 54.1747 28.0931 54.9761C28.2073 54.178 28.2073 53.3677 28.0931 52.5696Z" fill="#BA68C8"/>
<path d="M27.7546 43.7406H27.7411C27.8201 43.7112 27.901 43.6869 27.9831 43.6678C27.9051 43.6859 27.8287 43.7102 27.7546 43.7406Z" fill="white"/>
<path d="M27.9865 43.6712C28.0457 43.6577 28.11 43.6475 28.1709 43.6357C28.1049 43.6458 28.044 43.6627 27.9865 43.6712Z" fill="white"/>
<path d="M25.8135 45.9677C25.8541 45.8662 25.8964 45.763 25.9438 45.6614C25.8929 45.7602 25.8494 45.8626 25.8135 45.9677Z" fill="white"/>
<path d="M25.9861 50.3678C26.4938 50.6623 27.2114 50.7943 27.5092 50.9331C27.1149 50.7131 26.5615 50.6217 26.1994 50.4677C26.1263 50.4387 26.0551 50.4054 25.9861 50.3678Z" fill="white"/>
<path d="M25.668 50.1343C25.5479 50.02 25.4498 49.8846 25.3786 49.7349C25.4455 49.8872 25.5441 50.0233 25.668 50.1343Z" fill="white"/>
<path d="M27.2029 47.1659C27.2029 47.1659 28.3875 43.8117 29.9919 43.5392C29.385 43.5248 28.7779 43.5571 28.176 43.6357C28.1151 43.6475 28.0508 43.6577 27.9915 43.6712C27.9094 43.6903 27.8286 43.7146 27.7495 43.744C27.1234 44.0029 26.3144 44.9286 25.9506 45.6597C25.9032 45.7613 25.8609 45.8645 25.8202 45.966C25.7035 46.313 25.5613 46.7581 25.4445 47.2082C25.4005 47.4113 25.3684 47.5907 25.3481 47.7345C25.3041 48.0324 25.2499 48.3539 25.2296 48.6704C25.255 49.1104 25.2601 49.4455 25.3853 49.7332C25.4565 49.8829 25.5546 50.0183 25.6747 50.1326C25.7052 50.1614 25.7373 50.1885 25.7712 50.2155L25.7999 50.2375C25.8366 50.2669 25.8751 50.294 25.915 50.3188L25.9641 50.3492L25.9929 50.3661C26.0597 50.4035 26.1286 50.4368 26.1993 50.466C26.5615 50.62 27.1149 50.7114 27.5092 50.9314C27.5424 50.9462 27.5736 50.9649 27.6023 50.9872C27.6789 51.0368 27.7484 51.0966 27.8088 51.1649L27.2029 47.1659Z" fill="white"/>
<path d="M25.7644 50.2172C25.7306 50.1902 25.6984 50.1631 25.6679 50.1343C25.6984 50.1631 25.7238 50.1902 25.7644 50.2172Z" fill="white"/>
<path d="M25.8152 50.2629C25.844 50.2849 25.8761 50.3069 25.9083 50.3272C25.8683 50.3025 25.8299 50.2754 25.7932 50.246L25.8152 50.2629Z" fill="white"/>
<path d="M27.8054 51.17C27.745 51.1017 27.6755 51.0419 27.5989 50.9923C27.7101 51.0917 27.8074 51.2056 27.8883 51.3308C27.8713 51.2826 27.8498 51.2361 27.824 51.192C27.8182 51.1844 27.812 51.177 27.8054 51.17Z" fill="white"/>
<path d="M27.8239 51.1969L27.8054 51.17C27.8121 51.1786 27.8183 51.1876 27.8239 51.1969Z" fill="white"/>
<path d="M27.824 51.1971C27.8498 51.2412 27.8713 51.2877 27.8883 51.3359C27.9079 51.3654 27.926 51.3959 27.9425 51.4273C27.9168 51.3442 27.8767 51.2663 27.824 51.1971Z" fill="white"/>
<path d="M28.0558 46.9814C28.1032 47.9664 28.2251 49.2001 28.3249 50.0378C28.2623 49.5403 28.0812 47.4621 28.0558 46.9814Z" fill="white"/>
<path d="M28.3757 45.0928C29.0625 44.5488 29.8099 44.086 30.6029 43.7135C30.0986 43.9217 28.9393 44.4497 28.3757 45.0928Z" fill="white"/>
<path d="M29.9919 43.5392C28.396 43.8117 27.2029 47.1659 27.2029 47.1659L27.8054 51.17L27.824 51.1971C27.8767 51.2663 27.9168 51.3442 27.9425 51.4273L28.0982 51.258L27.9289 51.3934L28.0982 51.258C28.1801 51.1717 28.2569 51.0807 28.3283 50.9856C28.3715 50.6706 28.3715 50.3512 28.3283 50.0361C28.2336 49.1984 28.1066 47.9647 28.0592 46.9798C28.0592 46.9628 28.0592 46.9476 28.0592 46.9341C28.0457 46.5617 27.8714 45.5226 28.3791 45.0928C28.9376 44.4497 30.1019 43.9217 30.6062 43.7135L30.7112 43.6018C30.4624 43.573 30.2305 43.5527 29.9919 43.5392Z" fill="white"/>
<path d="M36.7715 49.0241C36.8409 49.0828 36.8896 49.1624 36.9103 49.2509C36.983 48.8887 36.5972 48.8752 36.1115 48.4047C36.318 48.6251 36.5385 48.832 36.7715 49.0241Z" fill="white"/>
<path d="M35.8779 48.1153C35.7393 47.8876 35.6435 47.6363 35.5953 47.3741C35.6139 47.4875 35.6292 47.5873 35.6461 47.6652C35.6935 47.8288 35.7722 47.9817 35.8779 48.1153Z" fill="white"/>
<path d="M36.6987 50.9889L36.7207 51.1193L36.9119 52.2853C36.8646 51.8402 36.5379 50.0074 36.5379 50.0074L36.6987 50.9889Z" fill="white"/>
<path d="M34.4141 44.6358L34.326 44.5783C34.3734 44.6088 34.4191 44.6426 34.4631 44.6765L34.4141 44.6358Z" fill="white"/>
<path d="M34.2753 44.5478C34.107 44.4443 33.9262 44.363 33.7371 44.3058C33.9368 44.3837 34.0536 44.4345 34.0536 44.4345C34.1296 44.4678 34.2037 44.5057 34.2753 44.5478Z" fill="white"/>
<path d="M35.4041 46.3147C35.3468 46.0076 35.2381 45.7123 35.0825 45.4414C35.2237 45.722 35.3322 46.0178 35.4058 46.3231L35.4041 46.3147Z" fill="white"/>
<path d="M35.5107 53.6476C35.8492 53.4581 36.4178 53.0638 36.4178 53.0638L35.5242 53.629L35.5107 53.6476Z" fill="white"/>
<path d="M33.3631 44.3803C33.3971 44.3479 33.4372 44.3227 33.4811 44.3061C33.525 44.2896 33.5718 44.282 33.6186 44.2838C33.5713 44.2743 33.5222 44.2783 33.477 44.2953C33.4318 44.3124 33.3923 44.3418 33.3631 44.3803Z" fill="white"/>
<path d="M33.3089 44.5343C33.2125 45.0149 33.4257 46.1471 33.4782 46.6362C33.446 46.0727 33.2396 44.9743 33.3089 44.5343Z" fill="white"/>
<path d="M33.468 46.8359C33.4643 46.8722 33.4563 46.908 33.4443 46.9425C33.4576 46.9084 33.4656 46.8724 33.468 46.8359Z" fill="white"/>
<path d="M32.5474 47.8581C32.5822 47.6939 32.6777 47.5488 32.8148 47.4519C32.4594 47.6922 32.3984 47.8801 32.6878 48.6687C32.5852 48.4112 32.5373 48.1351 32.5474 47.8581Z" fill="white"/>
<path d="M34.0536 44.4345C34.0536 44.4345 33.9368 44.3837 33.7371 44.3058L33.6897 44.2957C33.8183 44.3397 33.9419 44.3888 34.0536 44.4345Z" fill="white"/>
<path d="M32.8588 49.2627C32.8734 49.336 32.8841 49.41 32.8909 49.4844C32.8909 49.4641 32.8909 49.4438 32.8909 49.4235C32.8825 49.3728 32.8706 49.3186 32.8588 49.2627Z" fill="white"/>
<path d="M36.912 52.2938L36.7241 51.1193L36.2063 51.2479V51.1091L36.7021 50.9906L36.5413 50.0091C36.7104 49.7817 36.8366 49.5253 36.9137 49.2526C36.893 49.1641 36.8443 49.0845 36.7749 49.0258C36.5422 48.8314 36.3223 48.6223 36.1166 48.3996C36.0289 48.3151 35.9511 48.2208 35.8847 48.1187C35.779 47.9851 35.7002 47.8322 35.6529 47.6686C35.6359 47.5907 35.6207 47.4993 35.6021 47.3775C35.5395 47.0915 35.487 46.7513 35.4092 46.3265C35.3356 46.0212 35.2271 45.7253 35.0859 45.4448C34.9225 45.1578 34.7133 44.8994 34.4665 44.6799C34.4225 44.646 34.3768 44.6122 34.3294 44.5817L34.2787 44.5512C34.2071 44.5091 34.133 44.4712 34.057 44.4378C33.9453 44.3921 33.8217 44.3448 33.6931 44.2991L33.622 44.2872C33.5751 44.2854 33.5284 44.293 33.4845 44.3095C33.4406 44.3261 33.4004 44.3513 33.3665 44.3837C33.3385 44.431 33.3201 44.4833 33.3123 44.5377C33.2429 44.9777 33.4494 46.076 33.4816 46.6396C33.4893 46.7059 33.4893 46.773 33.4816 46.8393C33.4801 46.8733 33.4738 46.9069 33.4629 46.9391C33.3749 47.2065 33.1059 47.2658 32.8334 47.4468C32.6963 47.5437 32.6008 47.6888 32.566 47.853C32.5547 48.1316 32.602 48.4095 32.7048 48.6687C32.7753 48.8607 32.8318 49.0575 32.874 49.2577C32.8859 49.3135 32.8977 49.3677 32.9045 49.4269C32.9045 49.3271 32.9045 49.2577 32.9045 49.2577C32.9045 49.2577 34.3684 49.52 34.9641 49.8331C35.0471 49.8741 35.1208 49.9317 35.1807 50.0023C35.4125 50.3222 35.5192 52.6948 35.5395 53.4259C35.5395 53.5613 35.5395 53.6409 35.5395 53.6409L36.433 53.0756H36.4415C36.4923 53.013 36.9577 52.6999 36.912 52.2938ZM35.1198 48.5097L34.7153 48.4233L34.15 48.3015H35.2687L35.1198 48.5097Z" fill="white"/>
<path d="M28.9968 48.4927L28.7903 48.4132C28.7762 48.4982 28.7688 48.5842 28.7683 48.6704C28.7684 49.0247 28.8827 49.3695 29.0943 49.6536C29.3059 49.9378 29.6034 50.1461 29.9428 50.2477V50.1901L30.6858 50.2257V50.2934C31.0468 50.2356 31.3782 50.059 31.6275 49.7917C31.8769 49.5244 32.03 49.1816 32.0627 48.8174C32.0953 48.4533 32.0055 48.0887 31.8077 47.7813C31.6098 47.4739 31.315 47.2413 30.9701 47.1202V47.2759L30.2272 47.2421L30.2373 47.0356C29.9908 47.0643 29.754 47.1484 29.5447 47.2818C29.3354 47.4152 29.1591 47.5943 29.029 47.8056L29.2456 47.8902L28.9968 48.4927ZM30.4167 47.5416C30.6404 47.5416 30.859 47.608 31.0449 47.7323C31.2309 47.8565 31.3758 48.0332 31.4613 48.2399C31.5468 48.4465 31.5691 48.6739 31.5253 48.8933C31.4816 49.1126 31.3737 49.314 31.2155 49.4721C31.0572 49.6301 30.8556 49.7377 30.6362 49.7811C30.4168 49.8245 30.1894 49.8019 29.9829 49.7161C29.7764 49.6302 29.5999 49.4851 29.4759 49.2989C29.3519 49.1128 29.2859 48.8941 29.2862 48.6704C29.2862 48.522 29.3155 48.3751 29.3723 48.238C29.4291 48.101 29.5124 47.9765 29.6174 47.8716C29.7224 47.7668 29.8471 47.6837 29.9842 47.6271C30.1213 47.5704 30.2683 47.5414 30.4167 47.5416Z" fill="#263238"/>
<path d="M35.1198 48.5012L35.2687 48.293H34.9979L35.0199 48.3979L34.9979 48.293H34.695L34.7153 48.4149L35.1198 48.5012Z" fill="#263238"/>
<path d="M34.7153 48.4149L34.695 48.293H34.1483L34.7153 48.4149Z" fill="#263238"/>
<path d="M36.1216 53.255C36.0418 53.3061 35.9544 53.3444 35.8627 53.3684C35.9116 53.3701 35.9603 53.3608 36.0051 53.3412C36.0499 53.3215 36.0897 53.2921 36.1216 53.255Z" fill="#263238"/>
<path d="M32.8824 49.7298C32.8832 49.7191 32.8832 49.7084 32.8824 49.6977C32.8858 49.7078 32.8858 49.7197 32.8824 49.7298Z" fill="#263238"/>
<path d="M32.8537 49.7975C32.7837 49.8831 32.6989 49.9554 32.6032 50.0108C32.7085 49.9703 32.7969 49.895 32.8537 49.7975Z" fill="#263238"/>
<path d="M35.0318 53.541C34.4902 52.9876 33.2192 51.4967 33.2192 51.4967L32.8808 49.7298C32.8763 49.7542 32.8664 49.7773 32.852 49.7975C32.7952 49.895 32.7069 49.9703 32.6015 50.0108C32.4678 50.1005 32.3121 50.1885 32.2038 50.2612C32.154 50.3269 32.1204 50.4035 32.1057 50.4846C32.14 50.8991 32.2253 51.3078 32.3595 51.7014C32.4052 51.8487 32.4509 51.9942 32.4915 52.1313C32.6608 52.639 32.8097 53.0587 32.8097 53.0587H32.8182C32.9214 53.0892 34.0959 53.4361 34.7424 53.6189L35.0318 53.541Z" fill="#263238"/>
<path d="M32.4932 52.1245C32.5797 52.44 32.686 52.7498 32.8114 53.0519C32.8114 53.0519 32.6625 52.6424 32.4932 52.1245Z" fill="#263238"/>
<path d="M32.8943 49.652C32.8984 49.5956 32.8984 49.5391 32.8943 49.4827C32.8987 49.5645 32.8987 49.6464 32.8943 49.7281C32.8943 49.718 32.8943 49.7061 32.8943 49.696C32.8952 49.6813 32.8952 49.6666 32.8943 49.652Z" fill="#263238"/>
<path d="M32.2055 50.2629C32.1712 50.2837 32.1384 50.3069 32.1074 50.3323C31.972 50.4491 32.17 51.0922 32.3612 51.7031C32.227 51.3095 32.1417 50.9008 32.1074 50.4863C32.1221 50.4052 32.1557 50.3286 32.2055 50.2629Z" fill="#263238"/>
<path d="M35.1587 49.9871C35.0988 49.9164 35.0251 49.8588 34.942 49.8178L35.5174 53.4039C35.4904 52.6796 35.3905 50.3069 35.1587 49.9871Z" fill="#263238"/>
<path d="M32.8943 49.652C32.9051 49.5762 32.9051 49.4993 32.8943 49.4235C32.8943 49.4438 32.8943 49.4641 32.8943 49.4844C32.8983 49.5402 32.8983 49.5962 32.8943 49.652Z" fill="#263238"/>
<path d="M35.0097 53.7729L35.3973 53.6662C35.5174 53.8084 35.5496 53.6222 35.5496 53.6222L34.942 49.8246C34.3548 49.5115 32.8824 49.2475 32.8824 49.2475C32.8824 49.2475 32.8824 49.322 32.8824 49.4167C32.8933 49.4925 32.8933 49.5694 32.8824 49.6452C32.8824 49.6644 32.8824 49.6796 32.8824 49.6909C32.8832 49.7016 32.8832 49.7124 32.8824 49.7231L33.2209 51.4899C33.2209 51.4899 34.4682 53.2195 35.0097 53.7729Z" fill="#263238"/>
<path d="M32.8943 49.652C32.8953 49.6674 32.8953 49.6828 32.8943 49.6983C32.8932 49.6857 32.8932 49.6703 32.8943 49.652Z" fill="#263238"/>
<path d="M36.2029 51.1074V51.2479L36.7207 51.1193L36.6987 50.9889L36.2029 51.1074Z" fill="#263238"/>
<path d="M36.6987 50.9889L36.7207 51.1193L36.6987 50.9889Z" fill="#263238"/>
<path d="M30.4167 49.8009C30.6403 49.8009 30.8588 49.7346 31.0448 49.6104C31.2307 49.4862 31.3756 49.3096 31.4611 49.103C31.5467 48.8965 31.5691 48.6692 31.5255 48.4499C31.4818 48.2306 31.3742 48.0291 31.2161 47.871C31.058 47.7129 30.8565 47.6053 30.6372 47.5616C30.4179 47.518 30.1906 47.5404 29.9841 47.626C29.7775 47.7115 29.6009 47.8564 29.4767 48.0423C29.3525 48.2283 29.2862 48.4468 29.2862 48.6704C29.2862 48.8189 29.3154 48.9659 29.3722 49.103C29.4291 49.2402 29.5123 49.3648 29.6173 49.4698C29.7223 49.5748 29.8469 49.658 29.9841 49.7149C30.1212 49.7717 30.2682 49.8009 30.4167 49.8009ZM30.4167 47.9241C30.5642 47.9244 30.7084 47.9685 30.8309 48.0507C30.9534 48.1329 31.0488 48.2496 31.105 48.386C31.1612 48.5224 31.1758 48.6724 31.1468 48.8171C31.1178 48.9617 31.0466 49.0945 30.9421 49.1987C30.8377 49.303 30.7047 49.3739 30.56 49.4025C30.4152 49.4312 30.2653 49.4163 30.129 49.3598C29.9927 49.3032 29.8763 49.2076 29.7943 49.0849C29.7124 48.9622 29.6687 48.818 29.6687 48.6704C29.6691 48.4723 29.7481 48.2825 29.8884 48.1426C30.0286 48.0027 30.2186 47.9241 30.4167 47.9241Z" fill="white" stroke="#263238" stroke-width="0.5" stroke-miterlimit="10"/>
<path d="M30.4167 49.4167C30.5642 49.4164 30.7084 49.3724 30.8309 49.2901C30.9534 49.2079 31.0488 49.0913 31.105 48.9549C31.1612 48.8185 31.1758 48.6684 31.1468 48.5238C31.1178 48.3791 31.0466 48.2463 30.9421 48.1421C30.8377 48.0379 30.7047 47.967 30.56 47.9383C30.4153 47.9096 30.2653 47.9245 30.129 47.9811C29.9927 48.0376 29.8763 48.1333 29.7943 48.256C29.7124 48.3787 29.6687 48.5229 29.6687 48.6704C29.6687 48.7686 29.688 48.8658 29.7256 48.9564C29.7633 49.0471 29.8184 49.1294 29.8879 49.1987C29.9573 49.2681 30.0398 49.323 30.1306 49.3604C30.2213 49.3978 30.3185 49.417 30.4167 49.4167Z" fill="white" stroke="#263238" stroke-width="0.5" stroke-miterlimit="10"/>
<path d="M30.9701 47.1202L30.9938 46.6294L30.2508 46.5939L30.2305 47.0356C30.294 47.0282 30.3579 47.0242 30.4218 47.0238C30.6087 47.0243 30.7942 47.0569 30.9701 47.1202Z" fill="#263238"/>
<path d="M30.9582 47.2759V47.1202C30.7823 47.0569 30.5969 47.0243 30.4099 47.0238C30.346 47.0242 30.2822 47.0282 30.2187 47.0356L30.2085 47.2421L30.9582 47.2759Z" fill="#263238"/>
<path d="M29.9428 50.2477L29.9158 50.8383L30.6587 50.8722L30.6858 50.2934C30.597 50.3095 30.507 50.318 30.4167 50.3188C30.2561 50.3187 30.0964 50.2947 29.9428 50.2477Z" fill="#263238"/>
<path d="M29.9547 50.1901V50.2477C30.1082 50.2947 30.2679 50.3187 30.4285 50.3188C30.5188 50.318 30.6088 50.3095 30.6976 50.2934V50.2257L29.9547 50.1901Z" fill="#263238"/>
<path d="M29.0171 47.8056L28.5416 47.6195L28.3046 48.2219L28.7903 48.4132C28.8246 48.1976 28.9017 47.991 29.0171 47.8056Z" fill="#263238"/>
<path d="M28.9968 48.4927L29.2337 47.8902L29.0171 47.8056C28.9018 47.991 28.8247 48.1976 28.7903 48.4132L28.9968 48.4927Z" fill="#263238"/>
<path d="M27.9425 51.4273L28.3317 50.9889C28.3317 50.9889 27.7885 46.0811 28.1016 45.4414C28.4146 44.8017 30.4235 43.9183 30.6587 43.6543" stroke="#263238" stroke-width="0.5" stroke-linecap="round" stroke-linejoin="round"/>
<path d="M21.5132 61.094L21.344 63.6173C21.344 63.6173 23.3173 64.5582 24.9132 64.4635C25.9852 64.3791 27.0387 64.1355 28.0389 63.7408C28.0389 63.7408 27.9933 62.8439 27.7005 62.5206C27.4077 62.1974 27.0354 61.7777 26.2112 61.8556C25.387 61.9334 23.7624 62.0569 22.8587 61.6863C21.9549 61.3157 21.5132 61.094 21.5132 61.094Z" fill="white"/>
<path d="M32.8114 53.0587C32.8114 53.0587 31.9331 50.6759 32.1074 50.3306C32.2817 49.9854 32.7251 50.246 32.8892 49.6977C33.0534 49.1494 32.4306 48.3929 32.5508 47.8581C32.6709 47.3233 33.3614 47.2844 33.4477 47.0542C33.534 46.8241 33.292 45.5446 33.2785 44.844C33.2649 44.1434 33.6169 44.2838 33.6169 44.2838" stroke="#263238" stroke-width="0.5" stroke-linecap="round" stroke-linejoin="round"/>
<path d="M30.7704 51.4797L32.3798 52.859C32.6845 53.1196 34.871 53.8016 35.2298 53.7221C35.5885 53.6426 36.7326 52.947 36.8849 52.595C37.0372 52.243 36.5464 50.0074 36.5464 50.0074C36.7257 49.8425 36.8577 49.6328 36.9289 49.3998C37.0491 49.0072 36.78 49.0241 36.3823 48.6653C35.8883 48.2087 35.5808 47.5853 35.5192 46.9154C35.4142 46.0693 35.1198 45.1029 34.062 44.4345C33.0043 43.766 30.2932 43.5612 28.9562 43.5697C27.6192 43.5781 26.8509 44.1163 26.2484 45.0928C25.646 46.0693 24.9504 48.8058 25.3853 49.7349C25.8203 50.664 27.186 50.6251 27.6057 50.9923C27.8639 51.2432 28.018 51.5822 28.0373 51.9417C28.0373 51.9417 28.281 54.0453 28.1083 54.8187C27.4337 55.7771 26.4843 56.5083 25.3853 56.9156C23.6084 57.5384 22.4136 57.8853 21.9769 58.569C21.5403 59.2527 21.344 63.6173 21.344 63.6173C21.344 63.6173 23.6845 64.7529 25.4767 64.4262C27.2689 64.0996 28.1473 63.4887 29.9987 63.4904C31.8501 63.4921 34.2296 63.8762 35.8102 63.0707C37.3909 62.2651 38.8074 61.3529 39.7771 61.3546C39.7771 61.3546 39.4843 56.9917 37.4908 56.0982C35.4972 55.2046 34.8811 56.0203 32.984 54.9609" stroke="#263238" stroke-width="0.5" stroke-linecap="round" stroke-linejoin="round"/>
<path d="M35.0825 48.3539L35.0317 47.9038" stroke="#263238" stroke-width="0.5" stroke-linecap="round" stroke-linejoin="round"/>
<path d="M34.6171 53.6476C34.6171 53.6476 33.1989 53.954 33.0432 54.2687C32.9255 54.5734 32.8476 54.8919 32.8114 55.2164" stroke="#263238" stroke-width="0.5" stroke-linecap="round" stroke-linejoin="round"/>
<path d="M21.5132 61.094C21.5132 61.094 23.6794 62.3193 25.8507 61.9216C27.6311 61.5966 28.0406 63.0656 28.1591 63.6951" stroke="#263238" stroke-width="0.5" stroke-linecap="round" stroke-linejoin="round"/>
<path d="M21.8991 61.9808C21.9383 61.9808 21.9702 61.949 21.9702 61.9097C21.9702 61.8705 21.9383 61.8386 21.8991 61.8386C21.8598 61.8386 21.828 61.8705 21.828 61.9097C21.828 61.949 21.8598 61.9808 21.8991 61.9808Z" fill="#263238"/>
<path d="M26.6343 62.3937C26.6343 62.4078 26.6301 62.4215 26.6223 62.4332C26.6145 62.4449 26.6034 62.454 26.5904 62.4594C26.5774 62.4648 26.5631 62.4662 26.5493 62.4634C26.5356 62.4607 26.5229 62.4539 26.5129 62.444C26.503 62.434 26.4962 62.4214 26.4935 62.4076C26.4907 62.3938 26.4922 62.3795 26.4975 62.3665C26.5029 62.3535 26.512 62.3424 26.5237 62.3346C26.5354 62.3268 26.5491 62.3226 26.5632 62.3226C26.5821 62.3226 26.6001 62.3301 26.6135 62.3435C26.6268 62.3568 26.6343 62.3749 26.6343 62.3937Z" fill="#263238"/>
<path d="M27.8054 48.9547C27.8054 48.9736 27.7979 48.9917 27.7846 49.005C27.7712 49.0183 27.7532 49.0258 27.7343 49.0258C27.725 49.0258 27.7157 49.024 27.7071 49.0204C27.6985 49.0168 27.6907 49.0116 27.6841 49.005C27.6775 48.9984 27.6722 48.9906 27.6686 48.9819C27.6651 48.9733 27.6632 48.9641 27.6632 48.9547C27.6632 48.9454 27.6651 48.9362 27.6686 48.9275C27.6722 48.9189 27.6775 48.9111 27.6841 48.9045C27.6907 48.8979 27.6985 48.8926 27.7071 48.8891C27.7157 48.8855 27.725 48.8837 27.7343 48.8837C27.7532 48.8837 27.7712 48.8911 27.7846 48.9045C27.7979 48.9178 27.8054 48.9359 27.8054 48.9547Z" fill="#263238"/>
<path d="M27.6785 47.3538C27.6785 47.3726 27.671 47.3907 27.6577 47.404C27.6443 47.4174 27.6262 47.4248 27.6074 47.4248C27.5885 47.4248 27.5705 47.4174 27.5571 47.404C27.5438 47.3907 27.5363 47.3726 27.5363 47.3538C27.5363 47.3349 27.5438 47.3168 27.5571 47.3035C27.5705 47.2902 27.5885 47.2827 27.6074 47.2827C27.6262 47.2827 27.6443 47.2902 27.6577 47.3035C27.671 47.3168 27.6785 47.3349 27.6785 47.3538Z" fill="#263238"/>
<path d="M27.8054 49.8957C27.8446 49.8957 27.8765 49.8639 27.8765 49.8246C27.8765 49.7853 27.8446 49.7535 27.8054 49.7535C27.7661 49.7535 27.7343 49.7853 27.7343 49.8246C27.7343 49.8639 27.7661 49.8957 27.8054 49.8957Z" fill="#263238"/>
<path d="M27.7343 48.1492C27.7343 48.1632 27.7302 48.177 27.7223 48.1887C27.7145 48.2003 27.7034 48.2095 27.6904 48.2148C27.6775 48.2202 27.6632 48.2216 27.6494 48.2189C27.6356 48.2161 27.6229 48.2094 27.613 48.1994C27.603 48.1895 27.5963 48.1768 27.5935 48.163C27.5908 48.1492 27.5922 48.135 27.5976 48.122C27.603 48.109 27.6121 48.0979 27.6238 48.0901C27.6354 48.0823 27.6492 48.0781 27.6632 48.0781C27.6821 48.0781 27.7002 48.0856 27.7135 48.0989C27.7268 48.1122 27.7343 48.1303 27.7343 48.1492Z" fill="#263238"/>
<path d="M27.5922 46.6599C27.6314 46.6599 27.6632 46.6281 27.6632 46.5888C27.6632 46.5496 27.6314 46.5177 27.5922 46.5177C27.5529 46.5177 27.5211 46.5496 27.5211 46.5888C27.5211 46.6281 27.5529 46.6599 27.5922 46.6599Z" fill="#263238"/>
<path d="M27.4805 63.2941C27.4805 63.3129 27.473 63.331 27.4597 63.3443C27.4463 63.3577 27.4282 63.3651 27.4094 63.3651C27.3922 63.3625 27.3765 63.3538 27.3652 63.3406C27.3539 63.3274 27.3477 63.3106 27.3477 63.2932C27.3477 63.2758 27.3539 63.259 27.3652 63.2458C27.3765 63.2326 27.3922 63.2239 27.4094 63.2213C27.4189 63.2213 27.4283 63.2232 27.437 63.2269C27.4457 63.2305 27.4536 63.2359 27.4603 63.2427C27.4669 63.2495 27.4721 63.2575 27.4756 63.2663C27.479 63.2752 27.4807 63.2846 27.4805 63.2941Z" fill="#263238"/>
<path d="M27.1691 62.7864C27.1687 62.8003 27.1643 62.8139 27.1563 62.8254C27.1483 62.8368 27.137 62.8457 27.124 62.8508C27.111 62.8559 27.0968 62.8571 27.0831 62.8542C27.0694 62.8512 27.0569 62.8443 27.0471 62.8343C27.0374 62.8243 27.0308 62.8117 27.0282 62.7979C27.0256 62.7842 27.0271 62.77 27.0325 62.7571C27.0379 62.7442 27.047 62.7332 27.0587 62.7254C27.0703 62.7177 27.084 62.7136 27.098 62.7136C27.1075 62.7136 27.1168 62.7155 27.1256 62.7191C27.1343 62.7228 27.1422 62.7282 27.1488 62.735C27.1555 62.7418 27.1607 62.7498 27.1641 62.7586C27.1676 62.7675 27.1693 62.7769 27.1691 62.7864Z" fill="#263238"/>
<path d="M66.9953 45.1977C71.2975 45.1977 74.7852 41.7101 74.7852 37.4078C74.7852 33.1056 71.2975 29.6179 66.9953 29.6179C62.693 29.6179 59.2054 33.1056 59.2054 37.4078C59.2054 41.7101 62.693 45.1977 66.9953 45.1977Z" fill="#263238"/>
<path d="M77.6368 42.8504L74.907 50.3307L62.8507 47.496L61.2954 46.7733L61.3073 46.7463L65.9342 36.2892L68.075 37.4891L77.6368 42.8504Z" fill="white"/>
<path d="M68.075 37.4891L63.4972 47.1101C62.4225 47.1575 61.7388 46.995 61.3073 46.7463L65.9341 36.2892L68.075 37.4891Z" fill="#BA68C8"/>
<path d="M77.6368 42.8504L74.907 50.3307L62.8507 47.4943L61.2954 46.7716L65.9342 36.2892L77.6368 42.8504Z" stroke="#263238" stroke-width="0.5" stroke-linecap="round" stroke-linejoin="round"/>
<path d="M64.318 41.2766C64.318 41.2766 66.6873 45.6411 70.3834 46.3672C74.0795 47.0932 76.6332 43.5595 76.6332 43.5595L66.7042 38.8666L64.318 41.2766Z" fill="#BA68C8"/>
<path d="M31.114 43.0112L33.6186 40.1004L32.2901 39.5436L32.0261 40.1088L31.114 43.0112Z" fill="white"/>
<path d="M39.701 45.0285L38.0509 47.7177L40.6149 45.8815L41.0142 45.4499L39.7873 44.624L39.701 45.0285Z" fill="white"/>
<path d="M61.9402 45.4956L62.189 44.7628L61.815 46.3469L63.5073 47.1101C63.5073 47.1101 66.5383 46.4112 69.4813 47.5298C72.4244 48.6485 67.2999 51.143 67.2999 51.143L63.5073 52.4072L59.3035 52.2701L59.9805 49.0919C59.9805 49.0919 60.5102 46.2013 61.9402 45.4956Z" fill="#263238"/>
<path d="M74.4163 65.858C73.6767 67.6299 72.8034 69.3037 70.9554 70.1211C69.263 70.8691 65.7311 71.4225 62.9099 70.8758C62.41 70.784 61.9199 70.6452 61.4461 70.4612C59.5235 69.7014 56.1321 67.2965 53.9337 65.2725C52.7829 64.213 51.9604 63.2586 51.8436 62.6967C51.6101 61.5713 53.3447 57.6044 55.2283 54.1757C55.9737 52.7905 56.8022 51.4516 57.7093 50.1665C60.0922 46.8969 61.8268 45.5971 61.8268 45.5971C61.8268 45.5971 59.4118 49.0157 60.913 50.0362C62.4141 51.0567 65.5416 47.5857 68.7418 47.4977C70.1735 47.4604 71.8913 48.0731 73.3518 48.7602C74.4653 49.2883 75.5399 49.8952 76.5672 50.5761C77.2831 55.6616 76.3879 61.1347 74.4163 65.858Z" fill="white"/>
<path d="M67.3557 51.7861C67.1594 52.1246 66.975 52.463 66.8007 52.8133C64.1076 58.1189 62.4734 63.8981 61.9893 69.8283" stroke="#263238" stroke-width="0.5" stroke-linecap="round" stroke-linejoin="round"/>
<path d="M70.7202 48.5401C69.7623 48.8786 68.9906 49.5386 68.3509 50.3307" stroke="#263238" stroke-width="0.5" stroke-linecap="round" stroke-linejoin="round"/>
<path d="M74.4163 65.858C73.6767 67.6299 72.8034 69.3036 70.9554 70.1211C69.263 70.8691 65.7311 71.4225 62.9099 70.8758C62.475 66.3539 66.4063 53.8812 68.6419 51.1735C70.9368 48.3946 73.3382 48.7568 73.3382 48.7568C74.4518 49.285 75.5263 49.8918 76.5537 50.5727C77.2831 55.6616 76.3878 61.1347 74.4163 65.858Z" fill="#BA68C8"/>
<path d="M47.4249 28.9291C45.7833 27.7834 43.8862 27.6683 43.194 28.6719L39.4319 34.6154L43.8523 37.8309C43.8523 37.8309 49.0191 32.9739 49.1291 32.8148C49.8297 31.8163 49.0665 30.0749 47.4249 28.9291Z" fill="#263238"/>
<path d="M43.8591 37.704C43.3378 38.452 41.9247 38.3657 40.7011 37.5128C39.4776 36.6598 38.9106 35.3702 39.4319 34.6154C39.9531 33.8607 41.3662 33.9537 42.5898 34.8067C43.8134 35.6596 44.3803 36.9577 43.8591 37.704Z" fill="white" stroke="#263238" stroke-width="0.5" stroke-linecap="round" stroke-linejoin="round"/>
<path d="M40.4134 40.1004L40.8754 39.4268L38.1338 37.5635L37.6414 38.1812" fill="white"/>
<path d="M40.4134 40.1004L40.8754 39.4268L38.1338 37.5635L37.6414 38.1812" stroke="#263238" stroke-width="0.5" stroke-linecap="round" stroke-linejoin="round"/>
<path d="M39.7534 44.9439L37.9494 47.7904L40.7418 45.7918" stroke="#263238" stroke-width="0.5" stroke-linecap="round" stroke-linejoin="round"/>
<path d="M33.336 40.4202L31.0344 43.1043L32.1581 39.8313" stroke="#263238" stroke-width="0.5" stroke-linecap="round" stroke-linejoin="round"/>
<path d="M41.9704 35.3702C41.0887 34.7559 40.0242 34.7339 39.6485 35.2721L39.1577 35.685L39.6197 36.081C39.81 36.5881 40.1568 37.0213 40.6098 37.3181C40.9423 37.5562 41.323 37.7186 41.725 37.7937L42.2226 38.2709C42.2226 38.2709 42.8403 37.5195 42.8843 37.4569C43.2515 36.9238 42.842 35.9896 41.9704 35.3702Z" fill="#263238"/>
<path d="M42.3952 37.9798C42.0195 38.518 41.0024 38.4571 40.1224 37.8428C39.2423 37.2284 38.8311 36.2943 39.2068 35.7561C39.5825 35.2179 40.6013 35.2805 41.4813 35.8949C42.3613 36.5092 42.7709 37.4417 42.3952 37.9798Z" fill="white" stroke="#263238" stroke-width="0.5" stroke-linecap="round" stroke-linejoin="round"/>
<path d="M41.3189 37.0051L40.0191 38.8666L39.0156 38.1677L40.2781 36.3637C40.4772 36.3261 40.6832 36.3577 40.8619 36.4533C40.9738 36.5063 41.0727 36.5831 41.1517 36.6785C41.2306 36.7738 41.2877 36.8853 41.3189 37.0051Z" fill="#263238"/>
<path d="M40.2781 41.2647L40.9025 40.4355L37.1387 37.8292L36.5701 38.6957L32.5203 39.1797L32.148 39.7805L33.3326 40.4185C34.5833 40.3847 35.8119 40.8315 36.8866 41.4526C37.9121 42.0483 38.8226 42.7912 39.3608 43.8692C39.4412 44.0286 39.5124 44.1925 39.574 44.36C39.618 44.4734 39.6586 44.8102 39.7433 44.8847L40.7468 45.7918L41.1868 45.2401L40.2781 41.2647Z" fill="white" stroke="#263238" stroke-width="0.5" stroke-linecap="round" stroke-linejoin="round"/>
<path d="M37.379 38.8345L36.3129 40.3322L38.7295 42.0584L39.7873 40.5556L37.379 38.8345Z" fill="#BA68C8" stroke="#263238" stroke-width="0.5" stroke-linecap="round" stroke-linejoin="round"/>
<path d="M68.6013 35.4921C68.1506 36.5372 67.6039 37.5383 66.9682 38.4825C64.8798 41.6167 62.3498 43.6002 61.3157 42.9114L54.5548 38.4165L61.094 28.5805L61.5239 27.9357L68.7096 31.4778C68.7656 31.4992 68.8195 31.5258 68.8704 31.5574C69.5727 32.0211 69.4137 33.573 68.6013 35.4921Z" fill="white"/>
<path d="M68.6013 35.4921L67.8871 35.1248L64.1961 32.9129L63.9236 31.026L61.6847 29.7432L61.094 28.5805L61.5239 27.9357L68.7096 31.4778C68.7656 31.4992 68.8194 31.5258 68.8704 31.5574C69.5727 32.0211 69.4136 33.573 68.6013 35.4921Z" fill="#BA68C8"/>
<path d="M58.4235 40.9855C60.2986 39.6587 64.8138 35.8509 65.1929 29.7432" stroke="#263238" stroke-width="0.5" stroke-linecap="round" stroke-linejoin="round"/>
<path d="M68.8789 31.5574C68.8256 31.5246 68.7688 31.4979 68.7096 31.4778L61.5239 27.9357L54.5548 38.4165L61.3157 42.9181C62.3498 43.6069 64.8798 41.6235 66.9682 38.4876C69.0566 35.3516 69.9112 32.2462 68.8789 31.5574Z" stroke="#263238" stroke-width="0.5" stroke-linecap="round" stroke-linejoin="round"/>
<path d="M59.7689 34.3227C57.843 37.2149 55.5093 39.0443 54.5548 38.4165C53.6003 37.7886 54.3855 34.9218 56.3148 32.0295C58.2441 29.1373 60.5863 27.2469 61.5459 27.8799C62.5055 28.5128 61.6965 31.4304 59.7689 34.3227Z" fill="#263238"/>
<path d="M60.5288 31.2595C60.1925 32.1099 59.7641 32.9209 59.251 33.6779C57.7804 35.8779 55.9966 37.2843 55.2689 36.7986C55.1742 36.7377 50.5523 33.5577 50.5523 33.5577L55.3062 26.2891L55.3468 26.3077L60.4814 28.7447C60.5212 28.7588 60.5593 28.7776 60.5948 28.8005C61.0449 29.1085 60.9874 30.0562 60.5288 31.2595Z" fill="white"/>
<path d="M60.5288 31.2595L58.4235 30.1324L57.6535 28.8022L55.599 27.7546L55.34 26.3111L60.4746 28.7481C60.5145 28.7622 60.5525 28.7809 60.588 28.8039C61.045 29.1085 60.9874 30.0562 60.5288 31.2595Z" fill="#BA68C8"/>
<path d="M53.0909 35.2484C54.1469 34.5714 57.7229 32.1192 57.7601 27.5177" stroke="#263238" stroke-width="0.5" stroke-linecap="round" stroke-linejoin="round"/>
<path d="M56.6939 36.5092L55.1573 35.465C55.1573 35.465 55.868 34.8202 56.5111 34.1974L58.0512 35.2128L56.6939 36.5092Z" fill="#BA68C8"/>
<path d="M60.5288 31.2595C60.1925 32.1099 59.7641 32.9209 59.251 33.6779C57.7804 35.8779 55.9966 37.2843 55.2689 36.7986C55.1742 36.7377 50.5523 33.5577 50.5523 33.5577L55.3062 26.2891L55.3468 26.3077L60.4814 28.7447C60.5212 28.7588 60.5593 28.7776 60.5948 28.8005C61.0449 29.1085 60.9874 30.0562 60.5288 31.2595Z" stroke="#263238" stroke-width="0.5" stroke-linecap="round" stroke-linejoin="round"/>
<path d="M54.1784 30.7514C55.5352 28.714 56.0902 26.6994 55.418 26.2518C54.7458 25.8042 53.1011 27.0931 51.7443 29.1306C50.3875 31.168 49.8325 33.1826 50.5047 33.6302C51.1769 34.0778 52.8216 32.7889 54.1784 30.7514Z" fill="#263238"/>
<path d="M53.3415 30.383C54.42 28.7554 54.8591 27.1477 54.3223 26.7919C53.7854 26.4362 52.4759 27.4672 51.3974 29.0948C50.3189 30.7223 49.8798 32.3301 50.4166 32.6859C50.9535 33.0416 52.263 32.0106 53.3415 30.383Z" fill="white" stroke="#263238" stroke-width="0.5" stroke-linecap="round" stroke-linejoin="round"/>
<path d="M71.3209 44.421C75.0007 44.421 77.9837 41.4379 77.9837 37.7582C77.9837 34.0784 75.0007 31.0954 71.3209 31.0954C67.6411 31.0954 64.6581 34.0784 64.6581 37.7582C64.6581 41.4379 67.6411 44.421 71.3209 44.421Z" fill="#263238"/>
<path d="M72.597 45.1537C76.2767 45.1537 79.2598 42.1707 79.2598 38.4909C79.2598 34.8112 76.2767 31.8281 72.597 31.8281C68.9172 31.8281 65.9342 34.8112 65.9342 38.4909C65.9342 42.1707 68.9172 45.1537 72.597 45.1537Z" fill="white" stroke="#263238" stroke-width="0.5" stroke-linecap="round" stroke-linejoin="round"/>
<path d="M76.7188 38.8324C77.1901 36.8165 75.938 34.8002 73.9221 34.3289C71.9062 33.8575 69.8899 35.1096 69.4186 37.1255C68.9472 39.1415 70.1993 41.1578 72.2152 41.6291C74.2312 42.1005 76.2475 40.8483 76.7188 38.8324Z" fill="#BA68C8"/>
<path d="M72.597 42.099C74.5897 42.099 76.2051 40.4836 76.2051 38.4909C76.2051 36.4982 74.5897 34.8828 72.597 34.8828C70.6043 34.8828 68.9889 36.4982 68.9889 38.4909C68.9889 40.4836 70.6043 42.099 72.597 42.099Z" fill="white" stroke="#263238" stroke-width="0.5" stroke-linecap="round" stroke-linejoin="round"/>
<path d="M74.2386 38.4909C74.2389 38.8157 74.1429 39.1332 73.9627 39.4034C73.7825 39.6736 73.5263 39.8843 73.2263 40.0088C72.9264 40.1333 72.5963 40.166 72.2778 40.1029C71.9592 40.0397 71.6665 39.8835 71.4368 39.654C71.207 39.4245 71.0505 39.132 70.9871 38.8135C70.9236 38.495 70.956 38.1649 71.0802 37.8648C71.2044 37.5648 71.4148 37.3083 71.6848 37.1278C71.9548 36.9474 72.2722 36.851 72.597 36.851C73.032 36.851 73.4493 37.0238 73.7571 37.3313C74.065 37.6387 74.2381 38.0559 74.2386 38.4909Z" fill="#263238"/>
<path d="M54.3923 58.344L55.2046 60.2479C55.2046 60.2479 54.24 63.0792 53.9337 65.2792C52.7829 64.2198 51.9604 63.2653 51.8436 62.7035C51.6101 61.5781 53.3447 57.6112 55.2283 54.1825L56.0187 54.7105C56.0187 54.7105 54.8696 56.9512 54.3923 58.344Z" fill="#BA68C8"/>
<path d="M73.279 38.4909C73.2789 38.8429 73.1659 39.1856 72.9566 39.4685C72.7474 39.7515 72.4528 39.9599 72.1163 40.0631C71.7796 39.9607 71.4848 39.7528 71.2752 39.47C71.0657 39.1872 70.9526 38.8446 70.9526 38.4926C70.9526 38.1407 71.0657 37.7981 71.2752 37.5153C71.4848 37.2325 71.7796 37.0246 72.1163 36.9221C72.4527 37.0244 72.7473 37.2322 72.9566 37.5146C73.166 37.7971 73.279 38.1394 73.279 38.4909Z" fill="white" stroke="#263238" stroke-width="0.5" stroke-linecap="round" stroke-linejoin="round"/>
<path d="M76.5656 50.5744C76.5656 50.5744 71.9336 47.413 68.7333 47.4943C65.5331 47.5755 62.4056 51.0482 60.9045 50.0328C59.4034 49.0174 61.8184 45.5938 61.8184 45.5938C61.8184 45.5938 60.0837 46.9003 57.7009 50.1631C55.318 53.426 51.5018 61.0602 51.8436 62.695C52.1855 64.3298 58.5166 69.2952 61.446 70.4595C64.3755 71.6239 68.955 71.0045 70.9554 70.1211C72.8034 69.302 73.675 67.6299 74.4163 65.858C76.3879 61.1347 77.2831 55.6599 76.5656 50.5744Z" stroke="#263238" stroke-width="0.5" stroke-linecap="round" stroke-linejoin="round"/>
<path d="M52.9707 29.7432C52.6885 30.1783 52.2729 30.5102 51.7861 30.6892L47.699 28.286C47.439 28.1416 47.2359 27.9129 47.1233 27.6375C47.0107 27.3622 46.9953 27.0567 47.0796 26.7714C47.342 25.9641 48.4538 25.448 49.146 25.849L53.2077 28.5044L53.2483 28.5297C53.3244 28.8141 53.3447 29.1339 52.9707 29.7432Z" fill="#263238"/>
<path d="M49.8585 27.362C49.889 28.1997 50.2207 29.3776 49.5589 29.7956C49.2289 30.0038 48.156 29.7956 47.6652 29.7178C46.423 29.5181 45.3534 28.7802 45.3094 27.5177C45.2988 27.2185 45.3473 26.9201 45.4522 26.6396C45.5571 26.3592 45.7163 26.1022 45.9207 25.8833C46.125 25.6645 46.3706 25.4881 46.6432 25.3643C46.9159 25.2406 47.2102 25.1718 47.5095 25.162C48.4454 25.1298 50.4322 25.0486 50.8096 25.8389C50.9399 26.1198 49.8466 27.0405 49.8585 27.362Z" fill="#263238"/>
<path d="M51.523 27.7568C51.6531 26.5064 50.7449 25.3873 49.4946 25.2572C48.2442 25.1271 47.1251 26.0353 46.995 27.2857C46.8649 28.536 47.7731 29.6551 49.0235 29.7852C50.2738 29.9153 51.3929 29.0072 51.523 27.7568Z" fill="white" stroke="#263238" stroke-width="0.5" stroke-linecap="round" stroke-linejoin="round"/>
<path d="M49.498 29.1085C49.501 29.1453 49.493 29.1821 49.4749 29.2142C49.4568 29.2464 49.4294 29.2723 49.3964 29.2888C49.3634 29.3052 49.3262 29.3114 49.2896 29.3065C49.2531 29.3016 49.2188 29.2858 49.1913 29.2613C49.1638 29.2367 49.1443 29.2044 49.1353 29.1687C49.1263 29.1329 49.1282 29.0953 49.1408 29.0606C49.1534 29.0259 49.1762 28.9958 49.206 28.9742C49.2359 28.9526 49.2716 28.9404 49.3085 28.9393C49.3558 28.9374 49.4021 28.954 49.4375 28.9856C49.4728 29.0172 49.4945 29.0612 49.498 29.1085Z" fill="#263238"/>
<path d="M49.388 26.0251C49.3904 26.0727 49.374 26.1194 49.3423 26.1551C49.3107 26.1909 49.2664 26.2128 49.2188 26.2163C49.1934 26.2195 49.1676 26.2174 49.1431 26.2101C49.1185 26.2028 49.0958 26.1904 49.0763 26.1738C49.0568 26.1573 49.0409 26.1368 49.0298 26.1138C49.0186 26.0908 49.0123 26.0656 49.0114 26.0401C49.0104 26.0145 49.0148 25.989 49.0243 25.9652C49.0337 25.9414 49.048 25.9198 49.0663 25.9019C49.0845 25.8839 49.1063 25.8699 49.1302 25.8608C49.1541 25.8517 49.1797 25.8477 49.2052 25.8491C49.2526 25.849 49.2981 25.8673 49.3322 25.9002C49.3662 25.933 49.3863 25.9778 49.388 26.0251Z" fill="#263238"/>
<path d="M51.0685 27.3536C51.0715 27.3902 51.0635 27.427 51.0454 27.4591C51.0274 27.4912 51.0002 27.5171 50.9672 27.5336C50.9343 27.5501 50.8972 27.5563 50.8607 27.5515C50.8242 27.5468 50.79 27.5312 50.7624 27.5068C50.7348 27.4824 50.7152 27.4503 50.706 27.4146C50.6968 27.379 50.6985 27.3414 50.7109 27.3067C50.7232 27.2721 50.7457 27.2419 50.7753 27.2201C50.805 27.1982 50.8405 27.1858 50.8773 27.1843C50.9249 27.182 50.9716 27.1984 51.0074 27.23C51.0431 27.2616 51.065 27.306 51.0685 27.3536Z" fill="#263238"/>
<path d="M47.9512 27.4636C47.9542 27.5003 47.9462 27.5371 47.928 27.5693C47.9099 27.6014 47.8826 27.6274 47.8496 27.6438C47.8166 27.6603 47.7794 27.6664 47.7428 27.6615C47.7063 27.6566 47.672 27.6409 47.6445 27.6163C47.617 27.5917 47.5975 27.5595 47.5885 27.5237C47.5795 27.4879 47.5814 27.4503 47.594 27.4156C47.6066 27.381 47.6293 27.3509 47.6592 27.3292C47.6891 27.3076 47.7248 27.2955 47.7617 27.2943C47.809 27.2924 47.8553 27.309 47.8906 27.3406C47.926 27.3722 47.9477 27.4163 47.9512 27.4636Z" fill="#263238"/>
<path d="M49.9516 27.4957C49.9548 27.6326 49.9175 27.7674 49.8443 27.8831C49.7711 27.9988 49.6654 28.0903 49.5403 28.146C49.4152 28.2017 49.2765 28.2192 49.1415 28.1963C49.0065 28.1733 48.8813 28.1109 48.7817 28.0169C48.6822 27.923 48.6126 27.8017 48.5818 27.6682C48.551 27.5348 48.5604 27.3953 48.6087 27.2672C48.6571 27.1391 48.7422 27.0282 48.8535 26.9484C48.9648 26.8686 49.0972 26.8235 49.234 26.8188C49.3257 26.8156 49.4171 26.8307 49.5029 26.8631C49.5888 26.8955 49.6673 26.9446 49.734 27.0075C49.8008 27.0705 49.8544 27.146 49.8917 27.2298C49.929 27.3136 49.9494 27.404 49.9516 27.4957Z" fill="#263238"/>
</svg>
