<svg width="100" height="100" viewBox="0 0 100 100" fill="none" xmlns="http://www.w3.org/2000/svg">
<path d="M72.9997 35.9447C72.9639 29.8236 70.5064 23.9674 66.1678 19.6645C61.8292 15.3616 55.965 12.9645 49.8651 13.0004C43.7652 13.0363 37.9293 15.5024 33.6414 19.8561C29.3534 24.2098 26.9646 30.0945 27.0004 36.2156C27.0537 45.4643 34.4236 51.6825 39.1036 58.9777C40.5535 61.2355 40.4369 69.7182 40.4369 69.7182L59.9533 69.6044C59.9533 69.6044 59.7465 61.1251 61.1666 58.8473C65.7565 51.4985 73.053 45.1933 72.9997 35.9447Z" fill="#8946A6"/>
<path opacity="0.5" d="M72.9997 35.9447C72.9639 29.8236 70.5064 23.9674 66.1678 19.6645C61.8292 15.3616 55.965 12.9645 49.8651 13.0004C43.7652 13.0363 37.9293 15.5024 33.6414 19.8561C29.3534 24.2098 26.9646 30.0945 27.0004 36.2156C27.0537 45.4643 34.4236 51.6825 39.1036 58.9777C40.5535 61.2355 40.4369 69.7182 40.4369 69.7182L59.9533 69.6044C59.9533 69.6044 59.7465 61.1251 61.1666 58.8473C65.7565 51.4985 73.053 45.1933 72.9997 35.9447Z" fill="white"/>
<path opacity="0.3" d="M70.2664 31.6798C70.2664 46.21 61.2266 62.687 50.0401 62.697C38.8535 62.707 29.767 44.3001 29.757 31.7165C29.757 23.963 38.8136 17.668 50.0001 17.668C61.1865 17.668 70.2597 23.9263 70.2664 31.6798Z" fill="white"/>
<path opacity="0.4" d="M63.1465 45.8354C63.1492 48.4243 62.3867 50.9558 60.9556 53.1097C59.5244 55.2637 57.4889 56.9433 55.1064 57.9364C52.7239 58.9293 50.1014 59.1911 47.5707 58.6883C45.04 58.1856 42.7147 56.9411 40.8887 55.1121C39.0629 53.2832 37.8186 50.952 37.3131 48.4134C36.8076 45.8748 37.0637 43.2427 38.049 40.8501C39.0343 38.4576 40.7045 36.4119 42.8483 34.9719C44.9923 33.5319 47.5136 32.7623 50.0934 32.7603C51.8061 32.7585 53.5023 33.0954 55.0853 33.7516C56.6683 34.4077 58.1069 35.3704 59.319 36.5845C60.5311 37.7988 61.4931 39.2407 62.1498 40.828C62.8065 42.4153 63.1453 44.1168 63.1465 45.8354Z" fill="white"/>
<path opacity="0.4" d="M59.1666 49.1472C59.1666 54.2247 55.07 55.77 50.01 55.7768C44.9501 55.7834 40.8602 54.2415 40.8602 49.1639C40.8602 44.0863 44.9402 42.6079 50.0001 42.6079C55.06 42.6079 59.1633 44.0696 59.1666 49.1472Z" fill="white"/>
<path d="M55.4366 86.6235H44.4634L41.4168 82.623H58.4865L55.4366 86.6235Z" fill="#8946A6"/>
<path opacity="0.5" d="M55.4366 86.6235H44.4634L41.4168 82.623H58.4865L55.4366 86.6235Z" fill="white"/>
<path d="M39.4436 66.9619C39.4431 66.8666 39.4614 66.772 39.4973 66.6839C39.5333 66.5956 39.5862 66.5154 39.6531 66.4477C39.7199 66.38 39.7994 66.3261 39.887 66.2892C39.9746 66.2523 40.0685 66.2331 40.1636 66.2327L59.6666 66.1323C59.8578 66.1315 60.0417 66.2066 60.1779 66.3414C60.3141 66.4761 60.3915 66.6595 60.3932 66.8515C60.3941 66.947 60.3762 67.0416 60.3403 67.1301C60.3046 67.2184 60.2517 67.2989 60.1847 67.3667C60.1178 67.4345 60.0381 67.4883 59.9503 67.525C59.8625 67.5618 59.7684 67.5807 59.6732 67.5807L40.1702 67.6844C40.0752 67.6849 39.9811 67.6665 39.8931 67.6304C39.8053 67.5944 39.7252 67.5413 39.6578 67.4742C39.5903 67.407 39.5366 67.3273 39.4999 67.2394C39.4631 67.1515 39.444 67.0572 39.4436 66.9619Z" fill="#8946A6"/>
<path d="M62.1232 70.0025C62.1232 70.7122 61.8422 71.3928 61.3421 71.8947C60.8421 72.3965 60.1638 72.6784 59.4565 72.6784H56.7499C56.5525 72.7269 56.3499 72.7516 56.1466 72.752L40.5269 72.7787C39.8571 72.7346 39.2285 72.4387 38.7666 71.95C38.3047 71.4611 38.0434 70.8157 38.0351 70.1421C38.0267 69.4686 38.2716 68.8166 38.7212 68.3165C39.1707 67.8163 39.7917 67.5046 40.4602 67.4437H43.2268C43.4045 67.3986 43.5868 67.3739 43.7701 67.37H43.8301L59.4599 67.3433C60.1637 67.3441 60.8385 67.6242 61.3374 68.1223C61.8364 68.6205 62.1188 69.2962 62.1232 70.0025Z" fill="#8946A6"/>
<path d="M62.1232 70.0025C62.1232 70.7122 61.8422 71.3928 61.3421 71.8947C60.8421 72.3965 60.1638 72.6784 59.4565 72.6784H56.7499C56.5525 72.7269 56.3499 72.7516 56.1466 72.752L40.5269 72.7787C39.8571 72.7346 39.2285 72.4387 38.7666 71.95C38.3047 71.4611 38.0434 70.8157 38.0351 70.1421C38.0267 69.4686 38.2716 68.8166 38.7212 68.3165C39.1707 67.8163 39.7917 67.5046 40.4602 67.4437H43.2268C43.4045 67.3986 43.5868 67.3739 43.7701 67.37H43.8301L59.4599 67.3433C60.1637 67.3441 60.8385 67.6242 61.3374 68.1223C61.8364 68.6205 62.1188 69.2962 62.1232 70.0025Z" fill="#8946A6"/>
<g opacity="0.2">
<path opacity="0.2" d="M62.1232 70.0025C62.1232 70.7122 61.8422 71.3928 61.3421 71.8947C60.8421 72.3965 60.1638 72.6784 59.4565 72.6784H56.7499C56.5525 72.7269 56.3499 72.7516 56.1466 72.752L40.5269 72.7787C39.8571 72.7346 39.2285 72.4387 38.7666 71.95C38.3047 71.4611 38.0434 70.8157 38.0351 70.1421C38.0267 69.4686 38.2716 68.8166 38.7212 68.3165C39.1707 67.8163 39.7917 67.5046 40.4602 67.4437H43.2268C43.4045 67.3986 43.5868 67.3739 43.7701 67.37H43.8301L59.4599 67.3433C60.1637 67.3441 60.8385 67.6242 61.3374 68.1223C61.8364 68.6205 62.1188 69.2962 62.1232 70.0025Z" fill="white"/>
</g>
<path d="M61.1932 75.204C61.2066 75.5426 61.1533 75.8804 61.0363 76.1983C60.9193 76.5162 60.741 76.8077 60.5116 77.0563C60.2822 77.3049 60.0061 77.5056 59.6992 77.6469C59.3923 77.7882 59.0607 77.8675 58.7232 77.88H56.2099C56.0261 77.9284 55.8367 77.9532 55.6466 77.9535H41.1135C40.4474 77.9055 39.8236 77.6085 39.3652 77.1211C38.9069 76.6337 38.6475 75.9915 38.6382 75.3214C38.629 74.6513 38.8707 74.0022 39.3154 73.5023C39.7602 73.0024 40.3757 72.6882 41.0402 72.6217H43.6135C43.7792 72.5795 43.9492 72.5558 44.1201 72.5515H58.7099C60.0798 72.5314 61.1932 73.7155 61.1932 75.204Z" fill="#8946A6"/>
<path opacity="0.3" d="M61.1932 75.204C61.2066 75.5426 61.1533 75.8804 61.0363 76.1983C60.9193 76.5162 60.741 76.8077 60.5116 77.0563C60.2822 77.3049 60.0061 77.5056 59.6992 77.6469C59.3923 77.7882 59.0607 77.8675 58.7232 77.88H56.2099C56.0261 77.9284 55.8367 77.9532 55.6466 77.9535H41.1135C40.4474 77.9055 39.8236 77.6085 39.3652 77.1211C38.9069 76.6337 38.6475 75.9915 38.6382 75.3214C38.629 74.6513 38.8707 74.0022 39.3154 73.5023C39.7602 73.0024 40.3757 72.6882 41.0402 72.6217H43.6135C43.7792 72.5795 43.9492 72.5558 44.1201 72.5515H58.7099C60.0798 72.5314 61.1932 73.7155 61.1932 75.204Z" fill="white"/>
<path d="M60.2665 80.2711C60.2665 81.7462 59.2499 82.947 57.9899 82.9303H55.6566C55.4877 82.9793 55.3125 83.003 55.1366 83.0005L41.7001 82.9738C40.4335 82.9738 39.4035 81.7729 39.3969 80.2978C39.3902 78.8227 40.3968 77.6721 41.6235 77.642H44.0001C44.1524 77.6001 44.309 77.5766 44.4668 77.5718H44.5267L57.9666 77.5985C59.2299 77.5985 60.2599 78.796 60.2665 80.2711Z" fill="#8946A6"/>
<path opacity="0.4" d="M60.2665 80.2711C60.2665 81.7462 59.2499 82.947 57.9899 82.9303H55.6566C55.4877 82.9793 55.3125 83.003 55.1366 83.0005L41.7001 82.9738C40.4335 82.9738 39.4035 81.7729 39.3969 80.2978C39.3902 78.8227 40.3968 77.6721 41.6235 77.642H44.0001C44.1524 77.6001 44.309 77.5766 44.4668 77.5718H44.5267L57.9666 77.5985C59.2299 77.5985 60.2599 78.796 60.2665 80.2711Z" fill="white"/>
<path d="M40.9435 83.6865C40.9427 83.5908 40.9606 83.496 40.9963 83.4074C41.0321 83.3187 41.0849 83.2381 41.1518 83.1701C41.2188 83.102 41.2984 83.0478 41.3862 83.0107C41.474 82.9737 41.5683 82.9544 41.6635 82.9539L58.1666 82.9204C58.3576 82.9213 58.5406 82.9976 58.676 83.1328C58.8113 83.2681 58.8881 83.4513 58.8899 83.6429C58.8908 83.7384 58.8728 83.833 58.8371 83.9215C58.8012 84.0099 58.7483 84.0904 58.6814 84.1582C58.6144 84.226 58.5348 84.2797 58.447 84.3165C58.3592 84.3532 58.265 84.3721 58.17 84.3721L41.6668 84.4056C41.5723 84.406 41.4786 84.3877 41.3911 84.3519C41.3035 84.316 41.2239 84.2631 41.1568 84.1964C41.0896 84.1295 41.0362 84.0502 40.9996 83.9627C40.963 83.8752 40.9439 83.7813 40.9435 83.6865Z" fill="#8946A6"/>
<path d="M46.0335 34.0984L44.6368 34.8777C44.717 35.321 44.8283 35.7581 44.9701 36.1856L46.5668 36.1588C46.8522 36.8549 47.2288 37.5095 47.6868 38.1056L46.8667 39.4804C47.1636 39.8206 47.4833 40.1403 47.8234 40.4369L49.1934 39.6141C49.7853 40.0749 50.4368 40.453 51.1301 40.738L51.1033 42.3402C51.5301 42.4882 51.9668 42.6055 52.41 42.6914L53.1866 41.2899C53.9287 41.3926 54.6813 41.3926 55.4233 41.2899L56.1999 42.6914C56.65 42.6065 57.0934 42.4891 57.5267 42.3402L57.4999 40.738C58.1928 40.4521 58.8442 40.0742 59.4366 39.6141L60.8065 40.4369C61.1467 40.1403 61.4664 39.8206 61.7633 39.4804L60.9399 38.1056C61.3999 37.5104 61.7778 36.8556 62.0632 36.1588L63.6599 36.1856C63.8057 35.758 63.9227 35.3211 64.0099 34.8777L62.6098 34.0984C62.7121 33.3527 62.7121 32.5963 62.6098 31.8507L64.0099 31.0712C63.9227 30.6279 63.8057 30.191 63.6599 29.7634L62.0632 29.7902C61.7778 29.0941 61.4012 28.4395 60.9432 27.8435L61.7633 26.4687C61.4664 26.1274 61.1468 25.8065 60.8065 25.5087L59.4366 26.3349C58.8442 25.8748 58.1928 25.4968 57.4999 25.211L57.5267 23.6055C57.0986 23.4663 56.6621 23.3546 56.22 23.271L55.4433 24.6758C54.7013 24.5732 53.9487 24.5732 53.2067 24.6758L52.43 23.271C51.9879 23.3546 51.5514 23.4663 51.1234 23.6055L51.15 25.211C50.4568 25.496 49.8054 25.8741 49.2134 26.3349L47.8435 25.5087C47.5033 25.8065 47.1836 26.1274 46.8868 26.4687L47.7068 27.8435C47.2488 28.4395 46.8721 29.0941 46.5868 29.7902L44.9901 29.7634C44.8484 30.1909 44.7369 30.628 44.6568 31.0712L46.0535 31.8507C45.9512 32.5963 45.9512 33.3527 46.0535 34.0984H46.0335ZM49.84 33.1752C49.84 32.2721 50.1069 31.3891 50.6071 30.6383C51.1072 29.8873 51.818 29.3021 52.6496 28.9567C53.4811 28.6112 54.3962 28.521 55.2789 28.6974C56.1615 28.8738 56.9723 29.309 57.6085 29.9479C58.2446 30.5867 58.6777 31.4006 58.8529 32.2865C59.0281 33.1724 58.9375 34.0906 58.5926 34.9247C58.2477 35.759 57.6641 36.4719 56.9153 36.9731C56.1667 37.4744 55.2866 37.7417 54.3867 37.741C53.1805 37.7401 52.0241 37.2587 51.1716 36.4025C50.3189 35.5464 49.84 34.3855 49.84 33.1752Z" fill="#263238"/>
<path d="M38.9902 46.1399L37.4469 46.9995C37.4981 47.2389 37.5615 47.4756 37.6369 47.7085L39.4035 47.6818C39.5563 48.0293 39.7463 48.3591 39.9702 48.6652L39.0603 50.1838C39.2243 50.3668 39.3979 50.541 39.5802 50.7056L41.0935 49.7925C41.3986 50.0172 41.7272 50.2078 42.0735 50.3611L42.0469 52.1339C42.279 52.2095 42.5149 52.2732 42.7535 52.3246L43.6101 50.7759C43.9869 50.816 44.3667 50.816 44.7435 50.7759L45.6001 52.3246C45.8399 52.2732 46.0769 52.2095 46.3101 52.1339L46.2801 50.3611C46.6264 50.2078 46.955 50.0172 47.2601 49.7925L48.7734 50.7056C48.9566 50.5418 49.1302 50.3677 49.2934 50.1838L48.3834 48.6652C48.6074 48.3591 48.7974 48.0293 48.9501 47.6818L50.7167 47.7085C50.7937 47.4761 50.8571 47.2393 50.9067 46.9995L49.3634 46.1399C49.4034 45.7618 49.4034 45.3806 49.3634 45.0026L50.9067 44.1429C50.8571 43.9019 50.7937 43.664 50.7167 43.4304L48.9501 43.4605C48.7974 43.1131 48.6074 42.7833 48.3834 42.4771L49.2934 40.9586C49.1302 40.7748 48.9566 40.6005 48.7734 40.4367L47.2601 41.35C46.955 41.1252 46.6264 40.9345 46.2801 40.7813L46.3101 39.0085C46.0774 38.9313 45.8403 38.8676 45.6001 38.8179L44.7435 40.3665C44.3667 40.3263 43.9869 40.3263 43.6101 40.3665L42.7535 38.8179C42.5145 38.8676 42.2785 38.9313 42.0469 39.0085L42.0735 40.7813C41.7272 40.9345 41.3986 41.1252 41.0935 41.35L39.5802 40.4367C39.397 40.6005 39.2235 40.7748 39.0603 40.9586L39.9702 42.4771C39.7463 42.7833 39.5563 43.1131 39.4035 43.4605L37.6369 43.4304C37.5615 43.6645 37.4981 43.9023 37.4469 44.1429L38.9902 45.0026C38.9502 45.3806 38.9502 45.7618 38.9902 46.1399ZM41.0935 45.5712C41.0935 44.9592 41.2744 44.361 41.6132 43.8522C41.9519 43.3434 42.4335 42.9469 42.9969 42.7126C43.5603 42.4785 44.1802 42.4172 44.7783 42.5367C45.3764 42.656 45.9258 42.9507 46.357 43.3834C46.7883 43.8161 47.0819 44.3674 47.2008 44.9676C47.3198 45.5678 47.2588 46.1899 47.0254 46.7552C46.792 47.3206 46.3969 47.8038 45.8898 48.1438C45.3828 48.4837 44.7867 48.6652 44.1768 48.6652C43.7719 48.6652 43.3709 48.5852 42.9969 48.4297C42.6229 48.2742 42.2829 48.0463 41.9966 47.759C41.7103 47.4717 41.4832 47.1306 41.3282 46.7552C41.1733 46.3799 41.0935 45.9775 41.0935 45.5712Z" fill="#263238"/>
<path opacity="0.5" d="M38.9902 46.1399L37.4469 46.9995C37.4981 47.2389 37.5615 47.4756 37.6369 47.7085L39.4035 47.6818C39.5563 48.0293 39.7463 48.3591 39.9702 48.6652L39.0603 50.1838C39.2243 50.3668 39.3979 50.541 39.5802 50.7056L41.0935 49.7925C41.3986 50.0172 41.7272 50.2078 42.0735 50.3611L42.0469 52.1339C42.279 52.2095 42.5149 52.2732 42.7535 52.3246L43.6101 50.7759C43.9869 50.816 44.3667 50.816 44.7435 50.7759L45.6001 52.3246C45.8399 52.2732 46.0769 52.2095 46.3101 52.1339L46.2801 50.3611C46.6264 50.2078 46.955 50.0172 47.2601 49.7925L48.7734 50.7056C48.9566 50.5418 49.1302 50.3677 49.2934 50.1838L48.3834 48.6652C48.6074 48.3591 48.7974 48.0293 48.9501 47.6818L50.7167 47.7085C50.7937 47.4761 50.8571 47.2393 50.9067 46.9995L49.3634 46.1399C49.4034 45.7618 49.4034 45.3806 49.3634 45.0026L50.9067 44.1429C50.8571 43.9019 50.7937 43.664 50.7167 43.4304L48.9501 43.4605C48.7974 43.1131 48.6074 42.7833 48.3834 42.4771L49.2934 40.9586C49.1302 40.7748 48.9566 40.6005 48.7734 40.4367L47.2601 41.35C46.955 41.1252 46.6264 40.9345 46.2801 40.7813L46.3101 39.0085C46.0774 38.9313 45.8403 38.8676 45.6001 38.8179L44.7435 40.3665C44.3667 40.3263 43.9869 40.3263 43.6101 40.3665L42.7535 38.8179C42.5145 38.8676 42.2785 38.9313 42.0469 39.0085L42.0735 40.7813C41.7272 40.9345 41.3986 41.1252 41.0935 41.35L39.5802 40.4367C39.397 40.6005 39.2235 40.7748 39.0603 40.9586L39.9702 42.4771C39.7463 42.7833 39.5563 43.1131 39.4035 43.4605L37.6369 43.4304C37.5615 43.6645 37.4981 43.9023 37.4469 44.1429L38.9902 45.0026C38.9502 45.3806 38.9502 45.7618 38.9902 46.1399ZM41.0935 45.5712C41.0935 44.9592 41.2744 44.361 41.6132 43.8522C41.9519 43.3434 42.4335 42.9469 42.9969 42.7126C43.5603 42.4785 44.1802 42.4172 44.7783 42.5367C45.3764 42.656 45.9258 42.9507 46.357 43.3834C46.7883 43.8161 47.0819 44.3674 47.2008 44.9676C47.3198 45.5678 47.2588 46.1899 47.0254 46.7552C46.792 47.3206 46.3969 47.8038 45.8898 48.1438C45.3828 48.4837 44.7867 48.6652 44.1768 48.6652C43.7719 48.6652 43.3709 48.5852 42.9969 48.4297C42.6229 48.2742 42.2829 48.0463 41.9966 47.759C41.7103 47.4717 41.4832 47.1306 41.3282 46.7552C41.1733 46.3799 41.0935 45.9775 41.0935 45.5712Z" fill="#263238"/>
</svg>
