<svg width="48" height="77" viewBox="0 0 48 77" fill="none" xmlns="http://www.w3.org/2000/svg">
<path d="M47.9997 23.8592C47.9623 17.4941 45.398 11.4045 40.8708 6.93014C36.3435 2.45575 30.2243 -0.0369464 23.8592 0.000413985C17.4941 0.0377744 11.4045 2.60213 6.93014 7.12935C2.45575 11.6566 -0.0369463 17.7758 0.000413983 24.1409C0.0560653 33.7582 7.74638 40.2242 12.6298 47.8101C14.1428 50.1579 14.0211 58.9787 14.0211 58.9787L34.386 58.8604C34.386 58.8604 34.1703 50.0431 35.6521 47.6745C40.4416 40.0329 48.0553 33.4764 47.9997 23.8592Z" fill="#8946A6"/>
<path opacity="0.5" d="M47.9997 23.8592C47.9623 17.4941 45.398 11.4045 40.8708 6.93014C36.3435 2.45575 30.2243 -0.0369464 23.8592 0.000413985C17.4941 0.0377744 11.4045 2.60213 6.93014 7.12935C2.45575 11.6566 -0.0369463 17.7758 0.000413983 24.1409C0.0560653 33.7582 7.74638 40.2242 12.6298 47.8101C14.1428 50.1579 14.0211 58.9787 14.0211 58.9787L34.386 58.8604C34.386 58.8604 34.1703 50.0431 35.6521 47.6745C40.4416 40.0329 48.0553 33.4764 47.9997 23.8592Z" fill="white"/>
<path opacity="0.3" d="M45.1476 19.4245C45.1476 34.5338 35.7147 51.6675 24.0418 51.6779C12.3689 51.6883 2.88733 32.5478 2.87689 19.4627C2.87689 11.4002 12.3272 4.85426 24.0001 4.85426C35.6729 4.85426 45.1406 11.362 45.1476 19.4245Z" fill="white"/>
<path opacity="0.4" d="M37.7181 34.1442C37.7209 36.8362 36.9253 39.4686 35.4319 41.7084C33.9385 43.9482 31.8145 45.6948 29.3284 46.7274C26.8423 47.7599 24.1058 48.0321 21.4651 47.5093C18.8243 46.9866 16.3979 45.6925 14.4926 43.7906C12.5874 41.8888 11.289 39.4647 10.7615 36.8249C10.234 34.1851 10.5013 31.4481 11.5294 28.9602C12.5575 26.4723 14.3003 24.3451 16.5374 22.8477C18.7746 21.3503 21.4055 20.55 24.0975 20.5479C25.8846 20.5461 27.6546 20.8964 29.3064 21.5787C30.9582 22.261 32.4594 23.2621 33.7242 24.5246C34.989 25.7872 35.9928 27.2866 36.6781 28.9372C37.3633 30.5877 37.7168 32.3571 37.7181 34.1442Z" fill="white"/>
<path opacity="0.4" d="M33.5652 37.5877C33.5652 42.8676 29.2904 44.4745 24.0105 44.4815C18.7306 44.4884 14.4628 42.885 14.4628 37.6051C14.4628 32.3251 18.7202 30.7878 24.0001 30.7878C29.28 30.7878 33.5617 32.3077 33.5652 37.5877Z" fill="white"/>
<path d="M29.673 76.5575H18.2227L15.0436 72.3976H32.8555L29.673 76.5575Z" fill="#8946A6"/>
<path opacity="0.5" d="M29.673 76.5575H18.2227L15.0436 72.3976H32.8555L29.673 76.5575Z" fill="white"/>
<path d="M12.9846 56.1126C12.9841 56.0135 13.0032 55.9152 13.0407 55.8235C13.0782 55.7317 13.1334 55.6483 13.2032 55.5779C13.2729 55.5075 13.3559 55.4515 13.4473 55.4131C13.5387 55.3748 13.6367 55.3548 13.7359 55.3544L34.0869 55.25C34.2864 55.2491 34.4783 55.3272 34.6204 55.4674C34.7625 55.6075 34.8433 55.7982 34.8451 55.9978C34.846 56.0971 34.8273 56.1955 34.7899 56.2875C34.7526 56.3794 34.6974 56.4631 34.6275 56.5336C34.5577 56.6041 34.4745 56.66 34.3829 56.6982C34.2913 56.7364 34.1931 56.7561 34.0938 56.7561L13.7428 56.8639C13.6437 56.8644 13.5455 56.8453 13.4537 56.8078C13.362 56.7703 13.2785 56.7151 13.2081 56.6453C13.1377 56.5755 13.0817 56.4926 13.0434 56.4012C13.005 56.3098 12.985 56.2117 12.9846 56.1126Z" fill="#8946A6"/>
<path d="M36.6503 59.2743C36.6503 60.0123 36.3571 60.72 35.8353 61.2419C35.3135 61.7637 34.6057 62.0569 33.8677 62.0569H31.0434C30.8374 62.1073 30.626 62.133 30.4139 62.1334L14.115 62.1612C13.4161 62.1153 12.7602 61.8076 12.2782 61.2994C11.7962 60.7911 11.5236 60.1199 11.5149 59.4195C11.5061 58.7191 11.7617 58.0412 12.2308 57.5211C12.6999 57.001 13.3479 56.6769 14.0454 56.6135H16.9323C17.1178 56.5666 17.308 56.541 17.4993 56.5369H17.5619L33.8712 56.5091C34.6056 56.51 35.3098 56.8012 35.8304 57.3192C36.351 57.8372 36.6457 58.5399 36.6503 59.2743Z" fill="#8946A6"/>
<path d="M36.6503 59.2743C36.6503 60.0123 36.3571 60.72 35.8353 61.2419C35.3135 61.7637 34.6057 62.0569 33.8677 62.0569H31.0434C30.8374 62.1073 30.626 62.133 30.4139 62.1334L14.115 62.1612C13.4161 62.1153 12.7602 61.8076 12.2782 61.2994C11.7962 60.7911 11.5236 60.1199 11.5149 59.4195C11.5061 58.7191 11.7617 58.0412 12.2308 57.5211C12.6999 57.001 13.3479 56.6769 14.0454 56.6135H16.9323C17.1178 56.5666 17.308 56.541 17.4993 56.5369H17.5619L33.8712 56.5091C34.6056 56.51 35.3098 56.8012 35.8304 57.3192C36.351 57.8372 36.6457 58.5399 36.6503 59.2743Z" fill="#8946A6"/>
<g opacity="0.2">
<path opacity="0.2" d="M36.6503 59.2743C36.6503 60.0123 36.3571 60.72 35.8353 61.2419C35.3135 61.7637 34.6057 62.0569 33.8677 62.0569H31.0434C30.8374 62.1073 30.626 62.133 30.4139 62.1334L14.115 62.1612C13.4161 62.1153 12.7602 61.8076 12.2782 61.2994C11.7962 60.7911 11.5236 60.1199 11.5149 59.4195C11.5061 58.7191 11.7617 58.0412 12.2308 57.5211C12.6999 57.001 13.3479 56.6769 14.0454 56.6135H16.9323C17.1178 56.5666 17.308 56.541 17.4993 56.5369H17.5619L33.8712 56.5091C34.6056 56.51 35.3098 56.8012 35.8304 57.3192C36.351 57.8372 36.6457 58.5399 36.6503 59.2743Z" fill="white"/>
</g>
<path d="M35.6799 64.6829C35.6938 65.035 35.6382 65.3863 35.5161 65.7168C35.3941 66.0474 35.208 66.3505 34.9686 66.609C34.7292 66.8675 34.4411 67.0762 34.1209 67.2232C33.8007 67.3701 33.4546 67.4525 33.1025 67.4655H30.4799C30.2881 67.5159 30.0905 67.5417 29.8921 67.542H14.7271C14.0321 67.4921 13.3811 67.1832 12.9028 66.6764C12.4246 66.1696 12.1539 65.5018 12.1442 64.805C12.1346 64.1082 12.3868 63.4332 12.8509 62.9134C13.315 62.3936 13.9572 62.0668 14.6506 61.9977H17.3358C17.5087 61.9538 17.6861 61.9292 17.8645 61.9247H33.0886C34.5181 61.9038 35.6799 63.1351 35.6799 64.6829Z" fill="#8946A6"/>
<path opacity="0.3" d="M35.6799 64.6829C35.6938 65.035 35.6382 65.3863 35.5161 65.7168C35.3941 66.0474 35.208 66.3505 34.9686 66.609C34.7292 66.8675 34.4411 67.0762 34.1209 67.2232C33.8007 67.3701 33.4546 67.4525 33.1025 67.4655H30.4799C30.2881 67.5159 30.0905 67.5417 29.8921 67.542H14.7271C14.0321 67.4921 13.3811 67.1832 12.9028 66.6764C12.4246 66.1696 12.1539 65.5018 12.1442 64.805C12.1346 64.1082 12.3868 63.4332 12.8509 62.9134C13.315 62.3936 13.9572 62.0668 14.6506 61.9977H17.3358C17.5087 61.9538 17.6861 61.9292 17.8645 61.9247H33.0886C34.5181 61.9038 35.6799 63.1351 35.6799 64.6829Z" fill="white"/>
<path d="M34.7129 69.9524C34.7129 71.4863 33.6521 72.735 32.3373 72.7176H29.9026C29.7263 72.7685 29.5435 72.7932 29.36 72.7906L15.3393 72.7628C14.0176 72.7628 12.9428 71.5141 12.9359 69.9802C12.9289 68.4463 13.9793 67.2498 15.2593 67.2185H17.7393C17.8982 67.175 18.0616 67.1505 18.2262 67.1455H18.2888L32.313 67.1733C33.6312 67.1733 34.706 68.4185 34.7129 69.9524Z" fill="#8946A6"/>
<path opacity="0.4" d="M34.7129 69.9524C34.7129 71.4863 33.6521 72.735 32.3373 72.7176H29.9026C29.7263 72.7685 29.5435 72.7932 29.36 72.7906L15.3393 72.7628C14.0176 72.7628 12.9428 71.5141 12.9359 69.9802C12.9289 68.4463 13.9793 67.2498 15.2593 67.2185H17.7393C17.8982 67.175 18.0616 67.1505 18.2262 67.1455H18.2888L32.313 67.1733C33.6312 67.1733 34.706 68.4185 34.7129 69.9524Z" fill="white"/>
<path d="M14.5498 73.5037C14.5489 73.4042 14.5676 73.3056 14.6049 73.2135C14.6422 73.1213 14.6973 73.0375 14.7671 72.9667C14.837 72.8959 14.9201 72.8396 15.0117 72.801C15.1033 72.7625 15.2017 72.7424 15.3011 72.7419L32.5217 72.7071C32.721 72.708 32.9119 72.7874 33.0532 72.928C33.1944 73.0686 33.2746 73.2591 33.2764 73.4584C33.2774 73.5577 33.2586 73.6561 33.2213 73.7481C33.1839 73.84 33.1287 73.9237 33.0589 73.9942C32.989 74.0647 32.9059 74.1206 32.8143 74.1588C32.7227 74.197 32.6244 74.2167 32.5252 74.2167L15.3045 74.2515C15.2059 74.2519 15.1081 74.2329 15.0168 74.1956C14.9254 74.1583 14.8424 74.1033 14.7723 74.0339C14.7022 73.9644 14.6465 73.8819 14.6083 73.7909C14.5701 73.6999 14.5502 73.6023 14.5498 73.5037Z" fill="#8946A6"/>
<path d="M19.861 21.9392L18.4036 22.7496C18.4873 23.2106 18.6035 23.6651 18.7514 24.1096L20.4175 24.0818C20.7153 24.8056 21.1083 25.4863 21.5862 26.1061L20.7305 27.5357C21.0403 27.8895 21.3739 28.2219 21.7288 28.5304L23.1583 27.6748C23.776 28.1539 24.4558 28.5471 25.1792 28.8435L25.1513 30.5095C25.5966 30.6634 26.0523 30.7854 26.5148 30.8747L27.3252 29.4174C28.0995 29.5241 28.8848 29.5241 29.6591 29.4174L30.4695 30.8747C30.9391 30.7864 31.4018 30.6643 31.8539 30.5095L31.826 28.8435C32.549 28.5462 33.2287 28.1532 33.8469 27.6748L35.2764 28.5304C35.6313 28.2219 35.9649 27.8895 36.2747 27.5357L35.4155 26.1061C35.8956 25.4872 36.2899 24.8063 36.5877 24.0818L38.2538 24.1096C38.406 23.665 38.528 23.2107 38.619 22.7496L37.1581 21.9392C37.2648 21.1638 37.2648 20.3773 37.1581 19.6019L38.619 18.7914C38.528 18.3304 38.406 17.8761 38.2538 17.4315L36.5877 17.4593C36.2899 16.7355 35.8969 16.0548 35.419 15.435L36.2747 14.0054C35.9649 13.6505 35.6314 13.3169 35.2764 13.0072L33.8469 13.8663C33.2287 13.3879 32.549 12.9948 31.826 12.6976L31.8539 11.0281C31.4072 10.8834 30.9518 10.7672 30.4904 10.6803L29.68 12.1411C28.9057 12.0344 28.1204 12.0344 27.3461 12.1411L26.5357 10.6803C26.0743 10.7672 25.6189 10.8834 25.1722 11.0281L25.2 12.6976C24.4767 12.994 23.7969 13.3872 23.1792 13.8663L21.7497 13.0072C21.3947 13.3169 21.0612 13.6505 20.7514 14.0054L21.6071 15.435C21.1292 16.0548 20.7361 16.7355 20.4384 17.4593L18.7723 17.4315C18.6244 17.876 18.5081 18.3305 18.4245 18.7914L19.8819 19.6019C19.7752 20.3773 19.7752 21.1638 19.8819 21.9392H19.861ZM23.8331 20.9792C23.8331 20.0401 24.1116 19.122 24.6335 18.3412C25.1553 17.5603 25.897 16.9518 26.7648 16.5926C27.6325 16.2333 28.5873 16.1395 29.5084 16.323C30.4294 16.5064 31.2754 16.959 31.9393 17.6233C32.6031 18.2876 33.055 19.1339 33.2378 20.0551C33.4206 20.9763 33.3261 21.9311 32.9662 22.7985C32.6063 23.666 31.9973 24.4073 31.216 24.9285C30.4348 25.4498 29.5165 25.7277 28.5774 25.727C27.3188 25.7261 26.1121 25.2255 25.2225 24.3352C24.3328 23.4449 23.8331 22.2378 23.8331 20.9792Z" fill="#263238"/>
<path d="M12.5115 34.4608L10.9011 35.3547C10.9545 35.6037 11.0207 35.8498 11.0994 36.092L12.9428 36.0642C13.1022 36.4256 13.3005 36.7685 13.5341 37.0868L12.5846 38.6659C12.7558 38.8562 12.9369 39.0374 13.1272 39.2085L14.7063 38.259C15.0246 38.4927 15.3675 38.6909 15.7289 38.8503L15.7011 40.6937C15.9433 40.7724 16.1894 40.8386 16.4384 40.892L17.3323 39.2816C17.7254 39.3233 18.1218 39.3233 18.5149 39.2816L19.4088 40.892C19.659 40.8386 19.9063 40.7724 20.1497 40.6937L20.1184 38.8503C20.4797 38.6909 20.8226 38.4927 21.141 38.259L22.7201 39.2085C22.9112 39.0382 23.0924 38.8571 23.2627 38.6659L22.3131 37.0868C22.5468 36.7685 22.7451 36.4256 22.9044 36.0642L24.7479 36.092C24.8282 35.8503 24.8944 35.6041 24.9461 35.3547L23.3357 34.4608C23.3775 34.0677 23.3775 33.6713 23.3357 33.2782L24.9461 32.3843C24.8944 32.1337 24.8282 31.8863 24.7479 31.6434L22.9044 31.6747C22.7451 31.3134 22.5468 30.9705 22.3131 30.6521L23.2627 29.073C23.0924 28.8819 22.9112 28.7007 22.7201 28.5304L21.141 29.48C20.8226 29.2463 20.4797 29.048 20.1184 28.8887L20.1497 27.0452C19.9068 26.9649 19.6594 26.8987 19.4088 26.847L18.5149 28.4574C18.1218 28.4156 17.7254 28.4156 17.3323 28.4574L16.4384 26.847C16.189 26.8987 15.9428 26.9649 15.7011 27.0452L15.7289 28.8887C15.3675 29.048 15.0246 29.2463 14.7063 29.48L13.1272 28.5304C12.936 28.7007 12.7549 28.8819 12.5846 29.073L13.5341 30.6521C13.3005 30.9705 13.1022 31.3134 12.9428 31.6747L11.0994 31.6434C11.0207 31.8868 10.9545 32.1341 10.9011 32.3843L12.5115 33.2782C12.4698 33.6713 12.4698 34.0677 12.5115 34.4608ZM14.7063 33.8695C14.7063 33.2331 14.895 32.6111 15.2485 32.082C15.602 31.5529 16.1045 31.1406 16.6924 30.897C17.2803 30.6535 17.9272 30.5898 18.5513 30.714C19.1754 30.8381 19.7487 31.1445 20.1986 31.5945C20.6486 32.0444 20.955 32.6177 21.0791 33.2418C21.2033 33.8659 21.1396 34.5128 20.8961 35.1007C20.6525 35.6886 20.2402 36.1911 19.7111 36.5446C19.182 36.8981 18.56 37.0868 17.9236 37.0868C17.5011 37.0868 17.0827 37.0036 16.6924 36.8419C16.3021 36.6802 15.9474 36.4432 15.6486 36.1445C15.3499 35.8457 15.1129 35.491 14.9512 35.1007C14.7895 34.7104 14.7063 34.292 14.7063 33.8695Z" fill="#263238"/>
<path opacity="0.5" d="M12.5115 34.4608L10.9011 35.3547C10.9545 35.6037 11.0207 35.8498 11.0994 36.092L12.9428 36.0642C13.1022 36.4256 13.3005 36.7685 13.5341 37.0868L12.5846 38.6659C12.7558 38.8562 12.9369 39.0374 13.1272 39.2085L14.7063 38.259C15.0246 38.4927 15.3675 38.6909 15.7289 38.8503L15.7011 40.6937C15.9433 40.7724 16.1894 40.8386 16.4384 40.892L17.3323 39.2816C17.7254 39.3233 18.1218 39.3233 18.5149 39.2816L19.4088 40.892C19.659 40.8386 19.9063 40.7724 20.1497 40.6937L20.1184 38.8503C20.4797 38.6909 20.8226 38.4927 21.141 38.259L22.7201 39.2085C22.9112 39.0382 23.0924 38.8571 23.2627 38.6659L22.3131 37.0868C22.5468 36.7685 22.7451 36.4256 22.9044 36.0642L24.7479 36.092C24.8282 35.8503 24.8944 35.6041 24.9461 35.3547L23.3357 34.4608C23.3775 34.0677 23.3775 33.6713 23.3357 33.2782L24.9461 32.3843C24.8944 32.1337 24.8282 31.8863 24.7479 31.6434L22.9044 31.6747C22.7451 31.3134 22.5468 30.9705 22.3131 30.6521L23.2627 29.073C23.0924 28.8819 22.9112 28.7007 22.7201 28.5304L21.141 29.48C20.8226 29.2463 20.4797 29.048 20.1184 28.8887L20.1497 27.0452C19.9068 26.9649 19.6594 26.8987 19.4088 26.847L18.5149 28.4574C18.1218 28.4156 17.7254 28.4156 17.3323 28.4574L16.4384 26.847C16.189 26.8987 15.9428 26.9649 15.7011 27.0452L15.7289 28.8887C15.3675 29.048 15.0246 29.2463 14.7063 29.48L13.1272 28.5304C12.936 28.7007 12.7549 28.8819 12.5846 29.073L13.5341 30.6521C13.3005 30.9705 13.1022 31.3134 12.9428 31.6747L11.0994 31.6434C11.0207 31.8868 10.9545 32.1341 10.9011 32.3843L12.5115 33.2782C12.4698 33.6713 12.4698 34.0677 12.5115 34.4608ZM14.7063 33.8695C14.7063 33.2331 14.895 32.6111 15.2485 32.082C15.602 31.5529 16.1045 31.1406 16.6924 30.897C17.2803 30.6535 17.9272 30.5898 18.5513 30.714C19.1754 30.8381 19.7487 31.1445 20.1986 31.5945C20.6486 32.0444 20.955 32.6177 21.0791 33.2418C21.2033 33.8659 21.1396 34.5128 20.8961 35.1007C20.6525 35.6886 20.2402 36.1911 19.7111 36.5446C19.182 36.8981 18.56 37.0868 17.9236 37.0868C17.5011 37.0868 17.0827 37.0036 16.6924 36.8419C16.3021 36.6802 15.9474 36.4432 15.6486 36.1445C15.3499 35.8457 15.1129 35.491 14.9512 35.1007C14.7895 34.7104 14.7063 34.292 14.7063 33.8695Z" fill="#263238"/>
</svg>
