<svg width="100" height="100" viewBox="0 0 100 100" fill="none" xmlns="http://www.w3.org/2000/svg">
<path d="M45.1331 29.0741C45.1331 29.0741 43.8983 27.4856 43.2961 27.4774C42.6938 27.4694 42.1259 28.7305 41.7036 28.6638C41.2812 28.5971 40.8224 27.15 39.7371 27.4916C38.6519 27.8331 38.3831 29.5126 37.6616 29.4519C36.9401 29.3913 33.4498 23.2334 33.4498 23.2334L30.9358 24.6946C30.9358 24.6946 34.6968 30.6929 34.3714 31.3416C34.046 31.9903 32.4798 31.3295 31.6107 32.0711C30.7418 32.8128 31.732 33.9729 31.5663 34.365C31.4006 34.7571 30.3153 34.5509 30.0061 35.0683C29.6969 35.5856 30.1031 37.4934 30.1031 37.4934L37.1482 32.1015L45.1331 29.0741Z" fill="white" stroke="#263238" stroke-width="0.5" stroke-miterlimit="10"/>
<path d="M28.6217 21.7314L27.9588 24.7245L28.741 26.2099L30.6973 25.1812C30.6973 25.1812 29.6948 23.9687 28.6217 21.7314Z" fill="#8946A6" stroke="#263238" stroke-width="0.5" stroke-miterlimit="10"/>
<path d="M32.0109 19.9453L34.8403 21.0932L35.6223 22.5786L33.6741 23.6094C33.6741 23.6094 33.2457 22.0977 32.0109 19.9453Z" fill="#8946A6" stroke="#263238" stroke-width="0.5" stroke-miterlimit="10"/>
<path d="M28.0154 16.5195C28.0154 16.5195 26.4128 21.1678 30.6953 25.1734L33.8561 23.5121C33.8561 23.5121 33.08 18.1464 28.0154 16.5195Z" fill="white" stroke="#263238" stroke-width="0.5" stroke-miterlimit="10"/>
<path d="M29.6322 24.0054C29.9599 24.4213 30.3187 24.8118 30.7053 25.1735L33.8561 23.5123C33.7679 22.9958 33.6326 22.4884 33.4518 21.9966L29.6322 24.0054Z" fill="#8946A6" stroke="#263238" stroke-width="0.5" stroke-miterlimit="10"/>
<path d="M31.1345 20.3907C31.3268 19.733 30.9496 19.0438 30.2917 18.8515C29.6339 18.6591 28.9448 19.0364 28.7525 19.6942C28.5601 20.352 28.9374 21.0411 29.5952 21.2335C30.253 21.4258 30.9421 21.0485 31.1345 20.3907Z" fill="#8946A6" stroke="#263238" stroke-width="0.5" stroke-miterlimit="10"/>
<path d="M30.6427 19.6721C30.5707 19.5362 30.46 19.4247 30.3247 19.3517C30.1894 19.2786 30.0354 19.2473 29.8823 19.2617C29.7292 19.2761 29.5838 19.3356 29.4645 19.4326C29.3451 19.5295 29.2572 19.6597 29.2118 19.8067C29.1664 19.9536 29.1655 20.1107 29.2093 20.2581C29.2532 20.4055 29.3397 20.5366 29.458 20.6349C29.5763 20.7332 29.721 20.7942 29.874 20.8102C30.027 20.8263 30.1812 20.7966 30.3173 20.725C30.4079 20.6774 30.4882 20.6123 30.5536 20.5336C30.6191 20.4548 30.6683 20.3639 30.6985 20.2661C30.7288 20.1683 30.7394 20.0655 30.7298 19.9635C30.7202 19.8616 30.6907 19.7626 30.6427 19.6721Z" fill="white" stroke="#263238" stroke-width="0.5" stroke-miterlimit="10"/>
<path d="M89.6897 54.0266L88.0385 55.1725L88.0486 57.1813L86.448 55.9667L84.5402 56.5973L85.2011 54.6995L84.0127 53.0787L86.0216 53.1212L87.1958 51.4902L87.7758 53.4142L89.6897 54.0266Z" fill="white" stroke="#263238" stroke-width="0.5" stroke-miterlimit="10"/>
<path d="M12.567 62.0885L12.1709 63.4649L13.0804 64.5723L11.6475 64.6208L10.8755 65.8273L10.3864 64.4793L9 64.1196L10.1318 63.2385L10.0469 61.8076L11.2332 62.61L12.567 62.0885Z" fill="white" stroke="#263238" stroke-width="0.5" stroke-miterlimit="10"/>
<path d="M35.7679 79.883L35.3718 81.2592L36.2812 82.3668L34.8484 82.4152L34.0763 83.6217L33.5893 82.2758L32.2029 81.914L33.3326 81.0329L33.2478 79.6021L34.4341 80.4044L35.7679 79.883Z" fill="white" stroke="#263238" stroke-width="0.5" stroke-miterlimit="10"/>
<path d="M69.1383 79.883L68.7402 81.2592L69.6497 82.3668L68.2188 82.4152L67.4468 83.6217L66.9577 82.2758L65.5713 81.914L66.701 81.0329L66.6162 79.6021L67.8025 80.4044L69.1383 79.883Z" fill="white" stroke="#263238" stroke-width="0.5" stroke-miterlimit="10"/>
<path d="M19.5617 37.0988L19.2848 38.0649L19.9214 38.841L18.9169 38.8733L18.3774 39.7201L18.0338 38.7763L17.0637 38.5217L17.856 37.9053L17.7953 36.9028L18.6279 37.4667L19.5617 37.0988Z" fill="white" stroke="#263238" stroke-width="0.5" stroke-miterlimit="10"/>
<path d="M38.0394 17.3621L37.1705 17.8674L37.0956 18.8698L36.3479 18.2008L35.3718 18.4373L35.7759 17.5178L35.2484 16.6649L36.2489 16.766L36.8976 16L37.1098 16.9822L38.0394 17.3621Z" fill="white" stroke="#263238" stroke-width="0.5" stroke-miterlimit="10"/>
<path d="M91.5166 57.1369L91.2377 58.103L91.8764 58.8791L90.872 58.9113L90.3303 59.7582L89.9888 58.8144L89.0167 58.5617L89.8089 57.9434L89.7503 56.9409L90.5809 57.5048L91.5166 57.1369Z" fill="white" stroke="#263238" stroke-width="0.5" stroke-miterlimit="10"/>
<path d="M59.6559 21.6022L59.2578 22.9785L60.1672 24.086L58.7364 24.1345L57.9644 25.341L57.4752 23.9951L56.0888 23.6333L57.2186 22.7521L57.1337 21.3213L58.3201 22.1236L59.6559 21.6022Z" fill="white" stroke="#263238" stroke-width="0.5" stroke-miterlimit="10"/>
<path d="M51.1475 80.9661C66.0126 80.9661 78.063 68.9157 78.063 54.0507C78.063 39.1857 66.0126 27.1353 51.1475 27.1353C36.2826 27.1353 24.2321 39.1857 24.2321 54.0507C24.2321 68.9157 36.2826 80.9661 51.1475 80.9661Z" fill="#8946A6" stroke="#263238" stroke-width="0.5" stroke-miterlimit="10"/>
<path d="M45.7415 78.9536C47.1847 79.2682 48.6529 79.4548 50.129 79.5114" stroke="#263238" stroke-width="0.5" stroke-miterlimit="10"/>
<path d="M42.4432 77.9976C43.1728 78.2623 43.9145 78.4968 44.6662 78.6948" stroke="#263238" stroke-width="0.5" stroke-miterlimit="10"/>
<path d="M26.6392 47.0786C24.926 53.1113 25.4969 59.5639 28.2426 65.2021C30.9883 70.8404 35.716 75.2686 41.5217 77.6399" stroke="#263238" stroke-width="0.5" stroke-miterlimit="10"/>
<path d="M30.0647 39.7485C29.1443 41.1065 28.3559 42.5492 27.7103 44.0573" stroke="#263238" stroke-width="0.5" stroke-miterlimit="10"/>
<path d="M47.4996 42.0967L50.2441 42.6646L51.1799 43.6347L52.3985 43.8226L52.7866 44.9786L52.5016 45.7627L51.6709 46.1427L49.6338 45.8113L49.5793 45.5606L50.5413 44.8897L49.8763 43.6629L48.0554 43.4123L47.0854 42.5817L47.4996 42.0967Z" fill="white" stroke="#263238" stroke-width="0.5" stroke-miterlimit="10"/>
<path d="M69.6132 67.4175L67.4366 67.0497L64.8094 66.7162L62.8773 67.1447L60.9857 67.1729L59.086 68.0521L57.9785 68.3654L57.2913 68.5169L56.1475 69.5557L55.0116 70.3317L53.0918 69.6447L53.1422 67.8035L51.9842 67.6014L50.7373 67.8783L50.4281 67.3669L50.3028 66.2171L49.7288 65.6896L48.8821 66.0089L48.7709 66.6879L47.726 66.985L46.5417 66.0715L45.8344 64.6569L46.3821 62.7026L48.2172 62.4256L48.8134 62.7531L49.5631 62.5853L50.3715 61.8173L51.2365 61.8861L52.7886 63.5695L53.211 63.412L52.7684 61.9972L52.2288 61.3303L52.0893 60.1178L54.175 58.608L53.9729 56.2314L54.7813 55.1987L55.2744 53.5818L55.8706 53.3171L57.0973 52.0641L57.0489 51.5508L56.0646 51.8358L55.7675 51.377L55.0804 51.5306L54.0699 52.0156L54.3893 51.0941L56.4506 49.9865L56.8245 49.3156L58.0027 50.4938L58.6899 50.9303L59.4983 50.4857L58.9445 49.7581L57.4267 49.1155L55.5654 47.7634L53.7708 47.0501L52.2187 47.1329L51.3032 46.5509L50.2502 46.5226L50.1815 46.7994L50.4584 48.6345L50.8464 49.2045L50.7272 51.3244L49.2599 50.6029V49.6875L47.8129 49.356L47.0996 48.7941L47.0652 47.1653L48.5829 45.4555L48.3808 43.9297L47.7079 44.1459L47.148 43.6811L46.7439 42.7878L46.2931 42.8221L46.2669 43.8751L45.5979 44.154L44.8016 42.04L44.2338 41.8379L43.2779 41.658L42.3906 42.3776L43.9003 43.2849L44.3853 44.2954L41.7581 43.1111L39.826 41.7733L39.3329 40.1141L37.6009 39.9746L36.5339 41.0619C36.2719 41.3123 35.9967 41.5485 35.7093 41.7692C35.4243 41.9713 34.2683 42.3513 34.2683 42.3513L34.2542 43.4669L32.8395 43.8468L33.1164 44.5057L35.5072 44.3682L36.9825 45.413L37.4675 47.5957L37.2109 49.6814L37.793 51.7024L36.7238 55.138L37.3604 59.7721L38.5043 62.2681L39.7573 64.0869L40.7213 64.0041L40.1878 63.0744L39.5229 62.4378L38.9065 61.1342L39.4401 60.8857L40.8102 62.937L41.8774 64.7943L42.237 66.4111L43.7407 67.5812L46.2042 68.6887L49.6399 68.8423L50.8525 69.5557L51.8226 70.3863L53.0958 70.8229L54.5509 70.8936L55.9089 70.5258C55.9089 70.5258 55.9858 71.1624 56.0545 71.4756C56.1232 71.7889 55.4866 73.0419 55.4866 73.0419L55.0824 74.4404L55.8908 75.7015L57.3883 75.9582L59.7448 77.5245L60.7007 77.7043L60.9028 78.64L61.105 79.0442C65.7864 77.1885 69.8506 74.0521 72.8327 69.9943L72.766 69.5355L73.7765 66.0998L72.8407 65.7178L69.6132 67.4175Z" fill="white" stroke="#263238" stroke-width="0.5" stroke-miterlimit="10"/>
<path d="M70.6278 41.3454L69.6799 40.3127L68.5017 39.1344L67.8368 37.3156L69.0009 37.2529L68.924 36.6163L68.0995 36.7336L68.7159 36.2687L69.3687 35.6624L69.2293 35.0379L68.2592 34.2073L67.8025 32.8997C63.1925 29.2711 57.5239 27.2467 51.6583 27.1343C45.7925 27.022 40.0506 28.8278 35.3051 32.2773L36.9704 32.9766L36.3458 34.2922L35.2162 34.8055L35.4667 36.5172L35.008 36.8144L34.5371 37.6389L34.8484 38.7485L35.9376 38.6373L35.7355 39.7933L36.7966 39.5589L38.092 36.8507L38.0576 35.812L39.7755 35.3007L40.0463 34.4538L41.8126 33.8657L41.7642 32.7643L43.0596 32.4107C43.0596 32.4107 43.8841 31.7033 44.0701 31.6629C44.448 31.6606 44.8256 31.6862 45.1998 31.7397L46.3012 32.2793L47.6189 32.0004L48.589 31.0667L50.0501 30.8646C50.2861 30.9555 50.5405 30.9887 50.7918 30.9616C51.1031 30.8909 51.9418 30.2482 51.9418 30.2482L53.9991 30.9677L54.8722 31.3719L55.0743 32.3076L56.0383 32.2247L56.2242 31.5942L57.1195 31.7963L57.168 32.3076L55.4078 33.213L56.7719 34.3488L59.2941 35.0986L60.5067 36.1374L61.9052 35.9575L62.079 35.2643L62.5499 35.0298L60.6522 34.1427L59.6276 34.2396L60.3814 33.8092L59.3971 32.9159L60.4441 32.6168L61.9821 33.0614L62.6267 34.4882L63.4917 35.1471L64.4557 36.8305L66.0482 37.5238L66.507 39.5811L68.148 40.1995L68.2329 40.8927V41.7455L68.8573 42.7844L69.106 43.3179L70.2074 43.2694L70.4701 42.0992L70.6278 41.3454Z" fill="white" stroke="#263238" stroke-width="0.5" stroke-miterlimit="10"/>
<path d="M70.0518 34.8818L70.1307 35.2396L70.0417 36.3066L70.4217 37.1393L71.1634 37.2363L71.4261 38.4206L70.6177 38.2751L71.1775 41.6845L70.7349 43.2224L71.6201 44.8574L72.5982 45.4253L73.346 48.7943L74.7385 51.2316L76.0541 53.0343L77.5719 53.0889L77.7942 51.7308L77.9619 51.5287C77.8552 50.4155 77.6804 49.3101 77.4385 48.2183C76.3197 43.1513 73.7535 38.5182 70.0518 34.8818Z" fill="white" stroke="#263238" stroke-width="0.5" stroke-miterlimit="10"/>
<path d="M55.5513 37.6912L51.0343 36.7959L49.2397 37.2608L49.0659 38.542L48.1383 37.8974L46.8368 38.5138L47.1682 40.5994L48.4697 41.1612L49.0174 39.797L50.1613 40.5246L52.4693 41.7776L53.2433 43.5035L55.3229 45.2012L57.8451 44.1826L57.5742 43.263L56.778 42.3273L56.099 39.8597L56.487 38.6613L55.5513 37.6912Z" fill="white" stroke="#263238" stroke-width="0.5" stroke-miterlimit="10"/>
<path d="M59.2233 38.3158L58.2331 38.2734L57.5742 39.1404L58.4129 40.8502L59.2233 40.6703V38.3158Z" fill="white" stroke="#263238" stroke-width="0.5" stroke-miterlimit="10"/>
<path d="M65.2863 38.2127L62.9177 37.5599L62.3135 36.9092L61.8568 37.2083L62.5701 38.3582L63.3058 39.8962L64.3243 40.0619L64.4557 39.7708L63.6857 38.9604L65.446 39.2232L65.2863 38.2127Z" fill="white" stroke="#263238" stroke-width="0.5" stroke-miterlimit="10"/>
<path d="M52.0772 64.7681L51.8832 65.0733L53.8779 65.2187L54.8197 65.9261L56.0323 65.7866L56.3172 65.0045L54.8278 65.0733L52.0772 64.7681Z" fill="white" stroke="#263238" stroke-width="0.5" stroke-miterlimit="10"/>
<path d="M57.8895 64.7197L56.6628 65.3846L56.9619 65.8434L58.5828 65.4817L58.7848 64.9137L58.2371 65.1017L57.8895 64.7197Z" fill="white" stroke="#263238" stroke-width="0.5" stroke-miterlimit="10"/>
<path d="M83.3903 27.6588L71.7636 24.5708L74.5464 28.1601L83.3903 27.6588Z" fill="white" stroke="#263238" stroke-width="0.5" stroke-linecap="round" stroke-linejoin="round"/>
<path d="M74.5464 28.1599L74.4595 30.575L83.3902 27.6587L74.5464 28.1599Z" fill="white" stroke="#263238" stroke-width="0.5" stroke-linecap="round" stroke-linejoin="round"/>
<path d="M75.5994 29.3665L74.4595 30.575L83.3902 27.6587L75.5994 29.3665Z" fill="white" stroke="#263238" stroke-width="0.5" stroke-linecap="round" stroke-linejoin="round"/>
<path d="M83.3903 27.6587L75.5994 29.3665L77.6305 32.9052L83.3903 27.6587Z" fill="white" stroke="#263238" stroke-width="0.5" stroke-linecap="round" stroke-linejoin="round"/>
<path d="M72.6326 30.0215L72.3335 30.0619" stroke="#263238" stroke-width="0.5" stroke-linecap="round" stroke-linejoin="round"/>
<path d="M71.7352 30.147C65.1024 31.0928 23.6561 37.368 15.0003 47.5618C7.30439 56.6259 20.0932 59.1642 23.0842 59.623" stroke="#263238" stroke-width="0.5" stroke-linecap="round" stroke-linejoin="round" stroke-dasharray="2.99 2.99"/>
<path d="M23.3672 59.6655C23.5592 59.6938 23.6663 59.704 23.6663 59.704" stroke="#263238" stroke-width="0.5" stroke-linecap="round" stroke-linejoin="round"/>
<path d="M27.5183 27.3821C27.5182 27.0307 27.4359 26.6841 27.2778 26.3702C27.1198 26.0563 26.8905 25.7837 26.6083 25.5743C26.326 25.3648 25.9986 25.2245 25.6523 25.1643C25.3061 25.1041 24.9505 25.1259 24.6141 25.2277C24.3875 24.5857 23.9677 24.0295 23.4123 23.6356C22.8568 23.2418 22.193 23.0297 21.5121 23.0283C20.8313 23.027 20.1667 23.2366 19.6096 23.6282C19.0527 24.0199 18.6307 24.5745 18.4016 25.2157C18.2044 25.1593 18.0004 25.1307 17.7953 25.1308C17.2447 25.139 16.7163 25.3487 16.3099 25.7202C15.9036 26.0917 15.6474 26.5992 15.5898 27.1468C15.5324 27.6944 15.6776 28.244 15.9979 28.6918C16.3182 29.1396 16.7916 29.4545 17.3285 29.5769L25.7923 29.5749C26.2846 29.4568 26.7228 29.176 27.036 28.7781C27.3492 28.3803 27.5191 27.8885 27.5183 27.3821Z" fill="white" stroke="#263238" stroke-width="0.5" stroke-miterlimit="10"/>
<path d="M29.5332 28.5C29.5335 28.3271 29.4931 28.1564 29.4155 28.0018C29.3378 27.8472 29.225 27.713 29.086 27.6101C28.947 27.507 28.7858 27.4381 28.6153 27.4087C28.4448 27.3794 28.2698 27.3904 28.1044 27.4411C27.9948 27.1226 27.7887 26.8464 27.5145 26.6509C27.2405 26.4552 26.9122 26.3501 26.5755 26.3501C26.2388 26.3501 25.9105 26.4552 25.6364 26.6509C25.3623 26.8464 25.1561 27.1226 25.0466 27.4411C24.9034 27.4006 24.7536 27.3894 24.606 27.4082C24.4585 27.4269 24.3162 27.4752 24.1877 27.5502C24.0592 27.6251 23.9471 27.7252 23.8581 27.8443C23.7692 27.9636 23.7051 28.0995 23.6697 28.244C23.6345 28.3885 23.6286 28.5386 23.6526 28.6854C23.6765 28.8323 23.7299 28.9727 23.8094 29.0985C23.8888 29.2242 23.9928 29.3327 24.1151 29.4174C24.2374 29.502 24.3755 29.5612 24.5211 29.5914H28.6844C28.9287 29.5327 29.1458 29.3927 29.3 29.1945C29.4543 28.9961 29.5364 28.7512 29.5332 28.5Z" fill="white" stroke="#263238" stroke-width="0.5" stroke-miterlimit="10"/>
<path d="M89.0692 40.2317C89.0692 39.8803 88.9868 39.5337 88.8288 39.2198C88.6708 38.9059 88.4415 38.6333 88.1592 38.4239C87.8769 38.2144 87.5495 38.0741 87.2033 38.0139C86.857 37.9537 86.5014 37.9755 86.1651 38.0774C85.9374 37.4368 85.5174 36.8822 84.9623 36.4896C84.4074 36.0969 83.7447 35.8853 83.0649 35.8838C82.385 35.8822 81.7213 36.0908 81.1646 36.4809C80.6078 36.8711 80.1852 37.4237 79.9546 38.0632C79.7574 38.0068 79.5534 37.9783 79.3483 37.9784C78.7978 37.9866 78.2694 38.1963 77.8629 38.5678C77.4566 38.9392 77.2004 39.4468 77.1429 39.9944C77.0854 40.542 77.2306 41.0916 77.5509 41.5394C77.8713 41.9872 78.3447 42.3021 78.8815 42.4245L87.3454 42.4083C87.8346 42.2904 88.2703 42.0119 88.5828 41.6175C88.8952 41.2229 89.0665 40.735 89.0692 40.2317Z" fill="white" stroke="#263238" stroke-width="0.5" stroke-miterlimit="10"/>
<path d="M91.0841 41.3513C91.0841 41.0575 90.9675 40.7759 90.7598 40.5682C90.5521 40.3605 90.2704 40.2438 89.9767 40.2438C89.8681 40.2423 89.7598 40.2566 89.6553 40.2862C89.5458 39.9678 89.3396 39.6915 89.0656 39.496C88.7915 39.3004 88.4631 39.1953 88.1265 39.1953C87.7898 39.1953 87.4614 39.3004 87.1874 39.496C86.9133 39.6915 86.7071 39.9678 86.5976 40.2862C86.5015 40.2594 86.4023 40.2458 86.3025 40.2458C86.0288 40.2459 85.765 40.3472 85.5615 40.5303C85.3582 40.7134 85.2298 40.9653 85.2012 41.2375C85.1726 41.5096 85.2457 41.7828 85.4066 42.0042C85.5674 42.2255 85.8045 42.3796 86.0722 42.4366H90.2374C90.4802 42.3778 90.6961 42.2385 90.8499 42.0415C91.0036 41.8444 91.0862 41.6012 91.0841 41.3513Z" fill="white" stroke="#263238" stroke-width="0.5" stroke-miterlimit="10"/>
<path d="M24.4181 60.0779C24.4187 59.7263 24.3369 59.3795 24.1792 59.0653C24.0215 58.751 23.7924 58.4782 23.5103 58.2685C23.2281 58.0588 22.9007 57.9182 22.5544 57.858C22.2081 57.7977 21.8524 57.8194 21.5159 57.9214C21.2889 57.2795 20.8687 56.7237 20.3132 56.3301C19.7576 55.9365 19.0938 55.7245 18.413 55.7232C17.7321 55.7219 17.0675 55.9312 16.5105 56.3227C15.9533 56.7141 15.531 57.2683 15.3014 57.9093C15.104 57.8539 14.9001 57.8253 14.6951 57.8244C14.1446 57.8327 13.6162 58.0424 13.2098 58.4138C12.8034 58.7854 12.5472 59.2928 12.4897 59.8404C12.4322 60.3881 12.5774 60.9378 12.8977 61.3855C13.2181 61.8333 13.6915 62.1482 14.2283 62.2706L22.6921 62.2545C23.1823 62.1379 23.6191 61.8598 23.9321 61.4651C24.2452 61.0702 24.4164 60.5816 24.4181 60.0779Z" fill="white" stroke="#263238" stroke-width="0.5" stroke-miterlimit="10"/>
<path d="M26.433 61.1954C26.433 60.9016 26.3163 60.62 26.1086 60.4123C25.9009 60.2046 25.6192 60.0879 25.3254 60.0879C25.2167 60.0879 25.1085 60.1036 25.0041 60.1344C24.8942 59.8167 24.6879 59.5412 24.4141 59.3462C24.1402 59.1511 23.8125 59.0464 23.4763 59.0464C23.1401 59.0464 22.8123 59.1511 22.5385 59.3462C22.2646 59.5412 22.0583 59.8167 21.9484 60.1344C21.8056 60.0949 21.6564 60.0846 21.5096 60.1038C21.3627 60.1231 21.2211 60.1717 21.0933 60.2466C20.9656 60.3216 20.8542 60.4214 20.7657 60.5402C20.6771 60.6589 20.6133 60.7943 20.5781 60.9381C20.5427 61.082 20.5367 61.2314 20.5602 61.3777C20.5837 61.5239 20.6364 61.6639 20.7149 61.7895C20.7935 61.9151 20.8965 62.0236 21.0178 62.1087C21.139 62.1937 21.2761 62.2536 21.4209 62.2847H25.5862C25.8297 62.2257 26.0461 62.0859 26.1999 61.888C26.3537 61.6901 26.4359 61.446 26.433 61.1954Z" fill="white" stroke="#263238" stroke-width="0.5" stroke-miterlimit="10"/>
</svg>
