<svg width="100" height="100" viewBox="0 0 100 100" fill="none" xmlns="http://www.w3.org/2000/svg">
<path d="M43.3875 15.4271C43.3875 15.4271 42.0249 13.6742 41.3603 13.6652C40.6957 13.6563 40.069 15.048 39.6029 14.9744C39.1368 14.9008 38.6305 13.3039 37.4329 13.6808C36.2353 14.0577 35.9387 15.911 35.1425 15.8441C34.3463 15.7772 30.4948 8.98184 30.4948 8.98184L27.7205 10.5943C27.7205 10.5943 31.8708 17.2135 31.5118 17.9294C31.1527 18.6452 29.4243 17.916 28.4653 18.7344C27.5064 19.5529 28.5991 20.8331 28.4163 21.2657C28.2334 21.6984 27.0358 21.4709 26.6946 22.0418C26.3534 22.6127 26.8016 24.718 26.8016 24.718L34.576 18.7679L43.3875 15.4271Z" fill="white" stroke="#263238" stroke-width="0.5" stroke-miterlimit="10"/>
<path d="M25.1669 7.32481L24.4354 10.6277L25.2985 12.2669L27.4573 11.1317C27.4573 11.1317 26.3511 9.79363 25.1669 7.32481Z" fill="#8946A6" stroke="#263238" stroke-width="0.5" stroke-miterlimit="10"/>
<path d="M28.9069 5.35333L32.0292 6.62007L32.8922 8.25926L30.7423 9.39666C30.7423 9.39666 30.2695 7.72848 28.9069 5.35333Z" fill="#8946A6" stroke="#263238" stroke-width="0.5" stroke-miterlimit="10"/>
<path d="M24.4978 1.57316C24.4978 1.57316 22.7293 6.70258 27.4551 11.1228L30.9431 9.2896C30.9431 9.2896 30.0867 3.36846 24.4978 1.57316Z" fill="white" stroke="#263238" stroke-width="0.5" stroke-miterlimit="10"/>
<path d="M26.282 9.83377C26.6436 10.2927 27.0395 10.7236 27.4662 11.1228L30.9431 9.28961C30.8458 8.71961 30.6965 8.15972 30.497 7.61697L26.282 9.83377Z" fill="#8946A6" stroke="#263238" stroke-width="0.5" stroke-miterlimit="10"/>
<path d="M27.9398 5.8453C28.152 5.11944 27.7357 4.35894 27.0098 4.14668C26.2839 3.93442 25.5234 4.35078 25.3112 5.07665C25.0989 5.80251 25.5153 6.56301 26.2411 6.77527C26.967 6.98753 27.7275 6.57117 27.9398 5.8453Z" fill="#8946A6" stroke="#263238" stroke-width="0.5" stroke-miterlimit="10"/>
<path d="M27.3971 5.05225C27.3176 4.9023 27.1955 4.77924 27.0462 4.69864C26.8968 4.61804 26.7269 4.5835 26.558 4.59939C26.389 4.61528 26.2286 4.68088 26.0969 4.78791C25.9651 4.89494 25.8681 5.03859 25.818 5.20074C25.7679 5.36288 25.767 5.53623 25.8153 5.6989C25.8637 5.86157 25.9592 6.00627 26.0897 6.11471C26.2203 6.22315 26.38 6.29047 26.5488 6.30818C26.7176 6.32588 26.8878 6.29317 27.038 6.21418C27.138 6.16159 27.2266 6.08979 27.2988 6.00289C27.371 5.91598 27.4253 5.81568 27.4587 5.70774C27.4921 5.5998 27.5038 5.48634 27.4932 5.37386C27.4826 5.26137 27.45 5.15209 27.3971 5.05225Z" fill="white" stroke="#263238" stroke-width="0.5" stroke-miterlimit="10"/>
<path d="M92.5564 42.9632L90.7343 44.2277L90.7455 46.4445L88.9792 45.1042L86.8739 45.8L87.6032 43.7058L86.2918 41.9172L88.5086 41.9641L89.8044 40.1643L90.4444 42.2874L92.5564 42.9632Z" fill="white" stroke="#263238" stroke-width="0.5" stroke-miterlimit="10"/>
<path d="M7.45027 51.8594L7.01315 53.3782L8.01674 54.6003L6.43554 54.6538L5.5836 55.9852L5.0439 54.4977L3.51399 54.1007L4.7629 53.1284L4.66923 51.5494L5.97835 52.4348L7.45027 51.8594Z" fill="white" stroke="#263238" stroke-width="0.5" stroke-miterlimit="10"/>
<path d="M33.0528 71.4962L32.6157 73.0149L33.6193 74.2371L32.0381 74.2906L31.1861 75.622L30.6487 74.1367L29.1188 73.7375L30.3654 72.7652L30.2718 71.1862L31.5809 72.0716L33.0528 71.4962Z" fill="white" stroke="#263238" stroke-width="0.5" stroke-miterlimit="10"/>
<path d="M69.8776 71.4962L69.4383 73.0149L70.4419 74.2371L68.8629 74.2906L68.011 75.622L67.4713 74.1367L65.9414 73.7375L67.188 72.7652L67.0944 71.1862L68.4035 72.0716L69.8776 71.4962Z" fill="white" stroke="#263238" stroke-width="0.5" stroke-miterlimit="10"/>
<path d="M15.169 24.2831L14.8634 25.3492L15.5659 26.2056L14.4575 26.2412L13.8621 27.1757L13.4829 26.1342L12.4124 25.8532L13.2867 25.173L13.2198 24.0668L14.1386 24.689L15.169 24.2831Z" fill="white" stroke="#263238" stroke-width="0.5" stroke-miterlimit="10"/>
<path d="M35.5595 2.50315L34.6006 3.06069L34.518 4.16686L33.6929 3.42867L32.6157 3.6896L33.0617 2.67487L32.4796 1.73373L33.5836 1.84524L34.2995 1L34.5336 2.08387L35.5595 2.50315Z" fill="white" stroke="#263238" stroke-width="0.5" stroke-miterlimit="10"/>
<path d="M94.5725 46.3954L94.2647 47.4615L94.9695 48.3179L93.8611 48.3535L93.2634 49.288L92.8865 48.2465L91.8138 47.9677L92.688 47.2853L92.6233 46.1791L93.5399 46.8013L94.5725 46.3954Z" fill="white" stroke="#263238" stroke-width="0.5" stroke-miterlimit="10"/>
<path d="M59.4136 7.18208L58.9743 8.70083L59.9779 9.92298L58.3989 9.9765L57.547 11.3079L57.0072 9.82262L55.4773 9.42341L56.724 8.45105L56.6303 6.87208L57.9395 7.75747L59.4136 7.18208Z" fill="white" stroke="#263238" stroke-width="0.5" stroke-miterlimit="10"/>
<path d="M50.0245 72.6916C66.4283 72.6916 79.7262 59.3937 79.7262 42.9899C79.7262 26.5862 66.4283 13.2883 50.0245 13.2883C33.6208 13.2883 20.3229 26.5862 20.3229 42.9899C20.3229 59.3937 33.6208 72.6916 50.0245 72.6916Z" fill="#8946A6" stroke="#263238" stroke-width="0.5" stroke-miterlimit="10"/>
<path d="M44.0588 70.4703C45.6515 70.8174 47.2716 71.0234 48.9005 71.0858" stroke="#263238" stroke-width="0.5" stroke-miterlimit="10"/>
<path d="M40.4191 69.4154C41.2242 69.7076 42.0427 69.9663 42.8723 70.1848" stroke="#263238" stroke-width="0.5" stroke-miterlimit="10"/>
<path d="M22.9791 35.2958C21.0886 41.953 21.7186 49.0735 24.7485 55.2954C27.7784 61.5173 32.9955 66.4039 39.4022 69.0207" stroke="#263238" stroke-width="0.5" stroke-miterlimit="10"/>
<path d="M26.7592 27.2069C25.7436 28.7054 24.8735 30.2975 24.1611 31.9617" stroke="#263238" stroke-width="0.5" stroke-miterlimit="10"/>
<path d="M45.999 29.7984L49.0276 30.4251L50.0602 31.4956L51.405 31.703L51.8332 32.9786L51.5188 33.8439L50.6021 34.2632L48.3541 33.8975L48.2939 33.6209L49.3555 32.8805L48.6217 31.5268L46.6123 31.2502L45.5419 30.3336L45.999 29.7984Z" fill="white" stroke="#263238" stroke-width="0.5" stroke-miterlimit="10"/>
<path d="M70.4017 57.7404L67.9998 57.3345L65.1006 56.9665L62.9685 57.4393L60.8811 57.4705L58.7847 58.4407L57.5626 58.7864L56.8043 58.9536L55.542 60.0999L54.2886 60.9563L52.17 60.1981L52.2257 58.1664L50.9478 57.9433L49.5718 58.2489L49.2306 57.6846L49.0923 56.4157L48.4589 55.8336L47.5245 56.186L47.4018 56.9353L46.2488 57.2631L44.9419 56.2551L44.1614 54.694L44.7658 52.5374L46.7908 52.2318L47.4487 52.5931L48.2761 52.408L49.1681 51.5605L50.1227 51.6364L51.8354 53.4941L52.3016 53.3202L51.8131 51.759L51.2177 51.0231L51.0638 49.685L53.3654 48.019L53.1423 45.3963L54.0344 44.2567L54.5786 42.4725L55.2365 42.1804L56.5902 40.7977L56.5367 40.2312L55.4506 40.5457L55.1227 40.0394L54.3645 40.2089L53.2494 40.7441L53.6018 39.7272L55.8765 38.505L56.2891 37.7646L57.5893 39.0648L58.3476 39.5465L59.2397 39.0559L58.6286 38.253L56.9537 37.5438L54.8997 36.0518L52.9193 35.2646L51.2065 35.356L50.1963 34.7137L49.0343 34.6825L48.9585 34.988L49.264 37.013L49.6922 37.642L49.5607 39.9814L47.9415 39.1852V38.175L46.3447 37.8092L45.5575 37.1892L45.5196 35.3917L47.1944 33.505L46.9714 31.8212L46.2288 32.0598L45.611 31.5469L45.165 30.5611L44.6676 30.599L44.6386 31.761L43.9004 32.0687L43.0217 29.7359L42.3951 29.5129L41.3402 29.3144L40.3611 30.1084L42.0271 31.1097L42.5623 32.2248L39.6631 30.9179L37.531 29.4416L36.9869 27.6106L35.0756 27.4567L33.8981 28.6565C33.609 28.9329 33.3053 29.1935 32.9881 29.4371C32.6737 29.6601 31.398 30.0794 31.398 30.0794L31.3824 31.3105L29.8213 31.7297L30.1268 32.4568L32.7651 32.3051L34.3932 33.4581L34.9284 35.8667L34.6452 38.1683L35.2875 40.3985L34.1077 44.1898L34.8102 49.3036L36.0725 52.0579L37.4552 54.065L38.519 53.9736L37.9302 52.9477L37.1965 52.2452L36.5163 50.8067L37.1051 50.5324L38.6171 52.7961L39.7947 54.8456L40.1916 56.6298L41.8509 57.921L44.5695 59.1432L48.3608 59.3127L49.6989 60.0999L50.7694 61.0165L52.1744 61.4983L53.7802 61.5763L55.2788 61.1704C55.2788 61.1704 55.3636 61.8729 55.4394 62.2186C55.5152 62.5643 54.8127 63.947 54.8127 63.947L54.3667 65.4903L55.2588 66.8819L56.9113 67.1652L59.5117 68.8936L60.5666 69.092L60.7896 70.1246L61.0127 70.5707C66.1787 68.5228 70.6637 65.0618 73.9544 60.5839L73.8808 60.0776L74.9959 56.2863L73.9633 55.8648L70.4017 57.7404Z" fill="white" stroke="#263238" stroke-width="0.5" stroke-miterlimit="10"/>
<path d="M71.5213 28.9688L70.4753 27.8291L69.1751 26.5289L68.4414 24.5218L69.726 24.4526L69.6412 23.7501L68.7313 23.8795L69.4115 23.3665L70.1319 22.6975L69.978 22.0083L68.9075 21.0917L68.4035 19.6488C63.3163 15.6445 57.0609 13.4106 50.5881 13.2866C44.1152 13.1626 37.7789 15.1554 32.5421 18.9619L34.3798 19.7336L33.6906 21.1854L32.444 21.7519L32.7205 23.6408L32.2143 23.9687L31.6946 24.8786L32.0381 26.103L33.2401 25.9803L33.0171 27.256L34.188 26.9973L35.6175 24.0088L35.5796 22.8625L37.4753 22.2983L37.7741 21.3638L39.7233 20.7148L39.6698 19.4994L41.0993 19.1091C41.0993 19.1091 42.0092 18.3285 42.2144 18.2839C42.6315 18.2814 43.0482 18.3097 43.4611 18.3687L44.6765 18.9641L46.1306 18.6564L47.2011 17.626L48.8135 17.403C49.0739 17.5033 49.3546 17.54 49.632 17.5101C49.9755 17.432 50.901 16.7228 50.901 16.7228L53.1713 17.5168L54.1348 17.9628L54.3578 18.9954L55.4216 18.9039L55.6267 18.2081L56.6147 18.4311L56.6682 18.9954L54.7258 19.9945L56.2311 21.2479L59.0144 22.0753L60.3525 23.2216L61.8958 23.0231L62.0876 22.2581L62.6072 21.9994L60.5131 21.0204L59.3824 21.1274L60.2142 20.6524L59.1281 19.6666L60.2834 19.3366L61.9806 19.8272L62.692 21.4017L63.6465 22.1288L64.7103 23.9865L66.4677 24.7515L66.9739 27.0218L68.7848 27.7042L68.8785 28.4692V29.4103L69.5676 30.5567L69.842 31.1454L71.0574 31.0919L71.3473 29.8006L71.5213 28.9688Z" fill="white" stroke="#263238" stroke-width="0.5" stroke-miterlimit="10"/>
<path d="M70.8857 21.8366L70.9727 22.2314L70.8745 23.4089L71.2938 24.3277L72.1123 24.4348L72.4022 25.7417L71.5101 25.5811L72.1279 29.3434L71.6395 31.0406L72.6163 32.8448L73.6957 33.4715L74.5209 37.1892L76.0575 39.8788L77.5093 41.8682L79.1842 41.9284L79.4295 40.4297L79.6146 40.2067C79.4968 38.9783 79.3039 37.7584 79.037 36.5536C77.8024 30.9621 74.9706 25.8494 70.8857 21.8366Z" fill="white" stroke="#263238" stroke-width="0.5" stroke-miterlimit="10"/>
<path d="M54.8841 24.9366L49.8996 23.9486L47.9192 24.4616L47.7274 25.8755L46.7038 25.1641L45.2675 25.8443L45.6333 28.1458L47.0695 28.7658L47.6739 27.2604L48.9362 28.0633L51.4831 29.446L52.3372 31.3506L54.6321 33.224L57.4154 32.0999L57.1165 31.0852L56.2378 30.0526L55.4885 27.3296L55.9167 26.0071L54.8841 24.9366Z" fill="white" stroke="#263238" stroke-width="0.5" stroke-miterlimit="10"/>
<path d="M58.9363 25.6257L57.8436 25.5789L57.1165 26.5356L58.042 28.4224L58.9363 28.2239V25.6257Z" fill="white" stroke="#263238" stroke-width="0.5" stroke-miterlimit="10"/>
<path d="M65.6269 25.512L63.0131 24.7916L62.3463 24.0735L61.8423 24.4036L62.6295 25.6725L63.4413 27.3697L64.5653 27.5526L64.7103 27.2314L63.8606 26.3371L65.8031 26.6271L65.6269 25.512Z" fill="white" stroke="#263238" stroke-width="0.5" stroke-miterlimit="10"/>
<path d="M51.0504 54.8166L50.8363 55.1534L53.0375 55.3139L54.0768 56.0945L55.4149 55.9406L55.7293 55.0775L54.0857 55.1534L51.0504 54.8166Z" fill="white" stroke="#263238" stroke-width="0.5" stroke-miterlimit="10"/>
<path d="M57.4644 54.7631L56.1107 55.4968L56.4408 56.0031L58.2294 55.6039L58.4524 54.9772L57.848 55.1846L57.4644 54.7631Z" fill="white" stroke="#263238" stroke-width="0.5" stroke-miterlimit="10"/>
<path d="M85.6049 13.8659L72.7747 10.4582L75.8456 14.419L85.6049 13.8659Z" fill="white" stroke="#263238" stroke-width="0.5" stroke-linecap="round" stroke-linejoin="round"/>
<path d="M75.8456 14.419L75.7497 17.0841L85.6049 13.8659L75.8456 14.419Z" fill="white" stroke="#263238" stroke-width="0.5" stroke-linecap="round" stroke-linejoin="round"/>
<path d="M77.0076 15.7505L75.7497 17.0841L85.6049 13.8659L77.0076 15.7505Z" fill="white" stroke="#263238" stroke-width="0.5" stroke-linecap="round" stroke-linejoin="round"/>
<path d="M85.6049 13.8659L77.0076 15.7505L79.2489 19.6555L85.6049 13.8659Z" fill="white" stroke="#263238" stroke-width="0.5" stroke-linecap="round" stroke-linejoin="round"/>
<path d="M73.7336 16.473L73.4036 16.5176" stroke="#263238" stroke-width="0.5" stroke-linecap="round" stroke-linejoin="round"/>
<path d="M72.7434 16.6113C65.424 17.655 19.6873 24.5798 10.1354 35.8288C1.64287 45.8312 15.7555 48.6323 19.0562 49.1386" stroke="#263238" stroke-width="0.5" stroke-linecap="round" stroke-linejoin="round" stroke-dasharray="2.99 2.99"/>
<path d="M19.3684 49.1854C19.5803 49.2166 19.6985 49.2278 19.6985 49.2278" stroke="#263238" stroke-width="0.5" stroke-linecap="round" stroke-linejoin="round"/>
<path d="M23.9492 13.5604C23.9491 13.1726 23.8583 12.7901 23.6839 12.4437C23.5095 12.0973 23.2565 11.7965 22.945 11.5654C22.6335 11.3343 22.2722 11.1794 21.8901 11.113C21.508 11.0466 21.1156 11.0706 20.7444 11.183C20.4944 10.4745 20.0311 9.86071 19.4182 9.4261C18.8052 8.9915 18.0727 8.75738 17.3213 8.75591C16.57 8.75445 15.8366 8.98571 15.2219 9.41791C14.6073 9.85012 14.1416 10.4621 13.8888 11.1697C13.6712 11.1075 13.4461 11.0759 13.2198 11.076C12.6122 11.0851 12.0291 11.3165 11.5806 11.7264C11.1322 12.1364 10.8495 12.6964 10.786 13.3007C10.7226 13.905 10.8828 14.5115 11.2363 15.0057C11.5898 15.4998 12.1122 15.8473 12.7046 15.9824L22.0446 15.9802C22.5879 15.8498 23.0714 15.54 23.417 15.1009C23.7626 14.6619 23.9501 14.1192 23.9492 13.5604Z" fill="white" stroke="#263238" stroke-width="0.5" stroke-miterlimit="10"/>
<path d="M26.1727 14.7937C26.173 14.6028 26.1285 14.4145 26.0428 14.2439C25.9571 14.0733 25.8326 13.9252 25.6792 13.8116C25.5258 13.6979 25.3479 13.6218 25.1598 13.5894C24.9716 13.557 24.7785 13.5692 24.596 13.6251C24.4751 13.2737 24.2476 12.9689 23.9451 12.7531C23.6427 12.5372 23.2804 12.4212 22.9088 12.4212C22.5373 12.4212 22.175 12.5372 21.8725 12.7531C21.5701 12.9689 21.3425 13.2737 21.2217 13.6251C21.0637 13.5805 20.8984 13.5681 20.7355 13.5888C20.5727 13.6095 20.4157 13.6628 20.2739 13.7455C20.1321 13.8282 20.0084 13.9386 19.9102 14.0701C19.812 14.2017 19.7413 14.3517 19.7023 14.5111C19.6634 14.6706 19.6569 14.8363 19.6834 14.9983C19.7098 15.1603 19.7687 15.3153 19.8564 15.4541C19.944 15.5928 20.0588 15.7125 20.1937 15.806C20.3287 15.8994 20.4811 15.9647 20.6418 15.998H25.236C25.5056 15.9333 25.7452 15.7788 25.9154 15.56C26.0856 15.3411 26.1763 15.0709 26.1727 14.7937Z" fill="white" stroke="#263238" stroke-width="0.5" stroke-miterlimit="10"/>
<path d="M91.8717 27.7399C91.8717 27.3521 91.7808 26.9696 91.6064 26.6232C91.4321 26.2768 91.179 25.976 90.8675 25.7449C90.556 25.5138 90.1947 25.3589 89.8126 25.2925C89.4305 25.2261 89.0381 25.2501 88.667 25.3626C88.4157 24.6557 87.9522 24.0437 87.3397 23.6104C86.7273 23.1771 85.996 22.9436 85.2458 22.9419C84.4956 22.9401 83.7632 23.1703 83.1488 23.6008C82.5344 24.0314 82.0681 24.6412 81.8136 25.3469C81.596 25.2847 81.3708 25.2532 81.1445 25.2533C80.537 25.2624 79.9539 25.4938 79.5054 25.9037C79.057 26.3136 78.7743 26.8737 78.7108 27.478C78.6474 28.0823 78.8076 28.6888 79.1611 29.183C79.5146 29.6771 80.037 30.0246 80.6294 30.1597L89.9694 30.1418C90.5093 30.0117 90.9901 29.7044 91.3349 29.2691C91.6797 28.8337 91.8687 28.2953 91.8717 27.7399Z" fill="white" stroke="#263238" stroke-width="0.5" stroke-miterlimit="10"/>
<path d="M94.0952 28.9755C94.0952 28.6513 93.9665 28.3405 93.7373 28.1113C93.5081 27.8821 93.1972 27.7533 92.8731 27.7533C92.7533 27.7517 92.6338 27.7675 92.5185 27.8001C92.3976 27.4488 92.1701 27.1439 91.8677 26.9281C91.5652 26.7123 91.2029 26.5963 90.8314 26.5963C90.4598 26.5963 90.0975 26.7123 89.7951 26.9281C89.4926 27.1439 89.2651 27.4488 89.1442 27.8001C89.0382 27.7705 88.9287 27.7555 88.8186 27.7555C88.5166 27.7556 88.2254 27.8674 88.0009 28.0695C87.7765 28.2715 87.6349 28.5495 87.6033 28.8499C87.5717 29.1502 87.6524 29.4516 87.8299 29.6959C88.0074 29.9402 88.269 30.1102 88.5644 30.1731H93.1608C93.4288 30.1082 93.667 29.9545 93.8367 29.7371C94.0063 29.5196 94.0975 29.2512 94.0952 28.9755Z" fill="white" stroke="#263238" stroke-width="0.5" stroke-miterlimit="10"/>
<path d="M20.5281 49.6404C20.5288 49.2524 20.4385 48.8697 20.2645 48.523C20.0905 48.1762 19.8377 47.8751 19.5263 47.6437C19.2149 47.4123 18.8536 47.2572 18.4715 47.1907C18.0893 47.1242 17.6968 47.1482 17.3255 47.2607C17.075 46.5524 16.6113 45.939 15.9983 45.5047C15.3852 45.0703 14.6527 44.8364 13.9014 44.8349C13.15 44.8335 12.4166 45.0645 11.8019 45.4965C11.1871 45.9284 10.7211 46.54 10.4677 47.2474C10.2499 47.1862 10.0249 47.1547 9.79867 47.1537C9.19114 47.1628 8.608 47.3942 8.15955 47.8041C7.71109 48.2141 7.4284 48.7741 7.36495 49.3784C7.3015 49.9827 7.46169 50.5893 7.81522 51.0834C8.16875 51.5776 8.6911 51.925 9.28349 52.0601L18.6235 52.0423C19.1644 51.9137 19.6464 51.6068 19.9918 51.1712C20.3373 50.7355 20.5262 50.1963 20.5281 49.6404Z" fill="white" stroke="#263238" stroke-width="0.5" stroke-miterlimit="10"/>
<path d="M22.7516 50.8737C22.7516 50.5495 22.6228 50.2387 22.3936 50.0095C22.1644 49.7803 21.8536 49.6515 21.5294 49.6515C21.4094 49.6515 21.29 49.6688 21.1748 49.7028C21.0535 49.3522 20.8259 49.0482 20.5237 48.833C20.2215 48.6178 19.8598 48.5022 19.4888 48.5022C19.1178 48.5022 18.7561 48.6178 18.4539 48.833C18.1517 49.0482 17.9241 49.3522 17.8028 49.7028C17.6452 49.6593 17.4805 49.6479 17.3185 49.6691C17.1564 49.6904 17.0002 49.744 16.8592 49.8267C16.7182 49.9094 16.5953 50.0195 16.4976 50.1506C16.3999 50.2816 16.3295 50.431 16.2906 50.5897C16.2516 50.7485 16.2449 50.9134 16.2709 51.0748C16.2968 51.2362 16.3549 51.3907 16.4416 51.5293C16.5283 51.6679 16.642 51.7876 16.7758 51.8815C16.9096 51.9753 17.0609 52.0414 17.2207 52.0757H21.8171C22.0859 52.0106 22.3247 51.8563 22.4944 51.638C22.6641 51.4196 22.7548 51.1502 22.7516 50.8737Z" fill="white" stroke="#263238" stroke-width="0.5" stroke-miterlimit="10"/>
</svg>
