<svg width="1016" height="1016" viewBox="0 0 1016 1016" fill="none" xmlns="http://www.w3.org/2000/svg">
<path opacity="0.65" d="M506.897 25.1855C515.185 24.0058 523.334 23.1075 531.332 22.5123C539.32 22.0361 547.146 21.8846 554.79 22.0686C562.402 22.3932 569.832 23.0751 577.046 24.0924C584.218 25.2829 591.164 26.8088 597.853 28.6703C604.487 30.6941 610.843 33.0318 616.92 35.6725C622.911 38.443 628.611 41.5058 633.99 44.8175C641.763 50.0448 655.612 61.6032 661.721 67.8478C667.519 74.2006 678.083 87.3608 683.086 94.0816C688.325 100.694 699.738 113.919 706.308 120.489C711.3 124.731 716.733 128.995 722.67 133.27C729.24 137.415 736.412 141.571 744.217 145.759C752.699 149.818 761.824 153.919 771.562 158.075C781.879 162.112 792.701 166.225 803.942 170.391C815.472 174.493 827.174 178.681 838.887 182.956C850.439 187.188 861.669 191.528 872.362 195.986C882.358 200.424 891.44 204.991 899.428 209.709C908.983 216.841 918.678 231.906 918.581 239.839C916.767 245.207 913.61 250.748 909.316 256.441C904.377 262.177 898.795 268.064 892.89 274.103C887.264 280.186 881.993 286.419 877.408 292.794C874.069 299.212 872.04 305.759 871.546 312.437C872.974 319.158 876.217 325.987 881.338 332.935C888.37 339.904 897.045 346.993 907.126 354.158C918.377 361.355 930.337 368.638 942.544 375.997C954.611 383.368 965.97 390.813 976.126 398.313C984.758 405.824 991.361 413.389 995.612 420.997C997.502 428.616 996.729 436.268 993.325 443.941C987.668 451.625 979.798 459.331 970.082 467.058C959.26 474.785 947.74 482.437 936.113 490.013C925.055 497.588 914.942 505.088 906.235 512.513C899.417 519.926 894.607 527.275 891.934 534.547C891.612 541.831 893.373 549.049 897.023 556.203C902.52 563.368 909.262 570.478 916.853 577.545C925.13 584.634 933.354 591.69 941.095 598.725C948.223 605.792 954.085 612.859 958.39 619.905C961.149 627.026 961.944 634.169 960.72 641.322C957.65 648.563 952.604 655.846 945.754 663.173C937.401 670.608 927.653 678.108 916.81 685.695C905.204 693.389 893.094 701.171 880.779 709.05C868.562 717.058 856.677 725.154 845.372 733.357C834.851 741.669 825.242 750.078 816.664 758.573C809.224 767.167 802.9 775.814 797.672 784.515C793.603 793.26 790.5 802.026 788.246 810.77C786.914 819.515 786.163 828.173 785.841 836.734C786.045 845.208 786.388 853.498 786.71 861.582C787.161 869.472 787.344 877.058 787.14 884.31C786.259 894.548 780.966 912.167 776.329 919.342C770.306 925.251 754.32 933.227 744.582 935.251C737.539 935.955 730.067 936.041 722.219 935.533C714.102 934.699 705.696 933.346 697.086 931.55C688.293 929.569 679.361 927.264 670.332 924.688C661.217 922.156 652.07 919.504 642.922 916.831C633.743 914.429 624.607 912.145 615.524 910.078C606.463 908.509 597.466 907.275 588.587 906.463C579.709 906.301 570.948 906.658 562.295 907.545C553.674 909.169 545.149 911.355 536.754 914.093C528.369 917.535 520.091 921.474 511.932 925.857C503.773 930.781 495.721 936.009 487.765 941.452C479.81 947.178 472.037 952.838 464.447 958.346C456.845 963.812 449.416 968.898 442.148 973.52C434.869 977.805 427.729 981.452 420.74 984.375C413.73 986.756 406.848 988.303 400.095 989.007C393.288 989.039 386.599 988.184 380.018 986.442C373.383 984.028 366.824 980.771 360.339 976.712C353.779 972.069 347.273 966.712 340.821 960.727C334.251 954.31 327.723 947.383 321.196 940.045C314.55 932.459 307.904 924.591 301.248 916.517C294.463 908.411 287.645 900.229 280.807 892.058C273.839 884.017 266.85 876.074 259.828 868.292C252.7 860.781 245.571 853.487 238.431 846.452C231.238 839.764 224.067 833.368 216.959 827.242C209.841 821.517 202.809 816.074 195.906 810.89C189.056 806.095 182.368 801.528 175.873 797.177C169.495 793.162 163.354 789.309 157.46 785.586C148.989 780.435 133.669 770.673 126.83 765.879C120.432 761.182 108.901 751.312 103.619 746.009C98.4764 740.5 88.567 728.379 83.725 721.701C78.7865 714.699 69.1026 699.374 64.4431 691.063C61.3189 685.381 58.3451 679.472 55.5322 673.346C52.7301 667.156 50.132 660.76 47.7378 654.169C45.3867 647.524 43.2502 640.705 41.3499 633.703C39.4818 626.658 37.8285 619.461 36.3791 612.112C34.9405 604.731 33.6736 597.221 32.5786 589.569C31.462 581.917 30.5065 574.125 29.6906 566.236C28.8532 558.335 28.1553 550.327 27.64 542.22C27.0924 534.114 26.7489 525.911 26.5986 517.621C26.4697 509.342 26.5771 501.062 26.9099 492.805C27.2857 484.547 27.8976 476.311 28.735 468.097C29.6047 459.883 30.6783 451.69 31.9451 443.519C33.212 435.348 34.6506 427.199 36.2396 419.071C37.7855 410.943 39.4818 402.837 41.3177 394.764C43.1106 386.668 45.0538 378.606 47.1473 370.575C49.2409 362.523 51.5062 354.504 53.9647 346.517C56.4662 338.519 59.1825 330.554 62.1241 322.621C65.1517 314.688 68.4262 306.787 71.9261 298.93C75.512 291.084 79.3233 283.292 83.3386 275.554C87.386 267.826 91.616 260.175 95.9749 252.599C100.312 245.045 104.746 237.599 109.255 230.24C113.657 222.935 118.102 215.748 122.557 208.692C126.862 201.701 131.168 194.861 135.473 188.183C139.628 181.593 143.782 175.175 147.97 168.952C152.028 162.837 156.14 156.928 160.327 151.235C164.46 145.673 168.712 140.326 173.092 135.229C177.504 130.261 182.099 125.532 186.898 121.062C191.773 116.712 196.894 112.621 202.251 108.779C207.737 105.045 213.492 101.56 219.482 98.324C225.645 95.1639 232.043 92.231 238.689 89.5145C245.485 86.8522 252.506 84.3846 259.721 82.1011C267.075 79.8284 274.601 77.7071 282.288 75.7374C290.083 73.7136 297.995 71.8089 306.025 70.0232C314.131 68.1292 322.312 66.3219 330.557 64.5794C338.856 62.718 347.209 60.8889 355.583 59.1141C363.989 57.1876 372.406 55.2829 380.834 53.3998C389.283 51.3651 397.733 49.3521 406.171 47.3824C414.621 45.2612 423.07 43.1941 431.498 41.192C439.925 39.0707 448.353 37.0361 456.749 35.1097C465.155 33.1184 473.54 31.2677 481.893 29.5902C490.256 27.9019 498.587 26.43 506.886 25.1855" stroke="url(#paint0_linear_1141_1154)" stroke-opacity="0.6" stroke-width="2" stroke-linecap="round"/>
<path opacity="0.23" d="M526.994 44.4723C534.852 43.7946 542.52 43.3752 549.987 43.2348C557.435 43.2125 564.658 43.4894 571.657 44.0655C578.624 44.7913 585.344 45.8365 591.816 47.201C598.245 48.7253 604.416 50.5682 610.309 52.7067C618.944 56.3126 634.75 65.1383 641.936 70.2831C648.806 75.8077 661.376 87.9484 667.178 94.4738C672.96 101.139 684.424 114.994 690.359 122.103C694.627 126.81 699.072 131.583 703.752 136.405C708.845 141.146 714.27 145.932 720.089 150.766C726.398 155.515 733.188 160.307 740.46 165.143C748.287 169.887 756.615 174.687 765.457 179.533C774.779 184.292 784.538 189.103 794.68 193.973C805.109 198.753 815.748 203.592 826.491 208.492C837.197 213.303 847.75 218.157 857.986 223.076C867.766 227.889 876.941 232.746 885.317 237.647C892.838 242.457 899.292 247.291 904.538 252.163C910.028 259.328 912.352 273.73 909.335 280.987C906.021 285.782 901.754 290.665 896.716 295.646C891.432 300.622 885.891 305.732 880.383 310.985C873.298 319.049 865.227 336.33 865.602 345.619C868.13 352.04 872.288 358.692 878.066 365.574C885.461 372.577 894.176 379.789 903.966 387.184C914.601 394.647 925.637 402.225 936.678 409.9C947.375 417.563 957.241 425.256 965.85 432.928C972.969 440.52 978.145 448.033 981.121 455.461C981.933 462.751 980.33 469.931 976.337 476.991C970.339 483.925 962.346 490.765 952.69 497.546C942.027 504.248 930.714 510.861 919.253 517.422C908.243 524.013 898.029 530.604 888.996 537.232C881.601 543.983 875.955 550.811 872.218 557.726C870.591 564.795 870.874 571.952 872.936 579.209C876.764 586.598 881.89 594.064 887.96 601.573C894.874 609.162 901.992 616.764 908.917 624.353C915.56 631.967 921.303 639.54 925.846 647.032C929.194 654.518 930.892 661.913 930.841 669.231C929.167 676.515 925.669 683.727 920.421 690.875C913.667 698.007 905.42 705.112 895.916 712.185C885.43 719.3 874.125 726.424 862.291 733.588C850.183 740.82 838.016 748.123 826.038 755.505C814.44 762.989 803.407 770.554 793.078 778.211C783.592 785.98 774.994 793.81 767.33 801.693C760.682 809.656 754.959 817.628 750.119 825.585C746.226 833.541 743.06 841.416 740.515 849.172C738.676 856.845 737.248 864.308 736.084 871.529C734.956 881.909 732.679 900.389 730.977 908.256C725.05 920.065 710.174 930.21 703.067 930.917C697.845 930.799 692.198 930.131 686.134 928.935C679.82 927.462 673.147 925.553 666.189 923.255C659.024 920.834 651.618 918.147 644.022 915.263C636.269 912.455 628.381 909.584 620.374 906.715C612.263 904.132 604.075 901.706 595.842 899.495C587.533 897.755 579.202 896.35 570.855 895.335C562.467 894.935 554.07 894.99 545.705 895.535C537.305 896.751 528.925 898.477 520.577 900.684C512.207 903.528 503.873 906.809 495.598 910.485C487.29 914.646 479.041 919.072 470.865 923.677C462.66 928.55 454.631 933.371 446.762 938.05C438.895 942.708 431.19 947.03 423.652 950.941C416.112 954.58 408.74 957.634 401.539 960.059C394.327 962.007 387.272 963.228 380.366 963.677C373.458 963.52 366.688 962.569 360.038 960.812C353.365 958.436 346.798 955.275 340.325 951.373C333.814 946.903 327.37 941.755 320.99 935.992C314.541 929.792 308.128 923.072 301.756 915.901C295.284 908.462 288.834 900.688 282.379 892.664C275.825 884.525 269.279 876.257 262.717 867.911C256.065 859.625 249.411 851.36 242.763 843.171C236.048 835.173 229.346 827.317 222.684 819.648C216.004 812.26 209.395 805.093 202.856 798.17C196.359 791.565 189.985 785.228 183.767 779.13C177.633 773.373 171.687 767.858 165.952 762.574C160.347 757.602 154.976 752.831 149.873 748.219C142.569 741.786 129.517 729.786 123.736 724.054C118.339 718.554 108.613 707.486 104.166 701.78C99.7659 696.001 91.2658 683.673 87.0956 677.042C82.7907 670.174 74.3414 655.332 70.2605 647.373C67.5158 641.946 64.9142 636.312 62.4656 630.482C60.0084 624.619 57.7479 618.553 55.6926 612.316C53.6822 606.05 51.8892 599.592 50.3321 592.988C48.8306 586.356 47.5658 579.566 46.5153 572.627C45.5206 565.66 44.7388 558.567 44.17 551.347C43.6134 544.106 43.259 536.739 43.1062 529.254C42.9426 521.769 42.9699 514.167 43.1865 506.469C43.3931 498.76 43.7898 490.945 44.3858 483.045C44.9819 475.146 45.7608 467.248 46.7324 459.363C47.6934 451.478 48.8472 443.605 50.1723 435.745C51.4761 427.883 52.9397 420.043 54.5641 412.213C56.1555 404.393 57.8863 396.582 59.7548 388.802C61.5912 381.019 63.5669 373.247 65.6796 365.516C67.7709 357.784 70.0221 350.073 72.4433 342.396C74.8851 334.731 77.5183 327.101 80.3536 319.507C83.2632 311.928 86.3954 304.397 89.7712 296.926C93.2426 289.473 96.9575 282.079 100.905 274.745C104.947 267.45 109.221 260.225 113.693 253.09C118.228 245.98 122.918 238.968 127.763 232.053C132.583 225.191 137.503 218.433 142.491 211.788C147.389 205.213 152.321 198.76 157.254 192.448C162.043 186.213 166.81 180.128 171.544 174.214C176.112 168.387 180.657 162.732 185.177 157.281C189.54 151.927 193.912 146.77 198.289 141.841C204.718 134.731 217.842 121.841 224.653 116.091C231.661 110.767 246.673 101.477 254.753 97.5064C260.334 95.0026 266.125 92.7301 272.14 90.6573C278.292 88.6263 284.647 86.772 291.216 85.1059C297.914 83.4269 304.807 81.9022 311.863 80.5081C319.051 79.0687 326.394 77.7266 333.859 76.4906C341.438 75.1647 349.131 73.9008 356.916 72.6975C364.796 71.3705 372.738 70.0911 380.742 68.8377C388.81 67.4367 396.919 66.0603 405.058 64.7185C413.241 63.2169 421.432 61.7377 429.632 60.3023C437.863 58.7173 446.079 57.1855 454.269 55.7279C462.489 54.1529 470.671 52.6513 478.814 51.2555C486.971 49.8064 495.076 48.4948 503.107 47.3299C511.147 46.1766 519.111 45.2133 526.973 44.4708" stroke="url(#paint1_linear_1141_1154)" stroke-opacity="0.6" stroke-width="2" stroke-linecap="round"/>
<path opacity="0.82" d="M542.367 63.956C549.755 63.7257 556.928 63.728 563.882 63.9842C570.813 64.3355 577.509 64.9715 583.973 65.8921C593.492 67.6148 611.227 72.7598 619.446 76.1608C627.379 80.0794 642.036 89.4766 648.835 94.8888C655.485 100.685 668.165 113.404 674.378 120.265C678.635 124.923 682.916 129.728 687.255 134.66C691.82 139.601 696.522 144.66 701.394 149.818C706.592 154.967 712.039 160.204 717.788 165.527C723.921 170.815 730.411 176.185 737.28 181.639C744.569 187.032 752.249 192.499 760.321 198.032C768.781 203.497 777.591 209.022 786.719 214.601C796.095 220.105 805.672 225.648 815.362 231.228C825.078 236.702 834.726 242.2 844.178 247.704C853.344 253.08 862.089 258.443 870.275 263.773C877.832 268.951 884.603 274.086 890.428 279.168C897.285 286.477 903.72 300.512 903.155 307.25C900.113 313.725 888.484 326.49 880.882 332.95C873.264 339.527 860.478 353.718 856.717 361.502C855.9 366.982 856.385 372.772 858.259 378.873C861.725 385.215 866.6 391.87 872.811 398.829C880.35 405.981 888.884 413.379 898.192 420.993C908.05 428.704 918.056 436.523 927.845 444.421C937.154 452.264 945.537 460.068 952.642 467.783C958.31 475.312 962.148 482.666 963.966 489.818C963.814 496.711 961.482 503.382 957.003 509.822C950.758 516.02 942.717 522.048 933.177 527.936C922.732 533.699 911.685 539.357 900.458 544.98C889.582 550.651 879.347 556.389 870.105 562.241C862.254 568.295 855.928 574.536 851.24 581.003C848.434 587.728 847.352 594.69 847.899 601.865C850.124 609.292 853.624 616.905 858.126 624.645C863.578 632.559 869.413 640.537 875.308 648.545C881.187 656.594 886.489 664.586 890.935 672.493C894.513 680.335 896.776 688.04 897.576 695.588C897.026 703.017 894.844 710.264 891.057 717.357C885.848 724.309 879.163 731.124 871.151 737.811C862.036 744.402 851.923 750.92 841.017 757.374C829.571 763.819 817.749 770.234 805.773 776.671C793.836 783.136 782.11 789.641 770.759 796.186C759.927 802.813 749.707 809.481 740.198 816.181C731.482 822.946 723.567 829.723 716.445 836.478C710.198 843.255 704.699 849.948 699.908 856.532C695.885 863.046 692.429 869.376 689.45 875.466C685.971 884.207 680.667 899.556 678.32 905.94C667.76 918.492 651.587 920.541 645.115 918.407C637.963 915.524 621.738 907.943 612.761 903.575C606.505 900.717 600.028 897.817 593.341 894.944C586.507 892.356 579.48 889.916 572.306 887.674C564.996 885.884 557.559 884.392 549.999 883.245C542.331 882.661 534.553 882.488 526.706 882.743C518.748 883.583 510.729 884.873 502.662 886.594C494.511 888.86 486.32 891.503 478.114 894.494C469.842 897.901 461.56 901.537 453.289 905.327C444.987 909.353 436.809 913.341 428.759 917.183C420.699 921.024 412.785 924.579 405.019 927.761C397.264 930.704 389.675 933.146 382.235 935.04C374.819 936.512 367.569 937.329 360.474 937.469C353.409 937.077 346.484 935.962 339.7 934.123C332.928 931.719 326.297 928.59 319.77 924.777C313.25 920.43 306.826 915.452 300.484 909.862C294.134 903.856 287.844 897.323 281.615 890.34C275.361 883.059 269.145 875.422 262.968 867.495C256.768 859.413 250.584 851.136 244.439 842.734C238.272 834.328 232.145 825.873 226.058 817.435C219.966 809.116 213.939 800.883 207.982 792.768C202.071 784.879 196.258 777.144 190.558 769.611C184.939 762.362 179.477 755.32 174.177 748.519C168.989 742.007 164.009 735.73 159.246 729.681C154.606 723.931 150.208 718.39 146.045 713.034C140.129 705.504 129.65 691.482 125.039 684.874C120.699 678.587 112.825 666.222 109.176 660.031C105.493 653.856 98.2559 641.022 94.6491 634.278C90.8804 627.371 83.4284 612.683 79.8119 604.89C76.2244 596.883 69.7968 579.987 67.0617 571.125C65.3562 565.145 63.8775 559.011 62.6454 552.736C61.4907 546.45 60.5917 540.035 59.9499 533.481C59.3735 526.925 59.0528 520.24 58.9758 513.435C58.9641 506.629 59.1747 499.7 59.6156 492.672C60.0791 485.636 60.7515 478.498 61.6449 471.248C62.5262 464.007 63.5951 456.661 64.8608 449.222C66.1053 441.78 67.5029 434.326 69.0616 426.883C70.5672 419.434 72.2124 411.992 73.9868 404.557C75.708 397.115 77.5476 389.678 79.5149 382.259C81.4063 374.84 83.4253 367.439 85.5614 360.054C87.6428 352.672 89.8625 345.31 92.2176 337.987C94.5514 330.662 97.0525 323.382 99.7209 316.146C102.43 308.927 105.339 301.758 108.455 294.66C111.666 287.575 115.105 280.577 118.783 273.644C122.574 266.759 126.615 259.952 130.892 253.244C135.281 246.583 139.905 240.031 144.731 233.584C149.628 227.178 154.691 220.905 159.911 214.752C165.136 208.643 170.46 202.679 175.854 196.845C181.186 191.067 186.541 185.435 191.897 179.967C197.115 174.545 202.311 169.295 207.462 164.214C212.44 159.207 217.373 154.38 222.247 149.741C229.26 142.993 242.887 130.677 249.565 125.117C256.128 119.935 269.47 110.845 276.358 106.941C283.406 103.377 298.374 97.4157 306.34 94.993C314.648 92.7701 332.354 89.1514 341.742 87.6775C348.182 86.6836 354.783 85.7881 361.534 84.9788C368.405 84.0877 375.409 83.2584 382.523 82.4881C389.742 81.5901 397.061 80.7496 404.463 79.9316C411.961 78.9736 419.518 78.0565 427.126 77.1575C434.809 76.1157 442.52 75.0997 450.236 74.1281C458.024 73.0243 465.796 71.962 473.559 70.964C481.356 69.8725 489.12 68.8638 496.84 67.9472C504.588 66.9799 512.263 66.1448 519.855 65.451C527.458 64.7586 534.969 64.2613 542.357 63.9545" stroke="url(#paint2_linear_1141_1154)" stroke-opacity="0.6" stroke-width="2" stroke-linecap="round"/>
<path opacity="0.32" d="M556.119 83.5757C563.029 83.7177 569.75 84.0857 576.269 84.6881C585.906 85.8605 604.061 89.708 612.586 92.4063C620.855 95.6042 636.386 103.603 643.699 108.37C650.87 113.616 664.709 125.495 671.487 132.074C676.101 136.635 680.721 141.384 685.378 146.329C690.198 151.33 695.115 156.506 700.161 161.852C705.44 167.235 710.91 172.758 716.582 178.422C722.546 184.103 728.77 189.903 735.266 195.827C742.071 201.737 749.162 207.751 756.553 213.85C764.212 219.926 772.142 226.07 780.32 232.288C788.678 238.432 797.189 244.63 805.803 250.861C814.451 256.978 823.064 263.109 831.548 269.224C839.831 275.198 847.825 281.134 855.405 287.007C862.532 292.686 869.063 298.274 874.88 303.758C882.14 311.575 890.809 326.171 891.95 332.927C890.829 339.214 882.959 351.016 876.793 356.675C869.889 362.247 855.995 373.914 850.179 380.276C846.423 387.175 845.712 402.994 849.313 412.03C853.489 418.466 858.843 425.257 865.264 432.403C872.695 439.758 880.85 447.374 889.489 455.201C898.44 463.104 907.307 471.1 915.808 479.12C923.72 487.017 930.653 494.821 936.326 502.463C940.632 509.822 943.236 516.926 943.982 523.733C942.973 530.175 940.019 536.313 935.145 542.141C928.717 547.635 920.703 552.899 911.338 557.96C901.172 562.865 890.438 567.653 879.502 572.409C868.831 577.21 858.671 582.139 849.312 587.223C841.129 592.563 834.226 598.179 828.752 604.103C824.905 610.376 822.58 616.976 821.737 623.895C822.443 631.169 824.366 638.706 827.295 646.475C831.228 654.474 835.679 662.625 840.38 670.838C845.281 679.149 849.883 687.419 853.918 695.617C857.399 703.743 859.884 711.695 861.215 719.452C861.462 727.04 860.336 734.375 857.79 741.47C853.996 748.34 848.806 754.964 842.306 761.349C834.703 767.549 826.013 773.546 816.395 779.361C806.056 785.059 795.109 790.62 783.741 796.094C772.132 801.518 760.437 806.879 748.813 812.211C737.398 817.542 726.324 822.867 715.692 828.173C705.603 833.504 696.121 838.816 687.281 844.097C679.143 849.379 671.708 854.598 664.943 859.701C658.898 864.766 653.489 869.676 648.659 874.375C642.578 881.123 633.168 892.838 629.444 897.6C618.489 906.044 605.765 905.601 601.054 903.175C595.848 900.171 583.71 892.678 576.798 888.469C569.347 884.38 552.844 876.688 543.838 873.393C537.592 871.665 531.128 870.201 524.452 869.024C517.617 868.357 510.593 868.025 503.396 868.055C496.059 868.609 488.56 869.527 480.924 870.792C473.177 872.554 465.3 874.62 457.326 876.953C449.263 879.665 441.13 882.562 432.93 885.566C424.698 888.785 416.521 891.949 408.414 894.984C400.316 898.031 392.318 900.802 384.44 903.254C376.59 905.513 368.865 907.324 361.284 908.644C353.766 909.603 346.386 909.993 339.165 909.764C332.004 909.084 324.996 907.761 318.134 905.773C311.341 903.29 304.693 900.153 298.175 896.379C291.723 892.122 285.383 887.259 279.167 881.846C273.004 876.014 266.942 869.683 260.982 862.91C255.062 855.835 249.23 848.381 243.482 840.624C237.771 832.686 232.149 824.525 226.604 816.202C221.104 807.822 215.699 799.352 210.387 790.856C205.14 782.419 199.994 774.024 194.975 765.7C190.025 757.523 185.233 749.489 180.587 741.596C176.036 733.933 171.666 726.462 167.486 719.185C163.405 712.172 159.545 705.37 155.893 698.778C152.34 692.459 149.016 686.355 145.906 680.438C141.476 672.027 133.716 656.36 130.301 648.988C127.035 641.956 120.978 628.311 118.087 621.59C115.074 614.931 108.97 601.354 105.864 594.344C102.559 587.238 95.9635 572.365 92.7716 564.598C89.6018 556.669 84.0134 540.138 81.7127 531.55C79.7327 522.84 77.1804 504.863 76.6562 495.627C76.5085 489.43 76.6307 483.146 77.0251 476.764C77.5058 470.389 78.2482 463.913 79.2269 457.354C80.2708 450.797 81.5321 444.142 83.0088 437.399C84.4959 430.658 86.1646 423.833 88.0192 416.903C89.84 409.977 91.7831 403.044 93.8588 396.105C95.8504 389.148 97.9515 382.192 100.139 375.243C102.242 368.276 104.434 361.306 106.707 354.364C108.899 347.393 111.173 340.451 113.541 333.529C115.846 326.593 118.276 319.694 120.816 312.84C123.344 305.995 126.027 299.193 128.885 292.45C131.768 285.744 134.859 279.093 138.15 272.539C141.543 266.017 145.157 259.596 149.023 253.283C153.011 247.017 157.239 240.867 161.714 234.846C166.308 228.883 171.138 223.058 176.184 217.354C181.311 211.734 186.619 206.25 192.084 200.91C197.58 195.631 203.187 190.508 208.873 185.534C214.523 180.63 220.197 175.875 225.892 171.289C231.466 166.756 237.028 162.386 242.533 158.192C247.875 154.042 253.158 150.078 258.371 146.288C265.865 140.783 280.246 130.808 287.173 126.357C293.855 122.198 307.058 114.984 313.666 111.936C320.287 109.145 334.009 104.591 341.185 102.788C348.58 101.142 364.254 98.5734 372.545 97.5879C381.141 96.6105 399.256 94.9689 408.733 94.2407C415.209 93.6628 421.785 93.1279 428.473 92.6383C435.263 92.0261 442.137 91.4314 449.067 90.8816C456.102 90.1986 463.171 89.5563 470.29 88.946C477.474 88.2278 484.668 87.5671 491.862 86.9615C499.117 86.2692 506.345 85.6596 513.54 85.1538C520.767 84.5993 527.937 84.1655 535.043 83.8842C542.149 83.6028 549.175 83.4929 556.109 83.5735" stroke="url(#paint3_linear_1141_1154)" stroke-opacity="0.6" stroke-width="2" stroke-linecap="round"/>
<path opacity="0.12" d="M571.013 104.004C580.676 104.844 599.17 107.764 607.984 109.905C616.586 112.493 632.981 119.194 640.798 123.337C648.483 127.959 663.378 138.767 670.677 144.91C675.593 149.229 680.501 153.782 685.421 158.573C690.455 163.476 695.53 168.592 700.702 173.926C706.006 179.342 711.447 184.954 717.026 190.75C722.788 196.609 728.725 202.64 734.854 208.826C741.188 215.036 747.717 221.39 754.432 227.875C761.34 234.346 768.43 240.925 775.675 247.592C790.503 260.785 805.592 274.163 820.489 287.555C834.798 300.366 847.919 312.924 859.129 325.014C868.27 336.121 874.491 346.544 877.319 356.176C877.394 364.722 874.116 372.576 867.831 379.859C862.103 384.961 849.092 395.1 842.711 400.424C837.465 406.122 831.325 419.229 831.194 426.864C832.609 432.404 835.071 438.35 838.588 444.715C843.228 451.371 848.799 458.412 855.168 465.789C862.271 473.371 869.853 481.199 877.665 489.204C885.58 497.238 893.263 505.308 900.427 513.357C906.964 521.218 912.489 528.909 916.795 536.37C920.571 546.851 917.599 565.406 910.681 573.409C904.144 578.251 896.208 582.791 887.063 587.106C877.216 591.223 866.835 595.213 856.244 599.156C845.847 603.165 835.838 607.304 826.464 611.644C818.07 616.269 810.728 621.2 804.588 626.502C799.862 632.21 796.462 638.323 794.362 644.812C793.661 651.725 794.092 658.978 795.521 666.533C797.944 674.4 800.97 682.469 804.369 690.676C808.145 699.012 811.837 707.369 815.234 715.666C818.341 723.926 820.748 732.013 822.278 739.888C823.023 747.577 822.643 754.985 821.09 762.076C818.485 768.906 814.645 775.401 809.603 781.571C803.533 787.465 796.37 793.042 788.235 798.346C779.298 803.403 769.612 808.229 759.34 812.834C737.613 821.611 715.136 829.831 693.001 837.619C671.99 845.294 652.788 852.667 635.769 859.64C621.176 866.506 608.901 872.719 598.706 878.019C580.871 887.022 567.653 889.016 564.22 887.685C556.79 882.987 543.447 873.097 538.03 869.222C532.124 865.502 518.685 858.55 511.13 855.559C503.048 853.308 485.262 850.609 475.605 850.275C468.928 850.608 462.028 851.226 454.907 852.119C447.655 853.447 440.22 854.994 432.616 856.752C424.91 858.84 417.06 861.045 409.098 863.332C401.088 865.796 393.071 868.202 385.102 870.475C377.13 872.759 369.214 874.8 361.388 876.551C353.596 878.144 345.915 879.33 338.363 880.091C330.883 880.547 323.544 880.492 316.342 879.902C309.248 878.916 302.313 877.356 295.528 875.21C288.861 872.636 282.358 869.467 276.002 865.723C269.774 861.553 263.699 856.831 257.777 851.59C251.96 845.974 246.294 839.884 240.778 833.376C235.366 826.57 230.095 819.411 224.958 811.93C219.928 804.266 215.041 796.361 210.284 788.268C205.636 780.104 201.132 771.823 196.77 763.469C192.522 755.148 188.42 746.822 184.486 738.532C176.932 722.31 170.081 706.532 164.008 691.365C158.317 677.079 153.38 663.533 149.223 650.755C145.225 638.853 141.821 627.589 138.922 616.837C135.786 606.704 132.894 596.819 130.136 587.05C127.74 579.854 122.684 565.364 120.034 557.995C117.159 550.553 111.403 535.249 108.631 527.352C105.882 519.372 101.178 502.959 99.339 494.548C97.8609 486.081 96.3873 468.82 96.4436 460.041C96.9849 451.241 99.6639 433.345 101.765 424.263C103.304 418.19 105.085 412.05 107.086 405.838C109.097 399.628 111.285 393.344 113.653 386.975C115.965 380.603 118.393 374.217 120.909 367.834C123.335 361.415 125.836 355.005 128.395 348.589C130.839 342.141 133.339 335.697 135.89 329.267C138.327 322.806 140.837 316.365 143.409 309.942C145.903 303.518 148.5 297.124 151.195 290.78C153.853 284.448 156.663 278.17 159.617 271.977C162.61 265.805 165.787 259.731 169.163 253.746C172.62 247.829 176.315 242.022 180.24 236.348C184.281 230.74 188.573 225.27 193.091 219.953C197.753 214.721 202.639 209.641 207.741 204.712C212.95 199.88 218.337 195.211 223.901 190.703C229.511 186.276 235.252 182.02 241.09 177.937C252.704 169.956 264.426 162.634 276.076 155.977C287.192 149.52 298.018 143.711 308.478 138.585C318.247 133.581 327.683 129.259 336.879 125.644C345.556 122.098 354.215 119.22 362.96 117.041C369.448 115.453 382.823 113.009 389.77 112.101C396.903 111.244 411.901 109.95 419.787 109.473C427.938 108.925 445.024 107.979 453.932 107.553C460.001 107.163 466.17 106.812 472.427 106.508C478.759 106.09 485.169 105.717 491.642 105.395C498.178 104.967 504.751 104.605 511.362 104.31C518.013 103.948 524.676 103.668 531.33 103.498C538.006 103.289 544.671 103.2 551.293 103.268C557.915 103.336 564.492 103.571 571 104.011" stroke="url(#paint4_linear_1141_1154)" stroke-opacity="0.6" stroke-width="2" stroke-linecap="round"/>
<path opacity="0.27" d="M588.774 126.392C597.943 127.708 615.664 131.589 624.235 134.196C635.482 138.2 646.311 143.271 656.788 149.412C667.243 156.141 677.485 163.965 687.646 172.838C697.994 182.249 708.482 192.661 719.233 203.982C730.389 215.676 741.963 228.16 753.987 241.31C766.404 254.575 779.169 268.309 792.068 282.343C804.894 296.098 817.336 309.877 828.936 323.461C839.505 336.312 848.399 348.649 855.094 360.273C859.787 370.82 861.728 380.482 860.712 389.22C857.711 396.932 852.222 403.945 844.768 410.489C837.085 416.712 829.127 423.135 821.954 430.146C817.37 437.927 815.411 447.019 816.734 457.666C822.166 469.681 830.927 483.312 842.407 498.345C855.9 514.035 869.578 530.239 881.743 546.341C891.249 561.488 896.184 575.448 895.41 587.829C893.009 593.299 889.078 598.329 883.66 602.957C877.09 607.165 869.28 611.047 860.402 614.665C850.909 618.053 840.926 621.314 830.72 624.529C820.659 627.784 810.857 631.178 801.564 634.775C785.551 642.916 773.464 652.59 765.838 663.961C763.156 677.145 764.164 691.788 767.702 707.432C773.139 723.831 778.231 740.21 781.555 756.043C782.769 771.172 780.229 784.991 773.626 797.311C763.436 808.3 749.414 817.779 732.328 825.862C713.086 832.949 692.384 839.036 671.21 844.29C650.274 849.123 630.311 853.419 611.872 857.165C595.208 860.75 580.554 863.763 567.912 866.033C557.226 868.046 548.231 869.132 540.587 869.116C531.47 867.944 516.228 859.539 508.336 852.905C502.755 848.583 496.34 843.942 488.979 839.275C481.039 835.676 471.988 832.521 461.796 830.027C450.922 829.093 438.917 829.019 425.889 829.787C419.164 830.727 412.198 831.834 405.036 833.078C397.761 834.615 390.315 836.217 382.709 837.854C375.046 839.654 367.367 841.369 359.677 842.953C351.99 844.561 344.341 845.931 336.747 847.044C321.732 848.839 307.141 849.064 293.107 847.501C279.572 844.67 266.724 839.742 254.62 832.749C243.135 824.311 232.408 813.963 222.477 801.924C213.141 788.834 204.569 774.501 196.787 759.277C189.533 743.679 183.053 727.691 177.363 711.626C172.132 695.84 167.651 680.354 163.942 665.361C160.522 651.009 157.76 637.281 155.608 624.217C153.431 611.844 151.632 600.018 150.137 588.69C148.207 577.828 146.323 567.223 144.423 556.761C141.813 546.506 139.11 536.195 136.34 525.746C132.963 515.345 129.704 504.733 126.73 493.89C123.6 483.107 121.104 472.135 119.44 461C118.123 450.01 117.894 438.903 118.852 427.723C120.343 416.709 123.001 405.582 126.774 394.358C129.889 385.963 137.229 368.96 141.343 360.311C144.085 354.515 146.912 348.703 149.803 342.903C152.593 337.066 155.425 331.21 158.296 325.368C163.641 313.554 169.098 301.745 174.696 290.021C179.909 278.229 185.478 266.621 191.483 255.328C197.571 244.156 204.395 233.452 212.028 223.3C220.127 213.473 229.163 204.323 239.063 195.893C249.428 187.858 260.507 180.546 272.093 174C283.78 167.753 295.659 162.194 307.526 157.32C319.02 152.6 330.267 148.492 341.167 145.018C351.425 141.557 361.314 138.665 370.849 136.359C379.819 133.978 388.6 132.138 397.291 130.852C405.685 129.369 414.208 128.367 422.943 127.83C431.698 126.98 440.836 126.495 450.384 126.338C460.159 125.758 470.415 125.429 481.116 125.327C492.09 124.77 503.481 124.42 515.217 124.318C527.16 123.853 539.329 123.721 551.65 123.998C560.937 124.197 579.521 125.345 588.774 126.392Z" stroke="url(#paint5_linear_1141_1154)" stroke-opacity="0.6" stroke-width="2" stroke-linecap="round"/>
<path opacity="0.18" d="M609.637 151.802C621.32 154.113 632.739 157.345 643.855 161.53C654.857 166.149 665.588 171.84 676.107 178.605C686.565 185.922 696.903 194.341 707.205 203.804C717.574 213.792 728.025 224.769 738.608 236.64C749.339 248.847 760.205 261.807 771.162 275.348C782.116 288.924 792.926 302.837 803.34 316.885C813.275 330.549 822.314 344.036 830.075 357.099C836.634 369.333 841.33 380.867 843.837 391.532C844.677 401.122 843.15 409.791 839.312 417.551C834.306 424.488 827.687 430.877 820.033 437.007C812.957 443.127 806.347 449.686 801.026 457.086C798.446 465.487 798.414 475.31 801.292 486.75C807.575 499.548 816.401 513.838 827.059 529.312C838.942 545.258 850.385 561.438 859.984 577.229C866.929 591.846 869.614 605.052 867.198 616.492C860.164 625.907 848.044 633.575 831.62 639.824C813.082 645.167 793.587 650.261 774.868 655.809C758.695 662.485 745.711 670.697 736.466 680.637C731.518 692.476 729.956 705.913 730.926 720.507C734.069 736.091 737.501 751.847 740.025 767.209C741.365 782.034 739.944 795.603 735.303 807.599C727.751 818.202 716.789 827.044 702.864 834.176C686.668 840.029 668.621 844.467 649.525 847.695C629.979 850.198 610.672 851.839 592.208 852.738C574.809 853.356 558.935 853.364 544.745 852.735C532.165 851.979 521.229 850.547 511.784 848.359C503.647 846.091 496.55 843.06 490.182 839.249C484.455 835.552 478.921 831.266 473.306 826.486C467.673 822.241 461.513 817.861 454.644 813.527C447.305 810.238 438.998 807.33 429.667 804.956C419.674 803.944 408.597 803.581 396.501 803.825C383.831 805.305 370.303 807.154 356.049 809.114C341.568 811.634 327.008 813.625 312.609 814.802C298.41 815.595 284.646 815.01 271.458 812.883C258.832 809.716 246.963 804.745 235.936 797.995C225.628 790.025 216.225 780.374 207.781 769.242C200.043 757.168 193.236 743.953 187.372 729.899C182.13 715.455 177.756 700.563 174.26 685.533C171.198 670.609 168.896 655.849 167.311 641.436C165.89 627.459 165.004 613.926 164.551 600.912C163.913 588.358 163.464 576.24 163.128 564.513C162.218 553.091 161.205 541.883 160.054 530.804C158.161 519.85 156.099 508.883 153.952 497.866C151.235 486.897 148.643 475.829 146.359 464.695C143.981 453.672 142.265 442.631 141.379 431.619C140.889 420.827 141.485 410.093 143.261 399.47C145.589 389.087 149.07 378.768 153.645 368.487C158.5 358.317 164.159 348.07 170.493 337.693C176.577 327.218 182.882 316.746 189.26 306.293C195.068 295.616 200.915 284.957 206.785 274.378C212.217 263.68 217.896 253.194 223.901 243.04C229.922 232.986 236.574 223.453 243.924 214.529C251.698 205.954 260.331 198.105 269.775 191.067C279.714 184.456 290.373 178.652 301.577 173.651C312.998 168.99 324.701 165.065 336.492 161.838C348.08 158.758 359.505 156.279 370.655 154.363C381.316 152.413 391.601 150.936 401.518 149.936C410.906 148.752 420.009 147.988 428.909 147.619C437.456 146.954 445.979 146.645 454.556 146.678C463.043 146.317 471.758 146.245 480.777 146.445C489.886 146.19 499.397 146.168 509.301 146.375C519.397 146.135 529.886 146.149 540.743 146.452C551.755 146.42 563.062 146.765 574.583 147.591C586.152 148.309 597.858 149.663 609.627 151.798" stroke="url(#paint6_linear_1141_1154)" stroke-opacity="0.6" stroke-width="2" stroke-linecap="round"/>
<path opacity="0.58" d="M632.24 180.713C643.431 183.667 654.439 187.524 665.241 192.332C675.895 197.526 686.361 203.777 696.623 211.068C706.766 218.855 716.777 227.706 726.668 237.553C736.472 247.854 746.195 259.074 755.804 271.087C765.304 283.359 774.621 296.254 783.626 309.572C792.32 322.838 800.45 336.263 807.773 349.636C814.387 362.532 819.804 375.052 823.738 387C826.528 398.114 827.517 408.429 826.584 417.848C824.442 426.349 820.493 434.013 814.924 440.925C808.923 447.334 802.099 453.438 795.007 459.55C789.035 465.998 784.006 473.128 780.532 481.281C779.682 490.609 781.131 501.394 785.014 513.729C791.562 527.321 799.922 542.19 809.363 557.972C819.358 573.967 828.495 589.895 835.578 605.162C840.131 619.073 840.787 631.393 836.934 641.808C829.175 650.177 817.032 656.73 801.168 661.796C783.499 665.929 764.911 669.732 746.8 673.904C730.714 679.122 717.162 685.786 706.691 694.127C699.892 704.38 696.106 716.253 694.75 729.418C695.669 743.736 697.342 758.443 698.801 772.931C699.836 787.138 699.015 800.203 695.837 811.782C690.478 822.05 682.292 830.454 671.483 836.967C658.539 842.035 643.634 845.407 627.366 847.236C610.202 848.077 592.718 847.769 575.465 846.46C558.629 844.711 542.762 842.246 528.125 839.14C514.589 835.934 502.465 832.206 491.705 827.955C482.034 823.817 473.462 819.226 465.788 814.223C458.759 809.542 452.169 804.589 445.769 799.43C439.439 794.94 432.868 790.495 425.859 786.201C418.45 782.929 410.332 780.032 401.378 777.591C391.802 776.348 381.333 775.605 369.971 775.312C358.05 776.068 345.378 777.043 332.077 778.047C318.536 779.521 304.981 780.502 291.615 780.755C278.445 780.743 265.767 779.55 253.75 777.057C242.26 773.742 231.632 768.902 221.954 762.572C213.003 755.242 205.075 746.47 198.216 736.428C192.1 725.589 187.027 713.721 182.989 701.099C179.561 688.038 177.069 674.537 175.458 660.822C174.231 647.063 173.719 633.345 173.834 619.818C173.996 606.485 174.563 593.422 175.414 580.701C175.941 568.214 176.533 556.004 177.069 544.044C176.979 532.223 176.687 520.541 176.186 508.958C174.961 497.401 173.553 485.871 172.058 474.345C170.083 462.863 168.261 451.411 166.765 440.031C165.258 428.815 164.416 417.736 164.408 406.87C164.829 396.298 166.309 385.97 168.914 375.92C172.073 366.181 176.32 356.651 181.606 347.307C187.146 338.105 193.444 328.931 200.343 319.739C206.988 310.404 213.763 301.124 220.532 291.877C226.728 282.358 232.857 272.853 238.922 263.449C244.519 253.852 250.238 244.488 256.165 235.45C262.043 226.485 268.411 218.052 275.362 210.274C282.655 202.819 290.709 196.146 299.498 190.328C308.782 184.936 318.744 180.418 329.283 176.758C340.144 173.459 351.358 170.939 362.747 169.141C374.119 167.518 385.447 166.48 396.592 165.991C407.434 165.432 417.985 165.305 428.195 165.562C438 165.573 447.499 165.9 456.74 166.519C465.659 166.753 474.451 167.237 483.187 167.948C491.788 168.212 500.494 168.676 509.37 169.35C518.275 169.54 527.461 169.936 536.957 170.553C546.572 170.722 556.526 171.175 566.818 171.936C577.209 172.383 587.897 173.265 598.845 174.657C609.803 175.958 620.951 177.928 632.23 180.708" stroke="url(#paint7_linear_1141_1154)" stroke-opacity="0.6" stroke-width="2" stroke-linecap="round"/>
<path opacity="0.35" d="M654.162 212.655C664.866 216.218 675.377 220.65 685.679 225.977C695.809 231.656 705.701 238.301 715.344 245.907C724.796 253.939 733.981 262.922 742.89 272.786C751.584 283.011 759.952 294.012 767.93 305.647C775.61 317.443 782.79 329.681 789.324 342.158C795.364 354.5 800.538 366.822 804.661 378.91C808.019 390.496 810.07 401.606 810.675 412.052C810.343 421.78 808.468 430.734 805.066 438.889C800.959 446.376 795.635 453.238 789.351 459.607C783.225 465.819 776.896 472.034 770.843 478.542C766.228 485.684 762.769 493.703 760.903 502.852C761.377 513.245 763.788 525.053 768.09 538.247C774.37 552.516 781.801 567.773 789.698 583.616C797.66 599.41 804.447 614.845 809.147 629.368C811.481 642.417 810.352 653.732 805.302 663.072C796.976 670.387 784.934 675.864 769.711 679.829C752.967 682.858 735.354 685.473 718.021 688.335C702.251 692.144 688.463 697.232 677.16 703.865C668.935 712.353 663.332 722.431 659.986 733.828C658.865 746.537 658.79 759.78 659.038 773.029C659.446 786.261 658.789 798.569 656.572 809.565C652.891 819.446 647.029 827.523 639.034 833.674C629.234 838.377 617.567 841.214 604.483 842.308C590.291 842.237 575.4 840.757 560.303 838.066C545.107 834.745 530.347 830.566 516.324 825.658C502.895 820.594 490.491 815.052 479.168 809.105C468.587 803.342 458.989 797.318 450.257 791.123C442.019 785.381 434.329 779.604 426.983 773.859C419.681 768.836 412.369 764.021 404.843 759.48C396.982 755.898 388.636 752.73 379.722 749.988C370.231 748.297 360.075 747.049 349.246 746.151C337.891 746.134 325.966 746.276 313.598 746.402C300.981 746.946 288.474 747.076 276.273 746.608C264.232 745.935 252.765 744.322 242.031 741.65C231.8 738.323 222.496 733.778 214.213 728.007C206.623 721.432 200.132 713.667 194.758 704.849C190.099 695.316 186.525 684.912 184.009 673.824C182.055 662.281 181.021 650.285 180.851 638.019C180.965 625.57 181.727 613.022 183.022 600.507C184.259 587.982 185.798 575.539 187.517 563.257C188.826 550.99 190.107 538.833 191.254 526.796C191.776 514.734 192.062 502.731 192.119 490.778C191.538 478.78 190.804 466.828 190.017 454.945C188.856 443.1 187.896 431.402 187.287 419.891C186.748 408.6 186.869 397.609 187.8 386.982C189.18 376.717 191.549 366.849 194.988 357.416C198.939 348.343 203.907 339.623 209.804 331.214C215.935 322.959 222.749 314.84 230.068 306.8C237.134 298.595 244.265 290.492 251.311 282.426C257.803 274.049 264.139 265.703 270.327 257.458C276.035 248.946 281.744 240.663 287.553 232.717C293.23 224.781 299.263 217.363 305.74 210.606C312.48 204.123 319.85 198.452 327.839 193.635C336.299 189.243 345.403 185.748 355.058 183.155C365.103 180.937 375.543 179.528 386.256 178.878C397.109 178.413 408.029 178.571 418.893 179.263C429.639 179.921 440.216 180.969 450.543 182.372C460.62 183.521 470.434 184.902 480.014 186.507C489.345 187.71 498.52 189.069 507.582 190.576C516.527 191.607 525.482 192.769 534.502 194.073C543.526 194.887 552.716 195.865 562.112 197.043C571.585 197.8 581.316 198.815 591.301 200.161C601.353 201.207 611.654 202.694 622.17 204.704C632.683 206.635 643.364 209.25 654.162 212.655Z" stroke="url(#paint8_linear_1141_1154)" stroke-opacity="0.6" stroke-width="2" stroke-linecap="round"/>
<path opacity="0.15" d="M672.549 246.128C682.698 250.248 692.589 255.136 702.165 260.82C711.56 266.784 720.597 273.606 729.259 281.233C737.658 289.203 745.641 297.963 753.13 307.417C760.318 317.135 766.94 327.444 772.936 338.184C778.522 349.005 783.349 360.071 787.318 371.205C790.727 382.145 793.13 392.93 794.4 403.366C794.985 413.374 794.345 422.862 792.417 431.734C789.869 440.065 786.122 447.763 781.283 454.863C776.213 461.617 770.441 468.022 764.26 474.244C758.634 480.647 753.238 487.342 748.468 494.57C745.174 502.653 743.096 511.724 742.458 521.966C743.768 533.421 746.586 546.122 750.774 559.984C756.319 574.683 762.458 590.038 768.588 605.65C774.43 620.98 778.951 635.685 781.435 649.246C781.789 661.269 779.111 671.488 773.096 679.701C764.381 685.988 752.552 690.44 738.048 693.366C722.267 695.393 705.714 696.929 689.292 698.558C674.044 701.026 660.328 704.573 648.599 709.465C639.377 716.107 632.377 724.248 627.423 733.67C624.545 744.501 622.876 755.984 621.889 767.657C621.459 779.603 620.611 790.885 618.893 801.08C616.337 810.461 612.268 818.209 606.608 824.151C599.558 828.772 590.934 831.507 580.979 832.42C569.932 832.13 558.014 830.263 545.607 827.022C532.763 823.012 519.924 817.976 507.4 812.105C495.013 805.962 483.235 799.297 472.175 792.239C461.487 785.325 451.533 778.24 442.279 771.107C433.29 764.425 424.799 757.855 416.679 751.468C408.529 745.785 400.483 740.426 392.393 735.432C383.956 731.316 375.257 727.636 366.213 724.399C356.651 722.079 346.652 720.163 336.22 718.589C325.307 717.747 314.037 717.061 302.528 716.38C290.774 716.053 279.282 715.423 268.216 714.367C257.27 713.158 246.997 711.221 237.518 708.497C228.48 705.251 220.423 701.06 213.415 695.903C207.016 690.093 201.737 683.329 197.586 675.709C194.051 667.466 191.586 658.472 190.17 648.87C189.209 638.782 189.132 628.249 189.852 617.378C190.757 606.202 192.242 594.813 194.184 583.311C195.991 571.608 198.041 559.838 200.186 548.044C201.924 536.081 203.588 524.093 205.113 512.099C206.062 499.951 206.819 487.799 207.369 475.66C207.412 463.442 207.364 451.278 207.314 439.232C207.03 427.258 206.994 415.513 207.336 404.072C207.818 392.902 208.946 382.16 210.847 371.909C213.192 362.076 216.464 352.777 220.689 344.03C225.382 335.665 230.977 327.776 237.393 320.307C244.015 312.995 251.207 305.9 258.836 298.968C266.21 291.856 273.569 284.879 280.795 277.979C287.479 270.711 293.962 263.487 300.222 256.357C305.986 248.904 311.665 241.668 317.322 234.747C322.796 227.75 328.492 221.265 334.481 215.396C340.639 209.738 347.298 204.868 354.46 200.841C362.022 197.201 370.152 194.461 378.793 192.61C387.851 191.158 397.341 190.537 407.137 190.686C417.213 191.072 427.449 192.099 437.75 193.673C448.108 195.26 458.421 197.251 468.602 199.585C478.707 201.708 488.64 204.039 498.391 206.559C508.031 208.71 517.526 210.957 526.893 213.313C536.202 215.204 545.47 217.173 554.739 219.235C564.021 220.844 573.378 222.572 582.839 224.452C592.37 225.946 602.043 227.672 611.867 229.689C621.747 231.455 631.777 233.629 641.926 236.311C652.069 238.908 662.302 242.15 672.549 246.128Z" stroke="url(#paint9_linear_1141_1154)" stroke-opacity="0.6" stroke-width="2" stroke-linecap="round"/>
<path opacity="0.12" d="M701.304 339.214C710.791 343.779 719.903 348.97 728.571 354.787C737.042 360.834 745.013 367.558 752.447 374.889C759.604 382.495 766.145 390.685 772.035 399.347C777.563 408.202 782.355 417.445 786.337 426.909C789.889 436.411 792.547 445.981 794.242 455.479C795.432 464.817 795.579 473.907 794.664 482.636C793.242 491.052 790.771 499.02 787.271 506.501C783.447 513.678 778.801 520.453 773.476 526.871C768.264 533.284 762.778 539.627 757.257 546.082C752.522 553.02 748.247 560.47 744.72 568.624C742.572 577.742 741.517 587.872 741.651 599.104C743.306 611.416 746.035 624.765 749.638 638.989C754.08 653.782 758.696 668.911 762.962 683.977C766.709 698.555 769.096 712.265 769.594 724.68C768.223 735.553 764.265 744.608 757.511 751.66C748.572 756.926 737.065 760.404 723.356 762.374C708.602 763.497 693.16 764.049 677.775 764.564C663.252 765.777 649.875 767.85 638.072 771.059C628.273 775.866 620.331 782.024 614.175 789.38C609.861 798.173 606.817 807.69 604.658 817.564C603.31 827.942 602.012 837.929 600.413 847.118C598.479 855.813 595.634 863.145 591.727 868.907C586.862 873.574 580.807 876.485 573.661 877.637C565.544 877.64 556.566 876.029 546.981 872.968C536.795 869.073 526.346 864.02 515.873 858.031C505.198 851.657 494.769 844.662 484.695 837.206C474.665 829.798 465.066 822.212 455.928 814.584C446.814 807.322 438.052 800.207 429.592 793.336C420.984 787.081 412.49 781.183 404.026 775.698C395.2 770.961 386.248 766.691 377.125 762.879C367.525 759.82 357.671 757.166 347.594 754.859C337.087 753.161 326.415 751.636 315.691 750.193C304.739 749.037 294.18 747.715 284.142 746.12C274.2 744.422 264.991 742.22 256.612 739.443C248.595 736.264 241.556 732.378 235.57 727.776C230.081 722.619 225.674 716.728 222.368 710.147C219.552 703.004 217.773 695.216 216.945 686.893C216.482 678.061 216.833 668.777 217.9 659.116C219.098 649.047 220.798 638.676 222.899 628.062C224.851 617.118 227.002 605.975 229.235 594.661C231.1 583.064 232.921 571.333 234.632 559.499C235.883 547.446 237.014 535.337 238.014 523.219C238.661 511.009 239.303 498.892 240.017 486.959C240.628 475.123 241.523 463.586 242.836 452.457C244.351 441.646 246.48 431.359 249.322 421.664C252.602 412.422 256.698 403.799 261.635 395.83C266.995 388.245 273.125 381.216 279.95 374.68C286.944 368.295 294.398 362.213 302.211 356.339C309.782 350.283 317.278 344.374 324.579 338.571C331.395 332.374 337.949 326.23 344.221 320.162C350.026 313.73 355.66 307.478 361.171 301.502C366.467 295.379 371.836 289.719 377.38 284.616C383.007 279.651 388.98 275.41 395.336 271.965C402.026 268.847 409.19 266.599 416.777 265.222C424.786 264.214 433.205 264.039 441.968 264.642C451.072 265.508 460.416 267.04 469.906 269.149C479.618 271.342 489.377 273.96 499.122 276.942C508.957 279.775 518.728 282.862 528.386 286.108C538.09 289.071 547.682 292.123 557.176 295.263C566.705 298.015 576.176 300.803 585.603 303.666C595.092 306.122 604.591 308.669 614.101 311.322C623.691 313.651 633.331 316.16 642.999 318.927C652.734 321.471 662.492 324.366 672.243 327.686C682.003 330.959 691.7 334.777 701.304 339.214Z" stroke="url(#paint10_linear_1141_1154)" stroke-opacity="0.6" stroke-width="2" stroke-linecap="round"/>
<path opacity="0.26" d="M690.121 308.698C698.842 313.565 707.048 318.867 714.694 324.606C722.135 330.536 728.948 336.929 735.087 343.724C740.945 350.715 746.065 358.081 750.407 365.723C754.382 373.511 757.536 381.477 759.797 389.527C761.656 397.584 762.594 405.611 762.591 413.485C762.174 421.268 760.829 428.805 758.551 436.037C755.956 443.12 752.544 449.9 748.39 456.373C744.166 462.81 739.419 469.085 734.334 475.282C729.579 481.741 724.824 488.392 720.266 495.402C716.525 503.069 713.334 511.394 710.859 520.517C709.547 530.589 709.108 541.605 709.559 553.58C711.102 566.438 713.321 580.072 715.997 594.278C719.11 608.787 722.072 623.317 724.496 637.51C726.263 651.048 726.736 663.558 725.503 674.676C722.699 684.288 717.725 692.104 710.471 698.006C701.472 702.272 690.406 704.838 677.557 705.937C663.863 706.251 649.604 705.922 635.347 705.463C621.698 705.553 608.925 706.282 597.374 707.925C587.362 710.984 578.877 715.198 571.918 720.507C566.543 727.214 562.398 734.682 559.222 742.608C556.947 751.241 555.069 759.712 553.278 767.689C550.452 778.872 541.275 794.013 534.314 797.185C528.663 797.791 522.281 796.864 515.295 794.507C507.7 791.348 499.698 786.972 491.466 781.587C482.843 775.735 474.176 769.166 465.594 762.056C456.788 754.872 448.138 747.421 439.696 739.838C431.068 732.524 422.618 725.302 414.319 718.266C405.759 711.722 397.266 705.505 388.795 699.663C379.931 694.442 371.016 689.643 362.005 685.286C352.547 681.529 342.968 678.175 333.327 675.16C323.272 672.63 313.211 670.314 303.223 668.126C293.024 666.168 283.31 664.175 274.176 662.059C265.1 659.864 256.77 657.347 249.269 654.452C242.051 651.247 235.778 647.52 230.486 643.279C225.602 638.577 221.728 633.297 218.857 627.479C216.377 621.139 214.831 614.255 214.155 606.884C213.763 599.012 214.111 590.68 215.082 581.939C216.156 572.735 217.694 563.168 219.582 553.264C221.349 542.967 223.324 532.363 225.396 521.526C227.203 510.339 229.024 498.944 230.802 487.406C232.273 475.628 233.719 463.782 235.15 451.936C236.366 440.023 237.67 428.236 239.143 416.68C240.622 405.277 242.427 394.235 244.655 383.69C247.132 373.479 250.202 363.864 253.907 354.913C258.011 346.42 262.84 338.602 268.375 331.498C274.281 324.77 280.826 318.62 287.941 313.03C295.183 307.572 302.795 302.459 310.676 297.595C318.337 292.541 325.86 287.654 333.175 282.883C340.032 277.701 346.603 272.561 352.865 267.503C358.678 262.027 364.261 256.706 369.664 251.614C374.799 246.304 379.92 241.392 385.083 236.946C390.263 232.56 395.659 228.817 401.304 225.791C407.209 223.007 413.459 221.028 420.075 219.862C427.054 219.033 434.408 219.008 442.089 219.744C450.13 220.756 458.464 222.453 466.997 224.731C475.839 227.15 484.822 230.054 493.882 233.337C503.152 236.581 512.449 240.1 521.738 243.818C531.172 247.347 540.573 251.007 549.917 254.746C559.386 258.204 568.811 261.709 578.171 265.272C587.661 268.514 597.109 271.82 606.5 275.22C616.009 278.347 625.47 281.622 634.871 285.075C644.333 288.365 653.723 291.926 662.965 295.807C672.215 299.664 681.292 303.95 690.121 308.698Z" stroke="url(#paint11_linear_1141_1154)" stroke-opacity="0.6" stroke-width="2" stroke-linecap="round"/>
<path opacity="0.1" d="M687.96 333.619C695.822 338.604 703.077 343.856 709.665 349.357C716.081 355.007 721.769 360.92 726.715 367.035C731.39 373.318 735.271 379.779 738.337 386.347C741.065 393.029 742.956 399.764 743.967 406.475C744.658 413.238 744.477 419.909 743.451 426.419C742.143 432.944 740.035 439.293 737.203 445.44C734.211 451.635 730.622 457.684 726.55 463.643C722.557 469.795 718.288 476.002 713.893 482.373C709.927 489.2 706.087 496.413 702.529 504.132C699.719 512.583 697.398 521.744 695.671 531.679C694.833 542.481 694.611 554.081 694.983 566.424C696.037 579.414 697.45 592.911 699.007 606.672C700.677 620.491 702.011 634.077 702.699 647.103C702.702 659.352 701.513 670.489 698.874 680.192C694.921 688.482 689.208 695.039 681.682 699.793C672.799 703.101 662.273 704.803 650.348 705.126C637.745 704.727 624.711 703.665 611.662 702.349C599.018 701.466 587.039 701.023 575.99 701.27C566.116 702.737 557.461 705.156 550.08 708.521C543.992 713.2 539.015 718.621 535.027 724.575C531.928 731.349 529.404 738.17 527.237 744.755C524.393 754.445 517.529 768.718 512.804 772.424C506.809 773.676 491.478 768.531 482.434 762.618C475.856 757.867 469.057 752.314 462.138 746.145C454.852 739.805 447.507 733.089 440.162 726.135C432.493 719.325 424.811 712.469 417.148 705.714C409.127 699.3 401.07 693.1 392.99 687.19C384.502 681.744 375.944 676.647 367.339 671.91C358.295 667.65 349.205 663.718 340.113 660.1C330.655 656.862 321.259 653.833 312.011 650.961C302.575 648.268 293.632 645.626 285.282 642.955C276.956 640.246 269.349 637.342 262.516 634.192C255.901 630.803 250.147 627.054 245.292 622.925C238.912 615.928 231.076 599.024 229.416 589.073C228.792 581.813 228.833 574.113 229.432 565.984C230.127 557.406 231.251 548.419 232.726 539.066C234.137 529.298 235.784 519.199 237.583 508.822C239.225 498.103 240.963 487.158 242.767 476.061C244.409 464.761 246.136 453.409 247.945 442.098C249.702 430.762 251.621 419.6 253.79 408.719C256.061 398.041 258.693 387.778 261.742 378.055C265.071 368.692 268.93 359.956 273.369 351.917C278.168 344.34 283.564 337.445 289.564 331.271C295.865 325.45 302.681 320.24 309.953 315.578C317.321 311.034 324.968 306.849 332.804 302.946C340.449 298.838 347.929 294.902 355.156 291.089C361.998 286.867 368.543 282.691 374.746 278.559C380.565 274.003 386.1 269.554 391.402 265.282C398.903 258.613 413.575 247.096 421.121 242.695C429.121 239.202 446.881 236.229 456.724 236.79C463.747 237.672 471.034 239.212 478.555 241.363C486.413 243.684 494.471 246.5 502.661 249.756C511.138 253.051 519.713 256.655 528.35 260.529C537.217 264.301 546.117 268.251 554.991 272.33C564.082 276.231 573.141 280.208 582.153 284.245C591.337 288.088 600.459 291.974 609.488 295.935C618.667 299.709 627.721 303.586 636.65 307.582C645.658 311.474 654.486 315.551 663.081 319.852C671.691 324.139 680.005 328.707 687.96 333.619Z" stroke="url(#paint12_linear_1141_1154)" stroke-opacity="0.6" stroke-width="2" stroke-linecap="round"/>
<path opacity="0.71" d="M679.847 352.941C686.806 357.898 693.107 362.969 698.726 368.144C704.176 373.418 708.883 378.805 712.844 384.267C718.044 392.669 724.087 409.746 724.935 418.291C724.633 426.895 720.193 443.857 716.311 452.256C713.509 458.029 710.284 463.831 706.752 469.734C703.387 475.975 699.884 482.458 696.373 489.27C693.253 496.627 690.3 504.477 687.622 512.883C685.518 522.006 683.777 531.794 682.454 542.245C681.736 553.399 681.388 565.158 681.364 577.432C681.699 590.11 682.142 603.021 682.493 615.939C682.765 628.71 682.592 641.04 681.748 652.636C680.256 663.424 677.738 673.045 674.003 681.265C669.216 688.186 663.047 693.505 655.465 697.166C646.835 699.551 636.963 700.487 626.009 700.12C614.528 699.11 602.729 697.439 590.922 695.437C579.391 693.753 568.338 692.331 558.011 691.385C548.532 691.46 540.018 692.303 532.529 693.921C523.323 698.456 510.648 711.707 506.449 719.345C500.194 733.65 489.603 746.148 484.766 746.091C478.971 744.151 465.1 734.701 457.192 727.754C451.44 722.689 445.49 717.144 439.388 711.262C432.895 705.411 426.264 699.394 419.526 693.312C412.385 687.453 405.122 681.667 397.755 676.024C389.984 670.704 382.107 665.612 374.155 660.752C365.812 656.23 357.415 651.965 349.034 647.924C340.33 644.167 331.701 640.571 323.221 637.105C314.582 633.785 306.408 630.54 298.758 627.323C291.128 624.061 284.14 620.7 277.83 617.181C271.692 613.463 266.301 609.501 261.685 605.245C255.517 598.211 247.383 581.71 245.273 572.167C244.273 565.237 243.868 557.895 243.997 550.151C244.212 541.985 244.86 533.43 245.862 524.524C246.869 515.234 248.158 505.626 249.669 495.762C251.139 485.61 252.804 475.254 254.616 464.788C256.411 454.183 258.382 443.572 260.551 433.048C262.762 422.56 265.233 412.304 268.002 402.361C270.932 392.664 274.244 383.435 277.97 374.744C281.973 366.442 286.458 358.762 291.442 351.777C296.736 345.22 302.537 339.35 308.83 334.166C315.344 329.303 322.284 325.026 329.577 321.283C336.93 317.63 344.494 314.336 352.182 311.33C359.708 308.109 367.049 305.07 374.135 302.145C380.887 298.811 387.344 295.526 393.47 292.263C399.257 288.567 404.754 284.944 409.98 281.448C417.375 275.823 431.419 265.841 438.405 261.876C445.636 258.55 461.271 255.3 469.828 255.46C475.913 256.021 482.239 257.197 488.782 258.963C495.66 260.915 502.739 263.386 509.982 266.31C517.537 269.326 525.233 272.702 533.029 276.387C541.092 280.074 549.234 283.977 557.397 288.059C565.795 292.07 574.212 296.207 582.575 300.431C591.155 304.544 599.658 308.736 608.064 312.994C616.624 317.152 625.047 321.382 633.288 325.693C641.616 329.96 649.713 334.335 657.516 338.843C665.34 343.361 672.805 348.052 679.847 352.941Z" stroke="url(#paint13_linear_1141_1154)" stroke-opacity="0.6" stroke-width="2" stroke-linecap="round"/>
<path opacity="0.73" d="M667.928 367.288C673.985 372.098 679.415 376.92 684.185 381.742C690.761 389.119 700.142 404.033 702.915 411.526C704.68 419.162 704.568 434.498 702.886 442.231C700.517 450.261 693.683 467.145 689.606 476.265C686.99 482.835 684.294 489.757 681.624 497.086C679.258 504.953 677.011 513.322 674.952 522.233C673.275 531.734 671.828 541.801 670.599 552.378C669.72 563.446 669.007 574.914 668.389 586.646C667.903 598.563 667.331 610.488 666.548 622.193C665.553 633.599 664.088 644.439 661.999 654.438C659.331 663.644 655.806 671.685 651.304 678.408C645.996 683.982 639.625 688.101 632.189 690.725C623.974 692.274 614.836 692.507 604.888 691.567C594.539 690.064 583.974 687.905 573.429 685.385C563.044 683.07 553.023 680.877 543.558 679.001C534.687 677.921 526.559 677.422 519.246 677.546C509.823 679.57 495.916 687.544 490.999 692.795C479.387 709.874 466.977 716.259 462.273 714.108C456.798 710.689 443.984 700.14 436.707 693.469C431.39 688.843 425.865 683.943 420.147 678.848C414.02 673.864 407.719 668.805 401.267 663.735C394.419 658.872 387.416 654.069 380.321 649.359C372.87 644.892 365.349 640.531 357.807 636.29C349.987 632.25 342.232 628.284 334.583 624.374C326.795 620.565 319.396 616.821 312.45 613.082C305.515 609.321 299.115 605.494 293.29 601.529C287.58 597.428 282.513 593.115 278.09 588.576C272.066 581.251 263.574 564.561 260.996 555.115C259.66 548.341 258.86 541.206 258.527 533.706C258.332 525.88 258.557 517.697 259.152 509.218C259.827 500.443 260.823 491.395 262.107 482.138C263.453 472.69 265.059 463.107 266.914 453.464C268.847 443.764 271.032 434.122 273.502 424.62C276.086 415.221 278.98 406.092 282.215 397.329C285.652 388.832 289.46 380.799 293.669 373.329C298.134 366.22 303.03 359.732 308.358 353.89C313.938 348.439 319.937 343.63 326.324 339.46C332.897 335.569 339.789 332.219 346.946 329.37C354.14 326.574 361.501 324.124 368.949 321.944C376.253 319.562 383.36 317.348 390.229 315.228C396.835 312.738 403.153 310.27 409.161 307.813C417.609 303.51 432.84 294.723 439.819 290.512C446.541 286.273 459.895 279.618 466.751 277.479C473.986 276.04 489.593 276.241 498.045 277.864C504.021 279.295 510.186 281.214 516.507 283.594C523.115 286.098 529.868 288.991 536.743 292.223C543.885 295.514 551.122 299.068 558.406 302.856C565.929 306.644 573.478 310.6 580.996 314.697C588.728 318.76 596.404 322.931 603.972 327.192C611.703 331.402 619.288 335.705 626.67 340.074C634.14 344.42 641.372 348.858 648.3 353.37C655.231 357.906 661.8 362.544 667.928 367.288Z" stroke="url(#paint14_linear_1141_1154)" stroke-opacity="0.6" stroke-width="2" stroke-linecap="round"/>
<path opacity="0.47" d="M654.539 378.519C662.067 385.377 674.045 399.079 678.438 405.935C681.975 412.918 685.848 427.039 686.259 434.218C685.964 441.687 683.017 457.371 680.612 465.763C677.291 478.026 673.25 491.502 669.004 506.471C665.551 523.285 662.296 541.899 659.389 562.002C658.177 572.539 656.962 583.257 655.686 594.038C654.394 604.816 652.898 615.404 651.127 625.628C649.113 635.456 646.635 644.633 643.616 652.951C640.109 660.516 635.914 666.984 630.987 672.241C625.436 676.525 619.103 679.516 611.995 681.208C604.334 681.998 595.989 681.636 587.067 680.234C577.851 678.354 568.507 675.854 559.199 672.961C549.976 670.207 541.047 667.459 532.525 664.878C524.405 662.911 516.838 661.35 509.902 660.261C500.64 660.154 486.105 663.406 480.613 666.368C476.136 670.261 465.966 681.597 459.924 685.144C452.564 685.274 438.327 676.422 432.458 671.685C428.126 668.319 423.555 664.605 418.78 660.599C413.651 656.635 408.311 652.472 402.789 648.156C396.917 643.969 390.881 639.681 384.707 635.352C378.242 631.167 371.674 626.957 365.064 622.722C358.218 618.635 351.396 614.507 344.642 610.324C337.751 606.226 331.188 602.128 324.992 597.99C318.776 593.84 313.001 589.606 307.695 585.231C302.473 580.765 297.769 576.116 293.59 571.253C289.575 566.224 286.09 560.927 283.15 555.367C280.392 549.59 278.161 543.497 276.442 537.109C274.899 530.472 273.824 523.528 273.215 516.294C272.439 501.129 273.267 484.936 275.474 468.11C278.156 450.886 282.14 433.599 287.354 416.918C290.203 408.796 293.397 400.968 296.93 393.526C300.671 386.362 304.772 379.66 309.249 373.487C313.957 367.667 319.023 362.411 324.473 357.758C330.117 353.44 336.103 349.699 342.4 346.527C348.83 343.591 355.516 341.131 362.401 339.12C369.309 337.145 376.351 335.469 383.449 334.05C390.428 332.439 397.233 330.974 403.809 329.589C413.237 327.008 430.45 321.292 438.244 318.19C445.527 314.606 459.069 307.747 465.522 304.745C469.803 302.731 474.07 301.083 478.372 299.821C487.301 297.436 496.652 296.927 506.462 298.295C517.155 300.195 528.448 303.871 540.161 309.03C546.374 311.717 552.669 314.723 559.021 317.985C565.59 321.291 572.192 324.817 578.778 328.52C585.547 332.235 592.263 336.111 598.899 340.1C605.659 344.088 612.294 348.18 618.744 352.362C625.263 356.552 631.558 360.831 637.574 365.17C643.583 369.538 649.253 373.991 654.539 378.519Z" stroke="url(#paint15_linear_1141_1154)" stroke-opacity="0.6" stroke-width="2" stroke-linecap="round"/>
<path opacity="0.94" d="M641.526 389.179C650.312 397.849 657.139 406.56 662.021 415.269C666.368 424.301 668.779 433.534 669.429 443.022C669.682 453.164 668.47 463.94 666.163 475.523C663.858 488.242 660.877 502.218 657.552 517.504C654.581 534.156 651.433 552.091 648.127 570.833C644.879 590.034 641.02 608.925 636.176 626.406C630.345 642.149 622.732 654.826 613.007 663.438C601.554 668.809 587.882 669.866 572.377 666.905C556.027 662.361 539.808 656.193 524.539 649.774C510.258 645.143 497.784 641.799 487.338 639.981C478.378 640.873 471.166 642.778 465.389 645.055C458.098 650.138 444.903 654.137 437.235 651.338C431.007 648.528 424.007 643.926 416.253 637.866C407.338 631.886 397.659 624.87 387.405 617.082C376.147 609.672 364.577 601.67 353.065 593.085C341.103 584.752 330.27 576.001 320.813 566.771C311.624 557.312 304.146 547.038 298.453 535.932C293.372 524.255 290.101 511.562 288.526 498.048C287.591 483.973 288.248 469.23 290.345 454.196C293.046 439.133 297.155 424.298 302.598 410.269C308.742 396.993 316.262 385.112 325.133 375.106C334.71 366.328 345.574 359.558 357.514 354.882C369.812 350.933 382.821 348.406 396.183 347.037C409.188 344.964 421.495 343.228 432.914 341.537C443.632 338.396 453.53 335.29 462.678 332.375C471.431 328.433 479.857 325.231 488.066 323.05C496.487 320.671 505.106 319.754 513.952 320.38C523.435 321.292 533.325 323.787 543.516 327.664C554.434 331.862 565.602 337.226 576.767 343.535C588.502 349.955 600.023 357.102 610.989 364.766C622.163 372.478 632.469 380.642 641.526 389.179Z" stroke="url(#paint16_linear_1141_1154)" stroke-opacity="0.6" stroke-width="2" stroke-linecap="round"/>
<path opacity="0.12" d="M629.812 401.765C637.237 409.909 643.084 418.289 647.38 426.881C651.259 435.754 653.598 445.024 654.546 454.765C655.148 465.077 654.566 476.17 653.03 488.107C651.398 500.916 649.046 514.808 646.17 529.67C643.327 545.347 639.999 561.763 636.206 578.376C632.168 594.886 627.341 610.625 621.526 624.688C614.867 637.056 606.775 646.584 597.154 652.605C586.331 656.014 573.992 655.838 560.416 652.309C546.267 647.484 532.29 641.136 519.058 634.347C506.407 628.79 495.043 624.016 485.173 620.361C476.275 618.875 468.762 618.342 462.469 618.387C454.205 620.539 439.976 622.6 432.583 620.746C426.911 619.03 420.711 615.833 413.987 611.237C406.366 606.713 398.147 600.999 389.474 594.257C380.023 587.723 370.29 580.285 360.6 571.962C350.533 563.797 341.354 555.008 333.29 545.657C325.418 536.209 318.929 526.008 313.93 515.138C309.44 503.979 306.518 492.091 305.129 479.681C304.34 467.083 305.059 454.151 307.204 441.277C309.963 428.624 314.105 416.44 319.581 405.197C325.671 394.731 333.077 385.618 341.668 378.2C350.815 371.8 361.044 367.129 372.163 364.227C383.518 361.835 395.474 360.666 407.762 360.461C419.774 359.634 431.25 359.108 442.033 358.608C452.307 356.856 461.921 355.069 470.902 353.342C479.562 350.597 487.857 348.301 495.876 346.686C503.976 344.667 512.101 343.715 520.281 343.948C528.851 344.242 537.648 345.844 546.587 348.698C556.033 351.739 565.624 355.934 575.169 361.111C585.096 366.412 594.839 372.542 604.1 379.363C613.474 386.228 622.152 393.726 629.812 401.765Z" stroke="url(#paint17_linear_1141_1154)" stroke-opacity="0.6" stroke-width="2" stroke-linecap="round"/>
<path opacity="0.56" d="M619.266 417.959C625.469 425.601 630.425 433.681 634.143 442.163C637.541 450.866 639.703 460.13 640.73 469.953C641.468 480.206 641.189 491.216 640.031 502.954C638.687 515.246 636.584 528.313 633.835 541.932C630.927 555.897 627.361 570.095 623.164 584.007C618.624 597.481 613.259 609.912 607.003 620.62C600.11 629.8 592.112 636.508 583.03 640.272C573.185 642.037 562.305 640.898 550.618 637.038C538.567 632.148 526.706 625.896 515.41 619.09C504.412 613.073 494.312 607.449 485.263 602.543C476.782 599.261 469.313 596.745 462.782 594.827C453.848 594.006 438.37 592.552 430.82 590.412C425.341 588.9 419.586 586.257 413.539 582.465C406.857 578.782 399.808 573.966 392.492 568.073C384.6 562.324 376.558 555.536 368.594 547.738C360.338 540.049 352.846 531.662 346.271 522.716C339.819 513.76 334.525 504.155 330.478 494.078C326.825 483.924 324.518 473.318 323.57 462.486C323.126 451.721 324.053 440.922 326.294 430.431C329.062 420.322 333.123 410.841 338.395 402.33C344.175 394.553 351.112 388.008 359.088 382.935C367.449 378.665 376.732 375.829 386.771 374.442C396.943 373.387 407.665 373.339 418.72 374.112C429.579 374.348 440.066 374.848 450.051 375.383C459.688 374.872 468.843 374.32 477.508 373.776C485.927 372.274 494.032 371.038 501.843 370.223C509.653 368.9 517.387 368.309 525.054 368.573C532.928 368.714 540.88 369.887 548.823 372.1C557.08 374.36 565.351 377.663 573.504 381.931C581.897 386.261 590.076 391.477 597.82 397.511C605.63 403.567 612.851 410.395 619.266 417.959Z" stroke="url(#paint18_linear_1141_1154)" stroke-opacity="0.6" stroke-width="2" stroke-linecap="round"/>
<path opacity="0.26" d="M608.936 438.036C614.041 445.158 618.126 452.851 621.212 461.03C624.04 469.363 625.864 478.286 626.737 487.747C627.363 497.473 627.079 507.806 625.989 518.635C624.685 529.729 622.607 541.244 619.843 552.937C616.849 564.608 613.144 576.139 608.777 587.087C604.079 597.434 598.642 606.656 592.447 614.264C585.819 620.612 578.382 624.898 570.183 626.827C561.54 627.297 552.197 625.47 542.343 621.494C532.254 616.741 522.361 610.814 512.891 604.3C503.54 598.236 494.773 592.26 486.715 586.684C478.946 582.217 471.853 578.274 465.438 574.818C456.337 571.353 440.171 565.739 432.501 562.506C427.12 560.494 421.671 557.746 416.169 554.157C410.213 550.701 404.118 546.34 397.979 541.056C391.415 535.851 384.873 529.716 378.509 522.648C371.925 515.635 366.029 508.024 360.936 499.94C355.909 491.893 351.867 483.386 348.866 474.608C346.15 465.891 344.574 456.975 344.155 448.079C344.119 439.385 345.259 430.887 347.553 422.86C350.235 415.25 354.055 408.319 358.922 402.342C364.131 396.964 370.342 392.655 377.442 389.595C384.782 387.096 392.897 385.767 401.656 385.579C410.495 385.592 419.831 386.429 429.524 387.961C439.088 389.047 448.429 390.367 457.459 391.768C466.254 392.324 474.747 392.879 482.881 393.427C490.855 393.154 498.574 393.046 506.03 393.185C513.462 392.779 520.769 392.871 527.926 393.56C535.187 393.993 542.402 395.195 549.499 397.221C556.751 399.168 563.923 401.995 570.899 405.691C577.998 409.385 584.84 413.932 591.291 419.328C597.742 424.724 603.675 430.959 608.936 438.036Z" stroke="url(#paint19_linear_1141_1154)" stroke-opacity="0.6" stroke-width="2" stroke-linecap="round"/>
<path opacity="0.23" d="M597.548 460.684C601.624 467.227 604.853 474.323 607.247 481.87C609.451 489.504 610.809 497.647 611.372 506.177C611.719 514.821 611.283 523.86 610.106 533.129C608.729 542.443 606.631 551.873 603.877 561.171C600.915 570.271 597.285 578.976 593.047 586.963C588.57 594.36 583.465 600.689 577.771 605.629C571.803 609.612 565.247 611.962 558.186 612.497C550.869 612.013 543.097 609.791 534.972 605.907C526.726 601.463 518.63 596.043 510.831 590.071C503.065 584.301 495.672 578.427 488.725 572.686C481.887 567.642 475.481 562.867 469.522 558.426C460.84 552.992 444.987 543.608 437.529 539C432.405 536.168 427.352 532.911 422.398 529.145C417.145 525.522 411.933 521.281 406.841 516.381C401.466 511.544 396.233 506 391.299 499.758C386.208 493.551 381.753 486.936 378.01 480.054C374.296 473.209 371.415 466.146 369.406 459.001C367.565 451.974 366.683 444.955 366.74 438.161C367.679 428.456 374.737 411.977 380.715 405.821C387.864 401.2 406.129 397.252 416.923 397.851C424.338 398.635 432.208 400.093 440.449 402.145C448.612 403.837 456.684 405.771 464.582 407.81C472.354 409.224 479.95 410.687 487.306 412.16C494.579 412.997 501.666 413.941 508.546 415.043C515.398 415.663 522.112 416.612 528.649 417.956C535.223 419.014 541.682 420.608 547.944 422.81C554.284 424.862 560.458 427.616 566.367 431.071C572.342 434.479 578.021 438.639 583.294 443.564C588.552 448.471 593.356 454.166 597.548 460.684Z" stroke="url(#paint20_linear_1141_1154)" stroke-opacity="0.6" stroke-width="2" stroke-linecap="round"/>
<path opacity="0.99" d="M584.018 483.302C590.15 494.983 593.373 508.339 593.897 522.53C593.844 536.786 591.106 551.525 586.062 565.287C580.438 578.064 572.579 588.443 562.925 594.705C552.741 598.344 540.876 596.963 527.965 590.289C514.826 582.085 502.203 571.439 490.663 560.258C479.19 550.555 468.654 541.236 459.244 532.556C449.499 525.426 440.339 517.989 431.983 509.829C422.876 502.165 414.348 492.991 407.115 482.232C399.427 471.552 394.26 460.306 391.815 449.404C389.692 438.847 390.652 429.236 394.556 421.61C399.014 414.939 406.328 410.826 416.031 409.864C426.013 409.68 438.044 412.11 451.544 416.899C464.891 420.662 478.224 425.203 490.967 429.943C503.53 432.883 515.724 436.404 527.118 440.757C538.584 444.059 549.473 449.035 559.2 455.971C569.003 462.621 577.535 471.674 584.018 483.302Z" stroke="url(#paint21_linear_1141_1154)" stroke-opacity="0.6" stroke-width="2" stroke-linecap="round"/>
<path opacity="0.86" d="M567.926 502.651C572.353 512.539 574.411 523.25 574.322 534.061C573.88 544.76 571.314 555.166 566.928 564.233C562.206 572.469 555.779 578.544 548.041 581.424C540.068 582.739 530.914 580.491 520.975 574.507C510.971 567.573 501.224 558.631 492.14 548.95C482.989 539.905 474.354 530.719 466.5 521.872C458.37 513.872 450.772 505.797 444.008 497.631C436.795 489.795 430.333 481.366 425.198 472.448C419.764 463.555 416.425 454.99 415.192 447.294C414.661 436.686 424.996 424.32 435.308 423.965C442.896 424.821 452.111 427.704 462.579 432.494C473 436.571 483.609 441.512 493.901 446.805C504.125 450.974 514.124 455.694 523.446 460.968C532.805 465.501 541.551 471.116 549.189 477.961C556.819 484.558 563.265 492.782 567.926 502.651Z" stroke="url(#paint22_linear_1141_1154)" stroke-opacity="0.6" stroke-width="2" stroke-linecap="round"/>
<path opacity="0.71" d="M549.707 515.708C552.622 523.451 553.777 531.229 553.38 538.572C551.735 549.028 541.372 563.594 533.327 565.791C527.614 565.705 521.053 563.26 513.902 558.334C506.766 552.887 499.706 545.936 493.034 538.254C486.3 530.756 479.85 522.844 473.927 515.011C467.838 507.527 462.166 500.005 457.227 492.679C452.054 485.507 447.59 478.304 444.234 471.314C442.666 446.798 462.314 443.483 473.125 449.14C480.659 452.989 488.419 457.68 496.003 462.796C503.589 467.327 511.032 472.39 517.943 477.829C524.87 482.845 531.269 488.528 536.741 494.819C542.191 500.959 546.653 507.956 549.707 515.708Z" stroke="url(#paint23_linear_1141_1154)" stroke-opacity="0.6" stroke-width="2" stroke-linecap="round"/>
<path opacity="0.17" d="M530.493 520.498C533.132 535.524 519.763 548.728 506.884 541.528C497.807 533.822 488.71 522.494 481.083 510.836C473.179 499.53 466.444 487.877 462.759 478.082C458.857 465.144 469.482 459.127 482.512 466.92C492.083 472.844 502.283 481.468 511.034 490.837C519.788 499.544 526.992 509.879 530.493 520.498Z" stroke="url(#paint24_linear_1141_1154)" stroke-opacity="0.6" stroke-width="2" stroke-linecap="round"/>
<defs>
<linearGradient id="paint0_linear_1141_1154" x1="511.582" y1="21.9927" x2="511.582" y2="989.007" gradientUnits="userSpaceOnUse">
<stop stop-color="#2CA0E2"/>
<stop offset="1" stop-color="#F268D4"/>
</linearGradient>
<linearGradient id="paint1_linear_1141_1154" x1="541.754" y1="41.9984" x2="478.276" y2="970.464" gradientUnits="userSpaceOnUse">
<stop stop-color="#2CA0E2"/>
<stop offset="1" stop-color="#F268D4"/>
</linearGradient>
<linearGradient id="paint2_linear_1141_1154" x1="569.215" y1="63.8623" x2="447.519" y2="949.764" gradientUnits="userSpaceOnUse">
<stop stop-color="#2CA0E2"/>
<stop offset="1" stop-color="#F268D4"/>
</linearGradient>
<linearGradient id="paint3_linear_1141_1154" x1="593.768" y1="87.748" x2="419.458" y2="927.157" gradientUnits="userSpaceOnUse">
<stop stop-color="#2CA0E2"/>
<stop offset="1" stop-color="#F268D4"/>
</linearGradient>
<linearGradient id="paint4_linear_1141_1154" x1="614.13" y1="111.626" x2="392.736" y2="902.495" gradientUnits="userSpaceOnUse">
<stop stop-color="#2CA0E2"/>
<stop offset="1" stop-color="#F268D4"/>
</linearGradient>
<linearGradient id="paint5_linear_1141_1154" x1="634.498" y1="137.839" x2="372.167" y2="876.816" gradientUnits="userSpaceOnUse">
<stop stop-color="#2CA0E2"/>
<stop offset="1" stop-color="#F268D4"/>
</linearGradient>
<linearGradient id="paint6_linear_1141_1154" x1="650.453" y1="164.377" x2="353.027" y2="850.135" gradientUnits="userSpaceOnUse">
<stop stop-color="#2CA0E2"/>
<stop offset="1" stop-color="#F268D4"/>
</linearGradient>
<linearGradient id="paint7_linear_1141_1154" x1="663.489" y1="191.36" x2="336.963" y2="822.717" gradientUnits="userSpaceOnUse">
<stop stop-color="#2CA0E2"/>
<stop offset="1" stop-color="#F268D4"/>
</linearGradient>
<linearGradient id="paint8_linear_1141_1154" x1="673.634" y1="218.523" x2="324.007" y2="794.841" gradientUnits="userSpaceOnUse">
<stop stop-color="#2CA0E2"/>
<stop offset="1" stop-color="#F268D4"/>
</linearGradient>
<linearGradient id="paint9_linear_1141_1154" x1="680.933" y1="245.594" x2="314.13" y2="766.804" gradientUnits="userSpaceOnUse">
<stop stop-color="#2CA0E2"/>
<stop offset="1" stop-color="#F268D4"/>
</linearGradient>
<linearGradient id="paint10_linear_1141_1154" x1="701.832" y1="332.648" x2="323.693" y2="799.2" gradientUnits="userSpaceOnUse">
<stop stop-color="#2CA0E2"/>
<stop offset="1" stop-color="#F268D4"/>
</linearGradient>
<linearGradient id="paint11_linear_1141_1154" x1="687.46" y1="298.591" x2="303.749" y2="711.381" gradientUnits="userSpaceOnUse">
<stop stop-color="#2CA0E2"/>
<stop offset="1" stop-color="#F268D4"/>
</linearGradient>
<linearGradient id="paint12_linear_1141_1154" x1="686.856" y1="324.063" x2="303.153" y2="684.517" gradientUnits="userSpaceOnUse">
<stop stop-color="#2CA0E2"/>
<stop offset="1" stop-color="#F268D4"/>
</linearGradient>
<linearGradient id="paint13_linear_1141_1154" x1="683.872" y1="348.614" x2="305.476" y2="658.708" gradientUnits="userSpaceOnUse">
<stop stop-color="#2CA0E2"/>
<stop offset="1" stop-color="#F268D4"/>
</linearGradient>
<linearGradient id="paint14_linear_1141_1154" x1="678.051" y1="372.38" x2="310.474" y2="634.207" gradientUnits="userSpaceOnUse">
<stop stop-color="#2CA0E2"/>
<stop offset="1" stop-color="#F268D4"/>
</linearGradient>
<linearGradient id="paint15_linear_1141_1154" x1="671.09" y1="393.988" x2="317.437" y2="611.51" gradientUnits="userSpaceOnUse">
<stop stop-color="#2CA0E2"/>
<stop offset="1" stop-color="#F268D4"/>
</linearGradient>
<linearGradient id="paint16_linear_1141_1154" x1="661.635" y1="414.536" x2="327.082" y2="590.406" gradientUnits="userSpaceOnUse">
<stop stop-color="#2CA0E2"/>
<stop offset="1" stop-color="#F268D4"/>
</linearGradient>
<linearGradient id="paint17_linear_1141_1154" x1="650.188" y1="433.226" x2="338.68" y2="571.069" gradientUnits="userSpaceOnUse">
<stop stop-color="#2CA0E2"/>
<stop offset="1" stop-color="#F268D4"/>
</linearGradient>
<linearGradient id="paint18_linear_1141_1154" x1="636.988" y1="449.901" x2="352.168" y2="553.633" gradientUnits="userSpaceOnUse">
<stop stop-color="#2CA0E2"/>
<stop offset="1" stop-color="#F268D4"/>
</linearGradient>
<linearGradient id="paint19_linear_1141_1154" x1="622.325" y1="464.494" x2="367.316" y2="538.372" gradientUnits="userSpaceOnUse">
<stop stop-color="#2CA0E2"/>
<stop offset="1" stop-color="#F268D4"/>
</linearGradient>
<linearGradient id="paint20_linear_1141_1154" x1="606.6" y1="477.853" x2="384.031" y2="526.397" gradientUnits="userSpaceOnUse">
<stop stop-color="#2CA0E2"/>
<stop offset="1" stop-color="#F268D4"/>
</linearGradient>
<linearGradient id="paint21_linear_1141_1154" x1="589.349" y1="487.488" x2="401.544" y2="515.398" gradientUnits="userSpaceOnUse">
<stop stop-color="#2CA0E2"/>
<stop offset="1" stop-color="#F268D4"/>
</linearGradient>
<linearGradient id="paint22_linear_1141_1154" x1="571.59" y1="496.194" x2="420.11" y2="508.39" gradientUnits="userSpaceOnUse">
<stop stop-color="#2CA0E2"/>
<stop offset="1" stop-color="#F268D4"/>
</linearGradient>
<linearGradient id="paint23_linear_1141_1154" x1="553.062" y1="505.541" x2="444.646" y2="506.968" gradientUnits="userSpaceOnUse">
<stop stop-color="#2CA0E2"/>
<stop offset="1" stop-color="#F268D4"/>
</linearGradient>
<linearGradient id="paint24_linear_1141_1154" x1="531.872" y1="505.638" x2="460.364" y2="501.771" gradientUnits="userSpaceOnUse">
<stop stop-color="#2CA0E2"/>
<stop offset="1" stop-color="#F268D4"/>
</linearGradient>
</defs>
</svg>
